<svg xmlns="http://www.w3.org/2000/svg" width="152.203" height="90.293" viewBox="0 0 152.203 90.293">
  <g id="Couple_bicycle-bro" data-name="Couple bicycle-bro" transform="translate(-6.945 -12.825)">
    <g id="freepik--background-simple--inject-20">
      <path id="Path_2505" data-name="Path 2505" d="M155.238,77.588c3.87-7.171,4.441-15.343,3.534-23.242-.8-7-2.017-15.038-5.416-21.362C144.76,16.966,123,9.45,105.336,14.265c-7.368,2.017-12.535,6.667-18.449,11.1-4.374,3.276-9.172,6.476-14.823,7.13C58.531,34.061,43.13,21.288,30.3,22.409S7.44,34.957,6.962,44.817s9.333,19.944,8.4,26.666-7,24.649,17.031,25.322,36.634-12.773,45.969-9.86,29.871,11.428,47.125,9.188c11.265-1.461,22.279-6.994,28.459-16.39Q154.649,78.681,155.238,77.588Z" fill="#efdfce"/>
      <path id="Path_2506" data-name="Path 2506" d="M155.238,77.588c3.87-7.171,4.441-15.343,3.534-23.242-.8-7-2.017-15.038-5.416-21.362C144.76,16.966,123,9.45,105.336,14.265c-7.368,2.017-12.535,6.667-18.449,11.1-4.374,3.276-9.172,6.476-14.823,7.13C58.531,34.061,43.13,21.288,30.3,22.409S7.44,34.957,6.962,44.817s9.333,19.944,8.4,26.666-7,24.649,17.031,25.322,36.634-12.773,45.969-9.86,29.871,11.428,47.125,9.188c11.265-1.461,22.279-6.994,28.459-16.39Q154.649,78.681,155.238,77.588Z" fill="#efdfce" opacity="0.8"/>
    </g>
    <g id="freepik--Clouds--inject-20">
      <path id="Path_2507" data-name="Path 2507" d="M135.877,23.426a2.14,2.14,0,0,1-.016-.246,4.414,4.414,0,0,0-2.413-4.152c-3.178-1.846-5.024,0-5.947,1.64s-2.357-1.026-4.612-.724-2.153,2.77-2.767,4.1-1.95-.41-3.691-.1a2.61,2.61,0,0,0-2.153,1.741c-.307.41-3.077-.614-4.614.206a6.4,6.4,0,0,0-2.357,2.357h33.613s.41-2.465-.921-3.384C138.815,24.042,136.106,25.367,135.877,23.426Z" fill="none" stroke="#263238" stroke-linecap="round" stroke-linejoin="round" stroke-width="0.224"/>
      <path id="Path_2508" data-name="Path 2508" d="M120.269,26.494a.757.757,0,0,0-.311.157c-.435.379-.435.65-.435.65" fill="none" stroke="#263238" stroke-linecap="round" stroke-linejoin="round" stroke-width="0.224"/>
      <path id="Path_2509" data-name="Path 2509" d="M127.7,23.3c-.3.654-.562,1.371-1.181,1.66-.881.412-1.705-.518-2.516-.728a1.176,1.176,0,0,0-1.291.394c-.365.419-.372,1.367-.854,1.636a2.185,2.185,0,0,1-.925.146" fill="none" stroke="#263238" stroke-linecap="round" stroke-linejoin="round" stroke-width="0.224"/>
      <path id="Path_2510" data-name="Path 2510" d="M137.7,26.337c-.022-.061-.049-.119-.076-.175-.648-1.291-2.176-.253-3.115-.614-.836-.323-.562-1.643-.672-2.333a2.985,2.985,0,0,0-3.2-2.147,4.076,4.076,0,0,0-2.476,1.439" fill="none" stroke="#263238" stroke-linecap="round" stroke-linejoin="round" stroke-width="0.224"/>
      <path id="Path_2511" data-name="Path 2511" d="M137.97,27.522a6.26,6.26,0,0,0-.112-.672" fill="none" stroke="#263238" stroke-linecap="round" stroke-linejoin="round" stroke-width="0.224"/>
      <path id="Path_2516" data-name="Path 2516" d="M62.744,13.221" fill="none" stroke="#263238" stroke-linecap="round" stroke-linejoin="round" stroke-width="0.224"/>
      <path id="Path_2517" data-name="Path 2517" d="M51.2,29.147c0-.085-.016-.177-.018-.273a4.946,4.946,0,0,0-2.689-4.645c-3.556-2.066-5.62,0-6.651,1.833s-2.638-1.145-5.154-.8-2.409,3.1-3.1,4.587-2.178-.459-4.128-.114a2.919,2.919,0,0,0-2.409,1.95c-.345.459-3.44-.688-5.154.224a7.176,7.176,0,0,0-2.637,2.637h37.59s.459-2.752-1.031-3.783C54.484,29.837,51.455,31.318,51.2,29.147Z" fill="none" stroke="#263238" stroke-linecap="round" stroke-linejoin="round" stroke-width="0.224"/>
      <path id="Path_2518" data-name="Path 2518" d="M33.738,32.58a.863.863,0,0,0-.347.175c-.486.426-.486.728-.486.728" fill="none" stroke="#263238" stroke-linecap="round" stroke-linejoin="round" stroke-width="0.224"/>
      <path id="Path_2519" data-name="Path 2519" d="M42.045,29.017c-.334.733-.627,1.537-1.32,1.86-.984.459-1.907-.58-2.815-.816a1.313,1.313,0,0,0-1.443.448c-.41.468-.417,1.528-.955,1.829a2.46,2.46,0,0,1-1.035.164" fill="none" stroke="#263238" stroke-linecap="round" stroke-linejoin="round" stroke-width="0.224"/>
      <path id="Path_2520" data-name="Path 2520" d="M53.241,32.405q-.04-.1-.087-.195c-.722-1.445-2.431-.285-3.482-.69-.934-.359-.627-1.835-.753-2.606a3.335,3.335,0,0,0-3.585-2.4,4.562,4.562,0,0,0-2.77,1.611" fill="none" stroke="#263238" stroke-linecap="round" stroke-linejoin="round" stroke-width="0.224"/>
      <path id="Path_2521" data-name="Path 2521" d="M53.539,33.729a6.428,6.428,0,0,0-.125-.764" fill="none" stroke="#263238" stroke-linecap="round" stroke-linejoin="round" stroke-width="0.224"/>
    </g>
    <g id="freepik--Plants--inject-20">
      <path id="Path_2555" data-name="Path 2555" d="M16.293,94.827a5.134,5.134,0,0,0,1.365-.65s-.562-.473-.6-.5c-.448-.294-1.513-.589-1.981-.2a.719.719,0,0,0-.016,1.069A1.5,1.5,0,0,0,16.293,94.827Z" fill="#263238"/>
      <path id="Path_2556" data-name="Path 2556" d="M25,90.394s-.208-.706-.224-.748c-.224-.5-.937-1.324-1.539-1.262a.719.719,0,0,0-.6.883,1.506,1.506,0,0,0,.872.917A5.181,5.181,0,0,0,25,90.394Z" fill="#263238"/>
      <path id="Path_2557" data-name="Path 2557" d="M26.142,102.28c.208.258.4.5.567.726h.428c-.224-.278-.466-.589-.751-.928-.164-.195-.345-.4-.531-.614a6.529,6.529,0,0,0,.473-.652,4.551,4.551,0,0,0,1.264.087c.029.251.056.5.076.728.049.522.078.986.1,1.378h.347c-.029-.4-.069-.876-.132-1.412-.027-.255-.063-.527-.1-.807a4.325,4.325,0,0,0,1.192-.538,1.269,1.269,0,0,0,.511-.988.632.632,0,0,0-.726-.6c-.524.094-.925.97-.988,1.443v.529c-.016-.114-.031-.224-.049-.343-.036-.224-.078-.462-.123-.71-.025-.119-.052-.238-.076-.361s-.065-.244-.1-.37c-.078-.285-.173-.571-.273-.858a4.112,4.112,0,0,0,1.224-.347,1.325,1.325,0,0,0,.654-.9.634.634,0,0,0-.627-.7c-.533.016-1.062.82-1.2,1.277,0,.029-.067.368-.1.553-.061-.17-.123-.343-.19-.513-.2-.5-.412-.993-.625-1.486l-.193-.448a4.066,4.066,0,0,0,1.266-.354,1.318,1.318,0,0,0,.657-.9.634.634,0,0,0-.627-.7c-.533.016-1.062.82-1.2,1.277,0,.034-.094.522-.11.648-.141-.334-.278-.672-.4-1a11.37,11.37,0,0,1-.41-1.383,4.269,4.269,0,0,0,1.275-.356,1.314,1.314,0,0,0,.654-.9.634.634,0,0,0-.627-.7c-.533.016-1.06.82-1.194,1.277,0,.029-.074.4-.1.578h-.031a8,8,0,0,1-.152-1.443v-.771a4.053,4.053,0,0,0,1.275-.211,1.309,1.309,0,0,0,.748-.82.634.634,0,0,0-.547-.766c-.531-.043-1.145.7-1.329,1.138,0,.025-.083.278-.134.464a1.662,1.662,0,0,1,.022-.334c.034-.4.087-.769.141-1.094.029-.184.061-.35.092-.5A4.208,4.208,0,0,0,26.5,87.81a1.3,1.3,0,0,0,.287-1.073.63.63,0,0,0-.836-.428c-.493.206-.695,1.147-.657,1.622,0,.04.132.672.141.672h0q-.052.224-.1.484c-.058.323-.121.688-.164,1.091a10.823,10.823,0,0,0-.076,1.306,8.089,8.089,0,0,0,.123,1.461.043.043,0,0,0,0,.016c-.074-.139-.289-.518-.309-.545-.282-.385-1.051-.964-1.569-.8a.634.634,0,0,0-.352.872,1.328,1.328,0,0,0,.921.623,4.433,4.433,0,0,0,1.313-.1,10.926,10.926,0,0,0,.39,1.441c.092.273.195.547.3.82l-.137-.235c-.282-.385-1.051-.961-1.569-.8a.634.634,0,0,0-.354.872,1.322,1.322,0,0,0,.921.623,4.205,4.205,0,0,0,1.275-.09c.043.1.083.208.125.314.2.5.406,1,.589,1.492.065.175.123.35.182.522-.058-.1-.11-.19-.119-.2-.282-.385-1.051-.961-1.569-.8a.634.634,0,0,0-.354.872,1.321,1.321,0,0,0,.921.623,3.955,3.955,0,0,0,1.241-.083c.054.179.11.359.155.536.027.123.063.238.083.361s.047.242.069.363c.036.224.074.471.105.7.02.157.038.307.056.459-.063-.175-.193-.513-.206-.54a2.465,2.465,0,0,0-.863-.9.8.8,0,0,0-.076-.117.63.63,0,0,0-.934-.1c-.385.37-.238,1.32-.029,1.748.013.027.177.287.282.448-.076-.085-.15-.17-.224-.258-.157-.175-.318-.343-.493-.524l-.262-.258c-.087-.09-.188-.17-.285-.258-.224-.195-.448-.381-.7-.565a4.436,4.436,0,0,0,.827-.964,1.318,1.318,0,0,0,.052-1.109.63.63,0,0,0-.91-.238c-.448.3-.432,1.268-.291,1.723,0,.029.146.343.224.515-.146-.11-.291-.224-.448-.323-.448-.3-.9-.6-1.345-.9-.139-.09-.276-.182-.412-.273a4.3,4.3,0,0,0,.86-.993,1.361,1.361,0,0,0,.052-1.109.632.632,0,0,0-.91-.24c-.448.307-.432,1.271-.294,1.725,0,.034.211.489.267.6-.3-.2-.6-.406-.9-.618a10.667,10.667,0,0,1-1.046-.937,4.461,4.461,0,0,0,.865-1,1.386,1.386,0,0,0,.052-1.12.634.634,0,0,0-.91-.238c-.448.307-.432,1.268-.294,1.723,0,.031.161.376.238.54l-.025.018a8.1,8.1,0,0,1-.925-1.12c-.155-.224-.289-.437-.415-.65A4.242,4.242,0,0,0,19,93.632a1.293,1.293,0,0,0,.173-1.1A.632.632,0,0,0,18.3,92.2c-.466.258-.569,1.215-.48,1.683,0,.025.083.278.143.462-.056-.1-.117-.2-.166-.291-.195-.354-.35-.69-.486-.988-.076-.17-.141-.327-.2-.473a4.252,4.252,0,0,0,.43-1.212,1.306,1.306,0,0,0-.352-1.053.632.632,0,0,0-.934.108c-.3.448.054,1.345.35,1.712.025.034.482.493.486.484h0c.056.141.114.294.184.448.13.3.278.643.464,1a11.094,11.094,0,0,0,.663,1.159,8.291,8.291,0,0,0,.9,1.15l.013.011c-.137-.074-.529-.271-.56-.282-.448-.166-1.407-.224-1.737.195a.632.632,0,0,0,.186.921,1.3,1.3,0,0,0,1.12,0,4.349,4.349,0,0,0,1.04-.8,11.363,11.363,0,0,0,1.12.986q.347.267.706.518c-.121-.061-.224-.114-.246-.119-.448-.166-1.407-.224-1.737.195a.632.632,0,0,0,.186.921,1.3,1.3,0,0,0,1.12,0,4.428,4.428,0,0,0,1.015-.778l.276.193c.448.3.9.61,1.315.919.152.11.3.224.448.336l-.224-.1c-.448-.166-1.407-.224-1.739.195a.632.632,0,0,0,.188.921,1.339,1.339,0,0,0,1.12.011,3.8,3.8,0,0,0,.99-.753c.143.119.289.24.424.363.09.085.184.161.269.253l.258.264c.159.173.323.352.473.524l.3.352c-.148-.112-.448-.323-.471-.336-.417-.224-1.358-.435-1.748-.069a.632.632,0,0,0,.047.939,1.318,1.318,0,0,0,1.1.179,4.686,4.686,0,0,0,1.145-.634C25.839,101.908,25.994,102.1,26.142,102.28Z" fill="#263238"/>
      <path id="Path_2558" data-name="Path 2558" d="M153.528,95.125a5.171,5.171,0,0,1-1.365-.65s.562-.473.6-.5c.448-.294,1.51-.589,1.979-.2a.717.717,0,0,1,.016,1.069A1.5,1.5,0,0,1,153.528,95.125Z" fill="#263238"/>
      <path id="Path_2559" data-name="Path 2559" d="M145.029,90.692c-.011,0,.208-.706.224-.748.224-.5.937-1.324,1.539-1.262a.719.719,0,0,1,.6.883,1.5,1.5,0,0,1-.872.917A5.146,5.146,0,0,1,145.029,90.692Z" fill="#263238"/>
      <path id="Path_2560" data-name="Path 2560" d="M144.047,102.264c-.208.258-.4.5-.565.724h-.428c.224-.276.466-.587.748-.925.166-.2.345-.4.531-.614a7.271,7.271,0,0,1-.473-.652,4.732,4.732,0,0,1-1.264.087c-.029.251-.056.5-.076.728-.049.522-.078.986-.1,1.376h-.352c.029-.4.069-.874.132-1.41.029-.255.063-.527.1-.807a4.346,4.346,0,0,1-1.192-.54,1.265,1.265,0,0,1-.511-.986.63.63,0,0,1,.726-.6c.524.094.925.97.988,1.443v.527c.018-.112.031-.224.052-.341.034-.224.076-.462.121-.71.025-.119.052-.24.076-.361s.065-.244.1-.37c.078-.287.173-.571.273-.858a4.131,4.131,0,0,1-1.224-.347,1.318,1.318,0,0,1-.654-.9.632.632,0,0,1,.627-.7c.533.013,1.062.82,1.2,1.277,0,.027.067.368.1.553.063-.173.123-.343.19-.515.2-.5.412-.99.625-1.486.065-.15.128-.3.193-.448a4.066,4.066,0,0,1-1.266-.354,1.314,1.314,0,0,1-.654-.9.632.632,0,0,1,.625-.7c.536.016,1.062.82,1.2,1.277.011.034.094.522.11.648.141-.334.278-.672.4-1a11.4,11.4,0,0,0,.41-1.385,4.316,4.316,0,0,1-1.275-.354,1.327,1.327,0,0,1-.654-.9.632.632,0,0,1,.627-.7c.533.013,1.062.82,1.194,1.277,0,.029.074.4.1.578h.031a8.169,8.169,0,0,0,.155-1.441c0-.267,0-.522-.013-.771a4.053,4.053,0,0,1-1.275-.211,1.309,1.309,0,0,1-.748-.82.634.634,0,0,1,.547-.766c.531-.045,1.145.7,1.329,1.138,0,.022.083.278.137.464,0-.112-.013-.224-.022-.334-.034-.4-.09-.769-.141-1.094-.031-.184-.063-.35-.094-.5a4.224,4.224,0,0,1-1.029-.773,1.3,1.3,0,0,1-.287-1.071.632.632,0,0,1,.838-.428c.491.206.695,1.147.654,1.622,0,.04-.132.672-.139.672h0c.034.148.067.307.1.482.058.325.123.69.166,1.094a11.3,11.3,0,0,1,.074,1.306,8.083,8.083,0,0,1-.123,1.459.054.054,0,0,1,0,.018c.074-.139.291-.518.311-.545.28-.385,1.051-.964,1.569-.8a.632.632,0,0,1,.352.872,1.319,1.319,0,0,1-.921.621,4.357,4.357,0,0,1-1.311-.1,11.165,11.165,0,0,1-.392,1.439c-.092.276-.195.549-.3.822l.137-.235c.282-.385,1.051-.964,1.569-.8a.634.634,0,0,1,.352.872,1.322,1.322,0,0,1-.921.623,4.278,4.278,0,0,1-1.275-.09c-.043.1-.083.208-.125.311-.2.5-.406,1-.589,1.495-.065.175-.123.347-.182.522.058-.105.11-.193.119-.2.282-.385,1.051-.964,1.569-.8a.634.634,0,0,1,.352.872,1.322,1.322,0,0,1-.921.623,3.885,3.885,0,0,1-1.241-.085c-.054.182-.108.361-.152.538-.029.121-.063.238-.085.361s-.047.242-.069.361c-.036.224-.074.471-.1.7-.022.157-.04.307-.058.459.063-.175.193-.513.206-.54a2.465,2.465,0,0,1,.865-.9.656.656,0,0,1,.074-.119.63.63,0,0,1,.934-.1c.385.368.238,1.32.029,1.748-.013.025-.177.285-.282.448.076-.087.15-.17.224-.258.157-.175.318-.343.493-.527l.264-.258c.085-.087.188-.168.282-.255.224-.195.448-.381.7-.565a4.151,4.151,0,0,1-.827-.964,1.386,1.386,0,0,1-.052-1.12.632.632,0,0,1,.91-.24c.448.307.432,1.268.294,1.725,0,.027-.148.343-.224.515.146-.11.291-.224.448-.325.448-.3.9-.6,1.345-.9l.41-.273a4.461,4.461,0,0,1-.861-.993,1.386,1.386,0,0,1-.052-1.12.634.634,0,0,1,.91-.238c.437.307.432,1.268.294,1.725,0,.034-.211.486-.267.6.3-.2.6-.406.9-.618a11.241,11.241,0,0,0,1.064-.9,4.372,4.372,0,0,1-.867-1,1.318,1.318,0,0,1-.052-1.109.63.63,0,0,1,.91-.238c.448.3.432,1.268.294,1.723,0,.031-.161.376-.238.54l.027.016a8.245,8.245,0,0,0,.923-1.12c.155-.224.289-.435.415-.648a4.242,4.242,0,0,1-.946-.881,1.3,1.3,0,0,1-.173-1.1.634.634,0,0,1,.878-.336c.468.258.569,1.215.48,1.683,0,.025-.083.278-.141.462.054-.1.114-.2.166-.291.193-.354.35-.69.484-.988.076-.173.141-.327.2-.473a4.252,4.252,0,0,1-.43-1.212A1.311,1.311,0,0,1,153,90.334a.632.632,0,0,1,.934.105c.3.448-.054,1.345-.35,1.714-.025.034-.482.493-.486.484v-.011c-.054.143-.114.294-.184.459-.128.3-.278.643-.464,1a11.094,11.094,0,0,1-.659,1.132,8.291,8.291,0,0,1-.9,1.15l-.013.011c.137-.074.529-.271.56-.285.448-.166,1.407-.224,1.737.2a.632.632,0,0,1-.186.921,1.339,1.339,0,0,1-1.12.011,4.349,4.349,0,0,1-1.04-.8,11.346,11.346,0,0,1-1.12.984c-.224.179-.466.352-.706.52l.246-.121c.448-.166,1.407-.224,1.737.2a.632.632,0,0,1-.186.921,1.339,1.339,0,0,1-1.12.011,4.076,4.076,0,0,1-1.013-.778c-.094.063-.184.128-.278.193-.448.3-.9.607-1.315.919-.15.11-.3.224-.448.336l.211-.105c.448-.166,1.41-.224,1.739.2a.632.632,0,0,1-.188.921,1.339,1.339,0,0,1-1.12.011,3.8,3.8,0,0,1-.988-.753c-.146.119-.291.24-.426.363-.09.085-.184.161-.269.253l-.258.262c-.157.175-.323.352-.471.527-.105.119-.2.235-.3.352.148-.112.448-.323.471-.336.417-.224,1.358-.435,1.748-.069a.632.632,0,0,1-.045.939,1.332,1.332,0,0,1-1.1.179,4.3,4.3,0,0,1-1.143-.634C144.35,101.892,144.193,102.083,144.047,102.264Z" fill="#263238"/>
    </g>
    <g id="freepik--character-2--inject-20">
      <path id="Path_2561" data-name="Path 2561" d="M107.337,76.355l2.017,1.941a18.15,18.15,0,0,0-2.241,2.989c-.9,1.569-4.856,7.843-5.154,8.663s.448.973,1.046,1.2,3.361,1.492,4.406,1.492,1.421.15,1.421-.448-2.093-1.717-2.317-2.091-1.12-2.091-1.12-2.091,7.247-7.395,7.769-8.217,1.345-3.063,1.12-3.585-4.258-2.763-4.258-2.763Z" fill="#d4d4d4" stroke="#263238" stroke-linecap="round" stroke-linejoin="round" stroke-width="0.224"/>
      <path id="Path_2562" data-name="Path 2562" d="M104.8,89.128l-1.97-.769a16.245,16.245,0,0,0-.869,1.589c-.3.822.448.973,1.046,1.2s3.361,1.492,4.406,1.492,1.421.15,1.421-.448-2.093-1.717-2.317-2.091-1.12-2.091-1.12-2.091l-.448.6Z" fill="#cb955b" stroke="#263238" stroke-linecap="round" stroke-linejoin="round" stroke-width="0.224"/>
      <path id="Path_2563" data-name="Path 2563" d="M108.747,92.523a19.331,19.331,0,0,1-3.724-1.3c-.995-.426-2.227-1.031-3-1.418-.027.058-.052.112-.065.148-.3.822.448.973,1.046,1.2s3.361,1.492,4.406,1.492C108.182,92.637,108.586,92.718,108.747,92.523Z" fill="#fff" stroke="#263238" stroke-linecap="round" stroke-linejoin="round" stroke-width="0.224"/>
      <path id="Path_2564" data-name="Path 2564" d="M97.7,70.453s3.211,2.465,5.452,4.258,4.034,3.213,4.034,3.213a25.54,25.54,0,0,0,3.137-2.689,7.624,7.624,0,0,1,1.719-1.495l-11.428-5S98.076,68.212,97.7,70.453Z" fill="#d4d4d4" stroke="#263238" stroke-linecap="round" stroke-linejoin="round" stroke-width="0.224"/>
      <circle id="Ellipse_95" data-name="Ellipse 95" cx="10.906" cy="10.906" r="10.906" transform="translate(80.297 81.193)" fill="#263238" stroke="#263238" stroke-linecap="round" stroke-linejoin="round" stroke-width="0.224"/>
      <circle id="Ellipse_96" data-name="Ellipse 96" cx="9.71" cy="9.71" r="9.71" transform="translate(81.493 82.39)" fill="#fff" stroke="#263238" stroke-linecap="round" stroke-linejoin="round" stroke-width="0.224"/>
      <circle id="Ellipse_97" data-name="Ellipse 97" cx="9.261" cy="9.261" r="9.261" transform="translate(81.942 82.838)" fill="#fff" stroke="#263238" stroke-linecap="round" stroke-linejoin="round" stroke-width="0.224"/>
      <circle id="Ellipse_98" data-name="Ellipse 98" cx="10.906" cy="10.906" r="10.906" transform="translate(119.886 81.193)" fill="#263238" stroke="#263238" stroke-linecap="round" stroke-linejoin="round" stroke-width="0.224"/>
      <circle id="Ellipse_99" data-name="Ellipse 99" cx="9.71" cy="9.71" r="9.71" transform="translate(121.083 82.39)" fill="#fff" stroke="#263238" stroke-linecap="round" stroke-linejoin="round" stroke-width="0.224"/>
      <circle id="Ellipse_100" data-name="Ellipse 100" cx="9.261" cy="9.261" r="9.261" transform="translate(121.531 82.838)" fill="#fff" stroke="#263238" stroke-linecap="round" stroke-linejoin="round" stroke-width="0.224"/>
      <circle id="Ellipse_101" data-name="Ellipse 101" cx="1.345" cy="1.345" r="1.345" transform="translate(129.571 90.755)" fill="none" stroke="#263238" stroke-linecap="round" stroke-linejoin="round" stroke-width="0.224"/>
      <line id="Line_102" data-name="Line 102" x2="7.491" y2="20.966" transform="translate(99.024 72.18)" fill="none" stroke="#263238" stroke-linecap="round" stroke-width="0.896"/>
      <path id="Path_2565" data-name="Path 2565" d="M131.149,92.581c-2.615-2.759-9.275-20.912-10.407-24.027a.641.641,0,0,1,.224-.739l2.55-1.862" fill="none" stroke="#263238" stroke-linecap="round" stroke-width="0.896"/>
      <path id="Path_2566" data-name="Path 2566" d="M91.486,91.627s5.087-15.816,30.682-18.519" fill="none" stroke="#263238" stroke-linecap="round" stroke-width="0.896"/>
      <path id="Path_2567" data-name="Path 2567" d="M110.251,92.74a12.179,12.179,0,0,0,6.915-5.483c2.781-4.529,5.008-8.665,6.915-9.7" fill="none" stroke="#263238" stroke-linecap="round" stroke-width="0.896"/>
      <path id="Path_2568" data-name="Path 2568" d="M95.268,69.651s-.076,1.992.459,2.606,3.984.69,5.6.459,2.3-.843,2.145-1.3-2.689-2.071-4.444-2.223S95.344,68.96,95.268,69.651Z" fill="#fff" stroke="#263238" stroke-linecap="round" stroke-linejoin="round" stroke-width="0.224"/>
      <path id="Path_2569" data-name="Path 2569" d="M121.134,62.932s5.961.8,7.153,5.167-2.783,6.438-5.246,6.438" fill="none" stroke="#263238" stroke-linecap="round" stroke-linejoin="round" stroke-width="0.224"/>
      <path id="Path_2570" data-name="Path 2570" d="M125.347,61.5s5.324,4.769,4.213,8.186-7.632,2.624-7.791,2.387" fill="none" stroke="#263238" stroke-linecap="round" stroke-linejoin="round" stroke-width="0.224"/>
      <path id="Path_2571" data-name="Path 2571" d="M109.424,67.623c.775-.374,2.732.54,3.5.784a28.506,28.506,0,0,1,3.971,1.569c.468.224,2.165.713,2.165,1.385,0,.6-4.482,15.986-4.482,15.986a27.485,27.485,0,0,0,2.689,1.12,19.014,19.014,0,0,1,2.689.672c.148.224-.372.97-1.12,1.268a55.725,55.725,0,0,1-6.8.748c-.6,0-.822.224-.6-.748s.448-4.63.448-4.63.374-5.091.374-6.362a49.941,49.941,0,0,1,.9-5.526l-5-.15a46.162,46.162,0,0,1,.724-4.766,3.335,3.335,0,0,1,.309-1.163A.672.672,0,0,1,109.424,67.623Z" fill="#fff" stroke="#263238" stroke-linecap="round" stroke-linejoin="round" stroke-width="0.224"/>
      <path id="Path_2572" data-name="Path 2572" d="M95.087,64.777a11.132,11.132,0,0,0-.224,4.332c.448,1.569,3.585,1.869,3.585,1.869l10.608,4.406,1.643-7.991-5.658-1.849S95.163,64.4,95.087,64.777Z" fill="#fff" stroke="#263238" stroke-linecap="round" stroke-linejoin="round" stroke-width="0.224"/>
      <line id="Line_103" data-name="Line 103" x2="0.892" y2="0.376" transform="translate(107.707 71.118)" fill="none" stroke="#263238" stroke-linecap="round" stroke-linejoin="round" stroke-width="0.224"/>
      <line id="Line_104" data-name="Line 104" x2="5.367" y2="2.274" transform="translate(101.386 68.438)" fill="none" stroke="#263238" stroke-linecap="round" stroke-linejoin="round" stroke-width="0.224"/>
      <path id="Path_2573" data-name="Path 2573" d="M98.6,65.232s-1.793,1.492-1.266,1.64,1.64-1.49,1.64-.672-.448,1.714-.15,1.793a2.236,2.236,0,0,0,.97-.224l.981.415" fill="none" stroke="#263238" stroke-linecap="round" stroke-linejoin="round" stroke-width="0.224"/>
      <path id="Path_2574" data-name="Path 2574" d="M114.582,87.335s.047-.157.125-.432a.858.858,0,0,0-.125.432Z" fill="none" stroke="#263238" stroke-linecap="round" stroke-linejoin="round" stroke-width="0.224"/>
      <path id="Path_2575" data-name="Path 2575" d="M117.271,88.456a27.489,27.489,0,0,1-2.689-1.12c-.074.82-.074,1.268-.074,1.268l-2.848.166a14.972,14.972,0,0,1-.224,1.627c-.224.973,0,.748.6.748a55.239,55.239,0,0,0,6.8-.748c.746-.3,1.271-1.044,1.12-1.268A18.883,18.883,0,0,0,117.271,88.456Z" fill="#cb955b" stroke="#263238" stroke-linecap="round" stroke-linejoin="round" stroke-width="0.224"/>
      <path id="Path_2576" data-name="Path 2576" d="M112.043,91.145a55.24,55.24,0,0,0,6.8-.748,1.88,1.88,0,0,0,1.143-1.143c-2.416,1.143-8.538,1.143-8.538,1.143C111.221,91.369,111.445,91.145,112.043,91.145Z" fill="#fff" stroke="#263238" stroke-linecap="round" stroke-linejoin="round" stroke-width="0.224"/>
      <path id="Path_2577" data-name="Path 2577" d="M108.98,90.157l-18.6.6-.224,2.017,18.375,3.511Z" fill="#fff" stroke="#263238" stroke-linecap="round" stroke-linejoin="round" stroke-width="0.224"/>
      <circle id="Ellipse_102" data-name="Ellipse 102" cx="3.063" cy="3.063" r="3.063" transform="translate(105.469 90.157)" fill="#fff" stroke="#263238" stroke-linecap="round" stroke-linejoin="round" stroke-width="0.224"/>
      <path id="Path_2578" data-name="Path 2578" d="M114.138,91.707l-5.255,1.19a.636.636,0,0,0-.448.84h0a.634.634,0,0,0,.816.37l5.766-2.162Z" fill="#fff" stroke="#263238" stroke-linecap="round" stroke-width="0.224"/>
      <rect id="Rectangle_236" data-name="Rectangle 236" width="3.525" height="1.226" transform="translate(113.43 91.033)" fill="#fff" stroke="#263238" stroke-linecap="round" stroke-width="0.224"/>
      <circle id="Ellipse_103" data-name="Ellipse 103" cx="1.943" cy="1.943" r="1.943" transform="translate(89.26 90.157)" fill="#fff" stroke="#263238" stroke-linecap="round" stroke-linejoin="round" stroke-width="0.224"/>
      <path id="Path_2579" data-name="Path 2579" d="M111.676,58.164l5.154,2.225a10.629,10.629,0,0,1,2.624.8,4.482,4.482,0,0,1,.556,1.033c.078.24-.477.24-.477.24s.636.874.4,1.12-.477.318-.636,0a1.188,1.188,0,0,0-.477-.477l-1.51-.475-.874-1.12s-7.314-.715-7.948-.955-3.021-3.655-3.021-3.655l1.2-1.434Z" fill="#d4d4d4" stroke="#263238" stroke-linecap="round" stroke-linejoin="round" stroke-width="0.224"/>
      <path id="Path_2580" data-name="Path 2580" d="M102.688,45.375a3.7,3.7,0,0,0-2.521.672,9.715,9.715,0,0,0-3.641,4.986,40.516,40.516,0,0,0-.784,7.9c0,1.625-.952,3.922-.952,4.874s.168,1.4.672,1.4a31.8,31.8,0,0,1,5.49.336c1.9.392,3.473.5,4.09,0s.448-3.529.448-3.922,1.849-5.21,2.3-7.393a15.918,15.918,0,0,0-.952-7.059c-.448-.9-2.857-1.851-3.081-1.851S102.688,45.375,102.688,45.375Z" fill="#cb955b" stroke="#263238" stroke-linecap="round" stroke-linejoin="round" stroke-width="0.224"/>
      <line id="Line_105" data-name="Line 105" x1="0.744" y2="0.437" transform="translate(96.969 55.264)" fill="none" stroke="#263238" stroke-linecap="round" stroke-linejoin="round" stroke-width="0.224"/>
      <path id="Path_2581" data-name="Path 2581" d="M97.128,53.873,101.581,53,98.607,54.74" fill="none" stroke="#263238" stroke-linecap="round" stroke-linejoin="round" stroke-width="0.224"/>
      <path id="Path_2582" data-name="Path 2582" d="M102.464,42.854l-.336,2.745s1.849,2.017,2.409,2.521a5.575,5.575,0,0,0,1.793.84V47l.84-3.975S103.7,43.921,102.464,42.854Z" fill="#fff" stroke="#263238" stroke-linecap="round" stroke-linejoin="round" stroke-width="0.224"/>
      <path id="Path_2583" data-name="Path 2583" d="M101.177,38.458s-.966-.211-.966.964a2.3,2.3,0,0,0,.755,1.764s.589.294.84-.251a11.342,11.342,0,0,0,.336,2.223,4.454,4.454,0,0,0,3.148,1.721c1.6.083,2.308-1.678,2.476-2.308s.419-1.51.419-1.51.251.376.8-.168a1.852,1.852,0,0,0,.63-2.057.923.923,0,0,0-1.091-.587V36.275a1.777,1.777,0,0,0-1.217-1.846,5.419,5.419,0,0,0-5.206,1.217c-1.217,1.385-1.091,1.972-1.091,1.972Z" fill="#fff" stroke="#263238" stroke-linecap="round" stroke-linejoin="round" stroke-width="0.224"/>
      <path id="Path_2584" data-name="Path 2584" d="M104.913,40.806a6.136,6.136,0,0,0-2.057.128c-.421.253-.336,2.391,0,3.106A3.412,3.412,0,0,0,105.5,45.3c.8-.04,1.427-1.051,1.553-1.681a7.1,7.1,0,0,0,0-2.689A12.966,12.966,0,0,0,104.913,40.806Z" fill="#263238" stroke="#263238" stroke-linecap="round" stroke-linejoin="round" stroke-width="0.224"/>
      <path id="Path_2585" data-name="Path 2585" d="M105.46,37.911l-.043,2.855-1.008-.421" fill="none" stroke="#263238" stroke-linecap="round" stroke-linejoin="round" stroke-width="0.224"/>
      <path id="Path_2586" data-name="Path 2586" d="M103.485,41.4a2.96,2.96,0,0,0,2.017.294s-.8.755-1.174.8S103.485,41.4,103.485,41.4Z" fill="#fff"/>
      <path id="Path_2587" data-name="Path 2587" d="M103.528,38.5c0,.224-.094.421-.211.421s-.208-.188-.208-.421.094-.419.208-.419S103.528,38.267,103.528,38.5Z" fill="#263238"/>
      <path id="Path_2588" data-name="Path 2588" d="M106.34,38.5c0,.224-.094.421-.211.421s-.208-.188-.208-.421.094-.419.208-.419S106.34,38.267,106.34,38.5Z" fill="#263238"/>
      <path id="Path_2589" data-name="Path 2589" d="M102.437,37.7a1.511,1.511,0,0,1,1.846-.083" fill="none" stroke="#263238" stroke-linecap="round" stroke-linejoin="round" stroke-width="0.224"/>
      <path id="Path_2590" data-name="Path 2590" d="M105.711,37.324a1.358,1.358,0,0,1,1.553.419" fill="none" stroke="#263238" stroke-linecap="round" stroke-linejoin="round" stroke-width="0.224"/>
      <path id="Path_2591" data-name="Path 2591" d="M103.774,35.547s-.766,1.3.224,1.228a10.731,10.731,0,0,0,3.137-1.533s.307,1.454.612,1.685.538.383.538.383l-.076,2.53s.383.224.383-.921a39.257,39.257,0,0,0,.224-4.674c-.159-1.685-2.913-3.449-4.06-3.679s-1.3,1-1.3,1-2.452.459-1.992,1.226.224.69.224.69-1.687-.152-1.533,1.457a17.044,17.044,0,0,0,.811,3.458s.224,1.533.612,1.533.047-.9.047-1.12a9.836,9.836,0,0,0-.32-1.264Z" fill="#263238" stroke="#263238" stroke-linecap="round" stroke-linejoin="round" stroke-width="0.224"/>
      <path id="Path_2592" data-name="Path 2592" d="M119.066,62.3a2.307,2.307,0,0,1,1.591.475c.558.556.874,2.227,1.748,2.942s1.829.159,2.543-.8.316-3.5.092-3.966-4.293.318-4.293.318" fill="none" stroke="#263238" stroke-linecap="round" stroke-width="0.896"/>
      <path id="Path_2593" data-name="Path 2593" d="M98.972,52.078s7.245,5.678,8.067,5.9,13.221,2.091,13.221,2.091a1.137,1.137,0,0,0,.746.822,5.652,5.652,0,0,0,1.194.148s-.074.748.3.748,1.716.224,1.941,0a3.1,3.1,0,0,0,.224-1.869c-.15-.374-4.332-1.268-4.332-1.268l-10.83-4.11s-5.23-6.5-6.5-7.395-3.213.524-3.213.524" fill="#fff" stroke="#263238" stroke-linecap="round" stroke-linejoin="round" stroke-width="0.224"/>
      <path id="Path_2594" data-name="Path 2594" d="M98.972,52.078s2.2,1.725,4.314,3.31l4.336-3.137a48.67,48.67,0,0,0-4.616-5.1c-1.271-.9-3.213.524-3.213.524" fill="#cb955b" stroke="#263238" stroke-linecap="round" stroke-linejoin="round" stroke-width="0.224"/>
      <line id="Line_106" data-name="Line 106" y2="1.345" transform="translate(123.097 60.593)" fill="none" stroke="#263238" stroke-linecap="round" stroke-linejoin="round" stroke-width="0.224"/>
      <line id="Line_107" data-name="Line 107" x1="0.074" y2="1.569" transform="translate(123.696 60.295)" fill="none" stroke="#263238" stroke-linecap="round" stroke-linejoin="round" stroke-width="0.224"/>
      <line id="Line_108" data-name="Line 108" x2="0.074" y2="1.495" transform="translate(124.368 60.295)" fill="none" stroke="#263238" stroke-linecap="round" stroke-linejoin="round" stroke-width="0.224"/>
    </g>
    <g id="freepik--character-1--inject-20">
      <path id="Path_2595" data-name="Path 2595" d="M56.373,36.912a10.014,10.014,0,0,1,.672,2.315c.224,1.345.589,1.838.863,1.959s.352.612.2.984-.813.408-.813.408-.325,1.878-.4,2.178-.372.82-1.418.6c-.462-.1-2.167-.746-2.167-.746s-.224,3.435-.224,4.332v1.2l-3.733-.672s.3-2.017.372-3.137a9.678,9.678,0,0,0-.97-4.258c-.672-1.418-1.943-1.869-1.12-3.361s4.556-2.765,5.9-2.839A5.3,5.3,0,0,1,56.373,36.912Z" fill="#fff" stroke="#263238" stroke-linecap="round" stroke-linejoin="round" stroke-width="0.224"/>
      <line id="Line_109" data-name="Line 109" x2="0.034" y2="0.509" transform="translate(56.584 40.1)" fill="none" stroke="#263238" stroke-linecap="round" stroke-linejoin="round" stroke-width="0.224"/>
      <path id="Path_2596" data-name="Path 2596" d="M55.907,39.728s.067-.816.746-.578" fill="none" stroke="#263238" stroke-linecap="round" stroke-linejoin="round" stroke-width="0.224"/>
      <path id="Path_2597" data-name="Path 2597" d="M56.855,43.085a1.039,1.039,0,0,1-1.085-.746" fill="none" stroke="#263238" stroke-linecap="round" stroke-linejoin="round" stroke-width="0.224"/>
      <path id="Path_2598" data-name="Path 2598" d="M55.39,52.759l2.783,3.895s7.789,3.809,8.739,4.134a35.445,35.445,0,0,0,4.769,1.51,3.322,3.322,0,0,1,1.829,1.12s-.081.715-.4.955-1.192-.081-1.748-.081a4.668,4.668,0,0,1-1.345-.316,12.183,12.183,0,0,0-1.345-1.669c-.224-.078-6.837-1.909-8.739-2.624s-4.372-1.589-5.008-2.7.318-3.895.318-3.895Z" fill="#d4d4d4" stroke="#263238" stroke-linecap="round" stroke-linejoin="round" stroke-width="0.224"/>
      <path id="Path_2599" data-name="Path 2599" d="M52.34,73.65s2.539,2.091,3.809,3.211A12.114,12.114,0,0,0,58.464,78.5,12.12,12.12,0,0,0,56,83.286c-.374,2.317-3.509,8.739-3.435,9.261s2.839.6,3.809.6,2.315.372,2.763,0-1.569-1.421-2.091-1.719a8.1,8.1,0,0,1-1.418-1.418s4.406-7.1,5.526-9.114,2.465-2.987,1.793-4.78-8.589-3.662-9.111-3.809S52.34,72.38,52.34,73.65Z" fill="#d4d4d4" stroke="#263238" stroke-linecap="round" stroke-linejoin="round" stroke-width="0.224"/>
      <path id="Path_2600" data-name="Path 2600" d="M53.409,90.262a11.916,11.916,0,0,0-.845,2.286c.074.522,2.839.6,3.809.6s2.315.372,2.763,0-1.569-1.421-2.091-1.719a8.1,8.1,0,0,1-1.418-1.418l-.374.6Z" fill="#fff" stroke="#263238" stroke-linecap="round" stroke-linejoin="round" stroke-width="0.224"/>
      <path id="Path_2601" data-name="Path 2601" d="M59.136,93.146c.114-.094.069-.224-.067-.39-1.176-.114-3.234-.307-4.415-.359a5.524,5.524,0,0,1-1.959-.365,1.665,1.665,0,0,0-.132.515c.074.522,2.839.6,3.809.6S58.688,93.518,59.136,93.146Z" fill="#fff" stroke="#263238" stroke-linecap="round" stroke-linejoin="round" stroke-width="0.224"/>
      <path id="Path_2602" data-name="Path 2602" d="M72.434,72.978s-5.6.97-8.441,5.154c-2.156,3.175-7.321,8.963-9.412,9.56" fill="none" stroke="#263238" stroke-linecap="round" stroke-linejoin="bevel" stroke-width="0.896"/>
      <path id="Path_2603" data-name="Path 2603" d="M73.106,75.667a21.058,21.058,0,0,0-5.6,4.556c-1.941,2.539-3.886,10.756-7.769,13.071" fill="none" stroke="#263238" stroke-linecap="round" stroke-linejoin="bevel" stroke-width="0.896"/>
      <line id="Line_110" data-name="Line 110" x2="5.602" y2="18.675" transform="translate(50.397 74.471)" fill="none" stroke="#263238" stroke-linecap="round" stroke-width="0.896"/>
      <circle id="Ellipse_104" data-name="Ellipse 104" cx="10.906" cy="10.906" r="10.906" transform="translate(29.781 81.193)" fill="#263238" stroke="#263238" stroke-linecap="round" stroke-linejoin="round" stroke-width="0.224"/>
      <circle id="Ellipse_105" data-name="Ellipse 105" cx="9.71" cy="9.71" r="9.71" transform="translate(30.978 82.39)" fill="#fff" stroke="#263238" stroke-linecap="round" stroke-linejoin="round" stroke-width="0.224"/>
      <circle id="Ellipse_106" data-name="Ellipse 106" cx="9.261" cy="9.261" r="9.261" transform="translate(31.426 82.838)" fill="#fff" stroke="#263238" stroke-linecap="round" stroke-linejoin="round" stroke-width="0.224"/>
      <circle id="Ellipse_107" data-name="Ellipse 107" cx="10.906" cy="10.906" r="10.906" transform="translate(69.37 81.193)" fill="#263238" stroke="#263238" stroke-linecap="round" stroke-linejoin="round" stroke-width="0.224"/>
      <circle id="Ellipse_108" data-name="Ellipse 108" cx="9.71" cy="9.71" r="9.71" transform="translate(70.567 82.39)" fill="#fff" stroke="#263238" stroke-linecap="round" stroke-linejoin="round" stroke-width="0.224"/>
      <circle id="Ellipse_109" data-name="Ellipse 109" cx="9.261" cy="9.261" r="9.261" transform="translate(71.015 82.838)" fill="#fff" stroke="#263238" stroke-linecap="round" stroke-linejoin="round" stroke-width="0.224"/>
      <circle id="Ellipse_110" data-name="Ellipse 110" cx="1.345" cy="1.345" r="1.345" transform="translate(78.932 90.755)" fill="none" stroke="#263238" stroke-linecap="round" stroke-linejoin="round" stroke-width="0.224"/>
      <path id="Path_2604" data-name="Path 2604" d="M80.277,92.1s-5.08-8.515-5.3-9.636-3.511-13.147-3.511-13.147L73.7,64.163a.224.224,0,0,0-.117-.309l-2.944-.363" fill="none" stroke="#263238" stroke-linecap="round" stroke-linejoin="bevel" stroke-width="0.896"/>
      <line id="Line_111" data-name="Line 111" y1="10.756" x2="11.428" transform="translate(40.613 80.597)" fill="none" stroke="#263238" stroke-linecap="round" stroke-width="0.896"/>
      <path id="Path_2605" data-name="Path 2605" d="M47.8,71.86s-1.367-.238-1.663.238-.356,2.017.3,2.375,4.872.533,5.882.415a1.1,1.1,0,0,0,.713-1.84C52.438,72.573,47.8,71.86,47.8,71.86Z" fill="#fff" stroke="#263238" stroke-linecap="round" stroke-linejoin="round" stroke-width="0.224"/>
      <path id="Path_2606" data-name="Path 2606" d="M58.464,90.157l-18.6.6-.224,2.017,18.375,3.511Z" fill="#fff" stroke="#263238" stroke-linecap="round" stroke-linejoin="round" stroke-width="0.224"/>
      <circle id="Ellipse_111" data-name="Ellipse 111" cx="3.063" cy="3.063" r="3.063" transform="translate(54.953 90.157)" fill="#fff" stroke="#263238" stroke-linecap="round" stroke-linejoin="round" stroke-width="0.224"/>
      <circle id="Ellipse_112" data-name="Ellipse 112" cx="1.046" cy="1.046" r="1.046" transform="translate(56.969 92.173)" fill="#fff" stroke="#263238" stroke-linecap="round" stroke-linejoin="round" stroke-width="0.224"/>
      <path id="Path_2607" data-name="Path 2607" d="M63.918,94.789a.379.379,0,0,1-.085,0l-5.9-1.12a.448.448,0,1,1,.168-.878L64,93.91a.45.45,0,1,1-.083.9Z" fill="#fff" stroke="#263238" stroke-linecap="round" stroke-linejoin="round" stroke-width="0.224"/>
      <circle id="Ellipse_113" data-name="Ellipse 113" cx="1.943" cy="1.943" r="1.943" transform="translate(38.745 90.157)" fill="#fff" stroke="#263238" stroke-linecap="round" stroke-linejoin="round" stroke-width="0.224"/>
      <path id="Path_2608" data-name="Path 2608" d="M54.381,49.79a4.632,4.632,0,0,0-2.49-1.685c-2.017-.524-3.287-.076-4.258,2.315s.746,6.348,1.046,7.321-.374,2.837-1.12,4.482-2.241,3.361-2.017,6.348,3.435,4.556,4.181,4.632l.748.074a63.327,63.327,0,0,0,7.395,3.137,20.431,20.431,0,0,0,3.957.672,4.846,4.846,0,0,0-1.492,3.883c0,2.763-.15,13.521-.15,13.521s.448.672.672.672,7.321-1.869,7.321-1.869.224-.97-.15-.97-5.752-1.271-5.752-1.271S64.889,80,65.487,78.728a3.865,3.865,0,0,0-.374-3.733c-.672-.97-4.93-5.528-8.441-7.1l-.746-1.345c-.193-3.03-.146-3.032-.374-5.528-.074-.82.822-6.5.224-8.439A8.551,8.551,0,0,0,54.381,49.79Z" fill="#fff" stroke="#263238" stroke-linecap="round" stroke-linejoin="round" stroke-width="0.224"/>
      <path id="Path_2609" data-name="Path 2609" d="M47.128,63.067c1.629.307,5.445,2.557,8.695,2.091-.072-1.078-.24-3.787-.271-4.132-.074-.82.822-6.5.224-8.439a8.551,8.551,0,0,0-1.394-2.8,4.632,4.632,0,0,0-2.49-1.685c-2.017-.524-3.287-.076-4.258,2.315s.746,6.348,1.046,7.321-.374,2.837-1.12,4.482C47.432,62.5,47.282,62.778,47.128,63.067Z" fill="#fff" stroke="#263238" stroke-linecap="round" stroke-linejoin="round" stroke-width="0.224"/>
      <path id="Path_2610" data-name="Path 2610" d="M48.665,59.092a8.948,8.948,0,0,1-.276,1.035h7.2c.027-.3.061-.648.1-1.035Z" fill="#263238"/>
      <path id="Path_2611" data-name="Path 2611" d="M55.766,64.275c-.022-.325-.045-.672-.067-1.038H47.757c.726.24,1.683.65,2.75,1.038Z" fill="#263238"/>
      <path id="Path_2612" data-name="Path 2612" d="M48.013,61.176c-.141.347-.291.7-.448,1.038h8.067c-.029-.448-.054-.829-.069-1.038Z" fill="#263238"/>
      <path id="Path_2613" data-name="Path 2613" d="M47.939,49.761h6.42a5.215,5.215,0,0,0-1.1-1.038H48.64a4.5,4.5,0,0,0-.7,1.038Z" fill="#263238"/>
      <path id="Path_2614" data-name="Path 2614" d="M47.376,52.871c.031.345.085.692.15,1.038h8.439a7.1,7.1,0,0,0-.119-1.038Z" fill="#263238"/>
      <path id="Path_2615" data-name="Path 2615" d="M47.506,50.8a4.562,4.562,0,0,0-.159,1.035h8.166a8.84,8.84,0,0,0-.475-1.035Z" fill="#263238"/>
      <path id="Path_2616" data-name="Path 2616" d="M48.427,57.017c.112.311.2.56.253.724a1.627,1.627,0,0,1,.058.314H55.8c.031-.336.061-.683.087-1.038Z" fill="#263238"/>
      <path id="Path_2617" data-name="Path 2617" d="M47.766,54.944c.1.365.2.715.307,1.038h7.87c.018-.354.031-.7.036-1.038Z" fill="#263238"/>
      <path id="Path_2618" data-name="Path 2618" d="M56.671,67.9l-.746-1.345s-.038-.448-.15-2.091c-2.537.426-6.256-1.793-8.253-2.165-.757,1.62-2.2,3.33-1.979,6.274.224,2.987,3.435,4.556,4.181,4.632l.748.074.065.034c1.324-3.377,6.05-5.037,6.05-5.037h.825A7.96,7.96,0,0,0,56.671,67.9Z" fill="#cb955b" stroke="#263238" stroke-linecap="round" stroke-linejoin="round" stroke-width="0.224"/>
      <path id="Path_2619" data-name="Path 2619" d="M51.011,68.77q.269.168.578.343" fill="none" stroke="#263238" stroke-linecap="round" stroke-linejoin="round" stroke-width="0.224"/>
      <path id="Path_2620" data-name="Path 2620" d="M49.478,63.432s.325.486-.161.648a2.629,2.629,0,0,0-.975.9s.811.081.9.325-.731.648-.648.9a4.139,4.139,0,0,0,1.716,2.093" fill="none" stroke="#263238" stroke-linecap="round" stroke-linejoin="round" stroke-width="0.224"/>
      <path id="Path_2621" data-name="Path 2621" d="M50.025,73.2l1.12.672a14.068,14.068,0,0,1,2.465-3.809c1.569-1.645,4.406-1.421,4.406-1.421a2.289,2.289,0,0,0-1.345-.746,8.963,8.963,0,0,0-4.406,1.643A10.139,10.139,0,0,0,50.025,73.2Z" fill="#fff" stroke="#263238" stroke-linecap="round" stroke-linejoin="round" stroke-width="0.224"/>
      <line id="Line_112" data-name="Line 112" x2="1.752" y2="1.096" transform="translate(54.919 66.802)" fill="none" stroke="#263238" stroke-linecap="round" stroke-linejoin="round" stroke-width="0.224"/>
      <line id="Line_113" data-name="Line 113" x2="0.448" y2="0.278" transform="translate(53.684 66.032)" fill="none" stroke="#263238" stroke-linecap="round" stroke-linejoin="round" stroke-width="0.224"/>
      <line id="Line_114" data-name="Line 114" x1="0.896" transform="translate(66.832 63.343)" fill="none" stroke="#263238" stroke-linecap="round" stroke-linejoin="round" stroke-width="0.896"/>
      <path id="Path_2622" data-name="Path 2622" d="M68.026,92.324c-.374,0-5.752-1.271-5.752-1.271v1.569l-2.071.323c-.011.948-.02,1.546-.02,1.546s.448.672.672.672,7.321-1.869,7.321-1.869S68.4,92.324,68.026,92.324Z" fill="#fff" stroke="#263238" stroke-linecap="round" stroke-linejoin="round" stroke-width="0.224"/>
      <path id="Path_2623" data-name="Path 2623" d="M68.237,92.866l-7.818,1.941c.143.173.32.356.437.356.224,0,7.321-1.869,7.321-1.869A3,3,0,0,0,68.237,92.866Z" fill="#fff" stroke="#263238" stroke-linecap="round" stroke-linejoin="round" stroke-width="0.224"/>
      <rect id="Rectangle_237" data-name="Rectangle 237" width="3.727" height="1.1" rx="0.103" transform="translate(62.345 95.018) rotate(-15.34)" fill="#fff" stroke="#263238" stroke-linecap="round" stroke-linejoin="round" stroke-width="0.224"/>
      <line id="Line_115" data-name="Line 115" x2="6.909" y2="0.739" transform="translate(72.517 73.413)" fill="none" stroke="#263238" stroke-linecap="round" stroke-linejoin="round" stroke-width="0.448"/>
      <path id="Path_2624" data-name="Path 2624" d="M83.669,65.671a.639.639,0,0,0-.379.119,1.344,1.344,0,0,0,.061-.383,1.291,1.291,0,0,0-1.226-1.345,1.183,1.183,0,0,0-.728.249.672.672,0,0,0-.592-.392.708.708,0,0,0-.688.719.594.594,0,0,0-.2-.038h-.076a.721.721,0,0,0,.038-.224.68.68,0,0,0-1.36-.013.717.717,0,0,0,.031.224h-.168a.94.94,0,0,0,.016-.139.71.71,0,0,0-.672-.742.672.672,0,0,0-.551.3.632.632,0,0,0-.529-.309.672.672,0,0,0-.648.683.731.731,0,0,0,.09.356,1.143,1.143,0,0,0-.448-.1,1.345,1.345,0,0,0-.029,2.678l4.876.621a.8.8,0,0,0-.083.336.713.713,0,0,0,.672.742.683.683,0,0,0,.65-.5,1.12,1.12,0,0,0,.276.04,1.3,1.3,0,0,0,1.255-1.327,1.51,1.51,0,0,0-.02-.249.65.65,0,0,0,.421.168.735.735,0,0,0,.016-1.468Z" fill="#cb955b" stroke="#263238" stroke-linecap="round" stroke-linejoin="round" stroke-width="0.224"/>
      <path id="Path_2625" data-name="Path 2625" d="M78.878,73.881l-5.12-.437-.029-7.2,6.4.547Z" fill="#fff" stroke="#263238" stroke-linecap="round" stroke-linejoin="round" stroke-width="0.224"/>
      <circle id="Ellipse_114" data-name="Ellipse 114" cx="1.073" cy="1.073" r="1.073" transform="translate(75.631 64.631)" fill="#fff" stroke="#263238" stroke-linecap="round" stroke-linejoin="round" stroke-width="0.224"/>
      <path id="Path_2626" data-name="Path 2626" d="M77.052,65.7a.345.345,0,1,1-.1-.245.347.347,0,0,1,.1.245Z" fill="#fff" stroke="#263238" stroke-linecap="round" stroke-linejoin="round" stroke-width="0.224"/>
      <path id="Path_2627" data-name="Path 2627" d="M80.277,64.239A1.073,1.073,0,1,1,79.2,63.165a1.073,1.073,0,0,1,1.073,1.073Z" fill="#fff" stroke="#263238" stroke-linecap="round" stroke-linejoin="round" stroke-width="0.224"/>
      <path id="Path_2628" data-name="Path 2628" d="M79.551,64.239a.345.345,0,1,1-.1-.246.347.347,0,0,1,.1.246Z" fill="#fff" stroke="#263238" stroke-linecap="round" stroke-linejoin="round" stroke-width="0.224"/>
      <path id="Path_2629" data-name="Path 2629" d="M81.7,65.955a1.073,1.073,0,1,1-1.071-1.071A1.073,1.073,0,0,1,81.7,65.955Z" fill="#fff" stroke="#263238" stroke-linecap="round" stroke-linejoin="round" stroke-width="0.224"/>
      <path id="Path_2630" data-name="Path 2630" d="M80.969,65.955a.347.347,0,1,1-.345-.345A.347.347,0,0,1,80.969,65.955Z" fill="#fff" stroke="#263238" stroke-linecap="round" stroke-linejoin="round" stroke-width="0.224"/>
      <path id="Path_2631" data-name="Path 2631" d="M82.518,64.463a1.073,1.073,0,1,1-1.073-1.073A1.073,1.073,0,0,1,82.518,64.463Z" fill="#fff" stroke="#263238" stroke-linecap="round" stroke-linejoin="round" stroke-width="0.224"/>
      <path id="Path_2632" data-name="Path 2632" d="M81.792,64.463a.345.345,0,1,1-.1-.246A.347.347,0,0,1,81.792,64.463Z" fill="#fff" stroke="#263238" stroke-linecap="round" stroke-linejoin="round" stroke-width="0.224"/>
      <path id="Path_2633" data-name="Path 2633" d="M78.206,63.567a1.071,1.071,0,1,1-.314-.76A1.073,1.073,0,0,1,78.206,63.567Z" fill="#fff" stroke="#263238" stroke-linecap="round" stroke-linejoin="round" stroke-width="0.224"/>
      <path id="Path_2634" data-name="Path 2634" d="M77.48,63.567a.345.345,0,1,1-.1-.246A.347.347,0,0,1,77.48,63.567Z" fill="#fff" stroke="#263238" stroke-linecap="round" stroke-linejoin="round" stroke-width="0.224"/>
      <path id="Path_2635" data-name="Path 2635" d="M55.775,37.283a5.506,5.506,0,0,0-2.539,4.334c-.224,3.061-.654,5.826-2.391,6.572-4.332,1.867-7.619.3-8.291.97a2.065,2.065,0,0,0-.3,1.869s-2.091-.3-2.763-1.271c-1.067-1.539-1.12-3.809,1.418-5.676a8.369,8.369,0,0,1,5-1.719s.15.224,1.569-1.418,5.378-3.063,6.127-3.287a15.99,15.99,0,0,1,2.165-.374Z" fill="#263238" stroke="#263238" stroke-linecap="round" stroke-linejoin="round" stroke-width="0.224"/>
      <path id="Path_2636" data-name="Path 2636" d="M45.915,42.364l13.147-6.274a20.27,20.27,0,0,1-3.511-1.495c-.448-.448-1.194-1.867-1.492-1.941a54.893,54.893,0,0,0-7.993,3.285c-.374.448.074,3.809.15,4.558A5.671,5.671,0,0,1,45.915,42.364Z" fill="#fff" stroke="#263238" stroke-linecap="round" stroke-linejoin="round" stroke-width="0.224"/>
      <path id="Path_2637" data-name="Path 2637" d="M51.959,36.253a9.327,9.327,0,0,1,.948-.352" fill="none" stroke="#263238" stroke-linecap="round" stroke-linejoin="round" stroke-width="0.224"/>
      <path id="Path_2638" data-name="Path 2638" d="M46.278,39.347s2.4-1.508,4.549-2.568" fill="none" stroke="#263238" stroke-linecap="round" stroke-linejoin="round" stroke-width="0.224"/>
      <path id="Path_2639" data-name="Path 2639" d="M45.915,42.364s-.3-1.345-.3-1.569A17.986,17.986,0,0,1,50.1,39.152c1.194-.224,3.883-.672,3.883-.672Z" fill="#fff" stroke="#263238" stroke-linecap="round" stroke-linejoin="round" stroke-width="0.224"/>
      <path id="Path_2640" data-name="Path 2640" d="M53.31,51.614s-.583-1.329-1.643-1.569c-2.315-.522-3.211.973-2.913,3.063s5.976,6.947,7.171,7.395,10.756,2.091,10.756,2.091l.374.374.9.448s-.15.97.448.9,2.389.522,2.613-.074.076-1.719-.448-1.943-4.406-1.046-5.826-1.719-7.619-3.361-7.619-3.361Z" fill="#fff" stroke="#263238" stroke-linecap="round" stroke-linejoin="round" stroke-width="0.224"/>
      <line id="Line_116" data-name="Line 116" x1="0.045" y2="1.268" transform="translate(68.763 63.002)" fill="none" stroke="#263238" stroke-linecap="round" stroke-linejoin="round" stroke-width="0.224"/>
      <line id="Line_117" data-name="Line 117" y1="1.497" x2="0.182" transform="translate(69.353 62.82)" fill="none" stroke="#263238" stroke-linecap="round" stroke-linejoin="round" stroke-width="0.224"/>
      <line id="Line_118" data-name="Line 118" y1="1.497" x2="0.137" transform="translate(70.168 62.91)" fill="none" stroke="#263238" stroke-linecap="round" stroke-linejoin="round" stroke-width="0.224"/>
    </g>
    <g id="freepik--Floor--inject-20">
      <line id="Line_119" data-name="Line 119" x2="2.913" transform="translate(152.827 103.006)" fill="none" stroke="#263238" stroke-linecap="round" stroke-linejoin="round" stroke-width="0.224"/>
      <line id="Line_120" data-name="Line 120" x2="118.766" transform="translate(31.596 103.006)" fill="none" stroke="#263238" stroke-linecap="round" stroke-linejoin="round" stroke-width="0.224"/>
      <line id="Line_121" data-name="Line 121" x2="15.238" transform="translate(12.549 103.006)" fill="none" stroke="#263238" stroke-linecap="round" stroke-linejoin="round" stroke-width="0.224"/>
    </g>
  </g>
</svg>
