<svg xmlns="http://www.w3.org/2000/svg" width="128.202" height="96" viewBox="0 0 128.202 96">
  <g id="Building-amico" transform="translate(-8.812 -24.913)">
    <g id="freepik--Floor--inject-64">
      <path id="Path_2191" data-name="Path 2191" d="M28.667,111.339c24.438,12.766,64.056,12.766,88.494,0s24.435-33.464,0-46.23-64.056-12.766-88.494,0S4.232,98.579,28.667,111.339Z" fill="#f5f5f5"/>
    </g>
    <g id="freepik--Shadow--inject-64">
      <path id="Path_2192" data-name="Path 2192" d="M117.612,101.466a5.62,5.62,0,0,1-4.264,0c-1.167-.563-1.167-1.458,0-2.042a5.594,5.594,0,0,1,4.264,0C118.791,99.993,118.791,100.912,117.612,101.466Z" fill="#e0e0e0"/>
      <path id="Path_2193" data-name="Path 2193" d="M24.067,99.845a5.7,5.7,0,0,0,4.34,0c1.2-.583,1.2-1.5,0-2.071a5.734,5.734,0,0,0-4.34,0C22.869,98.346,22.869,99.273,24.067,99.845Z" fill="#e0e0e0"/>
    </g>
    <g id="freepik--Plant--inject-64">
      <path id="Path_2194" data-name="Path 2194" d="M97.643,93.329a2.211,2.211,0,0,0,1.937-.642c.429-.569.239-1.458.446-1.934s.875-.4,1.187-.8-.172-1.365,0-1.875a6.588,6.588,0,0,1,.892-1.347c.225-.35,0-.875-.767-.61s-1.167,1.184-1.91,1.03a1.082,1.082,0,0,0-1.391,1.03,1.624,1.624,0,0,1-.163.837c-.14.227-.513.356-.682.709Z" fill="#cb955b"/>
      <path id="Path_2195" data-name="Path 2195" d="M97.643,93.329a2.211,2.211,0,0,0,1.937-.642c.429-.569.239-1.458.446-1.934s.875-.4,1.187-.8-.172-1.365,0-1.875a6.588,6.588,0,0,1,.892-1.347c.225-.35,0-.875-.767-.61s-1.167,1.184-1.91,1.03a1.082,1.082,0,0,0-1.391,1.03,1.624,1.624,0,0,1-.163.837c-.14.227-.513.356-.682.709Z" opacity="0.2"/>
      <path id="Path_2196" data-name="Path 2196" d="M101.764,86.329c-1.07.583-3.975,3.92-4.214,5.693" fill="none" stroke="#fff" stroke-linecap="round" stroke-width="0.146"/>
    </g>
    <g id="freepik--Buildings--inject-64">
      <path id="Path_2197" data-name="Path 2197" d="M31.449,84.422,44.48,76.9V44.748L31.449,52.273Z" fill="#37474f"/>
      <path id="Path_2198" data-name="Path 2198" d="M31.449,52.273,17.231,44.066V76.212l14.218,8.21Z" fill="#455a64"/>
      <path id="Path_2199" data-name="Path 2199" d="M44.48,44.748,30.265,36.541,17.231,44.066l14.218,8.207Z" fill="#37474f"/>
      <path id="Path_2200" data-name="Path 2200" d="M22.554,79.292V73.818l3.684,2.117v5.471Z" fill="#e0e0e0"/>
      <path id="Path_2201" data-name="Path 2201" d="M24.161,74.742l.359.207v5.471l-.359-.207Z" fill="#263238"/>
      <path id="Path_2202" data-name="Path 2202" d="M29.959,75.349V72.3L27.52,70.889V73.94Z" fill="#e0e0e0"/>
      <path id="Path_2203" data-name="Path 2203" d="M27.52,73.94l.61-.35V71.242l-.61-.353Z" fill="#263238"/>
      <path id="Path_2204" data-name="Path 2204" d="M29.959,74.646,28.13,73.59l-.61.35,2.438,1.409Z" fill="#37474f"/>
      <path id="Path_2205" data-name="Path 2205" d="M29.959,81.193V78.143L27.52,76.737v3.051Z" fill="#e0e0e0"/>
      <path id="Path_2206" data-name="Path 2206" d="M27.52,79.788l.61-.353V77.087l-.61-.35Z" fill="#263238"/>
      <path id="Path_2207" data-name="Path 2207" d="M29.959,80.491,28.13,79.435l-.61.353,2.438,1.406Z" fill="#37474f"/>
      <path id="Path_2208" data-name="Path 2208" d="M29.959,69.626V66.576L27.52,65.17v3.051Z" fill="#e0e0e0"/>
      <path id="Path_2209" data-name="Path 2209" d="M27.52,68.221l.61-.353V65.52l-.61-.35Z" fill="#263238"/>
      <path id="Path_2210" data-name="Path 2210" d="M29.959,68.924,28.13,67.868l-.61.353,2.438,1.406Z" fill="#37474f"/>
      <path id="Path_2211" data-name="Path 2211" d="M29.959,63.9V60.854L27.52,59.448V62.5Z" fill="#e0e0e0"/>
      <path id="Path_2212" data-name="Path 2212" d="M27.52,62.5l.61-.353V59.8l-.61-.35Z" fill="#263238"/>
      <path id="Path_2213" data-name="Path 2213" d="M29.959,63.2,28.13,62.146l-.61.353L29.959,63.9Z" fill="#37474f"/>
      <path id="Path_2214" data-name="Path 2214" d="M29.959,58.185V55.131L27.52,53.726v3.051Z" fill="#e0e0e0"/>
      <path id="Path_2215" data-name="Path 2215" d="M27.52,56.776l.61-.353V54.078l-.61-.353Z" fill="#263238"/>
      <path id="Path_2216" data-name="Path 2216" d="M29.959,57.479,28.13,56.423l-.61.353,2.438,1.409Z" fill="#37474f"/>
      <path id="Path_2217" data-name="Path 2217" d="M21.162,70.271V67.22l-2.438-1.409v3.051Z" fill="#e0e0e0"/>
      <path id="Path_2218" data-name="Path 2218" d="M18.724,68.862l.61-.35V66.165l-.61-.353Z" fill="#263238"/>
      <path id="Path_2219" data-name="Path 2219" d="M21.162,69.568l-1.829-1.056-.61.35,2.438,1.409Z" fill="#37474f"/>
      <path id="Path_2220" data-name="Path 2220" d="M21.162,76.116V73.065l-2.438-1.406v3.048Z" fill="#e0e0e0"/>
      <path id="Path_2221" data-name="Path 2221" d="M18.724,74.707l.61-.35V72.009l-.61-.35Z" fill="#263238"/>
      <path id="Path_2222" data-name="Path 2222" d="M21.162,75.413l-1.829-1.056-.61.35,2.438,1.409Z" fill="#37474f"/>
      <path id="Path_2223" data-name="Path 2223" d="M21.162,64.5V61.449l-2.438-1.406v3.051Z" fill="#e0e0e0"/>
      <path id="Path_2224" data-name="Path 2224" d="M18.724,63.093l.61-.353V60.393l-.61-.35Z" fill="#263238"/>
      <path id="Path_2225" data-name="Path 2225" d="M21.162,63.8l-1.829-1.056-.61.353L21.162,64.5Z" fill="#37474f"/>
      <path id="Path_2226" data-name="Path 2226" d="M21.162,58.73V55.68l-2.438-1.409v3.051Z" fill="#e0e0e0"/>
      <path id="Path_2227" data-name="Path 2227" d="M18.724,57.322l.61-.35V54.624l-.61-.353Z" fill="#263238"/>
      <path id="Path_2228" data-name="Path 2228" d="M21.162,58.027l-1.829-1.056-.61.35,2.438,1.409Z" fill="#37474f"/>
      <path id="Path_2229" data-name="Path 2229" d="M21.162,52.958V49.908L18.724,48.5v3.051Z" fill="#fafafa"/>
      <path id="Path_2230" data-name="Path 2230" d="M18.724,51.553l.61-.353V48.852l-.61-.35Z" fill="#263238"/>
      <path id="Path_2231" data-name="Path 2231" d="M21.162,52.256,19.334,51.2l-.61.353,2.438,1.406Z" fill="#37474f"/>
      <path id="Path_2232" data-name="Path 2232" d="M22.554,50.558l1.42.82V71.9l-1.42-.817Z" fill="#fafafa"/>
      <path id="Path_2233" data-name="Path 2233" d="M22.554,50.558l.6.347V70.741l-.6.338Z" fill="#263238"/>
      <path id="Path_2234" data-name="Path 2234" d="M23.154,70.741l.82.455v.7l-1.42-.817Z" fill="#37474f"/>
      <path id="Path_2235" data-name="Path 2235" d="M24.814,51.85l1.423.817V73.188l-1.423-.82Z" fill="#fafafa"/>
      <path id="Path_2236" data-name="Path 2236" d="M24.814,51.85l.6.347V72.03l-.6.338Z" fill="#263238"/>
      <path id="Path_2237" data-name="Path 2237" d="M25.415,72.03l.822.455v.7l-1.423-.82Z" fill="#37474f"/>
      <path id="Path_2238" data-name="Path 2238" d="M32.957,75.349V72.3l2.435-1.409V73.94Z" fill="#e0e0e0"/>
      <path id="Path_2239" data-name="Path 2239" d="M35.392,73.94l-.61-.35,0-2.348.607-.353Z" fill="#455a64"/>
      <path id="Path_2240" data-name="Path 2240" d="M32.957,74.646l1.826-1.056.61.35-2.435,1.409Z" fill="#263238"/>
      <path id="Path_2241" data-name="Path 2241" d="M36.745,73.17V70.119l2.438-1.406v3.051Z" fill="#e0e0e0"/>
      <path id="Path_2242" data-name="Path 2242" d="M39.184,71.764l-.61-.353V69.064l.61-.35Z" fill="#455a64"/>
      <path id="Path_2243" data-name="Path 2243" d="M36.745,72.467l1.829-1.056.61.353L36.745,73.17Z" fill="#263238"/>
      <path id="Path_2244" data-name="Path 2244" d="M40.534,70.994V67.944l2.438-1.409v3.051Z" fill="#e0e0e0"/>
      <path id="Path_2245" data-name="Path 2245" d="M42.972,69.586l-.61-.35V66.888l.61-.353Z" fill="#455a64"/>
      <path id="Path_2246" data-name="Path 2246" d="M40.534,70.289l1.829-1.053.61.35-2.438,1.409Z" fill="#263238"/>
      <path id="Path_2247" data-name="Path 2247" d="M32.957,81.193V78.143l2.435-1.406v3.051Z" fill="#e0e0e0"/>
      <path id="Path_2248" data-name="Path 2248" d="M35.392,79.788l-.61-.353,0-2.348.607-.35Z" fill="#455a64"/>
      <path id="Path_2249" data-name="Path 2249" d="M32.957,80.491l1.826-1.056.61.353-2.435,1.406Z" fill="#263238"/>
      <path id="Path_2250" data-name="Path 2250" d="M36.745,79.018V75.964l2.438-1.406v3.051Z" fill="#e0e0e0"/>
      <path id="Path_2251" data-name="Path 2251" d="M39.184,77.609l-.61-.353V74.911l.61-.353Z" fill="#455a64"/>
      <path id="Path_2252" data-name="Path 2252" d="M36.745,78.312l1.829-1.056.61.353-2.438,1.409Z" fill="#263238"/>
      <path id="Path_2253" data-name="Path 2253" d="M40.534,76.839V73.788l2.438-1.409V75.43Z" fill="#e0e0e0"/>
      <path id="Path_2254" data-name="Path 2254" d="M42.972,75.43l-.61-.35V72.733l.61-.353Z" fill="#455a64"/>
      <path id="Path_2255" data-name="Path 2255" d="M40.534,76.136l1.829-1.056.61.35-2.438,1.409Z" fill="#263238"/>
      <path id="Path_2256" data-name="Path 2256" d="M32.957,69.626V66.576l2.435-1.406v3.051Z" fill="#e0e0e0"/>
      <path id="Path_2257" data-name="Path 2257" d="M35.392,68.221l-.61-.353,0-2.348.607-.35Z" fill="#455a64"/>
      <path id="Path_2258" data-name="Path 2258" d="M32.957,68.924l1.826-1.056.61.353-2.435,1.406Z" fill="#263238"/>
      <path id="Path_2259" data-name="Path 2259" d="M36.745,67.425V64.374l2.438-1.406v3.051Z" fill="#e0e0e0"/>
      <path id="Path_2260" data-name="Path 2260" d="M39.184,66.019l-.61-.353V63.318l.61-.35Z" fill="#455a64"/>
      <path id="Path_2261" data-name="Path 2261" d="M36.745,66.722l1.829-1.056.61.353-2.438,1.406Z" fill="#263238"/>
      <path id="Path_2262" data-name="Path 2262" d="M40.534,65.223V62.172l2.438-1.406v3.051Z" fill="#e0e0e0"/>
      <path id="Path_2263" data-name="Path 2263" d="M42.972,63.817l-.61-.353V61.116l.61-.35Z" fill="#455a64"/>
      <path id="Path_2264" data-name="Path 2264" d="M40.534,64.52l1.829-1.056.61.353-2.438,1.406Z" fill="#263238"/>
      <path id="Path_2265" data-name="Path 2265" d="M32.957,63.9V60.854l2.435-1.406V62.5Z" fill="#e0e0e0"/>
      <path id="Path_2266" data-name="Path 2266" d="M35.392,62.5l-.61-.353,0-2.348.607-.35Z" fill="#455a64"/>
      <path id="Path_2267" data-name="Path 2267" d="M32.957,63.2l1.826-1.056.61.353L32.957,63.9Z" fill="#263238"/>
      <path id="Path_2268" data-name="Path 2268" d="M36.745,61.679V58.628l2.438-1.409v3.054Z" fill="#e0e0e0"/>
      <path id="Path_2269" data-name="Path 2269" d="M39.184,60.273l-.61-.353V57.572l.61-.353Z" fill="#455a64"/>
      <path id="Path_2270" data-name="Path 2270" d="M36.745,60.976l1.829-1.056.61.353-2.438,1.406Z" fill="#263238"/>
      <path id="Path_2271" data-name="Path 2271" d="M40.534,59.454V56.4l2.438-1.409v3.051Z" fill="#e0e0e0"/>
      <path id="Path_2272" data-name="Path 2272" d="M42.972,58.045l-.61-.35V55.347l.61-.353Z" fill="#455a64"/>
      <path id="Path_2273" data-name="Path 2273" d="M40.534,58.751l1.829-1.056.61.35-2.438,1.409Z" fill="#263238"/>
      <path id="Path_2274" data-name="Path 2274" d="M32.957,58.185V55.131l2.435-1.406v3.051Z" fill="#e0e0e0"/>
      <path id="Path_2275" data-name="Path 2275" d="M35.392,56.776l-.61-.353,0-2.345.607-.353Z" fill="#455a64"/>
      <path id="Path_2276" data-name="Path 2276" d="M32.957,57.479l1.826-1.056.61.353-2.435,1.409Z" fill="#263238"/>
      <path id="Path_2277" data-name="Path 2277" d="M36.745,55.933V52.883l2.438-1.409v3.051Z" fill="#e0e0e0"/>
      <path id="Path_2278" data-name="Path 2278" d="M39.184,54.525l-.61-.35V51.827l.61-.353Z" fill="#455a64"/>
      <path id="Path_2279" data-name="Path 2279" d="M36.745,55.23l1.829-1.056.61.35-2.438,1.409Z" fill="#263238"/>
      <path id="Path_2280" data-name="Path 2280" d="M40.534,53.682V50.631l2.438-1.406v3.051Z" fill="#e0e0e0"/>
      <path id="Path_2281" data-name="Path 2281" d="M42.972,52.276l-.61-.353V49.575l.61-.35Z" fill="#455a64"/>
      <path id="Path_2282" data-name="Path 2282" d="M40.534,52.979l1.829-1.056.61.353-2.438,1.406Z" fill="#263238"/>
      <path id="Path_2283" data-name="Path 2283" d="M19.6,44.066l10.663-6.157,11.844,6.839-10.66,6.157Z" fill="#f0f0f0"/>
      <path id="Path_2284" data-name="Path 2284" d="M30.265,37.909v1.368l10.66,6.157,1.184-.685Z" fill="#455a64"/>
      <path id="Path_2285" data-name="Path 2285" d="M30.265,37.909,19.6,44.066l1.184.682,9.479-5.471Z" fill="#263238"/>
      <path id="Path_2286" data-name="Path 2286" d="M113.675,84.422,100.644,76.9V44.748l13.034,7.525Z" fill="#455a64"/>
      <path id="Path_2287" data-name="Path 2287" d="M113.678,52.273l14.215-8.207V76.212l-14.218,8.21Z" fill="#37474f"/>
      <path id="Path_2288" data-name="Path 2288" d="M100.644,44.748l14.218-8.207,13.031,7.525-14.215,8.207Z" fill="#37474f"/>
      <path id="Path_2289" data-name="Path 2289" d="M122.573,79.292V73.818l-3.686,2.117,0,5.471Z" fill="#e0e0e0"/>
      <path id="Path_2290" data-name="Path 2290" d="M120.963,74.742l-.356.207v5.471l.356-.207Z" fill="#263238"/>
      <path id="Path_2291" data-name="Path 2291" d="M115.165,75.349V72.3l2.438-1.409V73.94Z" fill="#e0e0e0"/>
      <path id="Path_2292" data-name="Path 2292" d="M117.6,73.94l-.61-.35V71.242l.61-.353Z" fill="#263238"/>
      <path id="Path_2293" data-name="Path 2293" d="M115.165,74.646l1.829-1.056.61.35-2.438,1.409Z" fill="#455a64"/>
      <path id="Path_2294" data-name="Path 2294" d="M115.165,81.193V78.143l2.438-1.406v3.051Z" fill="#e0e0e0"/>
      <path id="Path_2295" data-name="Path 2295" d="M117.6,79.788l-.61-.353V77.087l.61-.35Z" fill="#263238"/>
      <path id="Path_2296" data-name="Path 2296" d="M115.165,80.491l1.829-1.056.61.353-2.438,1.406Z" fill="#455a64"/>
      <path id="Path_2297" data-name="Path 2297" d="M115.165,69.626V66.576L117.6,65.17v3.051Z" fill="#e0e0e0"/>
      <path id="Path_2298" data-name="Path 2298" d="M117.6,68.221l-.61-.353V65.52l.61-.35Z" fill="#263238"/>
      <path id="Path_2299" data-name="Path 2299" d="M115.165,68.924l1.829-1.056.61.353-2.438,1.406Z" fill="#455a64"/>
      <path id="Path_2300" data-name="Path 2300" d="M115.165,63.9V60.854l2.438-1.406V62.5Z" fill="#e0e0e0"/>
      <path id="Path_2301" data-name="Path 2301" d="M117.6,62.5l-.61-.353V59.8l.61-.35Z" fill="#263238"/>
      <path id="Path_2302" data-name="Path 2302" d="M115.165,63.2l1.829-1.056.61.353L115.165,63.9Z" fill="#455a64"/>
      <path id="Path_2303" data-name="Path 2303" d="M115.165,58.185V55.131l2.438-1.406v3.051Z" fill="#e0e0e0"/>
      <path id="Path_2304" data-name="Path 2304" d="M117.6,56.776l-.61-.353V54.078l.61-.353Z" fill="#263238"/>
      <path id="Path_2305" data-name="Path 2305" d="M115.165,57.479l1.829-1.056.61.353-2.438,1.409Z" fill="#455a64"/>
      <path id="Path_2306" data-name="Path 2306" d="M123.965,70.271V67.22l2.435-1.409v3.051Z" fill="#e0e0e0"/>
      <path id="Path_2307" data-name="Path 2307" d="M126.4,68.862l-.607-.35V66.165l.607-.353Z" fill="#263238"/>
      <path id="Path_2308" data-name="Path 2308" d="M123.965,69.568l1.829-1.056.607.35-2.435,1.409Z" fill="#455a64"/>
      <path id="Path_2309" data-name="Path 2309" d="M123.965,76.116V73.065l2.435-1.406v3.048Z" fill="#e0e0e0"/>
      <path id="Path_2310" data-name="Path 2310" d="M126.4,74.707l-.607-.35V72.009l.607-.35Z" fill="#263238"/>
      <path id="Path_2311" data-name="Path 2311" d="M123.965,75.413l1.829-1.056.607.35-2.435,1.409Z" fill="#455a64"/>
      <path id="Path_2312" data-name="Path 2312" d="M123.965,64.5V61.449l2.435-1.406v3.051Z" fill="#e0e0e0"/>
      <path id="Path_2313" data-name="Path 2313" d="M126.4,63.093l-.607-.353V60.393l.607-.35Z" fill="#263238"/>
      <path id="Path_2314" data-name="Path 2314" d="M123.965,63.8l1.829-1.056.607.353L123.965,64.5Z" fill="#455a64"/>
      <path id="Path_2315" data-name="Path 2315" d="M123.965,58.73V55.68l2.435-1.409v3.051Z" fill="#e0e0e0"/>
      <path id="Path_2316" data-name="Path 2316" d="M126.4,57.322l-.607-.35V54.624l.607-.353Z" fill="#263238"/>
      <path id="Path_2317" data-name="Path 2317" d="M123.965,58.027l1.829-1.056.607.35-2.435,1.409Z" fill="#455a64"/>
      <path id="Path_2318" data-name="Path 2318" d="M123.965,52.958V49.908L126.4,48.5v3.051Z" fill="#fafafa"/>
      <path id="Path_2319" data-name="Path 2319" d="M126.4,51.553l-.607-.353V48.852l.607-.35Z" fill="#263238"/>
      <path id="Path_2320" data-name="Path 2320" d="M123.965,52.256l1.829-1.056.607.353-2.435,1.406Z" fill="#455a64"/>
      <path id="Path_2321" data-name="Path 2321" d="M122.573,50.558l-1.423.82V71.9l1.423-.817Z" fill="#fafafa"/>
      <path id="Path_2322" data-name="Path 2322" d="M122.573,50.558l-.6.347V70.741l.6.338Z" fill="#263238"/>
      <path id="Path_2323" data-name="Path 2323" d="M121.97,70.741l-.82.455v.7l1.423-.817Z" fill="#455a64"/>
      <path id="Path_2324" data-name="Path 2324" d="M120.31,51.85l-1.42.817V73.188l1.42-.82Z" fill="#fafafa"/>
      <path id="Path_2325" data-name="Path 2325" d="M120.31,51.85l-.6.347V72.03l.6.338Z" fill="#263238"/>
      <path id="Path_2326" data-name="Path 2326" d="M119.709,72.03l-.82.455v.7l1.42-.82Z" fill="#455a64"/>
      <path id="Path_2327" data-name="Path 2327" d="M112.17,75.349V72.3l-2.438-1.409V73.94Z" fill="#e0e0e0"/>
      <path id="Path_2328" data-name="Path 2328" d="M109.732,73.94l.61-.35V71.242l-.61-.353Z" fill="#37474f"/>
      <path id="Path_2329" data-name="Path 2329" d="M112.17,74.646l-1.829-1.056-.61.35,2.438,1.409Z" fill="#263238"/>
      <path id="Path_2330" data-name="Path 2330" d="M108.379,73.17V70.119l-2.435-1.406v3.051Z" fill="#e0e0e0"/>
      <path id="Path_2331" data-name="Path 2331" d="M105.943,71.764l.607-.353V69.064l-.607-.35Z" fill="#37474f"/>
      <path id="Path_2332" data-name="Path 2332" d="M108.379,72.467l-1.829-1.056-.607.353,2.435,1.406Z" fill="#263238"/>
      <path id="Path_2333" data-name="Path 2333" d="M104.59,70.994V67.944l-2.438-1.409v3.051Z" fill="#e0e0e0"/>
      <path id="Path_2334" data-name="Path 2334" d="M102.152,69.586l.61-.35V66.888l-.61-.353Z" fill="#37474f"/>
      <path id="Path_2335" data-name="Path 2335" d="M104.59,70.289l-1.829-1.053-.61.35,2.438,1.409Z" fill="#263238"/>
      <path id="Path_2336" data-name="Path 2336" d="M112.17,81.193V78.143l-2.438-1.406v3.051Z" fill="#e0e0e0"/>
      <path id="Path_2337" data-name="Path 2337" d="M109.732,79.788l.61-.353V77.087l-.61-.35Z" fill="#37474f"/>
      <path id="Path_2338" data-name="Path 2338" d="M112.17,80.491l-1.829-1.056-.61.353,2.438,1.406Z" fill="#263238"/>
      <path id="Path_2339" data-name="Path 2339" d="M108.379,79.018V75.964l-2.435-1.406v3.051Z" fill="#e0e0e0"/>
      <path id="Path_2340" data-name="Path 2340" d="M105.943,77.609l.607-.353V74.911l-.607-.353Z" fill="#37474f"/>
      <path id="Path_2341" data-name="Path 2341" d="M108.379,78.312l-1.829-1.056-.607.353,2.435,1.409Z" fill="#263238"/>
      <path id="Path_2342" data-name="Path 2342" d="M104.59,76.839V73.788l-2.438-1.409V75.43Z" fill="#e0e0e0"/>
      <path id="Path_2343" data-name="Path 2343" d="M102.152,75.43l.61-.35V72.733l-.61-.353Z" fill="#37474f"/>
      <path id="Path_2344" data-name="Path 2344" d="M104.59,76.136l-1.829-1.056-.61.35,2.438,1.409Z" fill="#263238"/>
      <path id="Path_2345" data-name="Path 2345" d="M112.17,69.626V66.576l-2.438-1.406v3.051Z" fill="#e0e0e0"/>
      <path id="Path_2346" data-name="Path 2346" d="M109.732,68.221l.61-.353V65.52l-.61-.35Z" fill="#37474f"/>
      <path id="Path_2347" data-name="Path 2347" d="M112.17,68.924l-1.829-1.056-.61.353,2.438,1.406Z" fill="#263238"/>
      <path id="Path_2348" data-name="Path 2348" d="M108.379,67.425V64.374l-2.435-1.406v3.051Z" fill="#e0e0e0"/>
      <path id="Path_2349" data-name="Path 2349" d="M105.943,66.019l.607-.353V63.318l-.607-.35Z" fill="#37474f"/>
      <path id="Path_2350" data-name="Path 2350" d="M108.379,66.722l-1.829-1.056-.607.353,2.435,1.406Z" fill="#263238"/>
      <path id="Path_2351" data-name="Path 2351" d="M104.59,65.223V62.172l-2.438-1.406v3.051Z" fill="#e0e0e0"/>
      <path id="Path_2352" data-name="Path 2352" d="M102.152,63.817l.61-.353V61.116l-.61-.35Z" fill="#37474f"/>
      <path id="Path_2353" data-name="Path 2353" d="M104.59,64.52l-1.829-1.056-.61.353,2.438,1.406Z" fill="#263238"/>
      <path id="Path_2354" data-name="Path 2354" d="M112.17,63.9V60.854l-2.438-1.406V62.5Z" fill="#e0e0e0"/>
      <path id="Path_2355" data-name="Path 2355" d="M109.732,62.5l.61-.353V59.8l-.61-.35Z" fill="#37474f"/>
      <path id="Path_2356" data-name="Path 2356" d="M112.17,63.2l-1.829-1.056-.61.353L112.17,63.9Z" fill="#263238"/>
      <path id="Path_2357" data-name="Path 2357" d="M108.379,61.679V58.628l-2.435-1.409v3.054Z" fill="#e0e0e0"/>
      <path id="Path_2358" data-name="Path 2358" d="M105.943,60.273l.607-.353V57.572l-.607-.353Z" fill="#37474f"/>
      <path id="Path_2359" data-name="Path 2359" d="M108.379,60.976,106.55,59.92l-.607.353,2.435,1.406Z" fill="#263238"/>
      <path id="Path_2360" data-name="Path 2360" d="M104.59,59.454V56.4l-2.438-1.409v3.051Z" fill="#e0e0e0"/>
      <path id="Path_2361" data-name="Path 2361" d="M102.152,58.045l.61-.35V55.347l-.61-.353Z" fill="#37474f"/>
      <path id="Path_2362" data-name="Path 2362" d="M104.59,58.751l-1.829-1.056-.61.35,2.438,1.409Z" fill="#263238"/>
      <path id="Path_2363" data-name="Path 2363" d="M112.17,58.185V55.131l-2.438-1.406v3.051Z" fill="#e0e0e0"/>
      <path id="Path_2364" data-name="Path 2364" d="M109.732,56.776l.61-.353V54.078l-.61-.353Z" fill="#37474f"/>
      <path id="Path_2365" data-name="Path 2365" d="M112.17,57.479l-1.829-1.056-.61.353,2.438,1.409Z" fill="#263238"/>
      <path id="Path_2366" data-name="Path 2366" d="M108.379,55.933V52.883l-2.435-1.409v3.051Z" fill="#e0e0e0"/>
      <path id="Path_2367" data-name="Path 2367" d="M105.943,54.525l.607-.35V51.827l-.607-.353Z" fill="#37474f"/>
      <path id="Path_2368" data-name="Path 2368" d="M108.379,55.23l-1.829-1.056-.607.35,2.435,1.409Z" fill="#263238"/>
      <path id="Path_2369" data-name="Path 2369" d="M104.59,53.682V50.631l-2.438-1.406v3.051Z" fill="#e0e0e0"/>
      <path id="Path_2370" data-name="Path 2370" d="M102.152,52.276l.61-.353V49.575l-.61-.35Z" fill="#37474f"/>
      <path id="Path_2371" data-name="Path 2371" d="M104.59,52.979l-1.829-1.056-.61.353,2.438,1.406Z" fill="#263238"/>
      <path id="Path_2372" data-name="Path 2372" d="M125.525,44.066l-10.663-6.157-11.847,6.839,10.663,6.157Z" fill="#f0f0f0"/>
      <path id="Path_2373" data-name="Path 2373" d="M114.862,37.909v1.368L104.2,45.434l-1.184-.685Z" fill="#263238"/>
      <path id="Path_2374" data-name="Path 2374" d="M114.862,37.909l10.663,6.157-1.187.682-9.476-5.471Z" fill="#455a64"/>
      <path id="Path_2375" data-name="Path 2375" d="M94.347,114.465a6.087,6.087,0,0,1-4.629,0c-1.277-.61-1.277-1.6,0-2.2a6.087,6.087,0,0,1,4.629,0C95.627,112.87,95.627,113.856,94.347,114.465Z" fill="#e0e0e0"/>
      <path id="Path_2376" data-name="Path 2376" d="M46.478,112.456a6.093,6.093,0,0,0,4.631,0c1.277-.61,1.277-1.6,0-2.2a6.093,6.093,0,0,0-4.631,0C45.206,110.86,45.206,111.846,46.478,112.456Z" fill="#e0e0e0"/>
      <path id="Path_2377" data-name="Path 2377" d="M73.546,112.1,101.9,95.729a1.187,1.187,0,0,0,0-2.1L73.543,77.262a1.4,1.4,0,0,0-1.263,0L43.926,93.621a1.187,1.187,0,0,0,0,2.1l28.357,16.371A1.4,1.4,0,0,0,73.546,112.1Z" fill="#cb955b"/>
      <path id="Path_2378" data-name="Path 2378" d="M73.546,112.1,101.9,95.729a1.187,1.187,0,0,0,0-2.1L73.543,77.262a1.4,1.4,0,0,0-1.263,0L43.926,93.621a1.187,1.187,0,0,0,0,2.1l28.357,16.371A1.4,1.4,0,0,0,73.546,112.1Z" fill="#cb955b"/>
      <path id="Path_2379" data-name="Path 2379" d="M73.546,112.1,101.9,95.729a1.187,1.187,0,0,0,0-2.1L73.543,77.262a1.4,1.4,0,0,0-1.263,0L43.926,93.621a1.187,1.187,0,0,0,0,2.1l28.357,16.371A1.4,1.4,0,0,0,73.546,112.1Z" fill="#cb955b"/>
      <path id="Path_2380" data-name="Path 2380" d="M73.546,112.1,101.9,95.729a1.187,1.187,0,0,0,0-2.1L73.543,77.262a1.4,1.4,0,0,0-1.263,0L43.926,93.621a1.187,1.187,0,0,0,0,2.1l28.357,16.371A1.4,1.4,0,0,0,73.546,112.1Z" opacity="0.2"/>
      <path id="Path_2381" data-name="Path 2381" d="M43.926,94.362l28.357,16.371a1.4,1.4,0,0,0,1.263,0L101.9,94.362a.385.385,0,0,0,0-.729L73.543,77.262a1.4,1.4,0,0,0-1.263,0L43.926,93.621a.385.385,0,0,0,0,.741Z" fill="#cb955b"/>
      <path id="Path_2382" data-name="Path 2382" d="M77.653,104.94,97.791,93.312V44.748L77.653,56.377Z" fill="#37474f"/>
      <path id="Path_2383" data-name="Path 2383" d="M72.913,108.361V59.112L48.035,44.748V94Z" fill="#455a64"/>
      <path id="Path_2384" data-name="Path 2384" d="M72.913,87.84,48.035,73.476V72.108l-2.371,1.368L72.913,89.208Z" fill="#cb955b"/>
      <path id="Path_2385" data-name="Path 2385" d="M72.913,87.84,48.035,73.476V72.108l-2.371,1.368L72.913,89.208Z" fill="#fff" opacity="0.5"/>
      <path id="Path_2386" data-name="Path 2386" d="M45.664,73.476,72.913,89.208v1.368L45.664,74.844Z" fill="#cb955b"/>
      <path id="Path_2387" data-name="Path 2387" d="M72.913,87.84,77.653,85.1l1.184.685-5.923,3.418Z" fill="#cb955b"/>
      <path id="Path_2388" data-name="Path 2388" d="M72.913,87.84,77.653,85.1l1.184.685-5.923,3.418Z" fill="#fff" opacity="0.5"/>
      <path id="Path_2389" data-name="Path 2389" d="M72.913,90.576l5.923-3.418V85.79l-5.923,3.418Z" fill="#cb955b"/>
      <path id="Path_2390" data-name="Path 2390" d="M72.913,90.576l5.923-3.418V85.79l-5.923,3.418Z" opacity="0.2"/>
      <path id="Path_2391" data-name="Path 2391" d="M72.913,59.112l4.739-2.736V85.1L72.913,87.84Z" fill="#263238"/>
      <path id="Path_2392" data-name="Path 2392" d="M72.913,90.576l4.739-2.736v17.785l-4.739,2.736Z" fill="#263238"/>
      <path id="Path_2393" data-name="Path 2393" d="M70.545,83.737V76.9l-4.739-2.736V81Z" fill="#cb955b"/>
      <path id="Path_2394" data-name="Path 2394" d="M70.545,83.737V76.9l-4.739-2.736V81Z" fill="#fff" opacity="0.5"/>
      <path id="Path_2395" data-name="Path 2395" d="M65.806,81l1.184-.682V74.844l-1.184-.682Z" fill="#263238"/>
      <path id="Path_2396" data-name="Path 2396" d="M70.545,82.369l-3.555-2.05L65.806,81l4.739,2.736Z" fill="#263238"/>
      <path id="Path_2397" data-name="Path 2397" d="M63.435,79.633V72.794l-5.923-3.421v6.839Z" fill="#cb955b"/>
      <path id="Path_2398" data-name="Path 2398" d="M63.435,79.633V72.794l-5.923-3.421v6.839Z" fill="#fff" opacity="0.5"/>
      <path id="Path_2399" data-name="Path 2399" d="M58.7,75.53l0-5.471-1.187-.685v6.839Z" fill="#263238"/>
      <path id="Path_2400" data-name="Path 2400" d="M63.435,78.265v1.368l-5.923-3.421L58.7,75.53Z" fill="#263238"/>
      <path id="Path_2401" data-name="Path 2401" d="M80.613,98.442V91.6l5.923-3.418v6.839Z" fill="#cb955b"/>
      <path id="Path_2402" data-name="Path 2402" d="M85.352,94.338V88.867l1.184-.682v6.839Z" fill="#263238"/>
      <path id="Path_2403" data-name="Path 2403" d="M80.613,97.074v1.368l5.923-3.418-1.184-.685Z" fill="#263238"/>
      <path id="Path_2404" data-name="Path 2404" d="M80.613,87.044V80.2l5.923-3.421v6.839Z" fill="#cb955b"/>
      <path id="Path_2405" data-name="Path 2405" d="M85.352,82.94V77.466l1.184-.682v6.839Z" fill="#263238"/>
      <path id="Path_2406" data-name="Path 2406" d="M80.613,85.676v1.368l5.923-3.421-1.184-.682Z" fill="#263238"/>
      <path id="Path_2407" data-name="Path 2407" d="M80.613,75.643V68.8l5.923-3.421v6.839Z" fill="#cb955b"/>
      <path id="Path_2408" data-name="Path 2408" d="M85.352,71.54V66.068l1.184-.685v6.839Z" fill="#263238"/>
      <path id="Path_2409" data-name="Path 2409" d="M80.613,74.275v1.368l5.923-3.421-1.184-.682Z" fill="#263238"/>
      <path id="Path_2410" data-name="Path 2410" d="M80.613,64.243V57.4l5.923-3.421v6.842Z" fill="#cb955b"/>
      <path id="Path_2411" data-name="Path 2411" d="M85.352,60.139V54.668l1.184-.685v6.842Z" fill="#263238"/>
      <path id="Path_2412" data-name="Path 2412" d="M80.613,62.875v1.368l5.923-3.418-1.184-.685Z" fill="#263238"/>
      <path id="Path_2413" data-name="Path 2413" d="M89.036,93.58V86.741l5.926-3.418,0,6.839Z" fill="#cb955b"/>
      <path id="Path_2414" data-name="Path 2414" d="M93.775,89.476V84.005l1.187-.682,0,6.839Z" fill="#263238"/>
      <path id="Path_2415" data-name="Path 2415" d="M89.036,92.215V93.58l5.923-3.418-1.184-.685Z" fill="#263238"/>
      <path id="Path_2416" data-name="Path 2416" d="M89.036,82.182V75.34l5.926-3.418,0,6.839Z" fill="#cb955b"/>
      <path id="Path_2417" data-name="Path 2417" d="M93.775,78.079V72.6l1.187-.682,0,6.839Z" fill="#263238"/>
      <path id="Path_2418" data-name="Path 2418" d="M89.036,80.814v1.368l5.923-3.421-1.184-.682Z" fill="#263238"/>
      <path id="Path_2419" data-name="Path 2419" d="M89.036,70.781V63.942l5.926-3.421,0,6.842Z" fill="#cb955b"/>
      <path id="Path_2420" data-name="Path 2420" d="M93.775,66.678V61.206l1.187-.685,0,6.842Z" fill="#263238"/>
      <path id="Path_2421" data-name="Path 2421" d="M89.036,69.414v1.368l5.923-3.418-1.184-.685Z" fill="#263238"/>
      <path id="Path_2422" data-name="Path 2422" d="M89.036,59.381V52.541l5.926-3.418,0,6.839Z" fill="#cb955b"/>
      <path id="Path_2423" data-name="Path 2423" d="M93.775,55.277V49.806l1.187-.682,0,6.839Z" fill="#263238"/>
      <path id="Path_2424" data-name="Path 2424" d="M89.036,58.013v1.368l5.923-3.418-1.184-.685Z" fill="#263238"/>
      <path id="Path_2425" data-name="Path 2425" d="M55.143,74.844V68L50.4,65.269v6.839Z" fill="#cb955b"/>
      <path id="Path_2426" data-name="Path 2426" d="M55.143,74.844V68L50.4,65.269v6.839Z" fill="#fff" opacity="0.5"/>
      <path id="Path_2427" data-name="Path 2427" d="M51.588,71.426l-1.184.682V65.269l1.184.685Z" fill="#263238"/>
      <path id="Path_2428" data-name="Path 2428" d="M55.143,73.476l-3.555-2.05-1.184.682,4.739,2.736Z" fill="#263238"/>
      <path id="Path_2429" data-name="Path 2429" d="M57.511,87.907c0-1.931,1.327-2.733,2.963-1.788a6.619,6.619,0,0,1,2.96,5.209V102.89l-5.923-3.421Z" fill="#263238"/>
      <path id="Path_2430" data-name="Path 2430" d="M63.435,91.328a6.615,6.615,0,0,0-2.96-5.209,2.537,2.537,0,0,0-1.394-.394,2.7,2.7,0,0,0-.382,1.5V98.786l4.736,2.736Z" fill="#455a64"/>
      <path id="Path_2431" data-name="Path 2431" d="M63.435,91.328a6.615,6.615,0,0,0-2.96-5.209,2.537,2.537,0,0,0-1.394-.394,2.7,2.7,0,0,0-.382,1.5V98.786l4.736,2.736Z" fill="#cb955b"/>
      <path id="Path_2432" data-name="Path 2432" d="M63.435,91.328a6.615,6.615,0,0,0-2.96-5.209,2.537,2.537,0,0,0-1.394-.394,2.7,2.7,0,0,0-.382,1.5V98.786l4.736,2.736Z" fill="#fff" opacity="0.5"/>
      <path id="Path_2433" data-name="Path 2433" d="M61.329,86.764a4.788,4.788,0,0,0-.583-.47v3.074L58.7,88.184v.709l2.042,1.187v8.863l.583.335V90.413l2.106,1.216v-.292a2.874,2.874,0,0,0-.02-.423l-2.085-1.2Z" fill="#455a64"/>
      <path id="Path_2434" data-name="Path 2434" d="M72.913,59.112v-4.1L46.848,39.962v4.1Z" fill="#cb955b"/>
      <path id="Path_2435" data-name="Path 2435" d="M72.913,59.112v-4.1L46.848,39.962v4.1Z" fill="#fff" opacity="0.5"/>
      <path id="Path_2436" data-name="Path 2436" d="M72.913,59.112v-4.1L98.979,39.962v4.1Z" fill="#cb955b"/>
      <path id="Path_2437" data-name="Path 2437" d="M72.913,59.112v-4.1L98.979,39.962v4.1Z" opacity="0.2"/>
      <path id="Path_2438" data-name="Path 2438" d="M50.4,51.769c0-1.61,1.062-2.3,2.368-1.549A5.424,5.424,0,0,1,55.143,54.5V65.269L50.4,62.533Z" fill="#263238"/>
      <path id="Path_2439" data-name="Path 2439" d="M52.772,50.217a2.085,2.085,0,0,0-.927-.292,2.453,2.453,0,0,0-.257,1.167V61.857L55.143,63.9V54.5A5.416,5.416,0,0,0,52.772,50.217Z" fill="#cb955b"/>
      <path id="Path_2440" data-name="Path 2440" d="M52.772,50.217a2.085,2.085,0,0,0-.927-.292,2.453,2.453,0,0,0-.257,1.167V61.857L55.143,63.9V54.5A5.416,5.416,0,0,0,52.772,50.217Z" fill="#fff" opacity="0.5"/>
      <path id="Path_2441" data-name="Path 2441" d="M50.4,62.533l1.184-.685,3.555,2.05v1.371Z" fill="#263238"/>
      <path id="Path_2442" data-name="Path 2442" d="M57.511,56.455c0-1.934,1.327-2.733,2.963-1.788a6.619,6.619,0,0,1,2.96,5.209V70.058l-5.923-3.421Z" fill="#263238"/>
      <path id="Path_2443" data-name="Path 2443" d="M63.435,59.877a6.615,6.615,0,0,0-2.96-5.209,2.537,2.537,0,0,0-1.394-.394,2.7,2.7,0,0,0-.382,1.5V65.952l4.736,2.739Z" fill="#cb955b"/>
      <path id="Path_2444" data-name="Path 2444" d="M63.435,59.877a6.615,6.615,0,0,0-2.96-5.209,2.537,2.537,0,0,0-1.394-.394,2.7,2.7,0,0,0-.382,1.5V65.952l4.736,2.739Z" fill="#fff" opacity="0.5"/>
      <path id="Path_2445" data-name="Path 2445" d="M58.7,65.952l-1.187.685,5.923,3.421V68.69Z" fill="#263238"/>
      <path id="Path_2446" data-name="Path 2446" d="M65.806,60.664c0-1.61,1.059-2.3,2.368-1.549A5.416,5.416,0,0,1,70.545,63.4V74.165l-4.739-2.736Z" fill="#263238"/>
      <path id="Path_2447" data-name="Path 2447" d="M68.174,59.112a2.1,2.1,0,0,0-.927-.292,2.441,2.441,0,0,0-.257,1.167V70.752l3.555,2.042V63.4A5.416,5.416,0,0,0,68.174,59.112Z" fill="#cb955b"/>
      <path id="Path_2448" data-name="Path 2448" d="M68.174,59.112a2.1,2.1,0,0,0-.927-.292,2.441,2.441,0,0,0-.257,1.167V70.752l3.555,2.042V63.4A5.416,5.416,0,0,0,68.174,59.112Z" fill="#fff" opacity="0.5"/>
      <path id="Path_2449" data-name="Path 2449" d="M66.99,70.741l-1.184.685,4.739,2.736V72.794Z" fill="#263238"/>
      <path id="Path_2450" data-name="Path 2450" d="M65.806,92.113c0-1.61,1.059-2.3,2.368-1.549a5.416,5.416,0,0,1,2.371,4.284v12.144l-4.739-2.736Z" fill="#263238"/>
      <path id="Path_2451" data-name="Path 2451" d="M68.174,90.564a2.1,2.1,0,0,0-.927-.292,2.453,2.453,0,0,0-.257,1.167v12.142l3.555,2.042V94.831A5.41,5.41,0,0,0,68.174,90.564Z" fill="#cb955b"/>
      <path id="Path_2452" data-name="Path 2452" d="M68.174,90.564a2.1,2.1,0,0,0-.927-.292,2.453,2.453,0,0,0-.257,1.167v12.142l3.555,2.042V94.831A5.41,5.41,0,0,0,68.174,90.564Z" fill="#fff" opacity="0.5"/>
      <path id="Path_2453" data-name="Path 2453" d="M65.806,104.257v-4.1l4.739,2.736v4.1Z" fill="#37474f"/>
      <path id="Path_2454" data-name="Path 2454" d="M65.806,100.154l1.184-.685,3.552,2.053,0,1.368Z" fill="#263238"/>
      <path id="Path_2455" data-name="Path 2455" d="M50.4,83.22c0-1.61,1.062-2.3,2.368-1.549a5.424,5.424,0,0,1,2.371,4.284V98.1L50.4,95.371Z" fill="#263238"/>
      <path id="Path_2456" data-name="Path 2456" d="M52.772,81.663a2.123,2.123,0,0,0-.927-.292,2.453,2.453,0,0,0-.257,1.167V94.682l3.555,2.042V85.933A5.429,5.429,0,0,0,52.772,81.663Z" fill="#cb955b"/>
      <path id="Path_2457" data-name="Path 2457" d="M52.772,81.663a2.123,2.123,0,0,0-.927-.292,2.453,2.453,0,0,0-.257,1.167V94.682l3.555,2.042V85.933A5.429,5.429,0,0,0,52.772,81.663Z" fill="#fff" opacity="0.5"/>
      <path id="Path_2458" data-name="Path 2458" d="M55.143,98.1V94L50.4,91.261v4.1Z" fill="#37474f"/>
      <path id="Path_2459" data-name="Path 2459" d="M50.4,91.261l1.184-.685,3.555,2.053V94Z" fill="#263238"/>
      <path id="Path_2460" data-name="Path 2460" d="M57.511,99.468V98.1l5.923,3.421v1.368Z" fill="#37474f"/>
      <path id="Path_2461" data-name="Path 2461" d="M57.511,98.1l1.187-.682,4.736,2.736v1.368Z" fill="#263238"/>
      <path id="Path_2462" data-name="Path 2462" d="M72.913,55.009,98.979,39.962,72.913,24.913,46.848,39.962Z" fill="#cb955b"/>
      <path id="Path_2463" data-name="Path 2463" d="M72.913,55.009,98.979,39.962,72.913,24.913,46.848,39.962Z" fill="#fff" opacity="0.7"/>
      <path id="Path_2464" data-name="Path 2464" d="M72.913,52.273,94.239,39.962,72.913,27.649,51.588,39.962Z" fill="#cb955b"/>
      <path id="Path_2465" data-name="Path 2465" d="M72.913,27.649v4.106L55.143,42.013l-3.555-2.05Z" fill="#cb955b"/>
      <path id="Path_2466" data-name="Path 2466" d="M72.913,27.649v4.106L55.143,42.013l-3.555-2.05Z" opacity="0.2"/>
      <path id="Path_2467" data-name="Path 2467" d="M72.913,27.649,94.239,39.962l-3.555,2.05L72.913,31.755Z" fill="#cb955b"/>
      <path id="Path_2468" data-name="Path 2468" d="M72.913,27.649,94.239,39.962l-3.555,2.05L72.913,31.755Z" fill="#fff" opacity="0.5"/>
      <path id="Path_2469" data-name="Path 2469" d="M69.358,31.07l-5.923,3.421,8.295,4.786,5.923-3.418Z" fill="#455a64"/>
      <path id="Path_2470" data-name="Path 2470" d="M63.435,34.491v4.1l8.295,4.786v-4.1Z" fill="#37474f"/>
      <path id="Path_2471" data-name="Path 2471" d="M77.653,35.859v4.1l-5.923,3.418v-4.1Z" fill="#263238"/>
      <path id="Path_2472" data-name="Path 2472" d="M67.413,33.365a1.187,1.187,0,0,0,0,2.249,4.3,4.3,0,0,0,3.894,0,1.188,1.188,0,0,0,0-2.249,4.3,4.3,0,0,0-3.894,0Z" fill="#37474f"/>
      <path id="Path_2473" data-name="Path 2473" d="M68.448,34.007c-.5.265-.5.7,0,.965a2.164,2.164,0,0,0,1.823,0c.5-.265.5-.7,0-.965a2.164,2.164,0,0,0-1.823,0Z" fill="#263238"/>
      <path id="Path_2474" data-name="Path 2474" d="M73.561,39.586l1.184.682v2.739" fill="none" stroke="#455a64" stroke-linecap="round" stroke-linejoin="round" stroke-width="0.583"/>
      <path id="Path_2475" data-name="Path 2475" d="M75.282,38.595l1.184.682v2.736" fill="none" stroke="#455a64" stroke-linecap="round" stroke-linejoin="round" stroke-width="0.583"/>
    </g>
    <g id="freepik--Trees--inject-64">
      <path id="Path_2476" data-name="Path 2476" d="M38.65,79.82v9.426a.376.376,0,0,0,.222.312,1.2,1.2,0,0,0,1.085,0,.376.376,0,0,0,.222-.312v-9.42Z" fill="#37474f"/>
      <path id="Path_2477" data-name="Path 2477" d="M43.095,82.561a3.681,3.681,0,0,1-7.361,0c0-3.762,1.648-7.875,3.681-7.875S43.095,78.747,43.095,82.561Z" fill="#cb955b"/>
      <path id="Path_2478" data-name="Path 2478" d="M43.095,82.561v-.388a1.878,1.878,0,0,1-.446,1.088,3.39,3.39,0,0,1-3.821,1.167c-2.666-1.117-2.739-4.27-2.147-6.88a13.868,13.868,0,0,0-.942,5.016,3.681,3.681,0,0,0,7.361,0Z" fill="#cb955b"/>
      <path id="Path_2479" data-name="Path 2479" d="M43.095,82.561v-.388a1.878,1.878,0,0,1-.446,1.088,3.39,3.39,0,0,1-3.821,1.167c-2.666-1.117-2.739-4.27-2.147-6.88a13.868,13.868,0,0,0-.942,5.016,3.681,3.681,0,0,0,7.361,0Z" opacity="0.1"/>
      <path id="Path_2480" data-name="Path 2480" d="M11.727,63.289v9.423a.382.382,0,0,0,.23.318,1.2,1.2,0,0,0,1.082,0,.382.382,0,0,0,.225-.312V63.289Z" fill="#37474f"/>
      <path id="Path_2481" data-name="Path 2481" d="M16.172,66.039a3.681,3.681,0,1,1-7.358,0c0-3.762,1.648-7.875,3.678-7.875S16.172,62.216,16.172,66.039Z" fill="#cb955b"/>
      <path id="Path_2482" data-name="Path 2482" d="M134.1,63.289v9.423a.382.382,0,0,1-.225.312,1.2,1.2,0,0,1-1.082,0,.382.382,0,0,1-.225-.312V63.289Z" fill="#37474f"/>
      <path id="Path_2483" data-name="Path 2483" d="M129.655,66.039a3.681,3.681,0,1,0,7.358,0c0-3.762-1.648-7.875-3.678-7.875S129.655,62.216,129.655,66.039Z" fill="#cb955b"/>
    </g>
  </g>
</svg>
