<svg xmlns="http://www.w3.org/2000/svg" width="154.841" height="96" viewBox="0 0 154.841 96">
  <g id="Car_driving-bro_1_" data-name="Car driving-bro (1)" transform="translate(-5.706 -6.462)">
    <g id="freepik--background-simple--inject-2">
      <path id="Path_54" data-name="Path 54" d="M151.564,79.829c3.778-7,4.336-14.98,3.45-22.69-.785-6.839-1.969-14.685-5.288-20.857-8.393-15.639-29.638-22.979-46.883-18.277C95.65,19.975,90.6,24.515,84.831,28.842c-4.271,3.2-8.955,6.321-14.472,6.959-13.212,1.531-28.249-10.939-40.779-9.845S7.264,38.208,6.8,47.835,15.91,67.306,15,73.87,8.165,97.936,31.627,98.592s35.767-12.471,44.881-9.626,29.159,11.158,46.017,8.97c11-1.429,21.751-6.828,27.785-16Q150.988,80.9,151.564,79.829Z" fill="#cb955b"/>
      <path id="Path_55" data-name="Path 55" d="M151.564,79.829c3.778-7,4.336-14.98,3.45-22.69-.785-6.839-1.969-14.685-5.288-20.857-8.393-15.639-29.638-22.979-46.883-18.277C95.65,19.975,90.6,24.515,84.831,28.842c-4.271,3.2-8.955,6.321-14.472,6.959-13.212,1.531-28.249-10.939-40.779-9.845S7.264,38.208,6.8,47.835,15.91,67.306,15,73.87,8.165,97.936,31.627,98.592s35.767-12.471,44.881-9.626,29.159,11.158,46.017,8.97c11-1.429,21.751-6.828,27.785-16Q150.988,80.9,151.564,79.829Z" fill="#fff" opacity="0.8"/>
    </g>
    <g id="freepik--Floor--inject-2">
      <path id="Path_56" data-name="Path 56" d="M159.055,102.462H6.084a.109.109,0,0,1,0-.219H159.055a.109.109,0,0,1,0,.219Z" fill="#263238"/>
    </g>
    <g id="freepik--Clouds--inject-2">
      <path id="Path_57" data-name="Path 57" d="M70.448,12.414H51.539l.488-.656a1.036,1.036,0,0,1,.925-.335.715.715,0,0,0,.348-.046,1.273,1.273,0,0,0,.2-.28,3.326,3.326,0,0,1,1.236-1.273,2.166,2.166,0,0,1,1.591-.131c.435.088.626.1.68-.1.219-.807.772-1.626,1.667-1.507a5.586,5.586,0,0,1,.77.179c.755.219,1.227.308,1.435-.173a2.255,2.255,0,0,1,2.8-1.551,3.862,3.862,0,0,1,2.457,2.326c.359.768,1.041.7,1.833.619a2.375,2.375,0,0,1,1.947.352,2.266,2.266,0,0,1,.562,2.505Zm-18.476-.219H70.3a1.989,1.989,0,0,0-.534-2.188,2.167,2.167,0,0,0-1.779-.3c-.8.081-1.632.164-2.054-.75h0a3.675,3.675,0,0,0-2.3-2.188A2.042,2.042,0,0,0,61.082,8.2c-.3.694-1.009.492-1.7.3a5.749,5.749,0,0,0-.742-.175c-.947-.125-1.332,1-1.426,1.348-.114.416-.51.339-.93.258a1.983,1.983,0,0,0-1.44.105,3.148,3.148,0,0,0-1.162,1.2,1.243,1.243,0,0,1-.256.343.8.8,0,0,1-.481.09.841.841,0,0,0-.748.247Z" fill="#263238"/>
      <path id="Path_58" data-name="Path 58" d="M125.144,16.732H92.18l.757-1.011a1.731,1.731,0,0,1,1.556-.554,1.227,1.227,0,0,0,.656-.094,2.116,2.116,0,0,0,.376-.516,5.745,5.745,0,0,1,2.14-2.2,3.712,3.712,0,0,1,2.735-.219c.794.153,1.166.2,1.284-.236.378-1.383,1.313-2.787,2.844-2.584a9.846,9.846,0,0,1,1.332.311c1.179.333,2.2.619,2.625-.352.624-1.457,1.8-3.319,4.813-2.674,2.9.619,4.188,3.9,4.251,4.03.656,1.407,1.936,1.278,3.3,1.14,1.188-.12,2.407-.243,3.352.6a3.894,3.894,0,0,1,.967,4.3Zm-32.522-.219H125a3.61,3.61,0,0,0-.952-3.984c-.875-.774-2.046-.656-3.185-.54-1.381.138-2.807.282-3.522-1.269h0c-.013-.033-1.267-3.282-4.1-3.9s-3.938,1.041-4.573,2.544c-.494,1.151-1.707.807-2.877.477a10,10,0,0,0-1.313-.306c-1.733-.232-2.422,1.8-2.593,2.424s-.807.534-1.531.394a3.574,3.574,0,0,0-2.582.195,5.583,5.583,0,0,0-2.065,2.127,2.129,2.129,0,0,1-.438.58,1.312,1.312,0,0,1-.79.138,1.56,1.56,0,0,0-1.381.466Z" fill="#263238"/>
      <path id="Path_59" data-name="Path 59" d="M36.959,18.785H23.832l.376-.5a.744.744,0,0,1,.656-.245.494.494,0,0,0,.219-.024.8.8,0,0,0,.131-.184,2.319,2.319,0,0,1,.864-.888,1.531,1.531,0,0,1,1.12-.094c.328.061.4.055.438-.046.155-.569.549-1.149,1.186-1.063a3.953,3.953,0,0,1,.536.125c.5.142.814.219.95-.1a1.59,1.59,0,0,1,1.969-1.094,2.711,2.711,0,0,1,1.717,1.623c.236.508.7.459,1.23.407a1.681,1.681,0,0,1,1.367.252,1.6,1.6,0,0,1,.4,1.766ZM24.27,18.566H36.81a1.339,1.339,0,0,0-.365-1.451,1.476,1.476,0,0,0-1.2-.195c-.567.055-1.151.114-1.453-.538h0a2.509,2.509,0,0,0-1.56-1.49,1.373,1.373,0,0,0-1.724.96c-.219.505-.744.357-1.208.219a3.894,3.894,0,0,0-.505-.118c-.626-.085-.875.672-.947.9-.085.317-.387.258-.68.2a1.346,1.346,0,0,0-.969.068,2.135,2.135,0,0,0-.788.814.838.838,0,0,1-.186.245.567.567,0,0,1-.35.068.543.543,0,0,0-.49.158Z" fill="#263238"/>
      <path id="Path_60" data-name="Path 60" d="M130.394,24.375H117.267l.376-.5a.744.744,0,0,1,.656-.245.5.5,0,0,0,.219-.022.9.9,0,0,0,.131-.186,2.326,2.326,0,0,1,.862-.888,1.531,1.531,0,0,1,1.122-.094c.328.063.4.055.438-.046.155-.569.545-1.149,1.186-1.063a4.031,4.031,0,0,1,.536.125c.5.142.814.219.947-.1a1.593,1.593,0,0,1,1.969-1.094,2.71,2.71,0,0,1,1.72,1.623c.236.508.7.462,1.227.407a1.684,1.684,0,0,1,1.37.252,1.6,1.6,0,0,1,.4,1.766ZM117.7,24.156h12.541a1.339,1.339,0,0,0-.365-1.451,1.481,1.481,0,0,0-1.2-.195c-.564.057-1.149.116-1.451-.538h0a2.508,2.508,0,0,0-1.562-1.49,1.369,1.369,0,0,0-1.722.96c-.219.505-.744.357-1.208.219a3.894,3.894,0,0,0-.505-.118c-.626-.083-.875.672-.947.906-.085.315-.387.256-.68.2a1.346,1.346,0,0,0-.969.068,2.135,2.135,0,0,0-.788.814.875.875,0,0,1-.186.247.564.564,0,0,1-.35.066.549.549,0,0,0-.49.158Z" fill="#263238"/>
    </g>
    <g id="freepik--City--inject-2">
      <path id="Path_62" data-name="Path 62" d="M25.4,51.119H23.952V49.292H25.4ZM24.171,50.9h1.013V49.51H24.171Z" fill="#263238"/>
      <path id="Path_63" data-name="Path 63" d="M27.4,51.119H25.954V49.292H27.4ZM26.173,50.9h1.013V49.51H26.173Z" fill="#263238"/>
      <path id="Path_64" data-name="Path 64" d="M29.409,51.119H27.956V49.292h1.453ZM28.175,50.9H29.19V49.51H28.175Z" fill="#263238"/>
      <path id="Path_65" data-name="Path 65" d="M31.411,51.119H29.96V49.292h1.451ZM30.179,50.9h1.013V49.51H30.179Z" fill="#263238"/>
      <path id="Path_66" data-name="Path 66" d="M33.415,51.119H31.962V49.292h1.453ZM32.181,50.9H33.2V49.51H32.181Z" fill="#263238"/>
      <path id="Path_67" data-name="Path 67" d="M35.417,51.119H33.966V49.292h1.451ZM34.185,50.9H35.2V49.51H34.185Z" fill="#263238"/>
      <path id="Path_68" data-name="Path 68" d="M44.813,39.219H43.363V37.392h1.451ZM43.581,39h1.013V37.611H43.581Z" fill="#263238"/>
      <path id="Path_69" data-name="Path 69" d="M46.819,39.219H45.367V37.392h1.453ZM45.586,39H46.6V37.611H45.586Z" fill="#263238"/>
      <path id="Path_70" data-name="Path 70" d="M48.819,39.219H47.369V37.392h1.451ZM47.587,39H48.6V37.611H47.587Z" fill="#263238"/>
      <path id="Path_71" data-name="Path 71" d="M50.823,39.219H49.37V37.392h1.453ZM49.589,39H50.6V37.611H49.589Z" fill="#263238"/>
      <path id="Path_72" data-name="Path 72" d="M44.813,36.318H43.363V34.491h1.451ZM43.581,36.1h1.013V34.71H43.581Z" fill="#263238"/>
      <path id="Path_73" data-name="Path 73" d="M46.819,36.318H45.367V34.491h1.453ZM45.586,36.1H46.6V34.71H45.586Z" fill="#263238"/>
      <path id="Path_74" data-name="Path 74" d="M48.819,36.318H47.369V34.491h1.451ZM47.587,36.1H48.6V34.71H47.587Z" fill="#263238"/>
      <path id="Path_75" data-name="Path 75" d="M50.823,36.318H49.37V34.491h1.453ZM49.589,36.1H50.6V34.71H49.589Z" fill="#263238"/>
      <path id="Path_76" data-name="Path 76" d="M44.813,33.43H43.363V31.6h1.451Zm-1.232-.219h1.013V31.822H43.581Z" fill="#263238"/>
      <path id="Path_77" data-name="Path 77" d="M46.819,33.43H45.367V31.6h1.453Zm-1.234-.219H46.6V31.822H45.586Z" fill="#263238"/>
      <path id="Path_78" data-name="Path 78" d="M48.819,33.43H47.369V31.6h1.451Zm-1.232-.219H48.6V31.822H47.587Z" fill="#263238"/>
      <path id="Path_79" data-name="Path 79" d="M50.823,33.43H49.37V31.6h1.453Zm-1.234-.219H50.6V31.822H49.589Z" fill="#263238"/>
      <path id="Path_80" data-name="Path 80" d="M44.813,30.535H43.363V28.709h1.451Zm-1.232-.219h1.013V28.927H43.581Z" fill="#263238"/>
      <path id="Path_81" data-name="Path 81" d="M46.819,30.535H45.367V28.709h1.453Zm-1.234-.219H46.6V28.927H45.586Z" fill="#263238"/>
      <path id="Path_82" data-name="Path 82" d="M48.819,30.535H47.369V28.709h1.451Zm-1.232-.219H48.6V28.927H47.587Z" fill="#263238"/>
      <path id="Path_83" data-name="Path 83" d="M50.823,30.535H49.37V28.709h1.453Zm-1.234-.219H50.6V28.927H49.589Z" fill="#263238"/>
      <path id="Path_84" data-name="Path 84" d="M44.813,27.641H43.363V25.816h1.451Zm-1.232-.219h1.013V26.035H43.581Z" fill="#263238"/>
      <path id="Path_85" data-name="Path 85" d="M46.819,27.641H45.367V25.816h1.453Zm-1.234-.219H46.6V26.035H45.586Z" fill="#263238"/>
      <path id="Path_86" data-name="Path 86" d="M48.819,27.641H47.369V25.816h1.451Zm-1.232-.219H48.6V26.035H47.587Z" fill="#263238"/>
      <path id="Path_87" data-name="Path 87" d="M50.823,27.641H49.37V25.816h1.453Zm-1.234-.219H50.6V26.035H49.589Z" fill="#263238"/>
      <path id="Path_88" data-name="Path 88" d="M52.825,39.219H51.374V37.392h1.451ZM51.593,39h1.013V37.611H51.593Z" fill="#263238"/>
      <path id="Path_89" data-name="Path 89" d="M54.827,39.219H53.383V37.392h1.451ZM53.6,39h1.013V37.611H53.6Z" fill="#263238"/>
      <path id="Path_90" data-name="Path 90" d="M44.813,42.444H43.363V40.617h1.451Zm-1.232-.219h1.013V40.836H43.581Z" fill="#263238"/>
      <path id="Path_91" data-name="Path 91" d="M46.819,42.444H45.367V40.617h1.453Zm-1.234-.219H46.6V40.836H45.586Z" fill="#263238"/>
      <path id="Path_92" data-name="Path 92" d="M48.819,42.444H47.369V40.617h1.451Zm-1.232-.219H48.6V40.836H47.587Z" fill="#263238"/>
      <path id="Path_93" data-name="Path 93" d="M50.823,42.444H49.37V40.617h1.453Zm-1.234-.219H50.6V40.836H49.589Z" fill="#263238"/>
      <path id="Path_94" data-name="Path 94" d="M52.825,42.444H51.374V40.617h1.451Zm-1.232-.219h1.013V40.836H51.593Z" fill="#263238"/>
      <path id="Path_95" data-name="Path 95" d="M54.827,42.444H53.383V40.617h1.451ZM53.6,42.225h1.013V40.836H53.6Z" fill="#263238"/>
      <path id="Path_96" data-name="Path 96" d="M25.4,54.5H23.952V52.67H25.4Zm-1.232-.219h1.013V52.888H24.171Z" fill="#263238"/>
      <path id="Path_97" data-name="Path 97" d="M27.4,54.5H25.954V52.67H27.4Zm-1.232-.219h1.013V52.888H26.173Z" fill="#263238"/>
      <path id="Path_98" data-name="Path 98" d="M29.409,54.5H27.956V52.67h1.453Zm-1.234-.219H29.19V52.888H28.175Z" fill="#263238"/>
      <path id="Path_99" data-name="Path 99" d="M31.411,54.5H29.96V52.67h1.451Zm-1.232-.219h1.013V52.888H30.179Z" fill="#263238"/>
      <path id="Path_100" data-name="Path 100" d="M33.415,54.5H31.962V52.67h1.453Zm-1.234-.219H33.2V52.888H32.181Z" fill="#263238"/>
      <path id="Path_101" data-name="Path 101" d="M35.417,54.5H33.966V52.67h1.451Zm-1.232-.219H35.2V52.888H34.185Z" fill="#263238"/>
      <path id="Path_102" data-name="Path 102" d="M25.4,57.875H23.952V56.048H25.4Zm-1.232-.219h1.013V56.266H24.171Z" fill="#263238"/>
      <path id="Path_103" data-name="Path 103" d="M27.4,57.875H25.954V56.048H27.4Zm-1.232-.219h1.013V56.266H26.173Z" fill="#263238"/>
      <path id="Path_104" data-name="Path 104" d="M29.409,57.875H27.956V56.048h1.453Zm-1.234-.219H29.19V56.266H28.175Z" fill="#263238"/>
      <path id="Path_105" data-name="Path 105" d="M31.411,57.875H29.96V56.048h1.451Zm-1.232-.219h1.013V56.266H30.179Z" fill="#263238"/>
      <path id="Path_106" data-name="Path 106" d="M33.415,57.875H31.962V56.048h1.453Zm-1.234-.219H33.2V56.266H32.181Z" fill="#263238"/>
      <path id="Path_107" data-name="Path 107" d="M35.417,57.875H33.966V56.048h1.451Zm-1.232-.219H35.2V56.266H34.185Z" fill="#263238"/>
      <path id="Path_108" data-name="Path 108" d="M25.4,61.259H23.952V59.432H25.4Zm-1.232-.219h1.013V59.651H24.171Z" fill="#263238"/>
      <path id="Path_109" data-name="Path 109" d="M27.4,61.259H25.954V59.432H27.4Zm-1.232-.219h1.013V59.651H26.173Z" fill="#263238"/>
      <path id="Path_110" data-name="Path 110" d="M29.409,61.259H27.956V59.432h1.453Zm-1.234-.219H29.19V59.651H28.175Z" fill="#263238"/>
      <path id="Path_111" data-name="Path 111" d="M31.411,61.259H29.96V59.432h1.451Zm-1.232-.219h1.013V59.651H30.179Z" fill="#263238"/>
      <path id="Path_112" data-name="Path 112" d="M33.415,61.259H31.962V59.432h1.453Zm-1.234-.219H33.2V59.651H32.181Z" fill="#263238"/>
      <path id="Path_113" data-name="Path 113" d="M35.417,61.259H33.966V59.432h1.451Zm-1.232-.219H35.2V59.651H34.185Z" fill="#263238"/>
      <path id="Path_114" data-name="Path 114" d="M25.4,64.628H23.952V62.8H25.4Zm-1.232-.219h1.013V63.02H24.171Z" fill="#263238"/>
      <path id="Path_115" data-name="Path 115" d="M27.4,64.628H25.954V62.8H27.4Zm-1.232-.219h1.013V63.02H26.173Z" fill="#263238"/>
      <path id="Path_116" data-name="Path 116" d="M29.409,64.628H27.956V62.8h1.453Zm-1.234-.219H29.19V63.02H28.175Z" fill="#263238"/>
      <path id="Path_117" data-name="Path 117" d="M31.411,64.628H29.96V62.8h1.451Zm-1.232-.219h1.013V63.02H30.179Z" fill="#263238"/>
      <path id="Path_118" data-name="Path 118" d="M33.415,64.628H31.962V62.8h1.453Zm-1.234-.219H33.2V63.02H32.181Z" fill="#263238"/>
      <path id="Path_119" data-name="Path 119" d="M35.417,64.628H33.966V62.8h1.451Zm-1.232-.219H35.2V63.02H34.185Z" fill="#263238"/>
      <path id="Path_120" data-name="Path 120" d="M142.025,27.319h-1.451V25.493h1.451Zm-1.232-.219h1.013V25.711h-1.013Z" fill="#263238"/>
      <path id="Path_121" data-name="Path 121" d="M144.029,27.319h-1.453V25.493h1.453Zm-1.234-.219h1.015V25.711h-1.015Z" fill="#263238"/>
      <path id="Path_122" data-name="Path 122" d="M146.031,27.319H144.58V25.493h1.451ZM144.8,27.1h1.013V25.711H144.8Z" fill="#263238"/>
      <path id="Path_123" data-name="Path 123" d="M142.025,31.341h-1.451V29.514h1.451Zm-1.232-.219h1.013V29.733h-1.013Z" fill="#263238"/>
      <path id="Path_124" data-name="Path 124" d="M144.029,31.341h-1.453V29.514h1.453Zm-1.234-.219h1.015V29.733h-1.015Z" fill="#263238"/>
      <path id="Path_125" data-name="Path 125" d="M146.031,31.341H144.58V29.514h1.451Zm-1.232-.219h1.013V29.733H144.8Z" fill="#263238"/>
      <path id="Path_126" data-name="Path 126" d="M142.025,35.36h-1.451V33.533h1.451Zm-1.232-.219h1.013V33.752h-1.013Z" fill="#263238"/>
      <path id="Path_127" data-name="Path 127" d="M144.029,35.36h-1.453V33.533h1.453Zm-1.234-.219h1.015V33.752h-1.015Z" fill="#263238"/>
      <path id="Path_128" data-name="Path 128" d="M146.031,35.36H144.58V33.533h1.451Zm-1.232-.219h1.013V33.752H144.8Z" fill="#263238"/>
      <path id="Path_129" data-name="Path 129" d="M142.025,39.381h-1.451V37.554h1.451Zm-1.232-.219h1.013V37.773h-1.013Z" fill="#263238"/>
      <path id="Path_130" data-name="Path 130" d="M144.029,39.381h-1.453V37.554h1.453Zm-1.234-.219h1.015V37.773h-1.015Z" fill="#263238"/>
      <path id="Path_131" data-name="Path 131" d="M146.031,39.381H144.58V37.554h1.451Zm-1.232-.219h1.013V37.773H144.8Z" fill="#263238"/>
      <path id="Path_132" data-name="Path 132" d="M142.025,43.4h-1.451V41.569h1.451Zm-1.232-.219h1.013V41.787h-1.013Z" fill="#263238"/>
      <path id="Path_133" data-name="Path 133" d="M144.029,43.4h-1.453V41.569h1.453Zm-1.234-.219h1.015V41.787h-1.015Z" fill="#263238"/>
      <path id="Path_134" data-name="Path 134" d="M146.031,43.4H144.58V41.569h1.451Zm-1.232-.219h1.013V41.787H144.8Z" fill="#263238"/>
      <path id="Path_135" data-name="Path 135" d="M142.025,47.421h-1.451V45.594h1.451Zm-1.232-.219h1.013V45.813h-1.013Z" fill="#263238"/>
      <path id="Path_136" data-name="Path 136" d="M144.029,47.421h-1.453V45.594h1.453Zm-1.234-.219h1.015V45.813h-1.015Z" fill="#263238"/>
      <path id="Path_137" data-name="Path 137" d="M146.031,47.421H144.58V45.594h1.451ZM144.8,47.2h1.013V45.813H144.8Z" fill="#263238"/>
      <path id="Path_138" data-name="Path 138" d="M142.025,51.44h-1.451V49.613h1.451Zm-1.232-.219h1.013V49.832h-1.013Z" fill="#263238"/>
      <path id="Path_139" data-name="Path 139" d="M144.029,51.44h-1.453V49.613h1.453Zm-1.234-.219h1.015V49.832h-1.015Z" fill="#263238"/>
      <path id="Path_140" data-name="Path 140" d="M146.031,51.44H144.58V49.613h1.451Zm-1.232-.219h1.013V49.832H144.8Z" fill="#263238"/>
      <path id="Path_141" data-name="Path 141" d="M142.025,55.461h-1.451V53.635h1.451Zm-1.232-.219h1.013V53.853h-1.013Z" fill="#263238"/>
      <path id="Path_142" data-name="Path 142" d="M144.029,55.461h-1.453V53.635h1.453Zm-1.234-.219h1.015V53.853h-1.015Z" fill="#263238"/>
      <path id="Path_143" data-name="Path 143" d="M146.031,55.461H144.58V53.635h1.451Zm-1.232-.219h1.013V53.853H144.8Z" fill="#263238"/>
      <path id="Path_144" data-name="Path 144" d="M142.025,59.483h-1.451V57.656h1.451Zm-1.232-.219h1.013V57.875h-1.013Z" fill="#263238"/>
      <path id="Path_145" data-name="Path 145" d="M144.029,59.483h-1.453V57.656h1.453Zm-1.234-.219h1.015V57.875h-1.015Z" fill="#263238"/>
      <path id="Path_146" data-name="Path 146" d="M128.913,35.36h-1.451V33.533h1.451Zm-1.232-.219h1.013V33.752h-1.013Z" fill="#263238"/>
      <path id="Path_147" data-name="Path 147" d="M130.915,35.36h-1.451V33.533h1.451Zm-1.232-.219H130.7V33.752h-1.013Z" fill="#263238"/>
      <path id="Path_148" data-name="Path 148" d="M128.913,39.381h-1.451V37.554h1.451Zm-1.232-.219h1.013V37.773h-1.013Z" fill="#263238"/>
      <path id="Path_149" data-name="Path 149" d="M130.915,39.381h-1.451V37.554h1.451Zm-1.232-.219H130.7V37.773h-1.013Z" fill="#263238"/>
      <path id="Path_150" data-name="Path 150" d="M128.913,43.4h-1.451V41.569h1.451Zm-1.232-.219h1.013V41.787h-1.013Z" fill="#263238"/>
      <path id="Path_151" data-name="Path 151" d="M130.915,43.4h-1.451V41.569h1.451Zm-1.232-.219H130.7V41.787h-1.013Z" fill="#263238"/>
      <path id="Path_152" data-name="Path 152" d="M128.913,47.421h-1.451V45.594h1.451Zm-1.232-.219h1.013V45.813h-1.013Z" fill="#263238"/>
      <path id="Path_153" data-name="Path 153" d="M130.915,47.421h-1.451V45.594h1.451Zm-1.232-.219H130.7V45.813h-1.013Z" fill="#263238"/>
      <path id="Path_154" data-name="Path 154" d="M128.913,51.44h-1.451V49.613h1.451Zm-1.232-.219h1.013V49.832h-1.013Z" fill="#263238"/>
      <path id="Path_155" data-name="Path 155" d="M130.915,51.44h-1.451V49.613h1.451Zm-1.232-.219H130.7V49.832h-1.013Z" fill="#263238"/>
      <path id="Path_156" data-name="Path 156" d="M128.913,55.461h-1.451V53.635h1.451Zm-1.232-.219h1.013V53.853h-1.013Z" fill="#263238"/>
      <path id="Path_157" data-name="Path 157" d="M130.915,55.461h-1.451V53.635h1.451Zm-1.232-.219H130.7V53.853h-1.013Z" fill="#263238"/>
      <path id="Path_158" data-name="Path 158" d="M128.913,59.483h-1.451V57.656h1.451Zm-1.232-.219h1.013V57.875h-1.013Z" fill="#263238"/>
      <path id="Path_159" data-name="Path 159" d="M130.915,59.483h-1.451V57.656h1.451Zm-1.232-.219H130.7V57.875h-1.013Z" fill="#263238"/>
      <path id="Path_160" data-name="Path 160" d="M93.615,39.381H92.164V37.554h1.451Zm-1.232-.219H93.4V37.773H92.383Z" fill="#263238"/>
      <path id="Path_161" data-name="Path 161" d="M95.619,39.381H94.166V37.554h1.453Zm-1.234-.219H95.4V37.773H94.385Z" fill="#263238"/>
      <path id="Path_162" data-name="Path 162" d="M93.615,43.4H92.164V41.569h1.451Zm-1.232-.219H93.4V41.787H92.383Z" fill="#263238"/>
      <path id="Path_163" data-name="Path 163" d="M95.619,43.4H94.166V41.569h1.453Zm-1.234-.219H95.4V41.787H94.385Z" fill="#263238"/>
      <path id="Path_164" data-name="Path 164" d="M93.615,47.421H92.164V45.594h1.451ZM92.383,47.2H93.4V45.813H92.383Z" fill="#263238"/>
      <path id="Path_165" data-name="Path 165" d="M95.619,47.421H94.166V45.594h1.453ZM94.385,47.2H95.4V45.813H94.385Z" fill="#263238"/>
      <path id="Path_166" data-name="Path 166" d="M93.615,51.44H92.164V49.613h1.451Zm-1.232-.219H93.4V49.832H92.383Z" fill="#263238"/>
      <path id="Path_167" data-name="Path 167" d="M95.619,51.44H94.166V49.613h1.453Zm-1.234-.219H95.4V49.832H94.385Z" fill="#263238"/>
      <path id="Path_168" data-name="Path 168" d="M93.615,55.461H92.164V53.635h1.451Zm-1.232-.219H93.4V53.853H92.383Z" fill="#263238"/>
      <path id="Path_169" data-name="Path 169" d="M95.619,55.461H94.166V53.635h1.453Zm-1.234-.219H95.4V53.853H94.385Z" fill="#263238"/>
      <path id="Path_170" data-name="Path 170" d="M93.615,59.483H92.164V57.656h1.451Zm-1.232-.219H93.4V57.875H92.383Z" fill="#263238"/>
      <path id="Path_171" data-name="Path 171" d="M95.619,59.483H94.166V57.656h1.453Zm-1.234-.219H95.4V57.875H94.385Z" fill="#263238"/>
      <path id="Path_172" data-name="Path 172" d="M98.15,39.381H96.7V37.554h1.451Zm-1.23-.219h1.013V37.773H96.921Z" fill="#263238"/>
      <path id="Path_173" data-name="Path 173" d="M100.154,39.381H98.7V37.554h1.453Zm-1.234-.219h1.015V37.773H98.92Z" fill="#263238"/>
      <path id="Path_174" data-name="Path 174" d="M98.15,43.4H96.7V41.569h1.451Zm-1.232-.219h1.013V41.787H96.921Z" fill="#263238"/>
      <path id="Path_175" data-name="Path 175" d="M100.154,43.4H98.7V41.569h1.453Zm-1.234-.219h1.015V41.787H98.92Z" fill="#263238"/>
      <path id="Path_176" data-name="Path 176" d="M98.15,47.421H96.7V45.594h1.451ZM96.918,47.2h1.013V45.813H96.921Z" fill="#263238"/>
      <path id="Path_177" data-name="Path 177" d="M100.154,47.421H98.7V45.594h1.453ZM98.92,47.2h1.015V45.813H98.92Z" fill="#263238"/>
      <path id="Path_178" data-name="Path 178" d="M98.15,51.44H96.7V49.613h1.451Zm-1.232-.219h1.013V49.832H96.921Z" fill="#263238"/>
      <path id="Path_179" data-name="Path 179" d="M100.154,51.44H98.7V49.613h1.453Zm-1.234-.219h1.015V49.832H98.92Z" fill="#263238"/>
      <path id="Path_180" data-name="Path 180" d="M98.15,55.461H96.7V53.635h1.451Zm-1.232-.219h1.013V53.853H96.921Z" fill="#263238"/>
      <path id="Path_181" data-name="Path 181" d="M100.154,55.461H98.7V53.635h1.453Zm-1.234-.219h1.015V53.853H98.92Z" fill="#263238"/>
      <path id="Path_182" data-name="Path 182" d="M98.15,59.483H96.7V57.656h1.451Zm-1.232-.219h1.013V57.875H96.921Z" fill="#263238"/>
      <path id="Path_183" data-name="Path 183" d="M100.154,59.483H98.7V57.656h1.453Zm-1.234-.219h1.015V57.875H98.92Z" fill="#263238"/>
      <path id="Path_184" data-name="Path 184" d="M66.67,27.319H65.219V25.493H66.67ZM65.438,27.1h1.013V25.711H65.438Z" fill="#263238"/>
      <path id="Path_185" data-name="Path 185" d="M68.671,27.319H67.221V25.493h1.451ZM67.44,27.1h1.013V25.711H67.44Z" fill="#263238"/>
      <path id="Path_186" data-name="Path 186" d="M66.67,31.341H65.219V29.514H66.67Zm-1.232-.219h1.013V29.733H65.438Z" fill="#263238"/>
      <path id="Path_187" data-name="Path 187" d="M68.671,31.341H67.221V29.514h1.451Zm-1.232-.219h1.013V29.733H67.44Z" fill="#263238"/>
      <path id="Path_188" data-name="Path 188" d="M66.67,35.36H65.219V33.533H66.67Zm-1.232-.219h1.013V33.752H65.438Z" fill="#263238"/>
      <path id="Path_189" data-name="Path 189" d="M68.671,35.36H67.221V33.533h1.451Zm-1.232-.219h1.013V33.752H67.44Z" fill="#263238"/>
      <path id="Path_190" data-name="Path 190" d="M66.67,39.381H65.219V37.554H66.67Zm-1.232-.219h1.013V37.773H65.438Z" fill="#263238"/>
      <path id="Path_191" data-name="Path 191" d="M68.671,39.381H67.221V37.554h1.451Zm-1.232-.219h1.013V37.773H67.44Z" fill="#263238"/>
      <path id="Path_192" data-name="Path 192" d="M66.67,43.4H65.219V41.569H66.67Zm-1.232-.219h1.013V41.787H65.438Z" fill="#263238"/>
      <path id="Path_193" data-name="Path 193" d="M68.671,43.4H67.221V41.569h1.451Zm-1.232-.219h1.013V41.787H67.44Z" fill="#263238"/>
      <path id="Path_194" data-name="Path 194" d="M66.67,47.421H65.219V45.594H66.67ZM65.438,47.2h1.013V45.813H65.438Z" fill="#263238"/>
      <path id="Path_195" data-name="Path 195" d="M68.671,47.421H67.221V45.594h1.451ZM67.44,47.2h1.013V45.813H67.44Z" fill="#263238"/>
      <path id="Path_196" data-name="Path 196" d="M66.67,51.44H65.219V49.613H66.67Zm-1.232-.219h1.013V49.832H65.438Z" fill="#263238"/>
      <path id="Path_197" data-name="Path 197" d="M68.671,51.44H67.221V49.613h1.451Zm-1.232-.219h1.013V49.832H67.44Z" fill="#263238"/>
      <path id="Path_198" data-name="Path 198" d="M66.67,55.461H65.219V53.635H66.67Zm-1.232-.219h1.013V53.853H65.438Z" fill="#263238"/>
      <path id="Path_199" data-name="Path 199" d="M68.671,55.461H67.221V53.635h1.451Zm-1.232-.219h1.013V53.853H67.44Z" fill="#263238"/>
      <path id="Path_200" data-name="Path 200" d="M66.67,59.483H65.219V57.656H66.67Zm-1.232-.219h1.013V57.875H65.438Z" fill="#263238"/>
      <path id="Path_201" data-name="Path 201" d="M68.671,59.483H67.221V57.656h1.451Zm-1.232-.219h1.013V57.875H67.44Z" fill="#263238"/>
      <path id="Path_202" data-name="Path 202" d="M146.031,59.483H144.58V57.656h1.451Zm-1.232-.219h1.013V57.875H144.8Z" fill="#263238"/>
    </g>
    <g id="freepik--Trees--inject-2">
      <path id="Path_203" data-name="Path 203" d="M141.611,83.835c0,6.137-3.441,6.6-7.686,6.6s-7.688-.464-7.688-6.6,3.441-18.966,7.688-18.966S141.611,77.7,141.611,83.835Z" fill="#cb955b"/>
      <path id="Path_204" data-name="Path 204" d="M141.611,83.835c0,6.137-3.441,6.6-7.686,6.6s-7.688-.464-7.688-6.6,3.441-18.966,7.688-18.966S141.611,77.7,141.611,83.835Z" fill="#fff" opacity="0.58"/>
      <path id="Path_205" data-name="Path 205" d="M136.522,86.62l-1.271.088,3.312-2.232L136.2,85.671l.324-.934-1.081,1.317-1.269.641-.1-4.408.669-1.63-.687.917L134,79.018l2.107-2.809-2.12,2.173-.129-5.625-.114,3.6-1.352-1.507,1.33,2.2-.179,5.7-1.177-.77-1.072-1.9.431,1.479-2.1-1.374,3.9,3.36-.589,18.717h1.6l-.339-14.84.372-.249Z" fill="#263238"/>
      <path id="Path_206" data-name="Path 206" d="M160.547,72.636c0,9.869-5.535,10.613-12.361,10.613s-12.361-.744-12.361-10.613,5.535-30.5,12.361-30.5S160.547,62.762,160.547,72.636Z" fill="#cb955b"/>
      <path id="Path_207" data-name="Path 207" d="M160.547,72.636c0,9.869-5.535,10.613-12.361,10.613s-12.361-.744-12.361-10.613,5.535-30.5,12.361-30.5S160.547,62.762,160.547,72.636Z" fill="#fff" opacity="0.31"/>
      <path id="Path_208" data-name="Path 208" d="M152.364,77.11l-2.043.14,5.325-3.59-3.8,1.923.523-1.5L150.627,76.2l-2.041,1.03-.162-7.086,1.081-2.623L148.4,68.993l-.094-4.109,3.389-4.516-3.411,3.492-.208-9.044-.182,5.789-2.175-2.424,2.14,3.536-.289,9.169-1.892-1.236-1.724-3.056.691,2.38-3.385-2.212,6.268,5.406-.95,30.1h2.582L148.612,78.4l.6-.4Z" fill="#263238"/>
      <path id="Path_209" data-name="Path 209" d="M24.558,83.835c0,6.137,3.441,6.6,7.688,6.6s7.686-.464,7.686-6.6-3.441-18.966-7.686-18.966S24.558,77.7,24.558,83.835Z" fill="#cb955b"/>
      <path id="Path_210" data-name="Path 210" d="M24.558,83.835c0,6.137,3.441,6.6,7.688,6.6s7.686-.464,7.686-6.6-3.441-18.966-7.686-18.966S24.558,77.7,24.558,83.835Z" fill="#fff" opacity="0.58"/>
      <path id="Path_211" data-name="Path 211" d="M29.647,86.62l1.271.088-3.312-2.232,2.365,1.195-.324-.934,1.081,1.317L32,86.695l.1-4.408-.672-1.63.687.917.059-2.555-2.107-2.809,2.122,2.173.127-5.625.114,3.6,1.352-1.507-1.33,2.2.182,5.7,1.175-.77,1.072-1.9-.429,1.479,2.1-1.374-3.9,3.36.591,18.717H31.64l.339-14.84-.37-.249Z" fill="#263238"/>
      <path id="Path_212" data-name="Path 212" d="M5.706,72.73c0,9.845,5.516,10.578,12.32,10.578s12.32-.742,12.32-10.578-5.516-30.4-12.32-30.4S5.706,62.893,5.706,72.73Z" fill="#cb955b"/>
      <path id="Path_213" data-name="Path 213" d="M5.706,72.73c0,9.845,5.516,10.578,12.32,10.578s12.32-.742,12.32-10.578-5.516-30.4-12.32-30.4S5.706,62.893,5.706,72.73Z" fill="#fff" opacity="0.31"/>
      <path id="Path_214" data-name="Path 214" d="M13.86,77.193l2.039.14-5.308-3.577,3.789,1.917-.521-1.5,1.735,2.111,2.032,1.026.16-7.062-1.076-2.614,1.1,1.47.094-4.1-3.376-4.5,3.4,3.481.206-9.014.182,5.769,2.166-2.415-2.131,3.525.289,9.139,1.886-1.234,1.717-3.043-.689,2.372,3.371-2.205-6.246,5.389.947,30H17.056L17.6,78.479l-.593-.4Z" fill="#263238"/>
    </g>
    <g id="freepik--Characters--inject-2">
      <rect id="Rectangle_29" data-name="Rectangle 29" width="8.487" height="3.415" rx="0.873" transform="translate(78.777 45.778)" fill="#263238"/>
      <path id="Path_215" data-name="Path 215" d="M86.391,49.3H79.65a.985.985,0,0,1-.982-.982V46.653a.985.985,0,0,1,.982-.985h6.741a.985.985,0,0,1,.982.985V48.32a.982.982,0,0,1-.982.982ZM79.65,45.887a.766.766,0,0,0-.764.766V48.32a.764.764,0,0,0,.764.764h6.741a.764.764,0,0,0,.764-.764V46.653a.766.766,0,0,0-.764-.766Z" fill="#263238"/>
      <rect id="Rectangle_30" data-name="Rectangle 30" width="0.827" height="2.588" transform="translate(82.295 44.122)" fill="#263238"/>
      <path id="Path_216" data-name="Path 216" d="M83.124,46.819H82.3a.109.109,0,0,1-.109-.109V44.122a.112.112,0,0,1,.109-.109h.829a.112.112,0,0,1,.109.109V46.71A.109.109,0,0,1,83.124,46.819ZM82.4,46.6h.61V44.231H82.4Z" fill="#263238"/>
      <path id="Path_217" data-name="Path 217" d="M112.192,62.675l-2.967-2.291L105.088,45.1,98.2,44.251l2.978,11.062H66.372L69.354,44.24l-6.883.849L58.271,60.6l-3.137,2.072ZM99.065,45.089l5.185.376,3.306,13.606-4.87-3.778h-.263Zm-35.749.376,5.185-.376-3.63,11,.123.042-5.1,3.387Z" fill="#263238"/>
      <path id="Path_218" data-name="Path 218" d="M112.192,62.791H55.133a.109.109,0,0,1-.061-.2l3.1-2.057,4.181-15.466a.109.109,0,0,1,.092-.081l6.883-.849a.114.114,0,0,1,.1.037.105.105,0,0,1,.022.1L66.51,55.192h34.53L98.1,44.268a.105.105,0,0,1,.022-.1.122.122,0,0,1,.1-.037l6.883.849a.114.114,0,0,1,.094.081l4.126,15.249,2.938,2.28a.107.107,0,0,1-.068.195ZM55.5,62.572h56.374l-2.715-2.1a.1.1,0,0,1-.037-.059L105,45.194l-6.649-.818,2.943,10.9a.109.109,0,0,1-.017.094.114.114,0,0,1-.088.044H66.372a.114.114,0,0,1-.088-.044.109.109,0,0,1-.018-.094l2.936-10.9-6.651.818L58.376,60.625a.1.1,0,0,1-.046.063Zm4.393-2.934a.1.1,0,0,1-.063-.022.105.105,0,0,1-.044-.114l3.424-14.057a.109.109,0,0,1,.1-.083l5.187-.376a.109.109,0,0,1,.112.144l-3.6,10.9h.02a.112.112,0,0,1,.074.09.109.109,0,0,1-.048.105l-5.109,3.385a.1.1,0,0,1-.055.02ZM63.4,45.575,60.065,59.281l4.713-3.124a.1.1,0,0,1-.011-.092l3.579-10.849ZM107.556,59.2a.112.112,0,0,1-.068-.024l-4.842-3.754h-.219a.109.109,0,0,1-.105-.077L98.953,45.13a.109.109,0,0,1,.112-.144l5.187.376a.109.109,0,0,1,.1.083l3.317,13.615a.112.112,0,0,1-.048.118.109.109,0,0,1-.063.011Zm-5.054-4h.184a.1.1,0,0,1,.066.022l4.625,3.586-3.225-13.232-4.942-.359Z" fill="#263238"/>
      <path id="Path_219" data-name="Path 219" d="M76.817,63.373l-.51-7.279a3.3,3.3,0,0,0-3.282-3.063h-6.7a3.3,3.3,0,0,0-3.282,3.063l-.51,7.279Z" fill="#787878"/>
      <path id="Path_220" data-name="Path 220" d="M76.817,63.484h-14.3a.114.114,0,0,1-.081-.035.116.116,0,0,1-.028-.083l.51-7.281a3.422,3.422,0,0,1,3.4-3.17h6.69a3.422,3.422,0,0,1,3.4,3.17l.51,7.281a.116.116,0,0,1-.028.083A.112.112,0,0,1,76.817,63.484Zm-14.179-.219H76.7L76.2,56.1a3.2,3.2,0,0,0-3.183-2.967h-6.69A3.2,3.2,0,0,0,63.141,56.1Z" fill="#263238"/>
      <path id="Path_221" data-name="Path 221" d="M103.2,63.373l-.51-7.279a3.3,3.3,0,0,0-3.295-3.063H92.7a3.3,3.3,0,0,0-3.293,3.063L88.9,63.373Z" fill="#787878"/>
      <path id="Path_222" data-name="Path 222" d="M103.2,63.484H88.9a.1.1,0,0,1-.072-.037.109.109,0,0,1-.031-.083l.512-7.281a3.422,3.422,0,0,1,3.4-3.17h6.684a3.422,3.422,0,0,1,3.4,3.17l.512,7.281a.116.116,0,0,1-.028.083.114.114,0,0,1-.081.037Zm-14.179-.219h14.063l-.5-7.165a3.2,3.2,0,0,0-3.183-2.967H92.7A3.2,3.2,0,0,0,89.519,56.1Z" fill="#263238"/>
      <path id="Path_223" data-name="Path 223" d="M67.978,47.646S66.7,46.73,65.9,47.159s-2.444,5.069-2.689,6.108,1.284,1.895,2.321,2.2a5.236,5.236,0,0,0,3.606-.855C69.63,54.12,67.978,47.646,67.978,47.646Z" fill="#263238"/>
      <path id="Path_224" data-name="Path 224" d="M66.158,55.652a2.319,2.319,0,0,1-.656-.081c-1.107-.326-2.658-1.214-2.407-2.328.219-.9,1.879-5.715,2.744-6.181s2.138.457,2.188.5l.033.022.011.039c.278,1.094,1.639,6.563,1.131,7.069A5.414,5.414,0,0,1,66.158,55.652Zm.236-8.5a.919.919,0,0,0-.438.1c-.715.385-2.354,4.853-2.625,6.036-.219.96,1.258,1.779,2.245,2.07a5.122,5.122,0,0,0,3.5-.827c.278-.278-.381-3.678-1.179-6.819A3.3,3.3,0,0,0,66.394,47.154Z" fill="#263238"/>
      <path id="Path_225" data-name="Path 225" d="M76.644,63.567c-.079-.245-.125-.4-.125-.4s-.89-4.767-1.111-5.148A16.746,16.746,0,0,0,72.417,56.4l-4.8-.254A32.116,32.116,0,0,0,64,58.115c-.018.118-.7,2.884-1.346,5.452Z" fill="#b2b2b2"/>
      <path id="Path_226" data-name="Path 226" d="M76.793,63.677H62.513l.035-.136c1.146-4.594,1.332-5.38,1.343-5.441s.039-.28,3.682-2.052l.026-.013,4.866.265A15.117,15.117,0,0,1,75.5,57.964c.23.392,1.033,4.691,1.125,5.183h0s.046.151.123.387Zm-14-.219h13.7l-.081-.258c-.359-1.921-.945-4.857-1.094-5.124A14.238,14.238,0,0,0,72.4,56.507l-4.75-.252a31.646,31.646,0,0,0-3.54,1.895C64.057,58.378,63.615,60.165,62.791,63.458ZM64.1,58.159Z" fill="#263238"/>
      <path id="Path_227" data-name="Path 227" d="M65.864,62.134a11.58,11.58,0,0,0-.584-2.107l.208-.072a12.033,12.033,0,0,1,.593,2.146Z" fill="#263238"/>
      <path id="Path_228" data-name="Path 228" d="M74.266,62.134a2.7,2.7,0,0,1,.267-1.385c.061-.16.12-.311.16-.449l.219.061c-.044.147-.1.3-.164.466a2.5,2.5,0,0,0-.258,1.26Z" fill="#263238"/>
      <path id="Path_229" data-name="Path 229" d="M70.293,46.012s-2.857.792-3.649,2.326-.847,1.879-.4,2.625a8,8,0,0,0,2.593,2.593c1.033.529,4.31-.238,4.31-.238a2.778,2.778,0,0,0,1.313-1.243c.308-.792,1.033-1.906.556-3.1a7.707,7.707,0,0,0-3.251-3.015,3.179,3.179,0,0,0-1.472.048Z" fill="#263238"/>
      <path id="Path_230" data-name="Path 230" d="M69.989,53.842a2.8,2.8,0,0,1-1.2-.2,8.074,8.074,0,0,1-2.625-2.625c-.459-.766-.418-1.16.392-2.726s3.59-2.345,3.719-2.38a3.229,3.229,0,0,1,1.531-.055,7.905,7.905,0,0,1,3.325,3.08,3.4,3.4,0,0,1-.368,2.746c-.07.153-.136.3-.188.438a2.989,2.989,0,0,1-1.381,1.313,16.684,16.684,0,0,1-3.205.407ZM71.2,46a3.511,3.511,0,0,0-.875.12h0c-.028,0-2.82.8-3.581,2.271-.779,1.505-.827,1.809-.4,2.512a7.892,7.892,0,0,0,2.549,2.551c1,.512,4.2-.238,4.236-.247h0a2.709,2.709,0,0,0,1.245-1.177c.055-.136.12-.282.193-.438a3.231,3.231,0,0,0,.363-2.575,7.706,7.706,0,0,0-3.181-2.949A1.969,1.969,0,0,0,71.2,46Z" fill="#263238"/>
      <path id="Path_231" data-name="Path 231" d="M72.371,48.018s-1.424.875-2.155,1.387a7.106,7.106,0,0,1-1.608.8.952.952,0,0,0-.51,1.061c.144.766.422,3.415.422,3.415l-.5,1.076L70.142,58.1l1.68-2.188.184-1.133a8.4,8.4,0,0,0,1.571-1.168c.039-.219.475-3.433.438-3.761S72.371,48.018,72.371,48.018Z" fill="#fff"/>
      <path id="Path_232" data-name="Path 232" d="M70.15,58.268,67.895,55.79l.514-1.114c-.033-.3-.284-2.667-.42-3.378a1.068,1.068,0,0,1,.575-1.179,7.151,7.151,0,0,0,1.588-.794c.724-.508,2.146-1.383,2.162-1.391l.07-.044.061.057c.383.359,1.639,1.553,1.678,1.895s-.418,3.656-.438,3.792c-.037.219-.987.849-1.577,1.219l-.179,1.109Zm-2-2.527,1.982,2.188,1.584-2.065.186-1.153.044-.026a8.822,8.822,0,0,0,1.521-1.094c.042-.249.47-3.417.438-3.719a8.836,8.836,0,0,0-1.547-1.7c-.3.184-1.453.9-2.081,1.341a7.253,7.253,0,0,1-1.634.818.834.834,0,0,0-.438.934c.144.764.411,3.319.422,3.426v.031Z" fill="#263238"/>
      <path id="Path_233" data-name="Path 233" d="M72.222,52.414a.107.107,0,0,1-.105-.079.109.109,0,0,1,.077-.136,2.074,2.074,0,0,0,.669-.319c.085-.077-.162-.383-.267-.514s-.166-.208-.166-.278c0-.107.072-.757.081-.831a.109.109,0,0,1,.217.024c-.031.284-.079.735-.079.807,0,0,.07.083.116.14.195.238.486.6.245.816a2.334,2.334,0,0,1-.759.368Z" fill="#263238"/>
      <path id="Path_234" data-name="Path 234" d="M72.106,53.144a1.1,1.1,0,0,1-.731-.42.11.11,0,0,1,.16-.151c.273.289.459.35.564.352a.142.142,0,0,0,.123-.035.112.112,0,0,1,.155,0,.107.107,0,0,1,0,.149.37.37,0,0,1-.269.105Z" fill="#263238"/>
      <path id="Path_235" data-name="Path 235" d="M72.006,54.774a2.625,2.625,0,0,1-.842-.219c-.236-.16-.925-.687-.925-.687l1.35,2.326.234-.284Z" fill="#263238"/>
      <path id="Path_236" data-name="Path 236" d="M71.588,56.3h0a.1.1,0,0,1-.085-.055l-1.35-2.326a.114.114,0,0,1,.022-.138.109.109,0,0,1,.14,0s.687.529.919.683a2.407,2.407,0,0,0,.792.206.107.107,0,0,1,.077.042.114.114,0,0,1,.02.083L71.94,55.93a.116.116,0,0,1-.024.053l-.234.284A.109.109,0,0,1,71.588,56.3Zm-.98-2.019,1,1.72.116-.14.16-.993a2.208,2.208,0,0,1-.774-.219c-.109-.079-.311-.225-.5-.368Z" fill="#263238"/>
      <path id="Path_237" data-name="Path 237" d="M68.89,50.9s-.5-1.507-1.094-.656a1.43,1.43,0,0,0,.794,2.008" fill="#fff"/>
      <path id="Path_238" data-name="Path 238" d="M68.586,52.361a1.232,1.232,0,0,1-.847-.7,1.374,1.374,0,0,1-.024-1.483.543.543,0,0,1,.512-.3c.438.061.735.895.766.989l-.206.07c-.1-.308-.354-.809-.591-.842-.1-.015-.2.057-.3.219a1.2,1.2,0,0,0,.033,1.251c.219.374.508.591.656.586l.013.219Z" fill="#263238"/>
      <ellipse id="Ellipse_13" data-name="Ellipse 13" cx="0.225" cy="0.317" rx="0.225" ry="0.317" transform="translate(71.085 50.508)" fill="#263238"/>
      <ellipse id="Ellipse_14" data-name="Ellipse 14" cx="0.225" cy="0.317" rx="0.225" ry="0.317" transform="translate(73.069 50.508)" fill="#263238"/>
      <path id="Path_239" data-name="Path 239" d="M70.715,50.246a.1.1,0,0,1-.077-.033.105.105,0,0,1,0-.153,1.037,1.037,0,0,1,1.243-.123.109.109,0,1,1-.109.188.809.809,0,0,0-.98.09A.109.109,0,0,1,70.715,50.246Z" fill="#263238"/>
      <path id="Path_240" data-name="Path 240" d="M73.73,50.353a.109.109,0,0,1-.105-.081.322.322,0,0,0-.171-.219.834.834,0,0,0-.556.026.109.109,0,0,1-.083-.2,1.017,1.017,0,0,1,.735-.022.54.54,0,0,1,.284.357.112.112,0,0,1-.074.136Z" fill="#263238"/>
      <path id="Path_241" data-name="Path 241" d="M68.017,54.949,69.868,57.3,68.6,58.68l-1.429-2.566Z" fill="#fff"/>
      <path id="Path_242" data-name="Path 242" d="M68.577,58.863,67.046,56.1l.974-1.337,1.991,2.553ZM67.3,56.122l1.313,2.372,1.1-1.2-1.7-2.166Z" fill="#263238"/>
      <path id="Path_243" data-name="Path 243" d="M62.066,45.876l8.616,17.406H68.365L61.423,46.408" fill="#263238"/>
      <path id="Path_244" data-name="Path 244" d="M70.682,63.392H68.365a.109.109,0,0,1-.1-.068L61.323,46.45a.109.109,0,1,1,.2-.083l6.914,16.807H70.5L61.972,45.925a.109.109,0,0,1,.05-.147.112.112,0,0,1,.147.05l8.611,17.4a.109.109,0,0,1,0,.107.114.114,0,0,1-.1.057Z" fill="#263238"/>
      <path id="Path_245" data-name="Path 245" d="M69.868,57.3l.273.794L69.5,57.78Z" fill="#fff"/>
      <path id="Path_246" data-name="Path 246" d="M70.332,58.314l-1-.5.575-.742Zm-.656-.573.284.142-.12-.352Z" fill="#263238"/>
      <path id="Path_247" data-name="Path 247" d="M70.529,56.908l.9,1.772L72.8,56.352l-.925-.742Z" fill="#fff"/>
      <path id="Path_248" data-name="Path 248" d="M71.422,58.907,70.4,56.883l1.477-1.418,1.074.86Zm-.757-1.969.772,1.531L72.662,56.4l-.777-.621Z" fill="#263238"/>
      <path id="Path_249" data-name="Path 249" d="M70.529,56.908l-.387,1.19.652-.637Z" fill="#fff"/>
      <path id="Path_250" data-name="Path 250" d="M69.9,58.487l.61-1.875.416.875Zm.656-1.284-.164.508.278-.271Z" fill="#263238"/>
      <path id="Path_251" data-name="Path 251" d="M107.755,64.948c.151-.335.915-2.078.641-2.542-1.558-2.625-2.015-.875-2.571-2.188a15.657,15.657,0,0,0-2.063-3.964,32.768,32.768,0,0,0-4.925-1.267L93.6,54.851s-4.516,1.847-4.813,2.258a12.652,12.652,0,0,0-1.779,2.967c-.068.166-1.628,1.413-1.7,1.58a3.554,3.554,0,0,0,.123,3.3Z" fill="#fff"/>
      <path id="Path_252" data-name="Path 252" d="M107.755,65.057H85.426a.112.112,0,0,1-.094-.05,3.69,3.69,0,0,1-.129-3.4,5.366,5.366,0,0,1,.875-.834,9.728,9.728,0,0,0,.816-.75A12.471,12.471,0,0,1,88.64,57.1l.052-.07c.317-.422,4.4-2.1,4.87-2.293a.105.105,0,0,1,.044,0l5.233.136a30.785,30.785,0,0,1,4.984,1.286c.505.343,1.639,2.921,2.1,4.01.206.486.368.5.637.521.418.035.989.083,1.927,1.661.287.481-.348,2.008-.634,2.643A.109.109,0,0,1,107.755,65.057Zm-22.27-.219h22.2c.438-.982.792-2.081.617-2.376-.875-1.481-1.387-1.531-1.75-1.553-.289-.024-.564-.048-.82-.656-1.12-2.625-1.792-3.756-2.024-3.916a27.948,27.948,0,0,0-4.885-1.247l-5.192-.136a34.4,34.4,0,0,0-4.756,2.214l-.057.072a12.287,12.287,0,0,0-1.707,2.87,5.084,5.084,0,0,1-.875.827,9.669,9.669,0,0,0-.825.757,3.49,3.49,0,0,0,.074,3.144Z" fill="#263238"/>
      <path id="Path_253" data-name="Path 253" d="M90.5,64.381a.109.109,0,0,1-.109-.105c-.044-1.063-.063-2.131-.081-3.161-.013-.709-.024-1.422-.046-2.148a.109.109,0,1,1,.219,0c.022.726.033,1.442.046,2.151.018,1.03.037,2.1.081,3.157a.109.109,0,0,1-.105.114Z" fill="#263238"/>
      <path id="Path_254" data-name="Path 254" d="M90.357,58.529a.112.112,0,0,1-.109-.107l-.013-.543a.114.114,0,0,1,.123-.12.109.109,0,0,1,.112.107l.013.54a.109.109,0,0,1-.107.114Z" fill="#263238"/>
      <path id="Path_255" data-name="Path 255" d="M101.975,64.39h0a.114.114,0,0,1-.1-.118l.414-5.491a.11.11,0,0,1,.219.015l-.414,5.491a.109.109,0,0,1-.116.1Z" fill="#263238"/>
      <path id="Path_256" data-name="Path 256" d="M102.436,58.253h0a.109.109,0,0,1-.1-.118l.028-.368a.11.11,0,0,1,.219.017l-.028.368a.109.109,0,0,1-.118.1Z" fill="#263238"/>
      <path id="Path_257" data-name="Path 257" d="M95.026,60.762c.053.963-.053,2.91-.133,4.185h3.5c-.168-1.518-.438-3.973-.494-4.513a17.156,17.156,0,0,0-1.146-3.063l.683-.9-1.23-1.284-.792,1.23.628,1.037A7.189,7.189,0,0,0,95.026,60.762Z" fill="#cb955b"/>
      <path id="Path_258" data-name="Path 258" d="M98.389,65.057h-3.5a.1.1,0,0,1-.079-.033.107.107,0,0,1-.031-.083c.09-1.387.184-3.24.133-4.172a6.979,6.979,0,0,1,.993-3.31l-.6-.982a.112.112,0,0,1,0-.116l.792-1.23a.112.112,0,0,1,.081-.05.109.109,0,0,1,.09.033L97.5,56.4a.109.109,0,0,1,0,.142l-.643.849a16.016,16.016,0,0,1,1.129,3.035c.05.492.289,2.654.494,4.513a.122.122,0,0,1-.028.085.112.112,0,0,1-.066.035Zm-3.38-.219h3.258c-.094-.851-.418-3.789-.479-4.391a17.47,17.47,0,0,0-1.138-3.026.107.107,0,0,1,.011-.112l.626-.827-1.068-1.118-.68,1.057.593.978a.107.107,0,0,1,0,.114,7.03,7.03,0,0,0-1,3.245h0c.05.917-.039,2.7-.127,4.08Z" fill="#263238"/>
      <path id="Path_259" data-name="Path 259" d="M94.289,52.84l-.219,1.639,2.321,1.284,2.076-1.256-.081-1.2Z" fill="#fff"/>
      <path id="Path_260" data-name="Path 260" d="M96.393,55.873a.118.118,0,0,1-.055-.013l-2.321-1.284a.107.107,0,0,1-.055-.109l.219-1.641a.112.112,0,0,1,.114-.1l4.1.466a.107.107,0,0,1,.1.1l.081,1.2a.1.1,0,0,1-.053.1l-2.076,1.258A.1.1,0,0,1,96.393,55.873ZM94.188,54.42l2.2,1.216,1.969-1.188L98.286,53.4l-3.9-.438Z" fill="#263238"/>
      <path id="Path_261" data-name="Path 261" d="M94.07,54.479l.781.431,1.319-.551L94.7,52.886l-.411-.046Z" fill="#263238"/>
      <path id="Path_262" data-name="Path 262" d="M94.851,55.019a.118.118,0,0,1-.055-.013l-.779-.438a.107.107,0,0,1-.055-.109l.219-1.641a.114.114,0,0,1,.114-.092l.409.048a.107.107,0,0,1,.066.031l1.472,1.472a.1.1,0,0,1,.028.1.107.107,0,0,1-.063.079l-1.313.554A.138.138,0,0,1,94.851,55.019Zm-.656-.6.669.37,1.12-.468-1.328-1.33-.267-.031Z" fill="#263238"/>
      <path id="Path_263" data-name="Path 263" d="M94.127,46.358a2.094,2.094,0,0,0-.829,1.35,19.866,19.866,0,0,0,.8,5.325,2.778,2.778,0,0,0,2.041,1.682,2.685,2.685,0,0,0,2.483-1.381,26.33,26.33,0,0,0,.656-4.026c0-.963.112-2.07-.772-2.868a3.93,3.93,0,0,0-3.006-.829A3.563,3.563,0,0,0,94.127,46.358Z" fill="#fff"/>
      <path id="Path_264" data-name="Path 264" d="M96.409,54.847a1.608,1.608,0,0,1-.289-.024A2.916,2.916,0,0,1,94,53.072a19.517,19.517,0,0,1-.814-5.382,2.253,2.253,0,0,1,.875-1.429,3.66,3.66,0,0,1,1.426-.768,4.053,4.053,0,0,1,3.1.855,3.2,3.2,0,0,1,.81,2.66V49.3a27.382,27.382,0,0,1-.656,4.056A2.931,2.931,0,0,1,96.409,54.847Zm-.394-9.169a2.625,2.625,0,0,0-.488.042,3.59,3.59,0,0,0-1.328.72h0a2.016,2.016,0,0,0-.783,1.271,19.693,19.693,0,0,0,.788,5.264A2.658,2.658,0,0,0,96.172,54.6a2.6,2.6,0,0,0,2.356-1.3,26.274,26.274,0,0,0,.656-4v-.293a2.99,2.99,0,0,0-.737-2.494,3.848,3.848,0,0,0-2.433-.838Zm-1.888.68Z" fill="#263238"/>
      <path id="Path_265" data-name="Path 265" d="M98.511,46.441a3.913,3.913,0,0,0-3.006-.829,3.6,3.6,0,0,0-1.378.746,2.094,2.094,0,0,0-.829,1.35,18.465,18.465,0,0,0,.2,2.564c.057.011.129-.015.129-.219,0-.33-.195-.523.055-.8a8.036,8.036,0,0,0,.855-1.02,1.7,1.7,0,0,0,.164-.91,2.973,2.973,0,0,0,1.49.525c.993.109,2.07.109,2.234.138s-.055.193.195.523a1.753,1.753,0,0,1,.385.656c.028.16.151.941.184,1.157a8.043,8.043,0,0,0,.092-1.02C99.283,48.351,99.4,47.24,98.511,46.441Z" fill="#263238"/>
      <path id="Path_266" data-name="Path 266" d="M99.192,50.438a.109.109,0,0,1-.107-.092l-.011-.061c-.044-.278-.151-.965-.173-1.094a1.72,1.72,0,0,0-.365-.615.639.639,0,0,1-.149-.477h0c-.077,0-.234-.015-.438-.022-.449-.015-1.127-.042-1.774-.114a3.45,3.45,0,0,1-1.363-.422,1.558,1.558,0,0,1-.188.757,6.157,6.157,0,0,1-.7.858l-.164.179a.381.381,0,0,0-.07.413,1.418,1.418,0,0,1,.044.313.35.35,0,0,1-.1.287.2.2,0,0,1-.162.042.112.112,0,0,1-.09-.094,18.69,18.69,0,0,1-.2-2.586,2.174,2.174,0,0,1,.875-1.433,3.664,3.664,0,0,1,1.42-.764,4.053,4.053,0,0,1,3.1.855h0a3.2,3.2,0,0,1,.809,2.66v.289a8.35,8.35,0,0,1-.092,1.035.109.109,0,0,1-.107.094ZM94.7,47.213a.1.1,0,0,1,.07.026,2.925,2.925,0,0,0,1.433.5c.641.07,1.313.1,1.75.112a3.437,3.437,0,0,1,.481.026.193.193,0,0,1,.158.234.438.438,0,0,0,.105.333,1.785,1.785,0,0,1,.4.709c0,.05.031.179.055.335v-.47a2.99,2.99,0,0,0-.737-2.494h0a3.8,3.8,0,0,0-2.912-.8,3.5,3.5,0,0,0-1.328.72,1.987,1.987,0,0,0-.792,1.278,12.691,12.691,0,0,0,.094,1.612.589.589,0,0,1,.1-.149L93.755,49a6,6,0,0,0,.676-.823,1.612,1.612,0,0,0,.151-.842.107.107,0,0,1,.057-.107A.1.1,0,0,1,94.7,47.213Z" fill="#263238"/>
      <path id="Path_267" data-name="Path 267" d="M96.5,51.906a1.676,1.676,0,0,1-.753-.271.107.107,0,0,1-.033-.151.109.109,0,0,1,.151-.033,1.3,1.3,0,0,0,.694.232,1.676,1.676,0,0,0,.562-.256.109.109,0,0,1,.127.177,1.862,1.862,0,0,1-.656.3A.745.745,0,0,1,96.5,51.906Z" fill="#263238"/>
      <path id="Path_268" data-name="Path 268" d="M98.485,49.64a.1.1,0,0,1-.07-.026.928.928,0,0,0-1.135-.05.11.11,0,0,1-.129-.177,1.164,1.164,0,0,1,1.4.059.107.107,0,0,1,.015.153.109.109,0,0,1-.083.042Z" fill="#263238"/>
      <path id="Path_269" data-name="Path 269" d="M94.623,49.749a.109.109,0,0,1-.072-.026.112.112,0,0,1-.011-.155,1.065,1.065,0,0,1,1.411-.129.109.109,0,0,1-.12.182.867.867,0,0,0-1.127.092.1.1,0,0,1-.081.037Z" fill="#263238"/>
      <path id="Path_270" data-name="Path 270" d="M95.477,50.053c0,.138-.068.249-.151.249s-.151-.112-.151-.249.068-.247.151-.247S95.477,49.915,95.477,50.053Z" fill="#263238"/>
      <path id="Path_271" data-name="Path 271" d="M97.78,50.053c0,.138-.068.249-.151.249s-.153-.112-.153-.249.068-.247.153-.247S97.78,49.915,97.78,50.053Z" fill="#263238"/>
      <path id="Path_272" data-name="Path 272" d="M96.389,52.764a3.03,3.03,0,0,1-1.12-.219.11.11,0,1,1,.088-.2,2.774,2.774,0,0,0,2.061-.026.107.107,0,0,1,.144.053.109.109,0,0,1-.053.147,2.673,2.673,0,0,1-1.12.247Z" fill="#263238"/>
      <path id="Path_273" data-name="Path 273" d="M93.464,49.777s-.438-.359-.606.276.855,1.461.855,1.461Z" fill="#fff"/>
      <path id="Path_274" data-name="Path 274" d="M93.713,51.633a.114.114,0,0,1-.07-.024c-.044-.035-1.074-.875-.893-1.575a.567.567,0,0,1,.33-.438.547.547,0,0,1,.453.107.118.118,0,0,1,.039.07l.247,1.737a.107.107,0,0,1-.107.125ZM93.2,49.795a.186.186,0,0,0-.05,0c-.1.035-.155.175-.186.289-.094.363.3.851.6,1.149l-.2-1.389a.332.332,0,0,0-.162-.057Z" fill="#263238"/>
      <path id="Path_275" data-name="Path 275" d="M99.257,49.882s.247-.414.468.112-.772,1.682-.772,1.682Z" fill="#fff"/>
      <path id="Path_276" data-name="Path 276" d="M98.953,51.79a.109.109,0,0,1-.046-.011.105.105,0,0,1-.061-.116l.3-1.794a.079.079,0,0,1,.015-.037.392.392,0,0,1,.326-.219c.136,0,.247.12.337.33.241.571-.685,1.674-.79,1.8a.107.107,0,0,1-.083.05Zm.407-1.862-.219,1.343c.308-.438.6-.971.492-1.232-.061-.142-.118-.195-.151-.2A.187.187,0,0,0,99.36,49.928Z" fill="#263238"/>
      <path id="Path_277" data-name="Path 277" d="M96.514,52.031s-1.313-.184-1.588.256a2.924,2.924,0,0,0,.114,1.956,2.5,2.5,0,0,0,1.094.473,2.251,2.251,0,0,0,1.584-.438,2.464,2.464,0,0,0,.208-1.505C97.885,52.009,97.551,51.932,96.514,52.031Zm.987,1.792a1.772,1.772,0,0,1-1.044.311,2.1,2.1,0,0,1-1.186-.271,1.661,1.661,0,0,1-.2-1.507c.241-.308,1.424-.179,1.424-.179.932-.07,1.234-.018,1.275.527.074,1-.273,1.118-.273,1.118Z" fill="#263238"/>
      <path id="Path_278" data-name="Path 278" d="M96.4,54.847a1.577,1.577,0,0,1-.284-.024,2.606,2.606,0,0,1-1.149-.492.153.153,0,0,1-.033-.044,3.031,3.031,0,0,1-.105-2.057c.3-.475,1.492-.335,1.682-.308.637-.059,1.028-.053,1.265.149a.939.939,0,0,1,.26.707,2.66,2.66,0,0,1-.219,1.575.1.1,0,0,1-.031.028A2.66,2.66,0,0,1,96.4,54.847Zm-1.275-.674a2.337,2.337,0,0,0,1.03.438,2.2,2.2,0,0,0,1.486-.4,1.464,1.464,0,0,0,.175-.672.567.567,0,0,1-.265.378,1.886,1.886,0,0,1-1.094.326h-.024a2.007,2.007,0,0,1-1.234-.3,1.256,1.256,0,0,1-.247-.492,3.147,3.147,0,0,0,.173.72Zm.858-1.917c-.372,0-.731.044-.827.166-.219.263-.02,1.149.19,1.363s.875.219,1.094.236h.024a1.7,1.7,0,0,0,.976-.289.086.086,0,0,1,.024-.013c.013,0,.271-.155.206-1.013-.031-.407-.171-.5-1.157-.427-.166-.013-.35-.024-.529-.024Z" fill="#263238"/>
      <path id="Path_279" data-name="Path 279" d="M96.822,53.683c0,.112-.16.451-.357.451s-.357-.339-.357-.451.16-.2.357-.2S96.822,53.571,96.822,53.683Z" fill="#263238"/>
      <path id="Path_280" data-name="Path 280" d="M96.466,54.243c-.282,0-.466-.418-.466-.56,0-.179.2-.313.466-.313s.466.133.466.313C96.932,53.82,96.748,54.243,96.466,54.243Zm0-.656c-.162,0-.247.07-.247.094,0,.079.138.341.247.341s.247-.263.247-.341c0-.022-.085-.092-.247-.092Z" fill="#263238"/>
      <path id="Path_281" data-name="Path 281" d="M96.391,55.763,94.4,57.621l-1.065-2.814.683-.547Z" fill="#fff"/>
      <path id="Path_282" data-name="Path 282" d="M94.4,57.73h-.024a.107.107,0,0,1-.079-.068L93.23,54.849a.112.112,0,0,1,.035-.125l.683-.547a.112.112,0,0,1,.127,0l2.376,1.5a.105.105,0,0,1,.05.081.109.109,0,0,1-.033.092l-2,1.857a.105.105,0,0,1-.074.02Zm-.934-2.888.978,2.588,1.772-1.65L94.026,54.4Z" fill="#263238"/>
      <path id="Path_283" data-name="Path 283" d="M96.391,55.763,98,57.868l1.065-2.787-.6-.573Z" fill="#fff"/>
      <path id="Path_284" data-name="Path 284" d="M98.015,57.977a.109.109,0,0,1-.085-.044l-1.612-2.1a.109.109,0,0,1-.022-.085.114.114,0,0,1,.053-.074l2.076-1.256a.105.105,0,0,1,.131.015l.6.573a.112.112,0,0,1,.026.118l-1.065,2.785a.114.114,0,0,1-.088.07ZM96.564,55.79l1.418,1.851.971-2.536-.5-.462Z" fill="#263238"/>
      <path id="Path_285" data-name="Path 285" d="M105.072,45.876,92.331,63.283h2.317l11.068-16.875" fill="#263238"/>
      <path id="Path_286" data-name="Path 286" d="M94.647,63.392H92.326a.112.112,0,0,1-.088-.175l12.742-17.406a.11.11,0,1,1,.177.129L92.545,63.173h2.041l11.038-16.827a.109.109,0,0,1,.182.12L94.733,63.342a.109.109,0,0,1-.085.05Z" fill="#263238"/>
      <path id="Path_287" data-name="Path 287" d="M84.6,64.948h3.218c.308-.359.606-.768.685-.875a1.86,1.86,0,0,0,.273-1.641A2.54,2.54,0,0,0,87.754,61.1l-.853.171a2.063,2.063,0,0,0-1.267,0A3.335,3.335,0,0,0,84.1,63.285a1.531,1.531,0,0,0,.5,1.663Z" fill="#fff"/>
      <path id="Path_288" data-name="Path 288" d="M87.821,65.057H84.6a.12.12,0,0,1-.072-.024,1.663,1.663,0,0,1-.54-1.768,3.487,3.487,0,0,1,1.6-2.089,2.185,2.185,0,0,1,1.313-.013L87.732,61a.094.094,0,0,1,.077.013,2.625,2.625,0,0,1,1.076,1.4,1.989,1.989,0,0,1-.3,1.739l-.1.127c-.133.175-.357.473-.591.744a.114.114,0,0,1-.081.037Zm-3.179-.219h3.129c.219-.256.424-.529.551-.7l.1-.129a1.75,1.75,0,0,0,.254-1.545,2.407,2.407,0,0,0-.943-1.247l-.812.162a.094.094,0,0,1-.055,0,1.985,1.985,0,0,0-1.188,0A3.287,3.287,0,0,0,84.2,63.331a1.437,1.437,0,0,0,.442,1.507Z" fill="#263238"/>
      <path id="Path_289" data-name="Path 289" d="M86.262,64.364a.107.107,0,0,1-.09-.048c-.549-.8-.411-1.844.387-2.94a.112.112,0,0,1,.153-.024.109.109,0,0,1,.024.153,2.315,2.315,0,0,0-.385,2.689.107.107,0,0,1-.028.151A.1.1,0,0,1,86.262,64.364Z" fill="#263238"/>
      <path id="Path_290" data-name="Path 290" d="M91.53,60.259s.567-.14.755-.022a1.989,1.989,0,0,1,.5.731c.094.219-.048.4-.354.449s-.707-.354-.707-.354Z" fill="#fff"/>
      <path id="Path_291" data-name="Path 291" d="M92.377,61.528a1.3,1.3,0,0,1-.735-.389.111.111,0,0,1-.028-.053l-.188-.8a.109.109,0,0,1,.079-.131c.1-.026.624-.147.84-.011a2.173,2.173,0,0,1,.538.779.383.383,0,0,1,0,.346.56.56,0,0,1-.438.256.366.366,0,0,1-.068,0Zm-.558-.523c.118.112.4.333.591.3a.365.365,0,0,0,.273-.142.164.164,0,0,0,0-.153,1.89,1.89,0,0,0-.453-.683,1.125,1.125,0,0,0-.564.013Z" fill="#263238"/>
      <path id="Path_292" data-name="Path 292" d="M103.233,61.539l-.457-.586-4.732,2.969h-3.4l-4.7-2.676-.392.424,2.313,3.277h8.712Z" fill="#263238"/>
      <path id="Path_293" data-name="Path 293" d="M100.581,65.057H91.869a.1.1,0,0,1-.09-.046l-2.313-3.282a.112.112,0,0,1,.011-.138l.392-.424A.109.109,0,0,1,90,61.145l4.675,2.663h3.336l4.706-2.954a.112.112,0,0,1,.144.026l.457.586a.112.112,0,0,1,0,.136l-2.652,3.409a.107.107,0,0,1-.09.046Zm-8.655-.219h8.6l2.566-3.3-.343-.438L98.1,64.018a.109.109,0,0,1-.057.018h-3.4a.092.092,0,0,1-.053-.015L89.97,61.395l-.269.284Z" fill="#263238"/>
      <path id="Path_294" data-name="Path 294" d="M89.325,64.948a7.058,7.058,0,0,1,14.092,0h1.127a8.182,8.182,0,0,0-16.345,0Z" fill="#263238"/>
      <path id="Path_295" data-name="Path 295" d="M104.543,65.057h-1.127a.107.107,0,0,1-.109-.1,6.949,6.949,0,0,0-13.873,0,.109.109,0,0,1-.109.1H88.2a.105.105,0,0,1-.079-.033.1.1,0,0,1-.031-.081,8.292,8.292,0,0,1,16.564,0,.12.12,0,0,1-.031.081A.112.112,0,0,1,104.543,65.057Zm-1.024-.219h.908a8.073,8.073,0,0,0-16.113,0h.908a7.167,7.167,0,0,1,14.3,0Z" fill="#263238"/>
      <path id="Path_296" data-name="Path 296" d="M88.441,59.695A10.906,10.906,0,0,0,86.955,62.5a1.406,1.406,0,0,0,.991,1.6c.709.118.825-.33.825-.33s1.531.33,1.6.33a.344.344,0,0,0,.284-.236,2.14,2.14,0,0,1,.164-.378,1.223,1.223,0,0,0,.354-.4c.14-.258.188-.376.188-.376a3.064,3.064,0,0,0,.306-.543,2.255,2.255,0,0,0,.048-.473,1.094,1.094,0,0,0,.219-.637,1.917,1.917,0,0,0-1.039-1.3,4.183,4.183,0,0,0-1.98-.494.687.687,0,0,0-.479.424Z" fill="#fff"/>
      <path id="Path_297" data-name="Path 297" d="M88.169,64.235a1.378,1.378,0,0,1-.238-.022,1.512,1.512,0,0,1-1.083-1.72,10.446,10.446,0,0,1,1.5-2.844.775.775,0,0,1,.554-.481,4.356,4.356,0,0,1,2.048.508,2,2,0,0,1,1.094,1.385,1.146,1.146,0,0,1-.219.68,2.055,2.055,0,0,1-.05.466,2.91,2.91,0,0,1-.315.567c-.015.035-.07.158-.188.376a1.341,1.341,0,0,1-.365.422,1.986,1.986,0,0,0-.144.335.449.449,0,0,1-.389.315c-.068,0-.958-.19-1.542-.315a.711.711,0,0,1-.659.328Zm.875-4.864a.84.84,0,0,0-.114,0c-.26.037-.385.352-.385.354l-.013.024A11.044,11.044,0,0,0,87.067,62.5a1.3,1.3,0,0,0,.9,1.488c.593.1.7-.236.7-.252a.112.112,0,0,1,.129-.077c.571.123,1.505.319,1.586.328a.236.236,0,0,0,.171-.158,2.38,2.38,0,0,1,.175-.4.114.114,0,0,1,.035-.037,1.149,1.149,0,0,0,.319-.363c.136-.247.182-.363.184-.365l.011-.022a3.009,3.009,0,0,0,.291-.51,2.133,2.133,0,0,0,.044-.438.1.1,0,0,1,.022-.066.982.982,0,0,0,.19-.562,1.8,1.8,0,0,0-.982-1.21,4.419,4.419,0,0,0-1.8-.488Zm-.6.324Z" fill="#263238"/>
      <path id="Path_298" data-name="Path 298" d="M91.72,61.808a.1.1,0,0,1-.055-.015l-1.938-1.111a.114.114,0,0,1-.042-.151.109.109,0,0,1,.151-.039L91.775,61.6a.109.109,0,0,1-.055.2Z" fill="#263238"/>
      <path id="Path_299" data-name="Path 299" d="M89.585,60.583a.092.092,0,0,1-.053-.015l-.249-.142a.112.112,0,0,1-.042-.149.114.114,0,0,1,.151-.042l.247.144a.107.107,0,0,1,.042.149A.109.109,0,0,1,89.585,60.583Z" fill="#263238"/>
      <path id="Path_300" data-name="Path 300" d="M91.366,62.823a.1.1,0,0,1-.05-.013l-2.595-1.332a.112.112,0,0,1-.046-.149.109.109,0,0,1,.147-.046l2.595,1.343a.112.112,0,0,1,.046.149A.109.109,0,0,1,91.366,62.823Z" fill="#263238"/>
      <path id="Path_301" data-name="Path 301" d="M90.823,63.6a.1.1,0,0,1-.044,0l-1.7-.753a.11.11,0,0,1,.09-.2l1.7.755a.107.107,0,0,1,.057.144.114.114,0,0,1-.1.055Z" fill="#263238"/>
      <path id="Path_302" data-name="Path 302" d="M88.872,62.736a.112.112,0,0,1-.044,0l-.337-.149a.11.11,0,0,1,.09-.2l.337.149a.112.112,0,0,1,.055.144A.109.109,0,0,1,88.872,62.736Z" fill="#263238"/>
      <path id="Path_303" data-name="Path 303" d="M105.064,64.948h3.218a1.531,1.531,0,0,0,.508-1.654,3.383,3.383,0,0,0-1.531-2.017,2.068,2.068,0,0,0-1.267,0l-.855-.171a2.553,2.553,0,0,0-1.026,1.335,1.875,1.875,0,0,0,.273,1.641C104.458,64.18,104.753,64.589,105.064,64.948Z" fill="#fff"/>
      <path id="Path_304" data-name="Path 304" d="M108.282,65.057h-3.218a.107.107,0,0,1-.083-.037c-.234-.271-.459-.569-.593-.744l-.1-.127A1.989,1.989,0,0,1,104,62.41a2.641,2.641,0,0,1,1.074-1.4.1.1,0,0,1,.079-.013l.827.164a2.087,2.087,0,0,1,1.313.013,3.5,3.5,0,0,1,1.6,2.089,1.658,1.658,0,0,1-.543,1.768A.114.114,0,0,1,108.282,65.057Zm-3.168-.219h3.126a1.437,1.437,0,0,0,.438-1.514,3.252,3.252,0,0,0-1.479-1.947,1.914,1.914,0,0,0-1.186,0,.1.1,0,0,1-.057,0l-.809-.162a2.428,2.428,0,0,0-.945,1.247,1.766,1.766,0,0,0,.254,1.545c.022.024.055.07.1.129C104.69,64.309,104.9,64.582,105.114,64.838Z" fill="#263238"/>
      <path id="Path_305" data-name="Path 305" d="M106.624,64.364a.114.114,0,0,1-.063-.02.109.109,0,0,1-.026-.151,1.713,1.713,0,0,0,.19-.365.11.11,0,1,1,.206.077,2,2,0,0,1-.219.411A.109.109,0,0,1,106.624,64.364Z" fill="#263238"/>
      <path id="Path_306" data-name="Path 306" d="M106.921,63.6h-.015a.109.109,0,0,1-.094-.123,2.9,2.9,0,0,0-.656-1.969.11.11,0,1,1,.177-.129,3.1,3.1,0,0,1,.707,2.133.112.112,0,0,1-.118.088Z" fill="#263238"/>
      <path id="Path_307" data-name="Path 307" d="M101.353,60.259s-.567-.14-.755-.022a2.011,2.011,0,0,0-.494.731c-.094.219.046.4.354.448s.707-.354.707-.354Z" fill="#fff"/>
      <path id="Path_308" data-name="Path 308" d="M100.509,61.528a.355.355,0,0,1-.068,0,.56.56,0,0,1-.438-.256.383.383,0,0,1,0-.346,2.173,2.173,0,0,1,.538-.779,1.448,1.448,0,0,1,.838.011.109.109,0,0,1,.081.131l-.188.8a.1.1,0,0,1-.031.053A1.314,1.314,0,0,1,100.509,61.528Zm.326-1.23a.361.361,0,0,0-.177.031,1.89,1.89,0,0,0-.453.683.164.164,0,0,0,0,.153.359.359,0,0,0,.271.142c.193.033.475-.19.593-.3l.155-.656a2.212,2.212,0,0,0-.389-.05Z" fill="#263238"/>
      <path id="Path_309" data-name="Path 309" d="M104.445,59.695A10.975,10.975,0,0,1,105.93,62.5a1.406,1.406,0,0,1-.991,1.6c-.707.118-.825-.33-.825-.33s-1.531.33-1.606.33a.341.341,0,0,1-.282-.236,2.142,2.142,0,0,0-.164-.378,1.223,1.223,0,0,1-.354-.4,3.644,3.644,0,0,1-.188-.376,3.062,3.062,0,0,1-.306-.543,2.255,2.255,0,0,1-.048-.473,1.072,1.072,0,0,1-.219-.637,1.919,1.919,0,0,1,1.037-1.3,4.185,4.185,0,0,1,1.982-.494.687.687,0,0,1,.479.424Z" fill="#fff"/>
      <path id="Path_310" data-name="Path 310" d="M104.716,64.235a.713.713,0,0,1-.656-.335c-.582.125-1.472.315-1.531.315a.438.438,0,0,1-.389-.315,1.986,1.986,0,0,0-.144-.335,1.313,1.313,0,0,1-.365-.422c-.12-.219-.173-.341-.188-.376a2.9,2.9,0,0,1-.317-.567,2.339,2.339,0,0,1-.05-.466,1.146,1.146,0,0,1-.219-.68,2.014,2.014,0,0,1,1.094-1.385,4.39,4.39,0,0,1,2.05-.508.783.783,0,0,1,.554.481,10.649,10.649,0,0,1,1.5,2.844,1.516,1.516,0,0,1-1.083,1.72A1.385,1.385,0,0,1,104.716,64.235Zm-.6-.569a.109.109,0,0,1,.105.081c0,.013.109.348.7.249a1.3,1.3,0,0,0,.9-1.488,11.038,11.038,0,0,0-1.468-2.752.081.081,0,0,1-.011-.024s-.125-.317-.385-.354a4.133,4.133,0,0,0-1.914.484,1.8,1.8,0,0,0-.98,1.21.976.976,0,0,0,.19.562.112.112,0,0,1,.022.066,2.134,2.134,0,0,0,.044.438,2.809,2.809,0,0,0,.291.51l.011.022a4.054,4.054,0,0,0,.184.365,1.157,1.157,0,0,0,.317.363.1.1,0,0,1,.035.037,2.2,2.2,0,0,1,.175.4.234.234,0,0,0,.179.158c.072,0,1.009-.206,1.58-.328Z" fill="#263238"/>
      <path id="Path_311" data-name="Path 311" d="M101.165,61.808a.109.109,0,0,1-.055-.2l1.938-1.114a.107.107,0,0,1,.149.039.112.112,0,0,1-.039.151l-1.938,1.111A.1.1,0,0,1,101.165,61.808Z" fill="#263238"/>
      <path id="Path_312" data-name="Path 312" d="M103.3,60.583a.109.109,0,0,1-.055-.2l.249-.144a.112.112,0,0,1,.149.042.107.107,0,0,1-.039.149l-.249.142a.1.1,0,0,1-.055.015Z" fill="#263238"/>
      <path id="Path_313" data-name="Path 313" d="M101.515,62.823a.109.109,0,0,1-.05-.208l2.595-1.343a.109.109,0,0,1,.147.046.112.112,0,0,1-.046.149l-2.595,1.343a.116.116,0,0,1-.05.013Z" fill="#263238"/>
      <path id="Path_314" data-name="Path 314" d="M102.062,63.6a.109.109,0,0,1-.046-.208l1.7-.755a.11.11,0,0,1,.088.2l-1.7.753a.111.111,0,0,1-.044.009Z" fill="#263238"/>
      <path id="Path_315" data-name="Path 315" d="M104.011,62.736a.107.107,0,0,1-.1-.066.109.109,0,0,1,.055-.144l.337-.149a.109.109,0,0,1,.144.057.112.112,0,0,1-.055.144l-.337.149a.114.114,0,0,1-.046.009Z" fill="#263238"/>
      <path id="Path_316" data-name="Path 316" d="M111.041,79.322V93.14H57.019V79.322H46.865v20.2a2.844,2.844,0,0,0,2.844,2.844h4.483a2.844,2.844,0,0,0,2.844-2.844v-.932h4.92l2.3-1.466h39.348l2.938,1.674h4.5v.724a2.844,2.844,0,0,0,2.844,2.844h4.468a2.844,2.844,0,0,0,2.844-2.844v-20.2Z" fill="#263238"/>
      <path id="Path_317" data-name="Path 317" d="M118.361,102.462h-4.483a2.949,2.949,0,0,1-2.956-2.945V98.9h-4.376a.109.109,0,0,1-.053-.013l-2.908-1.661H64.276L62,98.671a.109.109,0,0,1-.059.018H57.126v.823a2.949,2.949,0,0,1-2.945,2.945H49.7a2.949,2.949,0,0,1-2.945-2.945V79.322a.109.109,0,0,1,.109-.109H57.019a.109.109,0,0,1,.109.109V93.031h53.794V79.322a.109.109,0,0,1,.109-.109h10.173a.109.109,0,0,1,.109.109v20.2A2.949,2.949,0,0,1,118.361,102.462Zm-11.792-3.778h4.472a.109.109,0,0,1,.109.109v.724a2.73,2.73,0,0,0,2.728,2.726h4.483a2.73,2.73,0,0,0,2.728-2.726V79.431h-9.948V93.14a.109.109,0,0,1-.109.109H57.019a.109.109,0,0,1-.109-.109V79.431H46.975V99.518a2.728,2.728,0,0,0,2.726,2.726h4.483a2.728,2.728,0,0,0,2.726-2.726v-.932a.109.109,0,0,1,.109-.109h4.9l2.275-1.448a.1.1,0,0,1,.059-.018h39.359a.109.109,0,0,1,.053.013Z" fill="#263238"/>
      <path id="Path_318" data-name="Path 318" d="M119.1,69.376a41.488,41.488,0,0,0-3.673-4.192,1.077,1.077,0,0,1-.162-.219c-.672-1.282-6.369-15.971-7.369-17.829-1.831-3.417-3.3-2.9-5.262-3.153h-.173L87.6,43.234a72.859,72.859,0,0,0-7.349,0l-12.07.6c-3.358.171-6.594-.046-8.438,3.295-1.024,1.851-6.7,16.54-7.369,17.826a1.035,1.035,0,0,1-.162.219,41.185,41.185,0,0,0-3.673,4.192c-.418.838-2.094,3.977-2.094,4.594a95.1,95.1,0,0,0,2.111,16.518,5.99,5.99,0,0,0,4.17,4.373,1.468,1.468,0,0,0,.315.066H66.083a.987.987,0,0,0,.853-.492l3.085-5.33a.974.974,0,0,1,.236-.273,7.408,7.408,0,0,1,4.566-1.547H92.832a7.423,7.423,0,0,1,4.555,1.547,1,1,0,0,1,.234.273l3.085,5.33a.987.987,0,0,0,.853.492H114.6a1.467,1.467,0,0,0,.315-.066,5.99,5.99,0,0,0,4.17-4.356A95.05,95.05,0,0,0,121.2,73.981C121.205,73.353,119.521,70.214,119.1,69.376Zm-63.97-6.7c2.625-5.128,7.537-16.693,7.537-16.693a210,210,0,0,1,42.4-.105l7.119,16.8C95.965,61.106,55.133,62.675,55.133,62.675Z" fill="#cb955b"/>
      <path id="Path_319" data-name="Path 319" d="M114.6,95.03H101.559a1.094,1.094,0,0,1-.947-.547l-3.085-5.33a.86.86,0,0,0-.219-.243,7.336,7.336,0,0,0-4.492-1.531H74.824a7.329,7.329,0,0,0-4.492,1.531.818.818,0,0,0-.208.243l-3.087,5.33a1.094,1.094,0,0,1-.947.547H53.042a1.312,1.312,0,0,1-.346-.07,6.126,6.126,0,0,1-4.247-4.435,96.082,96.082,0,0,1-2.113-16.544,20.036,20.036,0,0,1,1.822-4.1l.284-.554a39.256,39.256,0,0,1,3.691-4.22.849.849,0,0,0,.142-.2c.284-.545,1.47-3.5,2.844-6.931,1.844-4.608,3.938-9.832,4.527-10.9,1.7-3.074,4.548-3.188,7.568-3.31.319-.013.639-.024.96-.042l8.285-.416,3.785-.188c2.442-.123,4.918-.12,7.36,0l14.866.75a.286.286,0,0,0,.061,0,.438.438,0,0,1,.12,0c.3.039.6.059.875.079,1.549.105,2.886.195,4.461,3.131.56,1.044,2.588,6.1,4.376,10.552,1.387,3.452,2.7,6.714,2.991,7.275a.8.8,0,0,0,.142.2,41.17,41.17,0,0,1,3.691,4.22h0l.284.554a20.426,20.426,0,0,1,1.822,4.1,96.3,96.3,0,0,1-2.113,16.544,6.111,6.111,0,0,1-4.236,4.424,1.313,1.313,0,0,1-.346.079ZM74.824,87.169H92.832a7.563,7.563,0,0,1,4.629,1.571,1.094,1.094,0,0,1,.26.3l3.085,5.33a.875.875,0,0,0,.759.438h13.042a1.33,1.33,0,0,0,.284-.061,5.894,5.894,0,0,0,4.1-4.277,95.844,95.844,0,0,0,2.107-16.492,23.109,23.109,0,0,0-1.8-4c-.118-.232-.219-.424-.284-.558h0a40.9,40.9,0,0,0-3.654-4.157,1.116,1.116,0,0,1-.179-.247c-.3-.571-1.551-3.686-3-7.3-1.787-4.45-3.813-9.5-4.376-10.53-1.516-2.829-2.735-2.912-4.282-3.017-.287-.02-.586-.039-.9-.079a.4.4,0,0,0-.07,0,.437.437,0,0,1-.094,0l-14.866-.75a73.293,73.293,0,0,0-7.338,0l-3.785.188-8.285.416c-.322.018-.643.028-.963.042-2.956.118-5.747.23-7.386,3.2-.582,1.055-2.671,6.27-4.513,10.873-1.376,3.433-2.564,6.4-2.844,6.951a1.142,1.142,0,0,1-.179.252,42.621,42.621,0,0,0-3.654,4.157c-.066.133-.166.326-.284.558a23.183,23.183,0,0,0-1.8,4A95.87,95.87,0,0,0,48.67,90.471a5.892,5.892,0,0,0,4.093,4.277,1.361,1.361,0,0,0,.287.061H66.092a.875.875,0,0,0,.759-.438l3.076-5.327a1.118,1.118,0,0,1,.26-.3,7.563,7.563,0,0,1,4.636-1.571Zm37.368-24.379h0c-16.037-1.551-56.634-.015-57.043,0a.109.109,0,0,1-.1-.05.1.1,0,0,1,0-.107c2.571-5.076,7.471-16.579,7.52-16.689a.112.112,0,0,1,.09-.066,212.1,212.1,0,0,1,42.426-.105.112.112,0,0,1,.085.066l7.119,16.8a.109.109,0,0,1,0,.107.112.112,0,0,1-.1.044Zm-49.445-16.7c-.383.895-4.92,11.515-7.439,16.474,3.008-.112,41.1-1.481,56.7,0l-7.023-16.573a210.539,210.539,0,0,0-42.24.092Z" fill="#263238"/>
      <path id="Path_320" data-name="Path 320" d="M66.652,94.921l-.733,1.674h35.6l-.523-1.674-3.455-5.968s-1.361-1.571-4.71-1.674-18.008,0-18.008,0a6.968,6.968,0,0,0-4.71,1.674Z" fill="#787878"/>
      <path id="Path_321" data-name="Path 321" d="M101.515,96.7h-35.6a.109.109,0,0,1-.092-.048.112.112,0,0,1,0-.105l.733-1.674v-.011L70.01,88.9a.09.09,0,0,1,.022-.028,7.146,7.146,0,0,1,4.791-1.7c.138,0,14.689-.105,18,0,3.36.105,4.734,1.647,4.791,1.713l3.461,5.984a.218.218,0,0,1,0,.022l.523,1.676a.107.107,0,0,1-.015.1.112.112,0,0,1-.07.042Zm-35.43-.219h35.281l-.477-1.521-3.448-5.957h0s-1.365-1.518-4.621-1.619c-3.31-.105-17.855,0-18,0a6.924,6.924,0,0,0-4.627,1.636l-3.444,5.944Z" fill="#263238"/>
      <path id="Path_322" data-name="Path 322" d="M69.687,75.029a58.171,58.171,0,0,0,3.665,5.863c.838.831,1.781.836,2.932.941s16.96,0,16.96,0a3.172,3.172,0,0,0,1.886-1.151c.63-.932,2.722-5.653,2.722-5.653Z" fill="#263238"/>
      <path id="Path_323" data-name="Path 323" d="M81.195,81.991c-2.516,0-4.531-.013-4.92-.048l-.317-.026a3.79,3.79,0,0,1-2.682-.947,58.261,58.261,0,0,1-3.682-5.887.105.105,0,0,1,0-.107.109.109,0,0,1,.1-.055H97.85a.114.114,0,0,1,.092.05.107.107,0,0,1,0,.1c-.085.193-2.1,4.73-2.73,5.671a3.28,3.28,0,0,1-1.969,1.2C92.825,81.945,86.069,81.991,81.195,81.991Zm-11.32-6.852a53.905,53.905,0,0,0,3.555,5.675,3.524,3.524,0,0,0,2.544.875l.319.026c1.133.1,16.792,0,16.949,0a3.064,3.064,0,0,0,1.794-1.094c.551-.827,2.278-4.664,2.645-5.483Z" fill="#263238"/>
      <path id="Path_324" data-name="Path 324" d="M72.491,75.712a47.2,47.2,0,0,0,2.936,4.7,3.309,3.309,0,0,0,2.348.755c.923.085,13.582,0,13.582,0a2.492,2.492,0,0,0,1.507-.923c.5-.755,2.188-4.527,2.188-4.527Z" fill="#787878"/>
      <path id="Path_325" data-name="Path 325" d="M81.706,81.308c-2.015,0-3.63-.011-3.938-.039l-.254-.02a3.048,3.048,0,0,1-2.162-.766A45.633,45.633,0,0,1,72.4,75.764a.105.105,0,0,1,0-.107A.109.109,0,0,1,72.5,75.6h22.55a.105.105,0,0,1,.092.05.107.107,0,0,1,0,.1c-.068.155-1.685,3.789-2.188,4.544a2.667,2.667,0,0,1-1.582.969C91.014,81.271,85.612,81.308,81.706,81.308ZM72.68,75.821A43.581,43.581,0,0,0,75.5,80.33a2.88,2.88,0,0,0,2.026.7l.254.022c.906.083,13.444,0,13.565,0a2.384,2.384,0,0,0,1.42-.875c.438-.656,1.781-3.641,2.1-4.356Z" fill="#263238"/>
      <path id="Path_326" data-name="Path 326" d="M95.579,93.14l-.628-1.728a2.715,2.715,0,0,0-2.608-1.792l-17,.171a2.717,2.717,0,0,0-2.564,1.989l-.424,1.361Z" fill="#263238"/>
      <path id="Path_327" data-name="Path 327" d="M95.579,93.249H72.354a.105.105,0,0,1-.088-.044.109.109,0,0,1-.018-.1l.424-1.363a2.844,2.844,0,0,1,2.667-2.065l17-.171a2.82,2.82,0,0,1,2.711,1.864l.628,1.728a.116.116,0,0,1-.013.1.114.114,0,0,1-.09.046ZM72.5,93.031H95.424l-.575-1.58a2.6,2.6,0,0,0-2.5-1.72l-17,.171a2.625,2.625,0,0,0-2.459,1.908Z" fill="#263238"/>
      <path id="Path_328" data-name="Path 328" d="M72.093,93.978l-.521,1.676H96.49l-.608-1.676Z" fill="#263238"/>
      <path id="Path_329" data-name="Path 329" d="M96.483,95.763H71.573a.107.107,0,0,1-.088-.046.1.1,0,0,1-.017-.1l.512-1.676a.109.109,0,0,1,.105-.077h23.8a.109.109,0,0,1,.1.072l.608,1.667a.112.112,0,0,1-.015.1.107.107,0,0,1-.094.055Zm-24.768-.219H96.332L95.8,94.087H72.176Z" fill="#263238"/>
      <path id="Path_330" data-name="Path 330" d="M115.333,65.083S115.856,61,116.8,61s5.13,1.151,5.233,1.989-.827,1.77-1.674,1.989-2.625.42-2.625.42l-.42,1.569Z" fill="#263238"/>
      <path id="Path_331" data-name="Path 331" d="M117.322,67.077a.105.105,0,0,1-.074-.028l-1.989-1.886a.105.105,0,0,1-.035-.092c.055-.438.567-4.179,1.575-4.179.895,0,5.225,1.146,5.343,2.085.112.9-.875,1.886-1.75,2.109-.748.186-2.208.37-2.558.411l-.4,1.5a.109.109,0,0,1-.074.079Zm-1.873-2.035,1.814,1.72.372-1.391a.107.107,0,0,1,.094-.081c.018,0,1.781-.219,2.6-.416s1.689-1.094,1.593-1.871c-.09-.709-4.085-1.892-5.126-1.892C116.191,61.11,115.653,63.5,115.449,65.042Z" fill="#263238"/>
      <path id="Path_332" data-name="Path 332" d="M52.309,65.083S51.786,61,50.843,61s-5.13,1.151-5.233,1.989.836,1.779,1.674,1.989,2.625.42,2.625.42l.42,1.569Z" fill="#263238"/>
      <path id="Path_333" data-name="Path 333" d="M50.32,67.077h-.031A.109.109,0,0,1,50.215,67l-.4-1.5a25.7,25.7,0,0,1-2.558-.411,2.3,2.3,0,0,1-1.75-2.109c.118-.939,4.448-2.085,5.343-2.085,1.009,0,1.531,3.75,1.575,4.179a.105.105,0,0,1-.035.092L50.4,67.05a.1.1,0,0,1-.081.026Zm.523-5.966c-1.041,0-5.032,1.184-5.126,1.892-.1.768.8,1.671,1.593,1.871s2.586.414,2.6.416a.109.109,0,0,1,.094.081l.372,1.391,1.814-1.72C51.989,63.5,51.451,61.11,50.843,61.11Z" fill="#263238"/>
      <path id="Path_334" data-name="Path 334" d="M64.453,74.506a11.542,11.542,0,0,1,2.512,5.653s-8.9-.42-12.352-1.781-3.875-1.466-3.98-2.094.219-5.13,1.571-5.863a3.688,3.688,0,0,1,4.187.525c1.361,1.048,3.037,2.625,3.98,2.932A34.585,34.585,0,0,0,64.453,74.506Z" fill="#fff"/>
      <path id="Path_335" data-name="Path 335" d="M66.965,80.269h0c-.09,0-8.957-.438-12.387-1.787l-.875-.346c-2.713-1.063-3.063-1.2-3.168-1.833-.1-.582.195-5.2,1.628-5.977a3.818,3.818,0,0,1,4.306.534c.394.3.82.656,1.234,1a12.2,12.2,0,0,0,2.711,1.917,33.068,33.068,0,0,0,4.061.624.112.112,0,0,1,.068.033,11.781,11.781,0,0,1,2.542,5.71.118.118,0,0,1-.026.092A.109.109,0,0,1,66.965,80.269ZM53.869,70.1a3.354,3.354,0,0,0-1.612.424c-1.271.685-1.632,5.045-1.514,5.747.085.51.42.641,3.03,1.665l.875.346c3.166,1.247,11.046,1.7,12.182,1.766A11.547,11.547,0,0,0,64.4,74.611a31.8,31.8,0,0,1-4.065-.63,11.947,11.947,0,0,1-2.783-1.956c-.411-.339-.836-.691-1.227-.993a4,4,0,0,0-2.453-.936Z" fill="#263238"/>
      <path id="Path_336" data-name="Path 336" d="M58.356,74.81a2.453,2.453,0,1,1-.718-1.736,2.455,2.455,0,0,1,.718,1.736Z" fill="#fff"/>
      <path id="Path_337" data-name="Path 337" d="M55.9,77.372a2.564,2.564,0,1,1,2.564-2.562A2.564,2.564,0,0,1,55.9,77.372Zm0-4.907a2.345,2.345,0,1,0,2.345,2.345A2.345,2.345,0,0,0,55.9,72.465Z" fill="#263238"/>
      <path id="Path_338" data-name="Path 338" d="M62.736,77.887a1.138,1.138,0,1,1-.332-.806A1.14,1.14,0,0,1,62.736,77.887Z" fill="#fff"/>
      <path id="Path_339" data-name="Path 339" d="M61.6,79.125a1.249,1.249,0,1,1,1.247-1.247A1.249,1.249,0,0,1,61.6,79.125Zm0-2.278a1.03,1.03,0,1,0,1.028,1.03A1.03,1.03,0,0,0,61.6,76.847Z" fill="#263238"/>
      <path id="Path_340" data-name="Path 340" d="M103.484,74.506a11.542,11.542,0,0,0-2.512,5.653s8.9-.42,12.352-1.781,3.875-1.466,3.98-2.094-.219-5.13-1.571-5.863a3.688,3.688,0,0,0-4.187.525c-1.361,1.048-3.037,2.625-3.98,2.932A34.585,34.585,0,0,1,103.484,74.506Z" fill="#fff"/>
      <path id="Path_341" data-name="Path 341" d="M100.972,80.269a.114.114,0,0,1-.083-.037.118.118,0,0,1-.026-.092,11.8,11.8,0,0,1,2.542-5.71.112.112,0,0,1,.068-.033,32.639,32.639,0,0,0,4.061-.624,12.127,12.127,0,0,0,2.711-1.917c.414-.341.84-.694,1.234-1a3.821,3.821,0,0,1,4.308-.534c1.431.772,1.722,5.4,1.626,5.977-.105.632-.453.77-3.168,1.833l-.875.346c-3.433,1.352-12.3,1.783-12.39,1.787Zm2.564-5.664a11.724,11.724,0,0,0-2.433,5.432c1.135-.061,9.016-.519,12.182-1.766l.875-.346c2.61-1.024,2.947-1.155,3.03-1.665.118-.7-.241-5.063-1.514-5.747a3.565,3.565,0,0,0-4.069.512c-.392.3-.816.656-1.227.993a12.2,12.2,0,0,1-2.783,1.956A29.616,29.616,0,0,1,103.537,74.6Z" fill="#263238"/>
      <path id="Path_342" data-name="Path 342" d="M110.146,74.81a2.453,2.453,0,1,0,.718-1.736,2.455,2.455,0,0,0-.718,1.736Z" fill="#fff"/>
      <path id="Path_343" data-name="Path 343" d="M112.6,77.372a2.564,2.564,0,1,1,2.562-2.562,2.564,2.564,0,0,1-2.562,2.562Zm0-4.907a2.345,2.345,0,1,0,2.343,2.345,2.345,2.345,0,0,0-2.343-2.345Z" fill="#263238"/>
      <path id="Path_344" data-name="Path 344" d="M105.764,77.887a1.14,1.14,0,1,0,1.14-1.14A1.14,1.14,0,0,0,105.764,77.887Z" fill="#fff"/>
      <path id="Path_345" data-name="Path 345" d="M106.9,79.125a1.249,1.249,0,1,1,1.249-1.247,1.249,1.249,0,0,1-1.249,1.247Zm0-2.278a1.03,1.03,0,1,0,1.03,1.03A1.03,1.03,0,0,0,106.9,76.847Z" fill="#263238"/>
      <path id="Path_346" data-name="Path 346" d="M114.705,83.824s-9.736,1.884-10.156,2.188a9.58,9.58,0,0,0-1.256,2.094l1.989-.523s4.608.219,6.176-.523S114.705,83.824,114.705,83.824Z" fill="#263238"/>
      <path id="Path_347" data-name="Path 347" d="M103.294,88.224a.107.107,0,0,1-.1-.155,9.727,9.727,0,0,1,1.289-2.135c.435-.328,9.2-2.024,10.2-2.218a.112.112,0,0,1,.112.048.1.1,0,0,1,0,.12c-.068.105-1.709,2.547-3.282,3.282s-5.861.549-6.211.536l-1.969.519Zm11.158-4.242c-3.89.755-9.539,1.91-9.845,2.127a7.349,7.349,0,0,0-1.12,1.842l1.75-.464h.033c.046,0,4.594.2,6.126-.512a10.137,10.137,0,0,0,3.065-2.993Z" fill="#263238"/>
      <path id="Path_348" data-name="Path 348" d="M53.67,83.824s9.736,1.884,10.156,2.188a9.58,9.58,0,0,1,1.256,2.094l-1.989-.523s-4.608.219-6.176-.523S53.67,83.824,53.67,83.824Z" fill="#263238"/>
      <path id="Path_349" data-name="Path 349" d="M65.081,88.224h-.028l-1.969-.519c-.35.013-4.667.186-6.211-.536-1.58-.737-3.22-3.179-3.282-3.282a.1.1,0,0,1,0-.12.112.112,0,0,1,.112-.048c1,.195,9.773,1.9,10.2,2.221a9.921,9.921,0,0,1,1.289,2.133.107.107,0,0,1-.1.155Zm-1.989-.742h.028l1.75.464a8.005,8.005,0,0,0-1.12-1.842c-.284-.214-5.955-1.372-9.845-2.127a10.1,10.1,0,0,0,3.048,2.989c1.531.713,6.08.514,6.126.512Z" fill="#263238"/>
      <path id="Path_350" data-name="Path 350" d="M102.5,76.226h-.033l-2.584-.862H97.85a.109.109,0,0,1,0-.219H99.9a.1.1,0,0,1,.035,0l2.6.875a.111.111,0,1,1-.035.219Z" fill="#263238"/>
      <path id="Path_351" data-name="Path 351" d="M65.606,76.1a.112.112,0,0,1-.094-.057.109.109,0,0,1,.042-.149l1.733-.991a.1.1,0,0,1,.055-.013l2.348.026a.109.109,0,0,1,.109.112.12.12,0,0,1-.112.107l-2.317-.026-1.709.976a.12.12,0,0,1-.055.015Z" fill="#263238"/>
      <path id="Path_352" data-name="Path 352" d="M109.873,64.517a.1.1,0,0,1-.044-.195c.269-.155.543-.3.81-.438a.109.109,0,0,1,.094.2c-.263.127-.529.269-.794.422a.125.125,0,0,1-.066.013Z" fill="#263238"/>
      <path id="Path_353" data-name="Path 353" d="M98.347,79.379a.114.114,0,0,1-.046,0,.107.107,0,0,1-.053-.144C100,75.382,103.718,68.4,108.9,64.893a.107.107,0,0,1,.151.028.109.109,0,0,1-.028.153c-5.146,3.466-8.837,10.405-10.574,14.241A.109.109,0,0,1,98.347,79.379Z" fill="#263238"/>
      <path id="Path_354" data-name="Path 354" d="M97.426,81.551a.072.072,0,0,1-.037,0,.109.109,0,0,1-.066-.14s.133-.352.381-.939a.109.109,0,1,1,.2.083c-.245.584-.374.93-.376.932A.114.114,0,0,1,97.426,81.551Z" fill="#263238"/>
      <path id="Path_355" data-name="Path 355" d="M58.662,65.081a.105.105,0,0,1-.057-.015c-.438-.265-.888-.512-1.341-.737a.109.109,0,1,1,.1-.195,15.253,15.253,0,0,1,1.359.746.109.109,0,0,1-.057.2Z" fill="#263238"/>
      <path id="Path_356" data-name="Path 356" d="M69.148,79.46a.109.109,0,0,1-.105-.074c-1.16-3.468-3.938-9.861-9.521-13.724a.109.109,0,1,1,.125-.179c5.634,3.9,8.436,10.342,9.6,13.834a.109.109,0,0,1-.068.138Z" fill="#263238"/>
      <path id="Path_357" data-name="Path 357" d="M69.693,81.3a.107.107,0,0,1-.107-.083s-.079-.337-.247-.9a.109.109,0,0,1,.074-.138.112.112,0,0,1,.136.074c.171.573.249.915.252.917a.109.109,0,0,1-.083.131Z" fill="#263238"/>
      <path id="Path_358" data-name="Path 358" d="M54.341,70.05a15.582,15.582,0,0,1-1.116-4.332" fill="#fff"/>
      <path id="Path_359" data-name="Path 359" d="M54.341,70.159a.109.109,0,0,1-.1-.068,15.427,15.427,0,0,1-1.122-4.376.109.109,0,1,1,.219,0,15.478,15.478,0,0,0,1.107,4.29.114.114,0,0,1-.059.144Z" fill="#263238"/>
      <path id="Path_360" data-name="Path 360" d="M113.894,69.927a21.878,21.878,0,0,0,.619-3.468" fill="#fff"/>
      <path id="Path_361" data-name="Path 361" d="M113.894,70.037a.087.087,0,0,1-.033,0,.107.107,0,0,1-.072-.136,21.9,21.9,0,0,0,.615-3.446.11.11,0,1,1,.219.024A21.769,21.769,0,0,1,114,69.964a.107.107,0,0,1-.1.072Z" fill="#263238"/>
      <path id="Path_362" data-name="Path 362" d="M103.246,91.95a.116.116,0,0,1-.085-.039c-.1-.118-2.374-2.888-2.5-4.144-.133-1.339,1.667-3.207,2.188-3.336s8.813-1.787,9.167-1.86a.112.112,0,0,1,.129.088.107.107,0,0,1-.085.127c-.088.018-8.67,1.735-9.158,1.857-.455.114-2.14,1.919-2.022,3.1.112,1.109,2.127,3.627,2.418,3.984l13.591-.613.735-9.561a.112.112,0,0,1,.118-.1.109.109,0,0,1,.1.118l-.744,9.659a.109.109,0,0,1-.1.1l-13.744.619Z" fill="#263238"/>
      <path id="Path_363" data-name="Path 363" d="M64.978,91.95h0l-13.742-.619a.109.109,0,0,1-.105-.1l-.742-9.657a.109.109,0,0,1,.1-.118.107.107,0,0,1,.116.1l.735,9.561,13.593.613c.289-.357,2.306-2.875,2.407-3.984.118-1.184-1.569-2.989-2.024-3.1s-9.071-1.84-9.156-1.857a.105.105,0,0,1-.085-.127.109.109,0,0,1,.127-.088c.354.072,8.677,1.737,9.167,1.86s2.321,2,2.188,3.336c-.125,1.256-2.407,4.026-2.5,4.144a.112.112,0,0,1-.079.039Z" fill="#263238"/>
      <path id="Path_364" data-name="Path 364" d="M84.231,78.307q-.335,0-.656-.026l-10.1-.81a.11.11,0,0,1,.018-.219l10.086.809a8.217,8.217,0,0,0,1.271,0l9.311-.724a.105.105,0,0,1,.118.1.109.109,0,0,1-.1.118l-9.311.722Q84.551,78.307,84.231,78.307Z" fill="#263238"/>
      <path id="Path_365" data-name="Path 365" d="M84.231,79.311q-.335,0-.656-.026l-9.438-.755a.114.114,0,0,1-.1-.118.109.109,0,0,1,.118-.1l9.421.755a8.5,8.5,0,0,0,1.271,0l8.985-.7a.1.1,0,0,1,.118.1.109.109,0,0,1-.1.116l-8.985.7Q84.551,79.311,84.231,79.311Z" fill="#263238"/>
      <path id="Path_366" data-name="Path 366" d="M84.231,80.315q-.335,0-.656-.026l-8.751-.7a.11.11,0,0,1,.017-.219l8.734.707a8.217,8.217,0,0,0,1.271,0l8.533-.656a.1.1,0,0,1,.118.1.112.112,0,0,1-.1.118l-8.533.656Q84.551,80.315,84.231,80.315Z" fill="#263238"/>
      <path id="Path_367" data-name="Path 367" d="M112.192,62.791h0c-16.035-1.551-56.634-.015-57.043,0a.109.109,0,0,1-.1-.05.1.1,0,0,1,0-.107c2.571-5.076,7.471-16.579,7.52-16.689a.112.112,0,0,1,.09-.066,212.1,212.1,0,0,1,42.426-.105.112.112,0,0,1,.085.066l7.119,16.8a.109.109,0,0,1,0,.107.112.112,0,0,1-.1.044Zm-49.445-16.7c-.383.895-4.92,11.515-7.439,16.474,3.008-.112,41.1-1.481,56.7,0l-7.023-16.573a210.539,210.539,0,0,0-42.24.092Z" fill="#263238"/>
    </g>
  </g>
</svg>
