<svg xmlns="http://www.w3.org/2000/svg" width="111.706" height="96" viewBox="0 0 111.706 96">
  <g id="Consulting-bro" transform="translate(-1.889 -5.871)">
    <g id="freepik--background-simple--inject-50">
      <path id="Path_504" data-name="Path 504" d="M6.481,65.191s4.428,18.074,22.373,27.6,39.455,6.806,56.971,5.054,28.73-13.62,27.655-28.52S98.312,52.358,87.647,36.992,76.488,16.062,59.192,8.414s-39.672,2.6-48.4,22.154S6.481,65.191,6.481,65.191Z" fill="#cb955b"/>
      <path id="Path_505" data-name="Path 505" d="M6.481,65.191s4.428,18.074,22.373,27.6,39.455,6.806,56.971,5.054,28.73-13.62,27.655-28.52S98.312,52.358,87.647,36.992,76.488,16.062,59.192,8.414s-39.672,2.6-48.4,22.154S6.481,65.191,6.481,65.191Z" fill="#fff" opacity="0.7"/>
    </g>
    <g id="freepik--Wall--inject-50">
      <line id="Line_28" data-name="Line 28" y2="80.764" transform="translate(15.147 15.377)" fill="none" stroke="#263238" stroke-width="0.231"/>
      <line id="Line_29" data-name="Line 29" y2="1.545" transform="translate(15.147 12.264)" fill="none" stroke="#263238" stroke-width="0.231"/>
      <line id="Line_30" data-name="Line 30" y2="83.878" transform="translate(44.557 12.264)" fill="none" stroke="#263238" stroke-width="0.231"/>
      <line id="Line_31" data-name="Line 31" y2="83.878" transform="translate(73.967 12.264)" fill="none" stroke="#263238" stroke-width="0.231"/>
      <line id="Line_32" data-name="Line 32" y2="71.919" transform="translate(103.377 24.223)" fill="none" stroke="#263238" stroke-width="0.231"/>
      <line id="Line_33" data-name="Line 33" y2="9.943" transform="translate(103.377 12.264)" fill="none" stroke="#263238" stroke-width="0.231"/>
    </g>
    <g id="freepik--Board--inject-50">
      <rect id="Rectangle_33" data-name="Rectangle 33" width="67.348" height="39.914" transform="translate(20.486 23.727)" fill="#263238"/>
      <rect id="Rectangle_34" data-name="Rectangle 34" width="66.586" height="37.644" transform="translate(20.867 24.862)" fill="#fff" stroke="#263238" stroke-linecap="round" stroke-linejoin="round" stroke-width="0.231"/>
      <rect id="Rectangle_35" data-name="Rectangle 35" width="68.494" height="2.14" transform="translate(19.718 23.044)" fill="#263238"/>
      <circle id="Ellipse_35" data-name="Ellipse 35" cx="1.926" cy="1.926" r="1.926" transform="translate(52.99 19.162)" fill="#fff" stroke="#263238" stroke-linecap="round" stroke-linejoin="round" stroke-width="0.231"/>
      <path id="Path_506" data-name="Path 506" d="M55.93,21.088a1.015,1.015,0,1,1-1.015-1.013,1.015,1.015,0,0,1,1.015,1.013Z" fill="#cb955b" stroke="#263238" stroke-width="0.231"/>
    </g>
    <g id="freepik--Graphics--inject-50">
      <path id="Path_507" data-name="Path 507" d="M32.958,49.308h-8.23V40.963h14v8.345h-4.2" fill="none" stroke="#263238" stroke-width="0.231"/>
      <rect id="Rectangle_36" data-name="Rectangle 36" width="11.17" height="6.661" transform="translate(35.772 53.303)" fill="none" stroke="#263238" stroke-width="0.231"/>
      <path id="Path_508" data-name="Path 508" d="M59.27,40.963h1.409v8.345h-14V40.963H57.928" fill="none" stroke="#263238" stroke-width="0.231"/>
      <path id="Path_509" data-name="Path 509" d="M47.848,28.764H64.275v8.347H43.09V28.764h3.192" fill="none" stroke="#263238" stroke-width="0.231"/>
      <rect id="Rectangle_37" data-name="Rectangle 37" width="13.996" height="8.345" transform="translate(68.512 40.963)" fill="none" stroke="#263238" stroke-width="0.231"/>
      <path id="Path_510" data-name="Path 510" d="M41.935,32.875S34.508,33.906,30.144,40.2" fill="none" stroke="#263238" stroke-width="0.231"/>
      <line id="Line_34" data-name="Line 34" x2="0.983" y2="2.869" transform="translate(37.183 50.208)" fill="none" stroke="#263238" stroke-width="0.231"/>
      <line id="Line_35" data-name="Line 35" x1="0.9" y2="2.696" transform="translate(46.428 49.95)" fill="none" stroke="#263238" stroke-width="0.231"/>
      <path id="Path_511" data-name="Path 511" d="M37.086,52.132l1.079.946.27-1.282" fill="none" stroke="#263238" stroke-width="0.231"/>
      <path id="Path_512" data-name="Path 512" d="M45.987,51.795l.4,1.079,1.146-.676" fill="none" stroke="#263238" stroke-width="0.231"/>
      <path id="Path_513" data-name="Path 513" d="M30.344,38.918l-.2,1.28,1.414-.876" fill="none" stroke="#263238" stroke-width="0.231"/>
      <line id="Line_36" data-name="Line 36" x2="7.012" transform="translate(61.09 44.917)" fill="none" stroke="#263238" stroke-width="0.231"/>
      <path id="Path_514" data-name="Path 514" d="M66.619,44.04l1.552.876-1.416.876" fill="none" stroke="#263238" stroke-width="0.231"/>
      <line id="Line_37" data-name="Line 37" x2="7.012" transform="translate(38.957 44.917)" fill="none" stroke="#263238" stroke-width="0.231"/>
      <path id="Path_515" data-name="Path 515" d="M44.486,44.04l1.55.876-1.414.876" fill="none" stroke="#263238" stroke-width="0.231"/>
      <line id="Line_38" data-name="Line 38" y2="2.134" transform="translate(53.631 37.778)" fill="none" stroke="#263238" stroke-width="0.231"/>
      <path id="Path_516" data-name="Path 516" d="M54.5,38.426l-.876,1.552-.874-1.416" fill="none" stroke="#263238" stroke-width="0.231"/>
      <line id="Line_39" data-name="Line 39" x1="6.744" transform="translate(61.291 47.438)" fill="none" stroke="#263238" stroke-width="0.231"/>
      <path id="Path_517" data-name="Path 517" d="M62.716,46.561l-1.49.876,1.361.876" fill="none" stroke="#263238" stroke-width="0.231"/>
      <line id="Line_40" data-name="Line 40" x2="12.677" transform="translate(47.47 31.366)" fill="none" stroke="#263238" stroke-width="0.231"/>
      <line id="Line_41" data-name="Line 41" x2="12.677" transform="translate(47.47 32.579)" fill="none" stroke="#263238" stroke-width="0.231"/>
      <line id="Line_42" data-name="Line 42" x2="12.677" transform="translate(47.47 33.793)" fill="none" stroke="#263238" stroke-width="0.231"/>
      <line id="Line_43" data-name="Line 43" x2="11.396" transform="translate(26.029 44.04)" fill="none" stroke="#263238" stroke-width="0.231"/>
      <line id="Line_44" data-name="Line 44" x2="11.396" transform="translate(26.029 45.256)" fill="none" stroke="#263238" stroke-width="0.231"/>
      <line id="Line_45" data-name="Line 45" x2="11.396" transform="translate(26.029 46.469)" fill="none" stroke="#263238" stroke-width="0.231"/>
      <line id="Line_46" data-name="Line 46" x2="11.394" transform="translate(48.146 44.04)" fill="none" stroke="#263238" stroke-width="0.231"/>
      <line id="Line_47" data-name="Line 47" x2="11.394" transform="translate(48.146 45.256)" fill="none" stroke="#263238" stroke-width="0.231"/>
      <line id="Line_48" data-name="Line 48" x2="11.394" transform="translate(48.146 46.469)" fill="none" stroke="#263238" stroke-width="0.231"/>
      <line id="Line_49" data-name="Line 49" x2="11.394" transform="translate(69.451 44.04)" fill="none" stroke="#263238" stroke-width="0.231"/>
      <line id="Line_50" data-name="Line 50" x2="11.394" transform="translate(69.451 45.256)" fill="none" stroke="#263238" stroke-width="0.231"/>
      <line id="Line_51" data-name="Line 51" x2="11.394" transform="translate(69.451 46.469)" fill="none" stroke="#263238" stroke-width="0.231"/>
      <line id="Line_52" data-name="Line 52" x2="8.698" transform="translate(37.222 55.571)" fill="none" stroke="#263238" stroke-width="0.231"/>
      <line id="Line_53" data-name="Line 53" x2="8.698" transform="translate(37.222 56.784)" fill="none" stroke="#263238" stroke-width="0.231"/>
      <line id="Line_54" data-name="Line 54" x2="8.698" transform="translate(37.222 57.999)" fill="none" stroke="#263238" stroke-width="0.231"/>
      <path id="Path_518" data-name="Path 518" d="M75.792,32.425a.115.115,0,0,1-.06-.212l.088-.055-.032.018a.115.115,0,0,1-.118-.2l.461-.293-.4.231a.115.115,0,0,1-.12-.2l.826-.54-.782.461A.115.115,0,0,1,75.5,31.6a.118.118,0,0,1,.035-.157l1.287-.86-1.255.722a.113.113,0,0,1-.152-.037.111.111,0,0,1,.03-.155l1.931-1.384-1.928,1.114a.115.115,0,0,1-.155-.039.113.113,0,0,1,.032-.155l1.384-.96-1.361.787a.115.115,0,0,1-.152-.035.113.113,0,0,1,.032-.155l.784-.528-.74.427a.115.115,0,0,1-.155-.039A.113.113,0,0,1,75.148,30l.505-.341-.461.265a.115.115,0,0,1-.125-.191l1.349-1-1.335.77a.115.115,0,0,1-.127-.191l1.195-.923-1.188.676a.118.118,0,0,1-.155-.037.113.113,0,0,1,.03-.155l.584-.431-.54.314a.118.118,0,0,1-.155-.037.115.115,0,0,1,.028-.155l.477-.362-.431.249a.113.113,0,0,1-.152-.037.115.115,0,0,1,.023-.155l.231-.187-.185.106a.113.113,0,0,1-.143-.023.118.118,0,0,1,0-.145l.364-.461-.332.191a.115.115,0,0,1-.127,0,.118.118,0,0,1-.044-.118l.035-.141a.125.125,0,0,1-.1-.058.118.118,0,0,1,.044-.157l.166-.1a.115.115,0,0,1,.168.127l-.03.118.609-.351a.115.115,0,0,1,.148.171l-.362.461,1.091-.63a.118.118,0,0,1,.152.035.115.115,0,0,1-.025.155l-.231.189.577-.334a.115.115,0,0,1,.127.191l-.477.362.787-.461a.118.118,0,0,1,.155.037.115.115,0,0,1-.028.155l-.586.431.879-.507a.114.114,0,1,1,.127.189l-1.195.923,1.575-.923a.118.118,0,0,1,.155.037.115.115,0,0,1-.028.155l-1.352,1,1.665-.96a.115.115,0,0,1,.122.194l-.507.339.655-.378a.115.115,0,0,1,.122.194l-.782.528.923-.535a.115.115,0,0,1,.122.194l-1.384.96,1.573-.909a.115.115,0,0,1,.122.194L77.519,29.9l2.15-1.243a.115.115,0,0,1,.155.039.111.111,0,0,1-.032.155l-1.289.865,1.4-.81a.115.115,0,0,1,.12.2l-.826.54.883-.51a.113.113,0,0,1,.155.039.111.111,0,0,1-.035.155l-.461.3.477-.277a.113.113,0,0,1,.155.039.118.118,0,0,1-.035.157l-.088.055.1-.058a.115.115,0,0,1,.122.194l-1.329.946,1.384-.8a.113.113,0,0,1,.155.037.115.115,0,0,1-.032.157l-.03.018h0a.115.115,0,0,1,.125.194l-.258.182.244-.138a.113.113,0,0,1,.143.173L80.432,31l.424-.244a.111.111,0,0,1,.131.014.115.115,0,0,1,.032.129l-.046.108a.116.116,0,0,1,.072.215l-.244.141a.113.113,0,0,1-.161-.143l.039-.1-.727.42a.115.115,0,0,1-.143-.175l.438-.505-1.681.964a.115.115,0,0,1-.152-.037.111.111,0,0,1,.03-.155l.258-.185-.957.551a.115.115,0,0,1-.155-.039.113.113,0,0,1,.035-.155l.028-.021-.639.369a.113.113,0,0,1-.152-.037.111.111,0,0,1,.03-.155l1.335-.939L75.849,32.4a.1.1,0,0,1-.058.023Z" fill="#cb955b"/>
      <path id="Path_519" data-name="Path 519" d="M72.237,35.654a4.77,4.77,0,0,1-1.679-3.594,5.284,5.284,0,0,1,10.543,0,5.107,5.107,0,0,1-5.273,4.927,5.553,5.553,0,0,1-2.217-.462" fill="none" stroke="#263238" stroke-width="0.231"/>
      <line id="Line_55" data-name="Line 55" x2="3.328" transform="translate(65.915 30.997)" fill="none" stroke="#263238" stroke-width="0.231"/>
      <line id="Line_56" data-name="Line 56" x2="3.328" transform="translate(65.915 32.143)" fill="none" stroke="#263238" stroke-width="0.231"/>
      <line id="Line_57" data-name="Line 57" x2="3.328" transform="translate(65.915 33.292)" fill="none" stroke="#263238" stroke-width="0.231"/>
      <line id="Line_58" data-name="Line 58" x2="5.854" transform="translate(25.683 50.568)" fill="none" stroke="#263238" stroke-width="0.231"/>
      <line id="Line_59" data-name="Line 59" x2="5.854" transform="translate(25.683 51.716)" fill="none" stroke="#263238" stroke-width="0.231"/>
      <line id="Line_60" data-name="Line 60" x2="5.854" transform="translate(24.467 35.645)" fill="none" stroke="#263238" stroke-width="0.231"/>
      <line id="Line_61" data-name="Line 61" x2="5.854" transform="translate(25.683 52.863)" fill="none" stroke="#263238" stroke-width="0.231"/>
      <line id="Line_62" data-name="Line 62" x2="5.854" transform="translate(25.683 55.273)" fill="none" stroke="#263238" stroke-width="0.231"/>
      <line id="Line_63" data-name="Line 63" x2="5.854" transform="translate(25.683 56.422)" fill="none" stroke="#263238" stroke-width="0.231"/>
      <line id="Line_64" data-name="Line 64" x2="5.854" transform="translate(25.683 57.57)" fill="none" stroke="#263238" stroke-width="0.231"/>
      <path id="Path_520" data-name="Path 520" d="M74.426,27.258l1.423,5.15,5.206-1.188" fill="none" stroke="#263238" stroke-width="0.231"/>
      <path id="Path_521" data-name="Path 521" d="M24.53,28.578v5.734h9.208" fill="none" stroke="#263238" stroke-width="0.231"/>
      <rect id="Rectangle_38" data-name="Rectangle 38" width="1.912" height="4.952" transform="translate(25.485 29.359)" fill="#cb955b" stroke="#263238" stroke-width="0.231"/>
      <rect id="Rectangle_39" data-name="Rectangle 39" width="1.912" height="3.822" transform="translate(30.349 30.487)" fill="#cb955b" stroke="#263238" stroke-width="0.231"/>
      <rect id="Rectangle_40" data-name="Rectangle 40" width="1.912" height="6.516" transform="translate(27.918 27.796)" fill="#cb955b" stroke="#263238" stroke-width="0.231"/>
    </g>
    <g id="freepik--Plants--inject-50">
      <path id="Path_522" data-name="Path 522" d="M13.445,65.53A3.741,3.741,0,0,0,12.1,63.224c-1.349-1.342-2.217-2.12-2.217-2.12s-.676,2.217.579,3.566a23.665,23.665,0,0,0,2.987,2.6Z" fill="#cb955b"/>
      <path id="Path_523" data-name="Path 523" d="M11.486,71.55a3.741,3.741,0,0,0-1.349-2.307C8.788,67.9,7.921,67.119,7.921,67.119s-.676,2.217.577,3.566a23.783,23.783,0,0,0,3,2.6Z" fill="#cb955b"/>
      <path id="Path_524" data-name="Path 524" d="M13.359,67.172a3.776,3.776,0,0,1,1.587-2.159c1.483-1.2,2.429-1.873,2.429-1.873s.438,2.274-.95,3.485A23.9,23.9,0,0,1,13.177,68.9Z" fill="#cb955b"/>
      <path id="Path_525" data-name="Path 525" d="M11,74.281s.2-.941,1.8-1.979,2.611-1.615,2.611-1.615.2,2.307-1.312,3.365a23.822,23.822,0,0,1-3.46,1.919Z" fill="#cb955b"/>
      <path id="Path_526" data-name="Path 526" d="M11.438,82.033a3.739,3.739,0,0,1,1.352-2.307c1.352-1.342,2.217-2.12,2.217-2.12s.673,2.217-.579,3.566a23.6,23.6,0,0,1-3,2.6Z" fill="#cb955b"/>
      <path id="Path_527" data-name="Path 527" d="M11.417,83.924a3.771,3.771,0,0,0-1.008-2.482C9.265,79.913,8.516,79.03,8.516,79.03s-.983,2.1.067,3.612a23.646,23.646,0,0,0,2.588,3Z" fill="#cb955b"/>
      <path id="Path_528" data-name="Path 528" d="M10.086,89.534a3.741,3.741,0,0,1,1.349-2.307c1.349-1.342,2.217-2.122,2.217-2.122s.676,2.217-.579,3.566a23.569,23.569,0,0,1-3,2.6Z" fill="#cb955b"/>
      <path id="Path_529" data-name="Path 529" d="M10.986,94.617a3.78,3.78,0,0,1,.72-2.581c.962-1.647,1.615-2.613,1.615-2.613s1.213,1.974.344,3.6A23.938,23.938,0,0,1,11.431,96.3Z" fill="#cb955b"/>
      <path id="Path_530" data-name="Path 530" d="M13.567,65.274a27.515,27.515,0,0,1-.369,3c-.533,2.768-1.868,4.535-2.4,7.023s1,5.7.588,8.894-1.654,4.977-1.3,7.111,2.223,7.911,2.223,7.911" fill="none" stroke="#263238" stroke-linecap="round" stroke-linejoin="round" stroke-width="0.231"/>
      <line id="Line_65" data-name="Line 65" y1="1.116" x2="1.453" transform="translate(13.348 66.697)" fill="none" stroke="#263238" stroke-linecap="round" stroke-linejoin="round" stroke-width="0.231"/>
      <line id="Line_66" data-name="Line 66" x1="0.609" y1="1.082" transform="translate(12.806 65.445)" fill="none" stroke="#263238" stroke-linecap="round" stroke-linejoin="round" stroke-width="0.231"/>
      <path id="Path_531" data-name="Path 531" d="M10.877,75.192s1.218-.923,2.47-1.824" fill="none" stroke="#263238" stroke-linecap="round" stroke-linejoin="round" stroke-width="0.231"/>
      <path id="Path_532" data-name="Path 532" d="M11.486,73.285a19.482,19.482,0,0,0-2.163-3.308" fill="none" stroke="#263238" stroke-linecap="round" stroke-linejoin="round" stroke-width="0.231"/>
      <path id="Path_533" data-name="Path 533" d="M11.486,83.405a15.1,15.1,0,0,1,2.6-3.485" fill="none" stroke="#263238" stroke-linecap="round" stroke-linejoin="round" stroke-width="0.231"/>
      <path id="Path_534" data-name="Path 534" d="M11.251,84.757a17.084,17.084,0,0,0-1.319-2.5c-.71-1.047-.812-1.183-.812-1.183" fill="none" stroke="#263238" stroke-linecap="round" stroke-linejoin="round" stroke-width="0.231"/>
      <path id="Path_535" data-name="Path 535" d="M10.086,91.305a16.185,16.185,0,0,1,1.1-2.219A14.183,14.183,0,0,1,12.6,87.227" fill="none" stroke="#263238" stroke-linecap="round" stroke-linejoin="round" stroke-width="0.231"/>
      <path id="Path_536" data-name="Path 536" d="M11.426,96.3a4.131,4.131,0,0,1,.364-2.136c.507-.98,1.082-2.267,1.319-2.768" fill="none" stroke="#263238" stroke-linecap="round" stroke-linejoin="round" stroke-width="0.231"/>
      <path id="Path_537" data-name="Path 537" d="M4.613,78.407a2.381,2.381,0,0,1,.6-1.6c.7-.992,1.153-1.571,1.153-1.571a2.594,2.594,0,0,1,.023,2.307A14.992,14.992,0,0,1,4.793,79.5Z" fill="#cb955b"/>
      <path id="Path_538" data-name="Path 538" d="M6.49,81.971a2.388,2.388,0,0,1,.6-1.6c.7-.994,1.153-1.568,1.153-1.568a2.6,2.6,0,0,1,.023,2.307A15.106,15.106,0,0,1,6.67,83.069Z" fill="#cb955b"/>
      <path id="Path_539" data-name="Path 539" d="M4.844,79.429s-.168-.59-1.229-1.181-1.725-.923-1.725-.923A2.564,2.564,0,0,0,2.865,79.4a14.923,14.923,0,0,0,2.277,1.1Z" fill="#cb955b"/>
      <path id="Path_540" data-name="Path 540" d="M7.095,83.629s-.231-.567-1.347-1.045-1.813-.724-1.813-.724a2.585,2.585,0,0,0,1.19,1.967,15.289,15.289,0,0,0,2.383.821Z" fill="#cb955b"/>
      <path id="Path_541" data-name="Path 541" d="M7.658,88.54s-.1-.6-1.1-1.305-1.615-1.089-1.615-1.089a2.581,2.581,0,0,0,.75,2.175,15.046,15.046,0,0,0,2.147,1.308Z" fill="#cb955b"/>
      <path id="Path_542" data-name="Path 542" d="M7.877,89.723a2.4,2.4,0,0,1,.362-1.665c.551-1.082.923-1.718.923-1.718a2.583,2.583,0,0,1,.351,2.272,14.86,14.86,0,0,1-1.3,2.161Z" fill="#cb955b"/>
      <path id="Path_543" data-name="Path 543" d="M9.57,94.6s.072-.609,1.022-1.365,1.557-1.179,1.557-1.179a2.584,2.584,0,0,1-.625,2.212A15.054,15.054,0,0,1,9.447,95.7Z" fill="#cb955b"/>
      <path id="Path_544" data-name="Path 544" d="M9.321,93.1s-.095-.6-1.1-1.3-1.615-1.091-1.615-1.091a2.586,2.586,0,0,0,.752,2.175,15.086,15.086,0,0,0,2.154,1.308Z" fill="#cb955b"/>
      <path id="Path_545" data-name="Path 545" d="M9.307,96.382a2.39,2.39,0,0,0-.731-1.541c-.784-.93-1.292-1.465-1.292-1.465a2.587,2.587,0,0,0,.175,2.293,15.006,15.006,0,0,0,1.767,1.813Z" fill="#cb955b"/>
      <path id="Path_546" data-name="Path 546" d="M4.5,78.267a17.685,17.685,0,0,0,.556,1.845c.634,1.672,1.663,2.641,2.27,4.152s0,3.69.6,5.642S9.5,92.846,9.512,94.223s-.535,5.187-.535,5.187" fill="none" stroke="#263238" stroke-linecap="round" stroke-linejoin="round" stroke-width="0.231"/>
      <line id="Line_67" data-name="Line 67" x1="1.033" y1="0.542" transform="translate(3.884 79.286)" fill="none" stroke="#263238" stroke-linecap="round" stroke-linejoin="round" stroke-width="0.231"/>
      <line id="Line_68" data-name="Line 68" y1="0.745" x2="0.265" transform="translate(4.735 78.285)" fill="none" stroke="#263238" stroke-linecap="round" stroke-linejoin="round" stroke-width="0.231"/>
      <path id="Path_547" data-name="Path 547" d="M7.265,84.187s-.863-.441-1.746-.879" fill="none" stroke="#263238" stroke-linecap="round" stroke-linejoin="round" stroke-width="0.231"/>
      <path id="Path_548" data-name="Path 548" d="M6.689,83.059a12.308,12.308,0,0,1,1-2.307" fill="none" stroke="#263238" stroke-linecap="round" stroke-linejoin="round" stroke-width="0.231"/>
      <path id="Path_549" data-name="Path 549" d="M7.778,89.4a9.666,9.666,0,0,0-2.011-1.9" fill="none" stroke="#263238" stroke-linecap="round" stroke-linejoin="round" stroke-width="0.231"/>
      <path id="Path_550" data-name="Path 550" d="M8.073,90.228a10.894,10.894,0,0,1,.554-1.714c.332-.733.381-.83.381-.83" fill="none" stroke="#263238" stroke-linecap="round" stroke-linejoin="round" stroke-width="0.231"/>
      <path id="Path_551" data-name="Path 551" d="M9.457,95.259a9.164,9.164,0,0,1,1.112-1.153,5.949,5.949,0,0,0,.733-.637" fill="none" stroke="#263238" stroke-linecap="round" stroke-linejoin="round" stroke-width="0.231"/>
      <path id="Path_552" data-name="Path 552" d="M9.512,94.207a10.365,10.365,0,0,0-.923-1.273A9.1,9.1,0,0,0,7.5,91.921" fill="none" stroke="#263238" stroke-linecap="round" stroke-linejoin="round" stroke-width="0.231"/>
      <path id="Path_553" data-name="Path 553" d="M9.226,97.482a2.641,2.641,0,0,0-.461-1.3c-.424-.558-.923-1.3-1.128-1.6" fill="none" stroke="#263238" stroke-linecap="round" stroke-linejoin="round" stroke-width="0.231"/>
    </g>
    <g id="freepik--Clock--inject-50">
      <circle id="Ellipse_36" data-name="Ellipse 36" cx="8.366" cy="8.366" r="8.366" transform="translate(90.478 42.015) rotate(-76.92)" fill="#263238" stroke="#263238" stroke-width="0.231"/>
      <circle id="Ellipse_37" data-name="Ellipse 37" cx="7.106" cy="7.106" r="7.106" transform="translate(91.198 31.986) rotate(-22.95)" fill="#fff" stroke="#263238" stroke-width="0.231"/>
      <path id="Path_554" data-name="Path 554" d="M102.709,31.2l-2.2,4.555h3.137" fill="none" stroke="#263238" stroke-width="0.231"/>
      <path id="Path_555" data-name="Path 555" d="M101.311,35.751a.8.8,0,1,1-.234-.563A.8.8,0,0,1,101.311,35.751Z" fill="#cb955b" stroke="#263238" stroke-width="0.231"/>
    </g>
    <g id="freepik--character-1--inject-50">
      <path id="Path_556" data-name="Path 556" d="M9.378,101.756V88.411a.4.4,0,0,0-.4-.4H7.346a.4.4,0,0,0-.4.4v13.345Z" fill="#4c4c4c" stroke="#263238" stroke-linecap="round" stroke-linejoin="round" stroke-width="0.231"/>
      <path id="Path_557" data-name="Path 557" d="M7.342,101.756V88.411a.4.4,0,0,0-.4-.4H5.3a.4.4,0,0,0-.4.4v13.345Z" fill="#263238" stroke="#263238" stroke-linecap="round" stroke-linejoin="round" stroke-width="0.231"/>
      <path id="Path_558" data-name="Path 558" d="M8.262,101.756H37.455a2.948,2.948,0,0,0-1-1.292c-1.324-.835-13.934-2.786-13.934-2.786l-13.1-.21-.627.21s-.692.976-.625,1.462C8.209,99.387,8.225,100.582,8.262,101.756Z" fill="#263238" stroke="#263238" stroke-linecap="round" stroke-linejoin="round" stroke-width="0.231"/>
      <path id="Path_559" data-name="Path 559" d="M20.157,72.387a32.523,32.523,0,0,0-4.11,2.717,12.651,12.651,0,0,0-2.927,6.131c-.141,1.949-1.672,9.411-1.672,9.411S8.3,96.772,8.8,97.678s13.378,0,13.726,0-.348-3.831-.348-3.831,4.876-7.526,5.074-9.547S26,76.777,25.718,75.522,20.784,72.108,20.157,72.387Z" fill="#fff" stroke="#263238" stroke-linecap="round" stroke-linejoin="round" stroke-width="0.231"/>
      <path id="Path_560" data-name="Path 560" d="M17.76,83.034s2.438,2.307,3.46,3.079" fill="none" stroke="#263238" stroke-linecap="round" stroke-linejoin="round" stroke-width="0.231"/>
      <path id="Path_561" data-name="Path 561" d="M16.607,84.826a55.733,55.733,0,0,0,5.644,1.668" fill="none" stroke="#263238" stroke-linecap="round" stroke-linejoin="round" stroke-width="0.231"/>
      <path id="Path_562" data-name="Path 562" d="M29.7,64.582a27.522,27.522,0,0,1,.279,3.344A29.958,29.958,0,0,1,29,71.9c-.21.558-.417,1.183-1.183,1.114a2.747,2.747,0,0,1-1.255-.417L25.8,75.171l-5.3-3.065.692-1.384a8.548,8.548,0,0,1-.976-3.344,5.992,5.992,0,0,1,2.509-5.363,5.515,5.515,0,0,1,4.945.069A16.656,16.656,0,0,1,29.7,64.582Z" fill="#fff" stroke="#263238" stroke-linecap="round" stroke-linejoin="round" stroke-width="0.231"/>
      <path id="Path_563" data-name="Path 563" d="M20.226,71.063c.279.072,6.271,2.789,6.341,3.485s.348,2.855.348,2.855a24.736,24.736,0,0,0-3.972-2.786,24.556,24.556,0,0,1-3.2-2.021Z" fill="#fff" stroke="#263238" stroke-linecap="round" stroke-linejoin="round" stroke-width="0.231"/>
      <path id="Path_564" data-name="Path 564" d="M25.521,58.871a6.263,6.263,0,0,1,3.273-.417c1.462.348,2.02,2.02,2.02,3.414A5.1,5.1,0,0,1,29.77,65c-.279.069-.976-3.273-2.307-4.249a9.06,9.06,0,0,1-1.942-1.882Z" fill="#cb955b" stroke="#263238" stroke-linecap="round" stroke-linejoin="round" stroke-width="0.231"/>
      <path id="Path_565" data-name="Path 565" d="M23.3,59.291a4.941,4.941,0,0,1,5.365.625c2.507,2.159,1.672,4.32,1.114,5.086s-.556,2.23-.976,2.509-.487-1.114-.973-1.384-.424.761-.98,2.145-3.065,3.414-4.382,3.275-2.927-1.615-3.833-4.668-.277-6.341,1.384-7.381a3.46,3.46,0,0,1,3.282-.208Z" fill="#cb955b" stroke="#263238" stroke-linecap="round" stroke-linejoin="round" stroke-width="0.231"/>
      <path id="Path_566" data-name="Path 566" d="M28.831,60.6a3.75,3.75,0,0,1-.863,3.384c-1.416,1.783-3.321,2.768-4.735,1.907s-1.478-1.845-1.478-1.845" fill="none" stroke="#263238" stroke-linecap="round" stroke-linejoin="round" stroke-width="0.231"/>
      <path id="Path_567" data-name="Path 567" d="M19.485,64.351s-.309,4.8,2.583,5.3,4.491-2.537,4.491-2.537" fill="none" stroke="#263238" stroke-linecap="round" stroke-linejoin="round" stroke-width="0.231"/>
      <ellipse id="Ellipse_38" data-name="Ellipse 38" cx="2.892" cy="2.927" rx="2.892" ry="2.927" transform="translate(17.509 58.592)" fill="#cb955b" stroke="#263238" stroke-linecap="round" stroke-linejoin="round" stroke-width="0.231"/>
      <path id="Path_568" data-name="Path 568" d="M19.792,61.1s.369-1.907,1.414-2.154" fill="none" stroke="#263238" stroke-linecap="round" stroke-linejoin="round" stroke-width="0.231"/>
      <path id="Path_569" data-name="Path 569" d="M19.67,61.353s2.09-.738,3.075.062" fill="none" stroke="#263238" stroke-linecap="round" stroke-linejoin="round" stroke-width="0.231"/>
      <path id="Path_570" data-name="Path 570" d="M19.545,61.71a1.9,1.9,0,0,0-.614,2.032" fill="none" stroke="#263238" stroke-linecap="round" stroke-linejoin="round" stroke-width="0.231"/>
      <path id="Path_571" data-name="Path 571" d="M28.239,67.719s-.21-2.09-.837-2.02-.348,3.206,0,3.69a.411.411,0,0,0,.692.071" fill="#fff" stroke="#263238" stroke-linecap="round" stroke-linejoin="round" stroke-width="0.231"/>
      <path id="Path_572" data-name="Path 572" d="M87.124,98.926h-64.7l2.182-5.492H72.567Z" fill="#b5b5b5" stroke="#263238" stroke-linecap="round" stroke-linejoin="round" stroke-width="0.231"/>
      <rect id="Rectangle_41" data-name="Rectangle 41" width="63.092" height="1.732" transform="translate(23.143 100.024)" fill="#263238" stroke="#263238" stroke-linecap="round" stroke-linejoin="round" stroke-width="0.231"/>
      <rect id="Rectangle_42" data-name="Rectangle 42" width="64.697" height="2.039" transform="translate(22.426 98.926)" fill="#4c4c4c" stroke="#263238" stroke-linecap="round" stroke-linejoin="round" stroke-width="0.231"/>
      <path id="Path_573" data-name="Path 573" d="M46.8,94.138,48.674,97.1H33.486l1.478-2.959Z" fill="#fff"/>
      <path id="Path_574" data-name="Path 574" d="M43.939,95.026l1.875,2.957H30.623L32.1,95.026Z" fill="#fff"/>
      <path id="Path_575" data-name="Path 575" d="M25.452,78.728,28.37,92.313l11.357,1.6s3.414-1.384,3.69-1.384.766.835.976,1.114.556.692.692.906a2.337,2.337,0,0,1,0,1.532c-.208.279-.627,1.045-1.047.976s0-1.183,0-1.183a16.38,16.38,0,0,1-3.2.973,8.372,8.372,0,0,1-2.306-.692s-12.926,1.451-13.7,1.176A2.426,2.426,0,0,1,23.36,96.08c-.277-.556-4.738-15.467-4.738-15.467" fill="#fff" stroke="#263238" stroke-linecap="round" stroke-linejoin="round" stroke-width="0.231"/>
      <path id="Path_576" data-name="Path 576" d="M44.4,93.644c-.21-.279-.692-1.114-.976-1.114s-3.69,1.384-3.69,1.384l-6.472-.923a7.189,7.189,0,0,1,.311,3.677c2.7-.277,4.975-.535,4.975-.535a8.29,8.29,0,0,0,2.307.692,16.328,16.328,0,0,0,3.2-.957s-.417,1.114,0,1.183.837-.692,1.047-.976a2.307,2.307,0,0,0,0-1.532C44.963,94.336,44.61,93.916,44.4,93.644Z" fill="#fff" stroke="#263238" stroke-linecap="round" stroke-linejoin="round" stroke-width="0.231"/>
      <line id="Line_69" data-name="Line 69" x2="110.306" transform="translate(3.174 101.756)" fill="none" stroke="#263238" stroke-linecap="round" stroke-linejoin="round" stroke-width="0.231"/>
    </g>
    <g id="freepik--Device--inject-50">
      <path id="Path_577" data-name="Path 577" d="M63.766,97.189H76.027v-.394L57.773,94.064l.443.394Z" fill="#fff" stroke="#263238" stroke-linecap="round" stroke-linejoin="round" stroke-width="0.231"/>
      <path id="Path_578" data-name="Path 578" d="M63.766,96.795H76.027L69.55,94.128l-11.334-.065Z" fill="#fff" stroke="#263238" stroke-linecap="round" stroke-linejoin="round" stroke-width="0.231"/>
      <path id="Path_579" data-name="Path 579" d="M65.763,94.67h1.149l-.586-.244-1.126.009Z" fill="#fff" stroke="#263238" stroke-linecap="round" stroke-linejoin="round" stroke-width="0.173"/>
      <path id="Path_580" data-name="Path 580" d="M68.095,95.646l.588.247h1.149l-.588-.247Z" fill="#fff" stroke="#263238" stroke-linecap="round" stroke-linejoin="round" stroke-width="0.173"/>
      <path id="Path_581" data-name="Path 581" d="M70.224,95.277H68.953l.337.141h1.275Z" fill="#fff" stroke="#263238" stroke-linecap="round" stroke-linejoin="round" stroke-width="0.173"/>
      <path id="Path_582" data-name="Path 582" d="M67.546,95.418H68.7l-.337-.141H67.211Z" fill="#fff" stroke="#263238" stroke-linecap="round" stroke-linejoin="round" stroke-width="0.173"/>
      <path id="Path_583" data-name="Path 583" d="M68.406,95.049h1.262l-.36-.148H68.053Z" fill="#fff" stroke="#263238" stroke-linecap="round" stroke-linejoin="round" stroke-width="0.173"/>
      <path id="Path_584" data-name="Path 584" d="M64.019,94.67H65.17l-.551-.231-1.128.012Z" fill="#fff" stroke="#263238" stroke-linecap="round" stroke-linejoin="round" stroke-width="0.173"/>
      <path id="Path_585" data-name="Path 585" d="M66.31,94.9l.353.148h1.151l-.353-.148Z" fill="#fff" stroke="#263238" stroke-linecap="round" stroke-linejoin="round" stroke-width="0.173"/>
      <path id="Path_586" data-name="Path 586" d="M71.944,96.529h1.322l-.987-.406H70.973Z" fill="#fff" stroke="#263238" stroke-linecap="round" stroke-linejoin="round" stroke-width="0.173"/>
      <path id="Path_587" data-name="Path 587" d="M69.23,96.123l.971.406h1.151l-.971-.406Z" fill="#fff" stroke="#263238" stroke-linecap="round" stroke-linejoin="round" stroke-width="0.173"/>
      <path id="Path_588" data-name="Path 588" d="M67.486,96.123l.971.406h1.151l-.971-.406Z" fill="#fff" stroke="#263238" stroke-linecap="round" stroke-linejoin="round" stroke-width="0.173"/>
      <path id="Path_589" data-name="Path 589" d="M66.893,96.123H64.647l.8.406h2.415Z" fill="#fff" stroke="#263238" stroke-linecap="round" stroke-linejoin="round" stroke-width="0.173"/>
      <path id="Path_590" data-name="Path 590" d="M67.507,94.67H68.75l-.634-.261-1.209.012Z" fill="#fff" stroke="#263238" stroke-linecap="round" stroke-linejoin="round" stroke-width="0.173"/>
      <path id="Path_591" data-name="Path 591" d="M69.839,95.646l.588.247h1.3l-.6-.247Z" fill="#fff" stroke="#263238" stroke-linecap="round" stroke-linejoin="round" stroke-width="0.173"/>
      <path id="Path_592" data-name="Path 592" d="M68.09,95.893l-.59-.247H66.351l.588.247Z" fill="#fff" stroke="#263238" stroke-linecap="round" stroke-linejoin="round" stroke-width="0.173"/>
      <path id="Path_593" data-name="Path 593" d="M63.427,94.67l-.517-.215-1.529.012.4.2Z" fill="#fff" stroke="#263238" stroke-linecap="round" stroke-linejoin="round" stroke-width="0.173"/>
      <path id="Path_594" data-name="Path 594" d="M66.616,95.277H65.468l.334.141h1.151Z" fill="#fff" stroke="#263238" stroke-linecap="round" stroke-linejoin="round" stroke-width="0.173"/>
      <path id="Path_595" data-name="Path 595" d="M64.566,94.9l.353.148H66.07l-.353-.148Z" fill="#fff" stroke="#263238" stroke-linecap="round" stroke-linejoin="round" stroke-width="0.173"/>
      <path id="Path_596" data-name="Path 596" d="M65.209,95.418l-.334-.141h-1.9l.279.141Z" fill="#fff" stroke="#263238" stroke-linecap="round" stroke-linejoin="round" stroke-width="0.173"/>
      <path id="Path_597" data-name="Path 597" d="M62.525,95.049h1.8l-.353-.148H62.234Z" fill="#fff" stroke="#263238" stroke-linecap="round" stroke-linejoin="round" stroke-width="0.173"/>
      <path id="Path_598" data-name="Path 598" d="M65.758,95.646h-2.05l.487.247h2.152Z" fill="#fff" stroke="#263238" stroke-linecap="round" stroke-linejoin="round" stroke-width="0.173"/>
      <path id="Path_599" data-name="Path 599" d="M63.766,96.795h-.443L54.842,84.566l.42-.127h5.552Z" fill="#fff" stroke="#263238" stroke-linecap="round" stroke-linejoin="round" stroke-width="0.231"/>
      <path id="Path_600" data-name="Path 600" d="M63.323,96.795l-5.549-2.731-2.952-9.625H60.37Z" fill="#fff" stroke="#263238" stroke-linecap="round" stroke-linejoin="round" stroke-width="0.231"/>
    </g>
    <g id="freepik--characters-2--inject-50">
      <path id="Path_601" data-name="Path 601" d="M111.847,101.756V86.93a.4.4,0,0,0-.4-.4h-5.4a.4.4,0,0,0-.4.4v14.826Z" fill="#263238" stroke="#263238" stroke-linecap="round" stroke-linejoin="round" stroke-width="0.231"/>
      <path id="Path_602" data-name="Path 602" d="M109.893,101.756V86.93a.4.4,0,0,0-.4-.4h-5.4a.4.4,0,0,0-.4.4v14.826Z" fill="#4c4c4c" stroke="#263238" stroke-linecap="round" stroke-linejoin="round" stroke-width="0.231"/>
      <path id="Path_603" data-name="Path 603" d="M88.251,78.119s-2.38,1.587-2.68,2.563-2.076,6.53-2.258,6.956-1.647,2.685-1.647,2.685l-7.81.364s-3.538-.791-3.845-.791a13.532,13.532,0,0,0-3.6,2.563c-.244.549-.791,1.342-.549,1.525s.611-.122.611-.122.122.853,1.647.549a9.336,9.336,0,0,0,3.051-1.4s1.891.923,2.622.731l.062-.018v.812s10.312.549,10.739.427a22.488,22.488,0,0,0,2.685-2.867L89.9,77.934S89.776,76.592,88.251,78.119Z" fill="#cb955b" stroke="#263238" stroke-linecap="round" stroke-linejoin="round" stroke-width="0.231"/>
      <path id="Path_604" data-name="Path 604" d="M74.02,90.9l-.148-.212h-.021s-3.538-.791-3.845-.791a13.532,13.532,0,0,0-3.6,2.563c-.244.549-.791,1.342-.549,1.525s.611-.122.611-.122.122.853,1.647.549a9.336,9.336,0,0,0,3.052-1.4s1.891.923,2.622.731l.062-.018v.812Z" fill="#4c4c4c" stroke="#263238" stroke-linecap="round" stroke-linejoin="round" stroke-width="0.231"/>
      <path id="Path_605" data-name="Path 605" d="M88.542,101.756h.242c-.187-.443-.351-.849-.417-1.07-.194-.65-2.537-9.12-2.8-10.356a12.436,12.436,0,0,1,.521-5.473c.653-2.475,2.163-6.737,2.163-6.737l-2.163,3.026s-1.824,7.035-1.824,7.946a36.495,36.495,0,0,0,1.824,7.817A50.811,50.811,0,0,0,88.542,101.756Z" fill="#cb955b" stroke="#263238" stroke-linecap="round" stroke-linejoin="round" stroke-width="0.231"/>
      <path id="Path_606" data-name="Path 606" d="M89.227,76.41a26.9,26.9,0,0,0-2.867,5.981,27.89,27.89,0,0,0-1.1,6.772c0,2.2,2.44,8.421,2.807,9.214s4.332,1.036,5.552-2.747,1.769-14.7,1.038-17.207S90.754,74.763,89.227,76.41Z" fill="#fff" stroke="#263238" stroke-linecap="round" stroke-linejoin="round" stroke-width="0.231"/>
      <path id="Path_607" data-name="Path 607" d="M88.593,75.9a18.65,18.65,0,0,1-2.177,1.352l-.076,2.1.6-1.126.936,2.789,1.008-5.192Z" fill="gray" stroke="#263238" stroke-linecap="round" stroke-linejoin="round" stroke-width="0.231"/>
      <path id="Path_608" data-name="Path 608" d="M88.819,101.756h16.607c-.547-1.462-2.659-7.127-2.724-7.381-.076-.3-1.8-13.666-3.605-16.146s-6-3.379-6.906-2.853c0,0-3,6.082-4.131,8.935a41.23,41.23,0,0,0-1.877,9.309,60.482,60.482,0,0,0,1.578,6Z" fill="#cb955b" stroke="#263238" stroke-linecap="round" stroke-linejoin="round" stroke-width="0.231"/>
      <path id="Path_609" data-name="Path 609" d="M100.78,97.288,93.6,99.426l.459.916,3.972-1.22" fill="none" stroke="#263238" stroke-linecap="round" stroke-linejoin="round" stroke-width="0.231"/>
      <path id="Path_610" data-name="Path 610" d="M85.043,65.327a19.438,19.438,0,0,0-.59,2.147,7.923,7.923,0,0,0,.025.819.759.759,0,0,1-.1.417c-.12.194-1.469,1.492-1.31,1.753s1.091,1.3,1.091,1.3.653,3.111,1.527,3.471a4.5,4.5,0,0,0,2.108.138l.445,1.216L93.69,74.8l-.083-1.792a15.36,15.36,0,0,0-.081-5.485C92.9,65.228,87.444,62.737,85.043,65.327Z" fill="#fff" stroke="#263238" stroke-linecap="round" stroke-linejoin="round" stroke-width="0.231"/>
      <path id="Path_611" data-name="Path 611" d="M85.218,68.985c-.065.265-.2.461-.3.436s-.134-.261-.069-.526.2-.461.3-.436S85.281,68.72,85.218,68.985Z" fill="#263238"/>
      <path id="Path_612" data-name="Path 612" d="M84.831,67.777a.867.867,0,0,1,1.068.609" fill="#fff" stroke="#263238" stroke-linecap="round" stroke-linejoin="round" stroke-width="0.231"/>
      <path id="Path_613" data-name="Path 613" d="M84.3,72.194a1.607,1.607,0,0,0,1.677.231" fill="#fff" stroke="#263238" stroke-linecap="round" stroke-linejoin="round" stroke-width="0.231"/>
      <path id="Path_614" data-name="Path 614" d="M88.385,60.963a2.768,2.768,0,0,0-2.032-1.672c-1.555-.3-2.666,1.868-2.277,2.7s.565,1.022-.182,1.063-2.18,1.986-.923,3.178,2.782-.512,2.858.1-.129,1.153.6,1.179,1.933-.051,1.744.422-.231,1.568.461,1.737,1.126-.692,1.615-.57a2.3,2.3,0,0,1,.717,2.537c-.436.858-.724.86-.775,1.07a2.874,2.874,0,0,0,2.694,1.384c1.391-.258,3.2-.706,3.411-2.205s-.231-1.827.346-2.353,1.128-.692.964-1.541-.692-1.126-.521-1.824a5.986,5.986,0,0,0-3.513-5.275A5.521,5.521,0,0,0,88.385,60.963Z" fill="#263238" stroke="#263238" stroke-linecap="round" stroke-linejoin="round" stroke-width="0.231"/>
      <path id="Path_615" data-name="Path 615" d="M94.264,73.112,87.391,77.1l.494,3.914,7.335-5.831Z" fill="#fff" stroke="#263238" stroke-linecap="round" stroke-linejoin="round" stroke-width="0.231"/>
      <path id="Path_616" data-name="Path 616" d="M76.281,91.665s-1.384-.514-2.26-.766c-1.5-.431-2.913-1.073-3.439-.923A29.064,29.064,0,0,0,67.5,91.889a13.531,13.531,0,0,0-.826,2.479c.076.3.625-.185.625-.185s-.325.408-.025.71.6-.3.6-.3-.076.752.374.676a.528.528,0,0,0,.494-.408s.032.408.408.408,1.2-1.575,1.2-1.575l1.425.074a6.913,6.913,0,0,0,1.8.676,3.118,3.118,0,0,0,1.5-.376l.9.231.752-2.177Z" fill="#fff" stroke="#263238" stroke-linecap="round" stroke-linejoin="round" stroke-width="0.231"/>
      <path id="Path_617" data-name="Path 617" d="M67.295,94.184s.768-1.845.89-1.965,1.658-.983,1.658-.983" fill="none" stroke="#263238" stroke-linecap="round" stroke-linejoin="round" stroke-width="0.231"/>
      <path id="Path_618" data-name="Path 618" d="M67.871,94.592s.923-1.882,1.022-1.974,1.257-.674,1.257-.674" fill="none" stroke="#263238" stroke-linecap="round" stroke-linejoin="round" stroke-width="0.231"/>
      <path id="Path_619" data-name="Path 619" d="M68.734,94.86a16.565,16.565,0,0,1,1.045-1.811c.155-.092.551-.307.551-.307" fill="none" stroke="#263238" stroke-linecap="round" stroke-linejoin="round" stroke-width="0.231"/>
      <path id="Path_620" data-name="Path 620" d="M96.181,78.075s-4.731,3.077-4.655,4.279.45,1.2.45,1.2l-2.4,9.009s-.75-.6-.826.152l-.074.75-12.54-2.1-1.275,3.153s5.18,2.027,8.785,3.3,7.358,2.7,7.731,2.027S99.18,88.06,99.641,87.234a5.971,5.971,0,0,0,.461-2.327" fill="#cb955b" stroke="#263238" stroke-linecap="round" stroke-linejoin="round" stroke-width="0.231"/>
      <path id="Path_621" data-name="Path 621" d="M91.972,83.555A6.083,6.083,0,0,1,96.852,80.4" fill="none" stroke="#263238" stroke-linecap="round" stroke-linejoin="round" stroke-width="0.231"/>
    </g>
  </g>
</svg>
