<svg xmlns="http://www.w3.org/2000/svg" width="159.926" height="96" viewBox="0 0 159.926 96">
  <g id="Fishing-pana" transform="translate(-11.954 -12.319)">
    <g id="freepik--background-complete--inject-6">
      <path id="path2" d="M106.7,103.091a4.659,4.659,0,0,1,2.787-3.252,3.341,3.341,0,0,1-1.558,3.646,3.522,3.522,0,0,1,1.8,3.234,3.548,3.548,0,0,1-3.179-2.548" fill="#e0e0e0"/>
      <path id="path4" d="M101.2,107.079a2.134,2.134,0,0,0,1.254,1.187.587.587,0,0,0,.435.021.25.25,0,0,0,.117-.364,1.091,1.091,0,0,0,.756.213.5.5,0,0,0,.415-.578c.309.085.7.144.891-.112a.548.548,0,0,0-.025-.61,1.568,1.568,0,0,0-.484-.424" fill="#e0e0e0"/>
      <path id="path6" d="M100,100.836a7.707,7.707,0,0,1,3.71-3.041.591.591,0,0,1,.573,0,.415.415,0,0,1,.108.424,1.187,1.187,0,0,1-.229.4A.917.917,0,0,1,105,98.59c.248.151.314.573.064.72a.433.433,0,0,1,.649.16.706.706,0,0,1-.138.726,2.042,2.042,0,0,1-.628.458" fill="#e0e0e0"/>
      <path id="path8" d="M97.123,103.815s2.157-3.765,5.612-3.765,4.288,3.536,4.288,3.536a6.161,6.161,0,0,1-4.281,3.559C99.695,107.658,97.123,103.815,97.123,103.815Z" fill="#f5f5f5"/>
      <path id="path10" d="M100.868,103.474a10.915,10.915,0,0,0,1.568,1.467,1.469,1.469,0,0,0,.917.392.976.976,0,0,0,.733-.458,1.774,1.774,0,0,0,.259-.846,3.064,3.064,0,0,0-.243-1.446.942.942,0,0,0-.539-.577,1.1,1.1,0,0,0-.862.27l-1.833,1.231" fill="#e0e0e0"/>
      <path id="path12" d="M99.669,101.95a.814.814,0,0,1,.121.128,2.478,2.478,0,0,1,.252.406,2.929,2.929,0,0,1-.229,3.011,2.557,2.557,0,0,1-.312.362.525.525,0,0,1-.138.108c-.016-.016.167-.186.378-.518a3.066,3.066,0,0,0,.229-2.929C99.807,102.158,99.653,101.961,99.669,101.95Z" fill="#e0e0e0"/>
      <path id="path14" d="M99.2,102.747a.351.351,0,1,1-.266.066" fill="#e0e0e0"/>
      <path id="path16" d="M50.246,98.3a11.671,11.671,0,0,0,2.333,1.467,3.873,3.873,0,0,0,2.693.229c.229-.071.477-.211.509-.447.041-.282-.243-.493-.5-.626a11,11,0,0,0-3.607-1.146,4.478,4.478,0,0,0,3.151-2.521c.133-.3.229-.688,0-.917a.715.715,0,0,0-.582-.183,2.716,2.716,0,0,0-1.517.791,15.657,15.657,0,0,0-2.817,3.208" fill="#e0e0e0"/>
      <path id="path18" d="M40.014,95.386l2.322-1.338a1.064,1.064,0,0,1,.458-.179.371.371,0,0,1,.392.25c.025.126-.039.257-.028.385.023.257.335.392.591.371s.5-.142.761-.156c.142,0,.316.044.351.183s-.05.229-.08.332c-.092.319.229.633.552.671a1.8,1.8,0,0,0,.946-.243,1.6,1.6,0,0,1,.951-.209c.323.064.607.419.47.72a1.691,1.691,0,0,1,1-.048c.316.119.614.688.417.972a32.361,32.361,0,0,0-9.27-1.7" fill="#e0e0e0"/>
      <path id="path20" d="M39.418,99.75a2.723,2.723,0,0,0,4.3.749.775.775,0,0,1,.316-.229c.229-.06.445.128.653.252a1.288,1.288,0,0,0,1.132.078,1.742,1.742,0,0,1,.651-.229,1.354,1.354,0,0,1,.529.2,2.115,2.115,0,0,0,2.979-2.422" fill="#e0e0e0"/>
      <path id="path22" d="M33.73,97.884a9.784,9.784,0,0,1,6.907-2.521,27.324,27.324,0,0,1,7.4,1.329,4.165,4.165,0,0,1,2.567,1.48,23.7,23.7,0,0,1-9.041,1.783,17.472,17.472,0,0,1-4.1-.335,8.968,8.968,0,0,1-3.717-1.707" fill="#ebebeb"/>
      <path id="path24" d="M37,96.818a.5.5,0,1,1-.277.044" fill="#e0e0e0"/>
      <path id="path26" d="M37.93,99.138c-.016-.014.124-.154.282-.422a2.356,2.356,0,0,0,.069-2.292c-.142-.277-.273-.424-.257-.438a1.114,1.114,0,0,1,.33.4,2.216,2.216,0,0,1-.071,2.388,1.178,1.178,0,0,1-.353.367Z" fill="#e0e0e0"/>
      <path id="path28" d="M38.815,97.682a6.786,6.786,0,0,0,2.553,1.162,2.913,2.913,0,0,0,1.079.069,1.389,1.389,0,0,0,.917-.527.942.942,0,0,0,.71.05.707.707,0,0,0,.229-.885,1.64,1.64,0,0,0-1.448-.894A4.835,4.835,0,0,0,41.1,97c-.791.259-1.494.424-2.292.688" fill="#e0e0e0"/>
      <path id="path30" d="M155.2,85.135a6.709,6.709,0,0,0,1.345.848,2.273,2.273,0,0,0,1.556.138c.131-.044.275-.121.3-.259s-.142-.284-.286-.362a6.378,6.378,0,0,0-2.085-.665,2.59,2.59,0,0,0,1.833-1.458.5.5,0,0,0,0-.532.422.422,0,0,0-.337-.105,1.6,1.6,0,0,0-.878.458,9.2,9.2,0,0,0-1.625,1.852" fill="#e0e0e0"/>
      <path id="path32" d="M149.283,83.453l1.341-.772a.637.637,0,0,1,.27-.105.229.229,0,0,1,.229.147c.016.071-.023.147-.016.229.014.149.193.229.341.215s.291-.082.44-.089c.083,0,.181.025.2.105s-.027.128-.046.193c-.053.183.131.364.319.387a1.065,1.065,0,0,0,.548-.14.917.917,0,0,1,.548-.121c.188.037.351.243.273.417a.97.97,0,0,1,.575-.027c.183.069.355.4.241.561a18.669,18.669,0,0,0-5.353-.985" fill="#e0e0e0"/>
      <path id="path34" d="M148.939,85.974a1.572,1.572,0,0,0,2.484.424.438.438,0,0,1,.183-.128c.135-.034.257.073.376.144a.749.749,0,0,0,.655.046,1,1,0,0,1,.376-.135.761.761,0,0,1,.3.115,1.224,1.224,0,0,0,1.721-1.4" fill="#e0e0e0"/>
      <path id="path36" d="M145.653,84.9a5.663,5.663,0,0,1,3.99-1.46,15.633,15.633,0,0,1,4.276.768,2.419,2.419,0,0,1,1.483.855,13.649,13.649,0,0,1-5.223,1.031,10.136,10.136,0,0,1-2.37-.193,5.145,5.145,0,0,1-2.147-.988" fill="#ebebeb"/>
      <path id="path38" d="M147.544,84.28a.291.291,0,1,1-.16.025" fill="#e0e0e0"/>
      <path id="path40" d="M148.08,85.621c-.014-.014.062-.1.147-.254a1.441,1.441,0,0,0,.186-.651,1.473,1.473,0,0,0-.144-.66c-.078-.16-.147-.248-.133-.261s.105.06.206.229a1.265,1.265,0,0,1-.041,1.4C148.188,85.566,148.089,85.63,148.08,85.621Z" fill="#e0e0e0"/>
      <path id="path42" d="M148.591,84.78a3.91,3.91,0,0,0,1.474.669,1.7,1.7,0,0,0,.626.041.8.8,0,0,0,.532-.3.548.548,0,0,0,.41.03.4.4,0,0,0,.126-.511.944.944,0,0,0-.836-.516,2.764,2.764,0,0,0-1.011.2c-.458.149-.862.243-1.32.394" fill="#e0e0e0"/>
      <path id="path44" d="M155.308,40.153c0-.176.594-11.722.594-11.722l.9,5.223Z" fill="#f5f5f5"/>
      <path id="path46" d="M155.088,52.84c.044-.133,1.011-2.239,1.011-2.239l4.258-5.4-2.633,5.926Z" fill="#f5f5f5"/>
      <path id="polygon48" d="M154.6,55.957l-1.093-2.59.215-3.733.878,4.787Z" fill="#f5f5f5"/>
      <path id="path50" d="M154.327,62.491c-.027,0,.188-5.816.477-12.167s.541-11.5.568-11.5-.188,5.15-.474,11.5S154.352,62.493,154.327,62.491Z" fill="#e0e0e0"/>
      <path id="path52" d="M153.156,33.748a34.942,34.942,0,0,1-.229-4.785c.121-.353,1.538-5.092,1.538-5.092l-.394,7.024Z" fill="#ebebeb"/>
      <path id="path54" d="M153.014,39.23s.44-1.886.788-2.106,5-3.733,5-3.733l2.37-.481-2.019,1.008Z" fill="#ebebeb"/>
      <path id="polygon56" d="M151.032,33.354l1.274,7.682.525.614.183-2.019Z" fill="#ebebeb"/>
      <path id="polygon58" d="M148.467,39.933l2.677,5.356,1.581.658-1.272-2.459Z" fill="#ebebeb"/>
      <path id="path60" d="M152.478,49.21c.087-.133,1.581-3.9,1.581-3.9l3.9-2.723h1.668l-1.176.264Z" fill="#ebebeb"/>
      <path id="polygon62" d="M150.083,49.451l1.315,3.3,1.079.215v-.754Z" fill="#ebebeb"/>
      <path id="path64" d="M152.026,61.989c-.027,0,.229-6.463.561-14.438s.63-14.438.655-14.438-.229,6.465-.561,14.438S152.051,61.991,152.026,61.989Z" fill="#e0e0e0"/>
      <path id="path66" d="M103.063,61.2a22.406,22.406,0,0,1-3.22.623l-.062-18.155a1.641,1.641,0,0,1,1.641-1.641h0a1.641,1.641,0,0,1,1.641,1.641Z" fill="#e0e0e0"/>
      <path id="path68" d="M111.836,49.581H96.53a.8.8,0,0,1-.8-.8h0a.8.8,0,0,1,.8-.8h15.306Z" fill="#e0e0e0"/>
      <rect id="rect70" width="16.562" height="1.606" transform="translate(112.327 47.975)" fill="#e0e0e0"/>
      <rect id="rect72" width="16.562" height="1.606" transform="translate(129.558 47.975)" fill="#e0e0e0"/>
      <rect id="rect74" width="16.562" height="1.606" transform="translate(146.787 47.975)" fill="#e0e0e0"/>
      <rect id="rect76" width="8.074" height="1.606" transform="translate(163.806 47.975)" fill="#e0e0e0"/>
      <path id="path78" d="M139.108,63.068a20.109,20.109,0,0,1-3.282.034V43.669a1.639,1.639,0,0,1,1.641-1.641h0a1.641,1.641,0,0,1,1.641,1.641Z" fill="#e0e0e0"/>
      <path id="path80" d="M139.108,47.975a6.316,6.316,0,0,1-1.643.1,8.222,8.222,0,0,1-1.639-.094,6.356,6.356,0,0,1,1.641-.094A8.587,8.587,0,0,1,139.108,47.975Z" fill="#ebebeb"/>
      <path id="path82" d="M139.259,46.724a5.688,5.688,0,0,1-1.687.688,5.957,5.957,0,0,1-1.792.309c-.007-.048.784-.215,1.742-.49A17.924,17.924,0,0,1,139.259,46.724Z" fill="#ebebeb"/>
      <path id="path84" d="M139.144,46.579a5.5,5.5,0,0,1-1.643.172,5.573,5.573,0,0,1-1.645-.142,11.352,11.352,0,0,1,1.645-.046A9.964,9.964,0,0,1,139.144,46.579Z" fill="#ebebeb"/>
      <path id="path86" d="M139.144,46.132a7.4,7.4,0,0,1-1.639.19,6.86,6.86,0,0,1-1.648,0,13.922,13.922,0,0,1,3.286-.19Z" fill="#ebebeb"/>
      <path id="path88" d="M139.137,49.607c0,.053-.747,0-1.659.021a8.8,8.8,0,0,1-1.659,0,4.631,4.631,0,0,1,1.657-.2A4.908,4.908,0,0,1,139.137,49.607Z" fill="#ebebeb"/>
      <path id="path90" d="M139.181,50.152a3.978,3.978,0,0,1-1.675.406,4.041,4.041,0,0,1-1.716-.165c.014-.046.768.046,1.7-.023S139.165,50.1,139.181,50.152Z" fill="#ebebeb"/>
      <path id="path92" d="M139.277,50.993a8.1,8.1,0,0,1-1.716.076,7.789,7.789,0,0,1-1.714-.112,7.911,7.911,0,0,1,1.716-.076A7.771,7.771,0,0,1,139.277,50.993Z" fill="#ebebeb"/>
      <path id="path94" d="M102.914,47.9a5.633,5.633,0,0,1-1.558.1A7.347,7.347,0,0,1,99.8,47.9a5.691,5.691,0,0,1,1.558-.094A8.079,8.079,0,0,1,102.914,47.9Z" fill="#ebebeb"/>
      <path id="path96" d="M103.066,46.653a7.729,7.729,0,0,1-3.312,1c-.007-.05.745-.213,1.652-.488A16.187,16.187,0,0,1,103.066,46.653Z" fill="#ebebeb"/>
      <path id="path98" d="M102.958,46.508a7.792,7.792,0,0,1-3.124.027,10.232,10.232,0,0,1,1.561-.046A9.471,9.471,0,0,1,102.958,46.508Z" fill="#ebebeb"/>
      <path id="path100" d="M102.958,46.064a6.406,6.406,0,0,1-1.556.193,6.174,6.174,0,0,1-1.565,0,12.717,12.717,0,0,1,3.121-.193Z" fill="#ebebeb"/>
      <path id="path102" d="M103.063,49.636a7.026,7.026,0,0,1-1.618.144,7.633,7.633,0,0,1-1.62-.044,7.556,7.556,0,0,1,1.6-.147A7.134,7.134,0,0,1,103.063,49.636Z" fill="#ebebeb"/>
      <path id="path104" d="M102.992,50.081a3.609,3.609,0,0,1-1.59.406,3.665,3.665,0,0,1-1.632-.165c.011-.046.731.046,1.618-.023S102.976,50.026,102.992,50.081Z" fill="#ebebeb"/>
      <path id="path106" d="M103.082,50.922a7.294,7.294,0,0,1-1.629.076,7.011,7.011,0,0,1-1.627-.112,7.149,7.149,0,0,1,1.629-.076A7.493,7.493,0,0,1,103.082,50.922Z" fill="#ebebeb"/>
      <path id="path108" d="M95.07,63.813a14.692,14.692,0,0,1,12.451-2.6c2.94.747,5.69,2.425,8.709,2.493,4.37.094,8.3-3.179,12.669-3.014,3.458.131,6.577,2.413,10.035,2.464,3.259.048,6.284-1.893,9.54-1.93,3.706-.039,7.171,2.386,10.86,2.04,1.923-.179,3.685-1.1,5.539-1.636s4.891.458,6.346,1.719" fill="#fff"/>
      <path id="path110" d="M171.219,63.35l-.163-.124c-.1-.087-.27-.2-.488-.344a9.2,9.2,0,0,0-2.09-.956,8.779,8.779,0,0,0-1.62-.364,5.239,5.239,0,0,0-1.955.094c-.688.2-1.4.458-2.152.745a18.335,18.335,0,0,1-2.445.759,8.479,8.479,0,0,1-2.81.115,17.431,17.431,0,0,1-2.979-.674c-1.011-.3-2.044-.651-3.128-.917a11,11,0,0,0-3.41-.371,16.192,16.192,0,0,0-3.538.754,33.708,33.708,0,0,1-3.667.995,10.055,10.055,0,0,1-1.953.156,9.944,9.944,0,0,1-1.971-.268A36.64,36.64,0,0,1,133,61.7a20.134,20.134,0,0,0-1.941-.6,10.221,10.221,0,0,0-1.971-.323,11.059,11.059,0,0,0-3.855.536c-1.231.358-2.393.834-3.568,1.254a20.323,20.323,0,0,1-3.5,1.022,9.4,9.4,0,0,1-3.461,0,18.732,18.732,0,0,1-3.135-.917c-.988-.369-1.932-.747-2.86-1.054a14.838,14.838,0,0,0-2.723-.655,15.673,15.673,0,0,0-2.542-.128,15.931,15.931,0,0,0-2.257.264,14.839,14.839,0,0,0-5.461,2.253l-.488.362c-.11.078-.167.115-.167.115s.053-.044.16-.124l.481-.36a14.8,14.8,0,0,1,10.276-2.448,15.073,15.073,0,0,1,2.75.651c.93.3,1.877.688,2.865,1.047a18.513,18.513,0,0,0,3.119.917,9.346,9.346,0,0,0,3.424,0,20.55,20.55,0,0,0,3.477-1.02c1.162-.429,2.338-.917,3.577-1.277a11.2,11.2,0,0,1,3.9-.543,10.4,10.4,0,0,1,1.994.325c.658.165,1.3.378,1.95.605a35.505,35.505,0,0,0,3.841,1.249,9.043,9.043,0,0,0,3.878.11,33.263,33.263,0,0,0,3.653-.988,16.308,16.308,0,0,1,3.564-.781,10.978,10.978,0,0,1,3.438.378c1.091.275,2.124.626,3.13.93a17.371,17.371,0,0,0,2.961.676,8.365,8.365,0,0,0,2.78-.105,17.987,17.987,0,0,0,2.441-.733c.759-.277,1.474-.541,2.161-.738a5.271,5.271,0,0,1,1.98-.087,8.637,8.637,0,0,1,1.627.378,8.906,8.906,0,0,1,2.088.979,5.523,5.523,0,0,1,.484.355C171.169,63.3,171.219,63.35,171.219,63.35Z" fill="#e0e0e0"/>
      <path id="path112" d="M30.849,26.355H52.332S50.432,22.9,44.9,23.4c-5.271.481-5.551-1.7-8.234-1.969S31.743,23.211,30.849,26.355Z" fill="#ebebeb"/>
      <path id="path114" d="M123.066,21.063h23.68s-2.095-3.811-8.191-3.257c-5.821.527-6.117-1.875-9.073-2.17S124.053,17.61,123.066,21.063Z" fill="#f5f5f5"/>
      <path id="path116" d="M139.513,34.355c0,.032-24.863.06-55.528.06s-55.535-.028-55.535-.06,24.861-.06,55.535-.06S139.513,34.323,139.513,34.355Z" fill="#e0e0e0"/>
      <path id="path118" d="M78.421,36.083c0,.032-3.486.06-7.792.06s-7.792-.028-7.792-.06,3.483-.06,7.792-.06S78.421,36.051,78.421,36.083Z" fill="#e0e0e0"/>
      <path id="path120" d="M74.827,37.648c0,.034-1.877.062-4.192.062s-4.192-.028-4.192-.062,1.877-.06,4.192-.06S74.827,37.616,74.827,37.648Z" fill="#e0e0e0"/>
    </g>
    <g id="freepik--Plants--inject-6">
      <path id="path307" d="M162.669,75.856a4.193,4.193,0,0,1-.472.133,6.206,6.206,0,0,1-1.4.149,9.765,9.765,0,0,1-2.214-.291,22.019,22.019,0,0,1-2.805-.917,27.82,27.82,0,0,0-3.38-1.146,9.371,9.371,0,0,0-4.052-.1,17.31,17.31,0,0,0-2.136.578c-.713.245-1.435.523-2.166.816a28.3,28.3,0,0,1-4.625,1.547,13.175,13.175,0,0,1-4.868.025,38.732,38.732,0,0,1-4.418-1.061c-1.391-.4-2.716-.768-3.976-1.011a15.662,15.662,0,0,0-3.548-.325,9.341,9.341,0,0,0-4.879,1.478,7.391,7.391,0,0,0-1.075.9l-.248.27c-.055.062-.087.092-.087.092s.025-.034.078-.1l.229-.28a7.026,7.026,0,0,1,1.068-.917,9.306,9.306,0,0,1,4.9-1.524,15.531,15.531,0,0,1,3.568.3c1.267.229,2.6.607,3.988,1a39.514,39.514,0,0,0,4.407,1.054,13.1,13.1,0,0,0,4.826-.027,28.42,28.42,0,0,0,4.6-1.54c.731-.291,1.455-.568,2.175-.814a16.8,16.8,0,0,1,2.15-.578,9.456,9.456,0,0,1,4.1.112,27.986,27.986,0,0,1,3.387,1.169,22.4,22.4,0,0,0,2.791.924,9.9,9.9,0,0,0,2.2.309,6.74,6.74,0,0,0,1.4-.126c.16-.028.277-.066.358-.083S162.669,75.856,162.669,75.856Z" fill="#263238"/>
      <path id="path309" d="M144.266,51.335A46.621,46.621,0,0,0,146.46,45.1c-.057-.488-.353-6.962-.353-6.962L144.4,47.2Z" fill="#cb955b"/>
      <path id="path311" d="M143.295,56.486s.037-2.539-.337-2.927-5.188-6.323-5.188-6.323l-2.862-1.361,2.25,1.92Z" fill="#cb955b"/>
      <path id="polygon313" d="M147.218,51.456l-4.04,9.375-.864.616.4-2.629Z" fill="#cb955b"/>
      <path id="polygon315" d="M148.449,60.568l-5.092,5.972-2.218.339,2.395-2.727Z" fill="#cb955b"/>
      <path id="polygon317" d="M136.873,61.764l1.721,7.657,1.8,1.336-.846-3.529Z" fill="#cb955b"/>
      <path id="polygon319" d="M143.668,71.126l-2.713,3.779-1.441-.066.238-.96Z" fill="#cb955b"/>
      <path id="path321" d="M139.089,77.1c.041,0,1.306-6.046,2.826-13.521s2.716-13.546,2.674-13.556-1.309,6.046-2.828,13.521S139.046,77.087,139.089,77.1Z" fill="#263238"/>
    </g>
    <g id="freepik--Seagull--inject-6" transform="translate(78.168 0.004)">
      <path id="path365" d="M63.8,38.336a5.9,5.9,0,0,0,3.163-.889,1.44,1.44,0,0,1-.638.071,1.27,1.27,0,0,0,.707-.529,14.691,14.691,0,0,1-2.991.207" fill="#263238"/>
      <path id="path367" d="M59.3,39.732v2.423l-1.281.437s.437.115.367.335c0,0,.389-.095.482.242l.652-.767v-2.67Z" fill="#263238"/>
      <path id="path369" d="M59.7,40.853a.292.292,0,1,1-.3-.21.264.264,0,0,1,.3.21Z" fill="#263238"/>
      <path id="path371" d="M60.5,39.732v2.423l-1.283.437s.437.115.367.335c0,0,.389-.095.484.242l.652-.767v-2.67Z" fill="#263238"/>
      <path id="path373" d="M60.908,40.853a.292.292,0,1,1-.3-.21.262.262,0,0,1,.3.21Z" fill="#263238"/>
      <path id="path375" d="M56.142,33.623a1.924,1.924,0,0,0,.65-.325,1.52,1.52,0,0,1,1.389-.633,1.374,1.374,0,0,1,1.166,1.224c-.017.531,0,1.184,0,1.184l5.675,2.144s-1.8,2.409-3.981,2.491c0,0-.2.306-.437.292a1.016,1.016,0,0,1-.5-.292,4.508,4.508,0,0,1-2.614-.469c-1.042-.673-1.939-1.471-1.877-2.818a3.36,3.36,0,0,1,1.236-2.246Z" fill="#fafafa"/>
      <path id="path377" d="M56.142,33.623l.72.542.013.01-.013.01a3.762,3.762,0,0,0-.9,1.1,2.758,2.758,0,0,0-.3.883,2.5,2.5,0,0,0,.069,1.06,2.577,2.577,0,0,0,.583,1.02,5.438,5.438,0,0,0,1,.837,3.3,3.3,0,0,0,.6.335,3.68,3.68,0,0,0,.687.2,5.269,5.269,0,0,0,1.488.052h.017l.013.012a1.006,1.006,0,0,0,.449.271c.169.031.328-.121.437-.265l.012-.016h.019a4.466,4.466,0,0,0,2.4-.965,8.281,8.281,0,0,0,1.549-1.51l.017.057L59.334,35.1h-.019v-.02c-.01-.408-.012-.8,0-1.166a.94.94,0,0,0-.122-.5,1.344,1.344,0,0,0-.322-.376,1.721,1.721,0,0,0-.812-.361,1.14,1.14,0,0,0-.729.176,2.159,2.159,0,0,0-.468.392.921.921,0,0,1-.369.265c-.114.05-.2.079-.264.1a.8.8,0,0,1-.093.025l.09-.034c.06-.022.146-.055.258-.106a.911.911,0,0,0,.357-.267,2.176,2.176,0,0,1,.471-.4,1.176,1.176,0,0,1,.746-.189A1.767,1.767,0,0,1,58.9,33a1.378,1.378,0,0,1,.335.389.98.98,0,0,1,.133.529c-.012.369-.007.758,0,1.166l-.019-.028,5.685,2.137.048.017-.031.039a8.326,8.326,0,0,1-1.563,1.526,4.545,4.545,0,0,1-2.444.978l.029-.016a.907.907,0,0,1-.211.217.392.392,0,0,1-.292.08,1.076,1.076,0,0,1-.487-.292l.031.01a5.321,5.321,0,0,1-1.512-.057,3.809,3.809,0,0,1-.7-.2,3.439,3.439,0,0,1-.614-.345,5.519,5.519,0,0,1-1.012-.85,2.643,2.643,0,0,1-.595-1.057,2.557,2.557,0,0,1-.064-1.083,2.809,2.809,0,0,1,.313-.9,3.688,3.688,0,0,1,.923-1.1v.02q-.348-.275-.529-.423l-.133-.1Z" fill="#263238"/>
      <path id="path379" d="M64.679,36.84a5.147,5.147,0,0,0-5.449-1.711l.044-.016a3.52,3.52,0,0,0-1.494.567.7.7,0,0,0-.376.536.682.682,0,0,0,.335.5,5.943,5.943,0,0,0,6.911.327.113.113,0,0,0,.029-.2Z" fill="#ebebeb"/>
      <path id="path381" d="M57.868,33.533a.182.182,0,1,1-.086-.171A.182.182,0,0,1,57.868,33.533Z" fill="#263238"/>
      <path id="path383" d="M62.375,36.379a.369.369,0,0,1-.061.045,1.034,1.034,0,0,1-.2.087,1.207,1.207,0,0,1-.751,0l.02-.064a.23.23,0,0,1,.082.373.4.4,0,0,1-.43.073,1.38,1.38,0,0,1-.223-.109l.05-.054a.37.37,0,0,1,.009.348.437.437,0,0,1-.23.219.692.692,0,0,1-.515-.015,1.487,1.487,0,0,1-.292-.166c-.064-.045-.1-.073-.095-.077a.437.437,0,0,1,.109.054,1.773,1.773,0,0,0,.3.146.653.653,0,0,0,.471,0,.364.364,0,0,0,.191-.188.3.3,0,0,0,0-.277l-.079-.125.128.073a1.491,1.491,0,0,0,.211.1.329.329,0,0,0,.351-.051.162.162,0,0,0-.047-.258l.02-.066a1.251,1.251,0,0,0,.717.02c.162-.045.252-.1.258-.092Z" fill="#263238"/>
      <path id="path385" d="M64.469,37.1a.153.153,0,0,1-.025.028c-.017.016-.044.042-.08.073a2.108,2.108,0,0,1-.344.227,2.275,2.275,0,0,1-1.445.233l.016-.061a.749.749,0,0,1,.35.254l.032.041-.052.013a2.729,2.729,0,0,1-1.321-.023l-.219-.058.227-.015a.13.13,0,0,1,.127.095.206.206,0,0,1,0,.146.255.255,0,0,1-.258.124,9.938,9.938,0,0,1-2.863-.972c-.343-.179-.611-.341-.791-.461a2.468,2.468,0,0,1-.207-.146.531.531,0,0,1-.069-.054.3.3,0,0,1,.077.041l.214.128c.184.111.456.265.8.437a10.818,10.818,0,0,0,1.246.526,9.6,9.6,0,0,0,1.595.418c.077,0,.165-.022.185-.077s0-.146-.051-.146l.009-.073a2.7,2.7,0,0,0,1.287.028l-.02.054a.7.7,0,0,0-.316-.235l.017-.061a2.309,2.309,0,0,0,1.415-.2,3.286,3.286,0,0,0,.462-.281Z" fill="#263238"/>
      <path id="path387" d="M57.932,33.234a.206.206,0,0,1-.087.019.342.342,0,0,1-.079,0,.292.292,0,0,1-.074-.029.184.184,0,0,1-.073-.052.074.074,0,0,1,.019-.1.2.2,0,0,1,.175-.042.192.192,0,0,1,.146.109A.074.074,0,0,1,57.932,33.234Z" fill="#263238"/>
      <path id="path389" d="M56.142,33.623s-1.424-.09-1.646,1.181l.21-.114a.875.875,0,0,1,.353-.1l1.5-.159.3-.251Z" fill="#cb955b"/>
      <path id="path391" d="M56.084,33.753c0,.02-.082.044-.184.06s-.189.02-.194,0,.074-.058.181-.074S56.082,33.732,56.084,33.753Z" fill="#263238"/>
      <path id="path393" d="M56.7,34.317a1.575,1.575,0,0,1-.334.057c-.207.025-.494.055-.812.083-.159.016-.312.023-.445.044a1.063,1.063,0,0,0-.341.1.991.991,0,0,0-.255.207c-.009,0,.039-.146.229-.254a1.085,1.085,0,0,1,.356-.122c.138-.023.292-.034.449-.05.318-.028.6-.05.815-.061A1.4,1.4,0,0,1,56.7,34.317Z" fill="#263238"/>
    </g>
    <g id="g11590" transform="translate(-0.103 0.978)">
      <path id="path70" d="M25.954,55.146a8.13,8.13,0,0,0-5.8-1.948c-4.082.115-2.569,4.052-2.049,4.011Z" fill="#cb955b"/>
      <path id="path72" d="M24.414,54.614c-.1-.474-2.4-1.343-4.393-1.123-2.085.229-.9,1.432-.568,1.407Z" opacity="0.2"/>
      <path id="path74" d="M25.541,55.428a1.6,1.6,0,0,1,1.81,1.375v.021c.053.385.121.816.195,1.228s.151.832.229,1.247q.252,1.244.561,2.47c.209.818.447,1.62.706,2.411.064.186.135.369.2.552.142-.266.282-.545.422-.834l.252-.5.124-.254.057-.128c.018-.018,0-.046.055-.053A1.327,1.327,0,0,1,30.54,63l.731.149a3.873,3.873,0,0,1,.8.266,1.238,1.238,0,0,1,.344.195c.039.041,0,.062.011.094l-.032.167-.069.332c-.048.229-.112.438-.174.655a8.333,8.333,0,0,1-.536,1.283,6.49,6.49,0,0,1-.878,1.313,3.623,3.623,0,0,1-.77.667,2.592,2.592,0,0,1-1.311.4,1.416,1.416,0,0,1-1.276-.784v-.023c-.417-.841-.784-1.694-1.107-2.551s-.605-1.721-.859-2.59-.484-1.739-.688-2.617q-.151-.658-.286-1.32c-.094-.458-.174-.875-.254-1.354a.286.286,0,0,1,0-.044A1.6,1.6,0,0,1,25.541,55.428ZM28.521,65.7a.165.165,0,0,0,.057-.03C28.532,65.688,28.507,65.708,28.521,65.7Z" fill="#cb955b"/>
      <path id="path76" d="M29.912,63.21l.479-1.146,1.455,1.276s-.5,1.114-1.274.715Z" fill="#ffc3bd"/>
      <path id="path80-2" d="M21.687,54.621a20.832,20.832,0,0,1,3.532.2,2.564,2.564,0,0,1,2.122,1.893c.612,2.354,1.416,7.283.229,14.527H17.605c-.069-.889.135-3.784-.016-7.471a52.334,52.334,0,0,0-.729-6.822c-.014-.078-.028-.154-.044-.229a1.586,1.586,0,0,1,1.4-1.879C19.131,54.754,20.346,54.66,21.687,54.621Z" fill="#cb955b"/>
      <path id="path82-3" d="M17.614,68.873c.28.025,1.428.307,1.7.328l1.212,1.634a4.777,4.777,0,0,1-2.936-.866C17.6,69.646,17.607,69.279,17.614,68.873Z" opacity="0.2"/>
      <path id="path84-2" d="M21.139,55.528h.394c.165.28.458,2.532.154,2.812l-.548-.115A7.586,7.586,0,0,0,21.139,55.528Z" fill="#fff"/>
      <path id="path86-9" d="M24.256,55.517l.4-.034a5.263,5.263,0,0,1,.775,2.558l-.525.121a6.6,6.6,0,0,0-.651-2.645Z" fill="#fff"/>
      <path id="path88-2" d="M18.458,59.271a7.323,7.323,0,0,1-.875,4.526v-.014c-.037-.885-.1-1.776-.176-2.64Z" opacity="0.2"/>
      <path id="path90-9" d="M25.748,64.636l-4.455.158a.339.339,0,0,0-.332.346,10.11,10.11,0,0,1-.827,4.354.344.344,0,0,0,.25.5,13.987,13.987,0,0,0,6.02-.335.332.332,0,0,0,.215-.206,7.446,7.446,0,0,0-.561-4.652.339.339,0,0,0-.309-.163Z" fill="#fff" opacity="0.2"/>
      <path id="path98-1" d="M27.574,71.149s10.175,1.579,12.162,4.939c3.9,6.612,2.5,4.773,2.5,4.773l-2.216,2.6s-2.644-.045-6.164-5.573c-3.575.046-11.967.392-12.781-1.815a7.2,7.2,0,0,1,.062-4.9Z" fill="#263238"/>
      <path id="path100-9" d="M27.574,71.149s10.175,1.579,12.162,4.939c3.9,6.612,2.5,4.773,2.5,4.773l-2.216,2.6s-2.644-.045-6.164-5.573c-3.575.046-11.967.392-12.781-1.815a7.2,7.2,0,0,1,.062-4.9Z" opacity="0.3"/>
      <path id="path114-8" d="M22.933,71.149s13.782-3,13.48,2.331c-.33,5.842-1.273,6.383-1.273,6.383l-3.105.575s-1.372,2.387-.625-3.562c-2.817.928-12.332,2.441-13.485-.688a9.167,9.167,0,0,1-.328-4.95Z" fill="#263238"/>
      <g id="freepik--Character--inject-17" transform="translate(-173.188 107.507) rotate(-3.396)">
        <g id="g6198" transform="translate(54.578 -118.677)">
          <path id="path1418" d="M145.118,88.494s-4.878,3.8-4.971,4.2a9.7,9.7,0,0,0,.719,3.022.587.587,0,0,0,.745.249c.247-.124,4.509-6.342,4.509-6.342l1.9-1.151s.328.576.832.363a.925.925,0,0,0,.567-.892,1.172,1.172,0,0,0-.032-.466l2.394-1.368-.622-1.305-1.773.932s-.373-.466-1.088.062a10.9,10.9,0,0,0-1.462,1.4Z" fill="#b5b5b5"/>
          <path id="path1420" d="M141.382,96.088a.752.752,0,0,1-.576-.331,9.587,9.587,0,0,1-.728-3.076c.1-.424,4.18-3.607,5-4.245h0l1.708-1.295a11,11,0,0,1,1.468-1.4c.623-.46,1.019-.2,1.151-.092l1.727-.908a.069.069,0,0,1,.056,0,.076.076,0,0,1,.042.037l.622,1.306a.072.072,0,0,1-.029.094l-2.347,1.341a1.349,1.349,0,0,1,.02.439v.022a.974.974,0,0,1-.609.929.742.742,0,0,1-.882-.332l-1.823,1.105c-.734,1.07-4.275,6.227-4.527,6.354a.575.575,0,0,1-.27.056Zm3.778-7.538a51.287,51.287,0,0,0-4.944,4.164,10,10,0,0,0,.7,2.954.52.52,0,0,0,.658.229c.209-.144,2.794-3.856,4.48-6.318a.066.066,0,0,1,.023-.022l1.9-1.151a.072.072,0,0,1,.055-.009.076.076,0,0,1,.045.035c.012.02.3.514.742.332a.846.846,0,0,0,.519-.81v-.023a1.158,1.158,0,0,0-.027-.432.07.07,0,0,1,.033-.085l2.335-1.335-.561-1.178-1.705.895a.071.071,0,0,1-.091-.019c-.013-.016-.341-.4-.988.076a10.869,10.869,0,0,0-1.45,1.387l-.01.012Z" fill="#263238"/>
          <path id="polygon1436" d="M23.755,30.74l16.866-8.424.311.809L24.283,31.86Z" transform="translate(127.397 54.06)" fill="#263238"/>
          <path id="path1438" d="M151.68,85.991h-.023a.072.072,0,0,1-.042-.037l-.528-1.119a.071.071,0,0,1,.033-.095l16.864-8.424a.076.076,0,0,1,.059,0,.079.079,0,0,1,.042.042l.311.809a.072.072,0,0,1-.035.089l-16.649,8.728a.066.066,0,0,1-.033.009Zm-.432-1.158.466.987,16.525-8.67-.259-.675Z" fill="#263238"/>
        </g>
      </g>
      <path id="polygon78" d="M74.025-63.426l1.453,1.274-1.462.589-.848-1.052Z" transform="translate(105.869 -0.085) rotate(180)" fill="#ffc3bd"/>
      <path id="path142" d="M20.616,68.841l1.235.055-.688,1.8s-1.217-.078-1.111-.946Z" fill="#ffc3bd"/>
      <path id="polygon144" d="M84.707-70.785l-.69,1.8-1.061-1.166.692-1.16Z" transform="translate(105.869 -0.085) rotate(180)" fill="#ffc3bd"/>
      <path id="path146" d="M19.865,49.875l1.134.94L22.541,52.1a5.012,5.012,0,0,0-.1.623,1.63,1.63,0,0,0,1.375,1.955s.965.339-1.458.374-2.768-.319-2.768-.319c.935-.914.584-3.495.27-4.856Z" fill="#ffc3bd"/>
      <path id="path148" d="M22.541,52.093a5.012,5.012,0,0,0-.1.623A1.964,1.964,0,0,1,21.02,51.4,2.651,2.651,0,0,1,21,50.81Z" opacity="0.2"/>
      <path id="path150" d="M23.6,48.873c.882-.2,1.306-1.6.99-2.7-.419-1.435-1.833-1.338-2.908-.5C20.341,46.708,22.221,49.187,23.6,48.873Z" fill="#263238"/>
      <path id="path152" d="M19.4,47.909c.394,1.81.534,2.888,1.6,3.715a2.409,2.409,0,0,0,3.9-1.735c.142-1.687-.527-4.366-2.434-4.879a2.438,2.438,0,0,0-3.066,2.9Z" fill="#ffc3bd"/>
      <path id="path154" d="M20.332,49.258c.793-.435.557-2.507.211-2.865a2.3,2.3,0,0,0-2.936.316C16.617,48.067,19.1,49.93,20.332,49.258Z" fill="#263238"/>
      <path id="path156" d="M19.739,46.472c1.118.28.917-.688,2.89-.458a2.274,2.274,0,0,0,2.64-2.127,1.811,1.811,0,0,0-3.19-1.024c-1.1,1.288-1.975,2.292-3.763,2.14-1.389-.115-1.51,2.008.018,2.189A1.554,1.554,0,0,0,19.739,46.472Z" fill="#263238"/>
      <path id="path158" d="M23.24,46.091a2.491,2.491,0,0,0,1.361-.4,2.047,2.047,0,0,0,.935-1.414.057.057,0,0,0-.048-.064.06.06,0,0,0-.066.048A1.909,1.909,0,0,1,24.54,45.6a2.454,2.454,0,0,1-2,.282.055.055,0,0,0-.069.039.057.057,0,0,0,.039.071A2.665,2.665,0,0,0,23.24,46.091Z" fill="#263238"/>
      <path id="path160" d="M19.079,49.547a1.659,1.659,0,0,0,.891.759c.493.165.717-.277.561-.765-.14-.435-.566-1.05-1.052-1S18.836,49.107,19.079,49.547Z" fill="#ffc3bd"/>
      <path id="path162" d="M22.5,48.074c.023.149.121.259.229.248s.158-.14.135-.289-.121-.259-.229-.248S22.477,47.925,22.5,48.074Z" fill="#263238"/>
      <path id="path164" d="M24.187,47.874c.023.147.121.259.229.248s.158-.142.135-.291-.121-.259-.229-.248S24.164,47.725,24.187,47.874Z" fill="#263238"/>
      <path id="path166" d="M23.674,47.934a4.813,4.813,0,0,0,.706,1.059.729.729,0,0,1-.6.147Z" fill="#ed847e"/>
      <path id="path168" d="M23.774,49.875a1.3,1.3,0,0,1-.981-.254.044.044,0,0,1,0-.062.041.041,0,0,1,.062,0,1.247,1.247,0,0,0,1.075.2.044.044,0,1,1,.021.085,1.52,1.52,0,0,1-.176.03Z" fill="#263238"/>
      <path id="path170" d="M21.533,47.152a.087.087,0,0,1-.039-.018.089.089,0,0,1,0-.126.853.853,0,0,1,.743-.291.085.085,0,0,1,.071.1.089.089,0,0,1-.1.073.674.674,0,0,0-.58.229.087.087,0,0,1-.094.032Z" fill="#263238"/>
      <path id="path172" d="M24.741,46.792a.087.087,0,0,1-.08-.018.731.731,0,0,0-.63-.17.088.088,0,0,1-.048-.17h0a.917.917,0,0,1,.791.2.089.089,0,0,1,.011.124.08.08,0,0,1-.044.03Z" fill="#263238"/>
      <path id="path174" d="M13.95,63.27a11.77,11.77,0,0,1,.653-2.241,19.937,19.937,0,0,1,.917-2c.172-.321.346-.637.532-.949l.28-.458c.1-.158.188-.3.309-.481l.037-.053a1.6,1.6,0,0,1,2.592,1.893h0c-.071.1-.17.241-.254.367l-.257.394c-.172.266-.335.536-.493.811A17.167,17.167,0,0,0,17.41,62.2a8.938,8.938,0,0,0-.564,1.634,3.158,3.158,0,0,0-.08,1.13,6.581,6.581,0,0,0,.738.875,9.254,9.254,0,0,0,1.125.949c.406.3.827.575,1.263.843.213.14.435.266.655.4l.33.19.165.087c.023.023.06,0,.069.069a.552.552,0,0,1,0,.133.99.99,0,0,1-.023.115,1.337,1.337,0,0,1-.034.138l-.369,1.178a1.02,1.02,0,0,1-.17.319c-.03.039-.057.08-.085.119a.58.58,0,0,1-.071.1.437.437,0,0,1-.1.094c-.057.032-.087,0-.126,0L19.9,70.5c-.147-.05-.293-.1-.435-.156-.289-.108-.566-.229-.846-.362a11.243,11.243,0,0,1-1.59-.935,13.006,13.006,0,0,1-1.464-1.192,10.789,10.789,0,0,1-1.3-1.46,1.146,1.146,0,0,1-.158-.3l-.018-.05a4.547,4.547,0,0,1-.252-1.464,6.822,6.822,0,0,1,.112-1.309Z" fill="#cb955b"/>
    </g>
    <g id="freepik--Character--inject-6">
      <path id="path123" d="M47.679,44.675l.568,8.021a2.5,2.5,0,0,0,2.5,2.326h0a2.5,2.5,0,0,0,2.5-2.665c-.05-.763-.1-1.389-.1-1.389a2.331,2.331,0,0,0,1.966-2.244c.014-1.123-.179-3.667-.344-5.617a2.546,2.546,0,0,0-2.539-2.331H51.053a3.6,3.6,0,0,0-3.373,3.9Z" fill="#ffbe9d"/>
      <path id="path125" d="M53.147,50.943a4.528,4.528,0,0,1-2.521-.72,2.39,2.39,0,0,0,2.537,1.221Z" fill="#eb996e"/>
      <path id="path127" d="M54.257,45.438a.275.275,0,0,1-.266.28.264.264,0,0,1-.286-.25.277.277,0,0,1,.266-.28.264.264,0,0,1,.286.25Z" fill="#263238"/>
      <path id="path129" d="M54.428,45.055c-.034.037-.243-.119-.543-.117s-.516.149-.548.112.018-.08.115-.151a.765.765,0,0,1,.44-.135.745.745,0,0,1,.431.14C54.415,44.975,54.447,45.039,54.428,45.055Z" fill="#263238"/>
      <path id="path131" d="M51.447,45.518a.277.277,0,0,1-.268.28.264.264,0,0,1-.286-.25.277.277,0,0,1,.268-.28.266.266,0,0,1,.286.25Z" fill="#263238"/>
      <path id="path133" d="M51.5,45.113c-.034.034-.245-.119-.543-.119s-.516.149-.55.115.021-.083.115-.151a.754.754,0,0,1,.44-.138.745.745,0,0,1,.433.14C51.481,45.03,51.513,45.1,51.5,45.113Z" fill="#263238"/>
      <path id="path135" d="M52.579,47.326a1.834,1.834,0,0,1,.484-.089c.078,0,.149-.023.163-.073a.39.39,0,0,0-.05-.229c-.073-.183-.147-.378-.229-.58a10.326,10.326,0,0,1-.506-1.519,10.031,10.031,0,0,1,.628,1.476c.076.2.147.4.215.582a.438.438,0,0,1,.039.3.179.179,0,0,1-.124.11.481.481,0,0,1-.131.018,2.062,2.062,0,0,1-.488,0Z" fill="#263238"/>
      <path id="path137" d="M51.7,47.533c.048,0,.048.321.325.55s.623.195.626.241-.078.062-.229.066a.811.811,0,0,1-.52-.181.688.688,0,0,1-.252-.458C51.642,47.611,51.678,47.53,51.7,47.533Z" fill="#263238"/>
      <path id="path139" d="M51.564,43.942c-.03.083-.328.044-.688.085s-.633.138-.688.066c-.023-.037.028-.112.142-.19a1.187,1.187,0,0,1,1.034-.115C51.52,43.841,51.584,43.9,51.564,43.942Z" fill="#263238"/>
      <path id="path141" d="M54.314,44.191c-.053.069-.259,0-.506,0s-.458.046-.5-.025c-.021-.034,0-.1.1-.167a.736.736,0,0,1,.814.025C54.314,44.09,54.344,44.159,54.314,44.191Z" fill="#263238"/>
      <path id="path143" d="M48.335,46.132c-.032-.014-1.334-.394-1.293.933a1,1,0,0,0,1.375.974C48.417,48,48.335,46.132,48.335,46.132Z" fill="#ffbe9d"/>
      <path id="path145" d="M47.989,47.549a.367.367,0,0,1-.06.037.241.241,0,0,1-.174,0,.578.578,0,0,1-.282-.5.786.786,0,0,1,.055-.335.268.268,0,0,1,.17-.183.119.119,0,0,1,.138.06c.018.037.011.064.018.066s.028-.025.016-.078a.151.151,0,0,0-.055-.083.172.172,0,0,0-.128-.03.328.328,0,0,0-.229.213.8.8,0,0,0-.069.374.6.6,0,0,0,.348.582.245.245,0,0,0,.211-.041C47.989,47.581,47.993,47.551,47.989,47.549Z" fill="#eb996e"/>
      <path id="path147" d="M47.6,46.089a.688.688,0,0,1,.639.328c.085.188.105.4.19.594a.474.474,0,0,0,.484.314.413.413,0,0,0,.277-.3,1.123,1.123,0,0,0,0-.429c-.078-.619-.209-1.233-.229-1.859a3.192,3.192,0,0,1,.392-1.806,1.746,1.746,0,0,1,1.554-.873c.413.034.791.25,1.2.307a1.623,1.623,0,0,0,1.348-.458c.044-.044.252-.181.252-.181a.777.777,0,0,0-.14-.41,3.932,3.932,0,0,0-5.9,1.35A5.66,5.66,0,0,0,47.6,46.1" fill="#263238"/>
      <path id="path149" d="M54.158,42.291c-.658-1.51-1.448-3.018-3.394-3.623a3.965,3.965,0,0,0-2.642-.034,10.189,10.189,0,0,0-1.015.953c-.415.355-.94.561-1.375.9a.917.917,0,0,0-.293.341.4.4,0,0,0,.055.429.6.6,0,0,0,.335.135,8.35,8.35,0,0,0,1.531.126.561.561,0,0,0,.321,1.063c-.144.649-.319.706-.108,1.336A9.145,9.145,0,0,1,51.041,42a6.9,6.9,0,0,1,3.117.293Z" fill="#cb955b"/>
      <path id="path151" d="M54.584,41.352a.944.944,0,0,0-.688-.786,6.816,6.816,0,0,0-3.609.213c-2.42.738-3.169,2.223-3.169,2.617a15.749,15.749,0,0,0,.374,2.182c2.2-4.409,7.3-2.768,7.3-2.768Z" fill="#cb955b"/>
      <path id="path153" d="M53.943,40.525c0,.023-.413-.069-1.079-.124a7.473,7.473,0,0,0-2.58.229,5.663,5.663,0,0,0-1.3.575l-.268.176c-.087.057-.163.124-.241.183a4.337,4.337,0,0,0-.406.362,5.624,5.624,0,0,0-.518.6,1.376,1.376,0,0,1-.183.229,1.375,1.375,0,0,1,.147-.252A4.254,4.254,0,0,1,48,41.87a4.125,4.125,0,0,1,.406-.378c.078-.062.154-.133.241-.195l.273-.183a5.484,5.484,0,0,1,1.329-.6,6.875,6.875,0,0,1,2.622-.195,6.14,6.14,0,0,1,.786.128A1.238,1.238,0,0,1,53.943,40.525Z" fill="#263238"/>
      <path id="path155" d="M49.52,40.408a11.334,11.334,0,0,1-1.089.539c-.6.3-1.047.6-1.068.573a3.417,3.417,0,0,1,1.015-.688A4.354,4.354,0,0,1,49.52,40.408Z" fill="#263238"/>
      <path id="path157" d="M50.418,42.919a1.107,1.107,0,0,0,1.762.16.655.655,0,0,0,1.235-.064,1.5,1.5,0,0,0,.5.36.506.506,0,0,0,.566-.117.5.5,0,0,0-.037-.584,1.187,1.187,0,0,0-.516-.348A3.724,3.724,0,0,0,52,42.035a2.59,2.59,0,0,0-1.687.917" fill="#263238"/>
      <g id="g161" opacity="0.2">
        <path id="path159" d="M47.363,41.519a8.088,8.088,0,0,1,.66-.983,2.654,2.654,0,0,1,1.089-.724.458.458,0,0,1,.188-.027.179.179,0,0,1,.147.11.112.112,0,0,1-.089.142,1.538,1.538,0,0,1,.619-.08.213.213,0,0,1,.14.05.144.144,0,0,1-.011.181.413.413,0,0,1-.163.108c-.891.4-1.687.82-2.578,1.224"/>
      </g>
      <path id="path163" d="M48.291,44.386a.612.612,0,0,1-.064-.057,1.474,1.474,0,0,1-.151-.181,2.4,2.4,0,0,1-.358-.688,2.425,2.425,0,0,1-.124-.765,1.918,1.918,0,0,1,.014-.229.275.275,0,0,1,.018-.085s0,.121,0,.319a2.782,2.782,0,0,0,.135.754,2.7,2.7,0,0,0,.339.688C48.213,44.29,48.3,44.382,48.291,44.386Z" fill="#263238"/>
      <path id="path165" d="M49.4,43.314s-.016-.115-.053-.3a2.446,2.446,0,0,0-.649-1.276c-.126-.135-.218-.206-.213-.213a.28.28,0,0,1,.069.044,1.731,1.731,0,0,1,.17.147A2.331,2.331,0,0,1,49.389,43a1.375,1.375,0,0,1,.023.229A.434.434,0,0,1,49.4,43.314Z" fill="#263238"/>
      <path id="path167" d="M50.954,42.686s-.016-.124-.05-.323A4.173,4.173,0,0,0,50.7,41.6a4.015,4.015,0,0,0-.358-.7c-.108-.17-.186-.27-.179-.275s.023.021.062.064a2.229,2.229,0,0,1,.147.193,3.438,3.438,0,0,1,.374.7,3.348,3.348,0,0,1,.2.772q.015.114.018.229C50.959,42.654,50.959,42.686,50.954,42.686Z" fill="#263238"/>
      <path id="path169" d="M52.648,42.321v-.3a5.108,5.108,0,0,0-.041-.717,4.936,4.936,0,0,0-.149-.7,2.752,2.752,0,0,1-.085-.289.344.344,0,0,1,.037.073c.023.046.048.117.08.2a3.971,3.971,0,0,1,.165.708,3.688,3.688,0,0,1,.025.724,1.459,1.459,0,0,1-.021.218A.354.354,0,0,1,52.648,42.321Z" fill="#263238"/>
      <path id="path171" d="M53.94,42.679s.028-.117.064-.307a3.334,3.334,0,0,0-.06-1.494c-.053-.188-.1-.3-.089-.3a.392.392,0,0,1,.039.076,1.971,1.971,0,0,1,.083.229,2.878,2.878,0,0,1,.06,1.51,1.9,1.9,0,0,1-.064.229.424.424,0,0,1-.032.06Z" fill="#263238"/>
      <path id="path173" d="M49.987,40.664a1.068,1.068,0,0,0-.2-.115.827.827,0,0,0-.612-.014h-.023v-.023a.58.58,0,0,0-.49-.458,1.962,1.962,0,0,0-.853.121l-1.694.458-.509.158-.14.034h-.05a.14.14,0,0,1,.048-.018l.138-.044.511-.151,1.691-.481a2,2,0,0,1,.871-.117.619.619,0,0,1,.52.488l-.025-.016a.83.83,0,0,1,.633.03A.559.559,0,0,1,49.987,40.664Z" fill="#263238"/>
      <path id="path175" d="M51.832,40.293a.771.771,0,0,1-.085-.053c-.055-.034-.135-.085-.243-.14a2.775,2.775,0,0,0-.969-.3h-.016v-.016a.841.841,0,0,0-.63-.688,2.106,2.106,0,0,0-1.146.053,5.709,5.709,0,0,0-1.267.582c-.371.215-.7.417-1,.566a5.5,5.5,0,0,1-.71.3c-.087.027-.158.044-.2.055l-.071.016a.475.475,0,0,1,.069-.025l.2-.064a6.09,6.09,0,0,0,.7-.314c.289-.151.619-.358.992-.575a5.688,5.688,0,0,1,1.274-.589,2.136,2.136,0,0,1,1.183-.05.875.875,0,0,1,.653.726l-.016-.018a2.7,2.7,0,0,1,.974.316A1.918,1.918,0,0,1,51.832,40.293Z" fill="#263238"/>
      <path id="path177" d="M53.152,52.139l-5.026-1.082h0a10.111,10.111,0,0,0-3.467.873c-1.776.814-5.129,4.8-6.011,9.827-.458,2.665-.814,6.607-.974,8.56,0,0-1.391,1.6-.131,2.026l.05.328,11.482-2.75h0l1.416-6.715h0L52.281,59h0L55.7,63.834a3.813,3.813,0,0,0,3.112,1.6h.209a3.02,3.02,0,0,0,1.833-.6h0l6.33-5.523h0L66.1,57.536h0L58.934,60.96h0l-3.772-6.586a6.465,6.465,0,0,0-1.293-1.593Z" fill="#cb955b"/>
      <path id="path179" d="M47.9,50.647a43.128,43.128,0,0,0-8.305,1.068,1.276,1.276,0,0,0-.786.394c-.264.358-.1.857.08,1.263a3.245,3.245,0,0,0,1.76,2.04,3.028,3.028,0,0,0,2.063-.374,17.509,17.509,0,0,0,5.418-3.981" fill="#cb955b"/>
      <path id="path181" d="M53.555,55.748c.032.011-.429,1.24-1.027,2.75s-1.109,2.713-1.146,2.7.429-1.24,1.027-2.75S53.526,55.735,53.555,55.748Z" fill="#263238"/>
      <path id="polygon183" d="M47.991,51.461V50.223L53.34,51.33l.105,1.535Z" fill="#cb955b"/>
      <path id="path185" d="M46.121,51.493c0,.021-.383.121-.972.378a8.479,8.479,0,0,0-1,.518,8.349,8.349,0,0,0-2.083,1.79,8.607,8.607,0,0,0-.665.917c-.341.545-.5.917-.52.917a1.224,1.224,0,0,1,.1-.264,3.016,3.016,0,0,1,.142-.3c.06-.115.121-.248.209-.385a7.832,7.832,0,0,1,.651-.937,9.006,9.006,0,0,1,.974-1,8.638,8.638,0,0,1,1.146-.811,7.3,7.3,0,0,1,1.024-.5c.147-.064.289-.108.41-.149a2.96,2.96,0,0,1,.316-.094A1.109,1.109,0,0,1,46.121,51.493Z" fill="#263238"/>
      <path id="path187" d="M48.855,51.021c-.032,0-.071-.131-.087-.3s0-.3.032-.307.073.128.087.3S48.887,51.018,48.855,51.021Z" fill="#263238"/>
      <path id="path189" d="M49.96,51.275c-.032,0-.06-.135-.06-.3s.028-.3.06-.3.06.135.06.3S49.989,51.275,49.96,51.275Z" fill="#263238"/>
      <path id="path191" d="M51.215,51.605c-.034,0-.071-.156-.085-.353s0-.358.034-.36.071.156.085.353S51.248,51.6,51.215,51.605Z" fill="#263238"/>
      <path id="path193" d="M52.444,51.859c-.032,0-.071-.158-.087-.36s0-.367.03-.369.073.158.089.36S52.48,51.857,52.444,51.859Z" fill="#263238"/>
      <g id="g197" opacity="0.3">
        <path id="path195" d="M52.29,59.007l1.6,2.25s-.5-5.088-.516-5.042S52.29,59.007,52.29,59.007Z"/>
      </g>
      <g id="g201" opacity="0.3">
        <path id="path199" d="M39.25,54.124a3.47,3.47,0,0,0,2.367-.509,16.624,16.624,0,0,1,2.173-1.18,7.709,7.709,0,0,0-2.237,2.28c-.135.252-.174.635-.429.768a1.7,1.7,0,0,1-1.05-.319,2.264,2.264,0,0,1-.825-1.04"/>
      </g>
      <path id="path203" d="M46.781,67.049a2.291,2.291,0,0,1-.307.229c-.2.142-.5.33-.88.552a18.636,18.636,0,0,1-6.417,2.292c-.433.069-.784.112-1.029.131a2.25,2.25,0,0,1-.38.021,2.148,2.148,0,0,1,.376-.066c.229-.032.591-.089,1.02-.167a21.437,21.437,0,0,0,3.289-.88,21.657,21.657,0,0,0,3.1-1.4c.383-.211.688-.39.9-.518A2.252,2.252,0,0,1,46.781,67.049Z" fill="#263238"/>
      <path id="path205" d="M48.154,69.776,60.32,65.193h0a4.767,4.767,0,0,1,4.936,3.385l1.943,6.5-5.913.66-.832-3.818s-9.9,4.7-10.148,4.544c-.092-.057-3.951-.965-3.944-2.179C46.378,72.306,48.154,69.776,48.154,69.776Z" fill="#263238"/>
      <path id="path207" d="M37.552,72.343,55.7,65.912h0A4.767,4.767,0,0,1,60.637,69.3l1.941,6.495-5.913.662L55.21,72.9l-9.916,4.125A5.6,5.6,0,0,1,37.6,72.668Z" fill="#263238"/>
      <path id="path209" d="M62.47,76.191a.433.433,0,0,1-.037-.11c-.021-.085-.048-.19-.08-.316-.073-.291-.172-.688-.291-1.164-.252-.983-.621-2.333-1.093-3.807a15.006,15.006,0,0,0-.772-2.028,6.227,6.227,0,0,0-.972-1.471,4.611,4.611,0,0,0-.9-.777c-.229-.154-.38-.229-.376-.229a.346.346,0,0,1,.108.039,2.627,2.627,0,0,1,.293.151,4.2,4.2,0,0,1,.937.759A6.094,6.094,0,0,1,60.3,68.715a14.538,14.538,0,0,1,.788,2.042c.472,1.476.83,2.835,1.059,3.823.117.5.2.9.257,1.176.023.128.044.229.06.321a.392.392,0,0,1,.011.115Z" fill="#455a64"/>
      <path id="path211" d="M56.617,77.868c-.048-.149-1.027-4.043-1.027-4.043l6.515-2.15.688,5.92Z" fill="#cb955b"/>
      <path id="path213" d="M61.189,77.016c-.05-.151-1.029-4.043-1.029-4.043l6.5-2.159.713,5.926Z" fill="#cb955b"/>
      <path id="path215" d="M62.928,77.6c-.032,0-.229-1.3-.447-2.91s-.362-2.92-.33-2.924.229,1.3.458,2.908A27.17,27.17,0,0,1,62.928,77.6Z" fill="#263238"/>
      <path id="path217" d="M57.424,71.926c.014.032-2.051.917-4.611,1.955s-4.645,1.877-4.659,1.847,2.063-.917,4.613-1.957S57.412,71.9,57.424,71.926Z" fill="#455a64"/>
      <path id="path219" d="M56.945,72.849a3.208,3.208,0,0,1-.965.144,3.254,3.254,0,0,1-.974-.039,5.158,5.158,0,0,1,.967-.08,5.457,5.457,0,0,1,.972-.025Z" fill="#455a64"/>
      <path id="path221" d="M55.794,73.917a1.522,1.522,0,0,1-.344-.481,1.453,1.453,0,0,1-.241-.539,1.522,1.522,0,0,1,.344.481A1.453,1.453,0,0,1,55.794,73.917Z" fill="#455a64"/>
      <g id="g225" opacity="0.3">
        <path id="polygon223" d="M62.152,72.313,63.765,74.5,62.47,74.6Z"/>
      </g>
      <path id="path227" d="M66.756,59.246l.814.2c.754.121,1.171.218,1.428.076.344-.19.032-.548.032-.548s.582-.044.616-.38a.335.335,0,0,0-.229-.323s.518-.06.662-.229c.2-.229-.1-.458-.1-.458.745-.229.788-.635.651-.713a1.954,1.954,0,0,0-.7.023c-.458,0-1.7.06-1.1-.458a2.01,2.01,0,0,0,.8-1.375.25.25,0,0,0-.47,0,2.862,2.862,0,0,1-.486.63,1.907,1.907,0,0,1-.511.387c-.229.112-.417.2-.584.27l-1.375,1.354Z" fill="#ffbe9d"/>
      <path id="path229" d="M129.482,40.03c-13.063-2.356-26.041-.516-38.448,4.159A74.252,74.252,0,0,0,59.269,67.335l-.536-.857a73.814,73.814,0,0,1,70.906-26.708Z" fill="#263238"/>
      <circle id="circle231" cx="1.932" cy="1.932" r="1.932" transform="translate(65.092 59.326)" fill="#263238"/>
      <circle id="circle233" cx="1.932" cy="1.932" r="1.932" transform="translate(64.592 59.326)" fill="#455a64"/>
      <rect id="rect235" width="3.506" height="0.229" transform="translate(63.453 62.624) rotate(-24.82)" fill="#e0e0e0"/>
      <path id="path237" d="M128.387,94.19V93.117c0-.7.018-1.742.032-3.082.032-2.688.078-6.586.135-11.445.126-9.719.3-23.277.5-38.629l.087.053a19.784,19.784,0,0,1-4.2,1.721,10.771,10.771,0,0,1-2.319.291,11.523,11.523,0,0,1-2.36-.17,15.061,15.061,0,0,1-3.426-1.146c-1.091-.488-2.143-1.034-3.208-1.519h.057a23.406,23.406,0,0,1-7.906,3.474,16.369,16.369,0,0,1-4.15.392,12.7,12.7,0,0,1-3.962-.784l.066-.021a14.223,14.223,0,0,1-3.752,3.88,15.62,15.62,0,0,1-4.6,2.223,14.793,14.793,0,0,1-9.091-.16l.057-.037a13.232,13.232,0,0,1-1.2,4.164A13.5,13.5,0,0,1,77,55.542a13.991,13.991,0,0,1-2.546,2.209,12.332,12.332,0,0,1-2.468,1.375,7.152,7.152,0,0,1-2.207.486,10.148,10.148,0,0,1-1.657-.057c-.445-.053-.781-.108-1.006-.151l-.341-.066s.117.016.341.055.566.089,1.011.14a10.279,10.279,0,0,0,1.652.044,7.127,7.127,0,0,0,2.189-.493,12.35,12.35,0,0,0,2.454-1.391,14.144,14.144,0,0,0,2.521-2.2,13.588,13.588,0,0,0,2.122-3.208,13.193,13.193,0,0,0,1.185-4.141V48.09l.05.016a14.708,14.708,0,0,0,9.036.147A15.517,15.517,0,0,0,93.9,46.045a14.117,14.117,0,0,0,3.722-3.855l.023-.039.041.016a12.542,12.542,0,0,0,3.928.772,16.241,16.241,0,0,0,4.125-.39,23.348,23.348,0,0,0,7.865-3.461l.027-.018.03.014c1.07.488,2.122,1.031,3.208,1.519a15.045,15.045,0,0,0,3.4,1.146,11.436,11.436,0,0,0,2.338.167,10.654,10.654,0,0,0,2.292-.286,19.878,19.878,0,0,0,4.176-1.712l.087-.044v.1c-.215,15.355-.4,28.91-.541,38.629-.071,4.858-.131,8.757-.172,11.445-.021,1.341-.039,2.379-.05,3.082,0,.351-.014.619-.016.8S128.387,94.19,128.387,94.19Z" fill="#e0e0e0"/>
      <path id="path239" d="M70.622,56.913c-.688-.016-1.336-.057-2.019-.037a.917.917,0,0,0-.325.053.325.325,0,0,0-.206.243.33.33,0,0,0,.215.316,1.084,1.084,0,0,0,.4.046c.525,0,1.322.08,1.322.08" fill="#ffbe9d"/>
      <path id="path241" d="M70.127,57.573c-.688-.016-1.334-.06-2.017-.037a.917.917,0,0,0-.328.05.291.291,0,0,0,0,.559,1.091,1.091,0,0,0,.406.046c.523.014,1.32.08,1.32.08" fill="#ffbe9d"/>
      <path id="path243" d="M69.462,58.21c-.578-.014-1.123-.048-1.7-.03a.745.745,0,0,0-.275.044.243.243,0,0,0,0,.47.933.933,0,0,0,.339.039c.44,0,1.111.066,1.111.066" fill="#ffbe9d"/>
      <path id="path245" d="M70.079,57.614a3.3,3.3,0,0,1-.873,0,3.265,3.265,0,0,1-.869-.115,3.318,3.318,0,0,1,.875,0,3.131,3.131,0,0,1,.866.115Z" fill="#eb996e"/>
      <path id="path247" d="M69.531,58.363a2.216,2.216,0,0,1-.825-.023,4.451,4.451,0,0,1-.811-.14,2.2,2.2,0,0,1,.827.021A4.075,4.075,0,0,1,69.531,58.363Z" fill="#eb996e"/>
      <path id="path249" d="M69.185,59a2.186,2.186,0,0,1-.825-.021,4.077,4.077,0,0,1-.811-.142,2.216,2.216,0,0,1,.825.023A4.451,4.451,0,0,1,69.185,59Z" fill="#eb996e"/>
      <path id="path251" d="M61.129,62.026l2.15-1.123a1.49,1.49,0,0,1,1.941.573l.076.124L64.9,64.168l-3.025.715Z" fill="#ffbe9d"/>
      <path id="path253" d="M44.918,58.21c.738,2.2,1.771,5.271,2.461,7.32a4.455,4.455,0,0,0,2.94,2.846h0a4.471,4.471,0,0,0,2.491.021l9.123-3.339-.8-3.073L51.951,63.4l-1.565-6.735a2.844,2.844,0,0,0-3.708-2.042h0a2.844,2.844,0,0,0-1.76,3.591Z" fill="#cb955b"/>
      <path id="path255" d="M53.564,68.1a.818.818,0,0,1-.144.089,1.758,1.758,0,0,1-.186.092,2.141,2.141,0,0,1-.261.1,3.8,3.8,0,0,1-1.776.163,4.712,4.712,0,0,1-2.4-1.086,7.485,7.485,0,0,1-1.927-2.6,17.858,17.858,0,0,1-1.031-3.085c-.248-.965-.447-1.833-.623-2.574s-.307-1.315-.406-1.739c-.044-.195-.078-.353-.105-.472a.777.777,0,0,1-.028-.167,1.043,1.043,0,0,1,.05.16l.126.47.445,1.728c.186.731.394,1.6.646,2.567A18.481,18.481,0,0,0,46.971,64.8a7.453,7.453,0,0,0,1.893,2.576,4.691,4.691,0,0,0,2.344,1.089,3.9,3.9,0,0,0,1.751-.124C53.358,68.211,53.558,68.085,53.564,68.1Z" fill="#263238"/>
      <path id="path257" d="M47.12,53.613a.3.3,0,0,1,.076-.021l.229-.048c.05,0,.108-.025.17-.032H47.8a1.414,1.414,0,0,1,.241,0l.273.044a2.063,2.063,0,0,1,1.146.77,3.882,3.882,0,0,1,.688,1.684h0c.429,1.705.96,3.827,1.535,6.126.105.426.211.846.309,1.244l-.066-.044L58.558,62.3l1.973-.3.534-.076.186-.018a1.025,1.025,0,0,1-.183.041l-.529.1-1.969.33-6.625,1.075h-.053l-.014-.053c-.1-.4-.2-.818-.312-1.247-.566-2.292-1.091-4.423-1.513-6.13h0a3.871,3.871,0,0,0-.662-1.65,2.017,2.017,0,0,0-1.1-.765l-.264-.048a1.391,1.391,0,0,0-.229,0h-.2a1.135,1.135,0,0,0-.167.023l-.229.034a.333.333,0,0,1-.08,0Z" fill="#263238"/>
      <g id="g261" opacity="0.3">
        <path id="path259" d="M44.826,57.454c-.071,0,.209,2.867.1,4.331a9.732,9.732,0,0,0,.39,4.354c.545,1.375,1.483,2.448,2.952,2.413l1.343-.458s-.738-.6-.992-.836A10.165,10.165,0,0,1,46.226,62.8a35.409,35.409,0,0,1-1.4-5.351"/>
      </g>
      <path id="path265" d="M11.954,73.5S19.826,86.439,27.805,88.7l51.983-.541s12.6-9.738,15.036-21.492H93.044L92.4,68.786s-7.647,4.386-32.561,6a405.48,405.48,0,0,1-44.113.539L14.11,73.172Z" fill="#cb955b"/>
      <g id="g269" opacity="0.4">
        <path id="path267" d="M11.954,73.5S19.826,86.439,27.805,88.7l51.983-.541s12.6-9.738,15.036-21.492H93.044L92.4,68.786s-7.647,4.386-32.561,6a405.48,405.48,0,0,1-44.113.539L14.11,73.172Z"/>
      </g>
      <path id="path271" d="M30.709,88.266a3.007,3.007,0,0,1-.791-.034,5.713,5.713,0,0,1-2.01-.772,23.035,23.035,0,0,1-2.583-1.884c-.935-.756-1.937-1.623-2.947-2.576a50.916,50.916,0,0,1-4.813-5.225c-.566-.713-1.008-1.3-1.3-1.714l-.337-.479a1.3,1.3,0,0,1-.112-.172,1.261,1.261,0,0,1,.131.158l.355.458c.309.4.759.985,1.331,1.689a55.444,55.444,0,0,0,4.829,5.2c1.006.951,2,1.817,2.933,2.576a24.187,24.187,0,0,0,2.567,1.9,5.958,5.958,0,0,0,1.973.8,4.007,4.007,0,0,0,.58.066Z" fill="#263238"/>
      <path id="path273" d="M93.127,66.918a.305.305,0,0,1-.018.066l-.066.188c-.064.172-.151.413-.266.72-.057.156-.121.33-.193.518s-.16.392-.252.61c-.183.438-.38.94-.635,1.478l-.387.85c-.138.293-.293.594-.447.917-.3.63-.667,1.286-1.04,1.978-.772,1.375-1.678,2.853-2.713,4.354a50.076,50.076,0,0,1-3.144,4.047c-.523.589-1.013,1.157-1.5,1.659-.243.252-.47.5-.7.733l-.665.658c-.417.424-.82.781-1.166,1.1l-.486.445-.422.362-.584.5-.154.126-.055.041.048-.05.147-.135L79,87.544l.413-.369.479-.458c.341-.328.74-.688,1.146-1.116l.658-.662c.229-.229.458-.484.688-.738.484-.5.969-1.07,1.487-1.661,1.018-1.2,2.088-2.558,3.13-4.043s1.939-2.965,2.716-4.331c.376-.688.74-1.343,1.047-1.971.156-.312.314-.612.458-.905l.4-.846c.259-.534.458-1.034.649-1.467l.261-.605c.073-.188.142-.36.2-.516.121-.3.215-.541.284-.71l.078-.183a.352.352,0,0,1,.037-.044Z" fill="#263238"/>
      <path id="path275" d="M82,84.707l-.147.016-.431.034c-.378.03-.937.064-1.657.108-1.439.083-3.525.17-6.1.211s-5.649.03-9.055.032H53.523l-20.144-.03-6.105-.023-1.659-.011h0l1.659-.011,6.105-.016H53.523l11.087.011c3.408,0,6.476.025,9.052,0s4.661-.105,6.1-.172l1.657-.087.433-.023A.378.378,0,0,1,82,84.707Z" fill="#263238"/>
      <path id="path277" d="M87.225,78.3l-.172.032-.5.08-1.939.3c-.419.073-.891.119-1.407.179l-1.675.188c-.3.03-.612.073-.933.1l-1,.08-2.166.172c-6.078.422-14.5.564-23.788.52l-13.1-.062c-4.027-.021-7.652,0-10.7.018-1.522,0-2.9.041-4.109.057s-2.25.046-3.1.071l-1.959.053h-.511l.509-.023L22.638,80c.853-.034,1.893-.071,3.1-.092s2.585-.066,4.109-.076c3.043-.039,6.671-.057,10.7-.044l13.1.053c9.291.044,17.706-.085,23.784-.486l2.166-.163.995-.076c.323-.025.633-.064.933-.094l1.678-.179c.513-.055.985-.1,1.4-.167l1.941-.282.5-.071Z" fill="#263238"/>
      <path id="path279" d="M50.287,85.057a4.126,4.126,0,0,1-.062-.749c-.016-.458-.014-1.1,0-1.81s.027-1.311.039-1.808a6.125,6.125,0,0,1,.021-.749,3.747,3.747,0,0,1,.064.749c.016.458.014,1.1,0,1.81s-.025,1.311-.037,1.808A5.759,5.759,0,0,1,50.287,85.057Z" fill="#263238"/>
      <path id="path281" d="M65.724,88.176a16.7,16.7,0,0,1,.174-2.814A16.66,16.66,0,0,1,65.724,88.176Z" fill="#263238"/>
      <path id="path283" d="M69.959,73.711c.032,0,.037,1.329,0,2.965s-.078,2.963-.112,2.961-.037-1.327,0-2.963S69.927,73.711,69.959,73.711Z" fill="#263238"/>
      <path id="path285" d="M37.055,75.416a22.5,22.5,0,0,1-.064,2.267,21.9,21.9,0,0,1-.183,2.257,20.937,20.937,0,0,1,.064-2.264A20.61,20.61,0,0,1,37.055,75.416Z" fill="#263238"/>
      <path id="path287" d="M15.107,89.244c1.588-1.934,4.473-2.182,6.939-1.755s4.879,1.375,7.377,1.251c4.036-.193,7.778-3.135,11.759-2.448,2.489.431,4.709,2.257,7.228,2.063,2.954-.229,5.111-3.131,8.039-3.591,3.958-.621,7.372,3.394,11.378,3.3,3.4-.08,6.369-3.128,9.738-2.647,2.482.355,4.379,2.558,6.85,2.991,2.044.358,4.063-.555,6.046-1.162s7.485-1.189,9.19,2.844" fill="#fff"/>
      <path id="path289" d="M15.125,89.263c2.521-2.842,6.573-1.872,9.772-1.107a15.369,15.369,0,0,0,4.891.587,17.633,17.633,0,0,0,4.306-1.093,21.93,21.93,0,0,1,4.934-1.375,10.388,10.388,0,0,1,5.234,1.1c2.464,1.034,4.542,1.407,6.953.062a42.026,42.026,0,0,1,3.74-2.177,6.308,6.308,0,0,1,4.664-.094c2.507.848,4.73,2.626,7.423,2.9,2.936.3,5.356-1.68,8.065-2.411a6.524,6.524,0,0,1,5.124.827A16.935,16.935,0,0,0,83.9,88.335c2.979.8,5.729-1.166,8.638-1.43,2.784-.252,5.823.458,7.077,3.208.016.034.066,0,.05-.03-1.98-4.354-7.361-3.438-11.016-2.271a7.722,7.722,0,0,1-6.146-.1,32.5,32.5,0,0,0-3.953-2.079c-2.892-.965-5.486.871-8.1,1.833a7.489,7.489,0,0,1-5.09.17,40.9,40.9,0,0,1-4.26-1.932c-2.406-1.1-4.65-1.393-7.036-.087a42.99,42.99,0,0,1-3.875,2.248,6.6,6.6,0,0,1-5.241-.268,15.746,15.746,0,0,0-4.32-1.407,11.535,11.535,0,0,0-4.62.726,38.6,38.6,0,0,1-5.331,1.643c-2.395.417-4.684-.218-7-.759-2.894-.688-6.417-1.047-8.605,1.419-.023.027.016.069.041.039Z" fill="#263238"/>
      <path id="path291" d="M129.111,94.916a.351.351,0,0,1-.094.037c-.062.018-.151.048-.27.078a7.869,7.869,0,0,1-1.027.19,8.906,8.906,0,0,1-3.417-.252,4.611,4.611,0,0,1-.917-.337,1.375,1.375,0,0,1-.658-.658,1.146,1.146,0,0,1,0-.841,1.629,1.629,0,0,1,.408-.607,3.084,3.084,0,0,1,.891-.55c.112-.048.2-.082.261-.105s.094-.032.1-.027a2.861,2.861,0,0,1-.339.176,3.293,3.293,0,0,0-.85.566,1.528,1.528,0,0,0-.374.582,1.05,1.05,0,0,0,0,.765,1.269,1.269,0,0,0,.612.6,4.544,4.544,0,0,0,.905.325,9.307,9.307,0,0,0,3.376.282,9.952,9.952,0,0,0,1.024-.151,2.782,2.782,0,0,1,.371-.069Z" fill="#263238"/>
      <path id="path293" d="M128.291,96.672a1.245,1.245,0,0,1-.2.041c-.133.021-.328.057-.582.087a19.189,19.189,0,0,1-2.157.167,21.215,21.215,0,0,1-3.208-.167c-.6-.08-1.224-.188-1.868-.33a9.854,9.854,0,0,1-1.953-.591,3.021,3.021,0,0,1-1.535-1.329,1.751,1.751,0,0,1-.144-.974,2.159,2.159,0,0,1,.353-.875,5.007,5.007,0,0,1,1.228-1.205,11.067,11.067,0,0,1,1.26-.809,10.633,10.633,0,0,1,1.989-.85c.243-.078.435-.128.566-.158a1.061,1.061,0,0,1,.2-.041,1.433,1.433,0,0,1-.195.064c-.128.039-.319.1-.559.179a11.418,11.418,0,0,0-1.962.88,11.114,11.114,0,0,0-1.242.814,4.98,4.98,0,0,0-1.2,1.187,2.1,2.1,0,0,0-.332.832,1.655,1.655,0,0,0,.138.917,2.92,2.92,0,0,0,1.48,1.27,9.9,9.9,0,0,0,1.927.587c.639.142,1.263.25,1.859.332a21.92,21.92,0,0,0,3.188.192,19.153,19.153,0,0,0,2.152-.128c.254-.023.458-.05.582-.066a1.375,1.375,0,0,1,.211-.023Z" fill="#263238"/>
      <path id="path295" d="M131.79,93.67a1.644,1.644,0,0,1,.28-.138,6.8,6.8,0,0,0,.749-.385,2.262,2.262,0,0,0,.85-.869,1.494,1.494,0,0,0,.181-.688,1.187,1.187,0,0,0-.229-.708,2.1,2.1,0,0,0-1.274-.72,6.748,6.748,0,0,0-1.244-.071,7.085,7.085,0,0,1-.85-.032,1.145,1.145,0,0,1-.307-.057,2.237,2.237,0,0,1,.309.011h.846a6.312,6.312,0,0,1,1.267.048,2.588,2.588,0,0,1,.717.229,1.794,1.794,0,0,1,.633.518,1.313,1.313,0,0,1,.259.779,1.6,1.6,0,0,1-.2.738,2.292,2.292,0,0,1-.917.887,5.171,5.171,0,0,1-.777.358,1.374,1.374,0,0,1-.293.1Z" fill="#263238"/>
      <path id="path297" d="M134.224,95.3a.847.847,0,0,1,.151-.069l.442-.179a10.541,10.541,0,0,0,1.57-.759,4.836,4.836,0,0,0,.933-.743,3.522,3.522,0,0,0,.736-1.146,2.42,2.42,0,0,0,.119-1.469,2.6,2.6,0,0,0-.85-1.336,4.957,4.957,0,0,0-1.393-.827,8.747,8.747,0,0,0-1.46-.431,11.157,11.157,0,0,0-2.569-.245,11.313,11.313,0,0,0-1.735.163c-.2.034-.362.064-.458.087l-.165.025a.8.8,0,0,1,.158-.05c.105-.03.261-.066.458-.108a10.312,10.312,0,0,1,1.742-.2,10.891,10.891,0,0,1,2.594.229,6.394,6.394,0,0,1,2.908,1.274,2.725,2.725,0,0,1,.887,1.4,2.567,2.567,0,0,1-.131,1.538,3.641,3.641,0,0,1-.765,1.171,4.8,4.8,0,0,1-.963.747,9.429,9.429,0,0,1-1.6.729c-.195.071-.346.124-.458.158a.731.731,0,0,1-.147.041Z" fill="#263238"/>
    </g>
    <g id="freepik--Sun--inject-6">
      <circle id="circle300" cx="5.301" cy="5.301" r="5.301" transform="translate(63.207 19.815) rotate(-45)" fill="#cb955b"/>
      <g id="g304" opacity="0.4">
        <circle id="circle302" cx="5.301" cy="5.301" r="5.301" transform="translate(63.207 19.815) rotate(-45)" fill="#fff"/>
      </g>
    </g>
    <g id="freepik--Birds--inject-6">
      <path id="path360" d="M107.024,15.284a1.1,1.1,0,0,1-.174.05c-.115.034-.286.069-.5.133a13.979,13.979,0,0,0-6.861,4.354l-.048.057-.046-.06-.3-.39a10.927,10.927,0,0,0-2.716-2.436,11.271,11.271,0,0,0-4.687-1.668c-.229-.032-.424-.039-.548-.053a1.647,1.647,0,0,1-.193-.023,1.123,1.123,0,0,1,.193,0,3.908,3.908,0,0,1,.552.032,10.375,10.375,0,0,1,1.994.383,11.028,11.028,0,0,1,2.75,1.24,10.79,10.79,0,0,1,2.75,2.454l.3.394H99.4a13.542,13.542,0,0,1,5.1-3.729,12.591,12.591,0,0,1,1.833-.6c.229-.06.392-.087.509-.112A1.077,1.077,0,0,1,107.024,15.284Z" fill="#263238"/>
      <path id="path362" d="M114.128,23.433s-.128-.066-.367-.167a2.979,2.979,0,0,0-1.063-.229,2.734,2.734,0,0,0-1.531.417,2.855,2.855,0,0,0-1.194,1.517l-.044.133-.066-.124-.037-.069a3.027,3.027,0,0,0-1.444-1.329,2.947,2.947,0,0,0-1.6-.211,3.186,3.186,0,0,0-1.047.348c-.229.126-.346.218-.353.209a.381.381,0,0,1,.078-.073,2.376,2.376,0,0,1,.252-.176,3,3,0,0,1,1.056-.39,2.963,2.963,0,0,1,1.659.193,3.082,3.082,0,0,1,1.506,1.375l.037.069h-.11a2.936,2.936,0,0,1,1.251-1.574,2.784,2.784,0,0,1,1.593-.408,2.84,2.84,0,0,1,1.077.264,1.846,1.846,0,0,1,.264.147.383.383,0,0,1,.087.08Z" fill="#263238"/>
    </g>
  </g>
</svg>
