<svg xmlns="http://www.w3.org/2000/svg" width="161.415" height="120" viewBox="0 0 161.415 120">
  <g id="Manufacturing_Process-bro" data-name="Manufacturing Process-bro" transform="translate(-21.111 -34.827)">
    <g id="freepik--background-simple--inject-2">
      <path id="Path_2649" data-name="Path 2649" d="M168.905,82.385c-2.831-10.846-7.554-20.96-12.468-27.9-11.84-16.674-39.36-24.013-58.392-17.028-16.209,5.964-21.867,23.946-36.04,32.565-13.025,7.951-24.844,14.392-29.4,29.508-9.621,31.929,28.431,57.382,56.853,49.3,8.977-2.556,16.563-7.932,26.137-7.951,19.421-.068,26.26,2.6,41.972-7.892C173.056,122.62,173.859,101.381,168.905,82.385Z" fill="#cb955b"/>
      <path id="Path_2650" data-name="Path 2650" d="M168.905,82.385c-2.831-10.846-7.554-20.96-12.468-27.9-11.84-16.674-39.36-24.013-58.392-17.028-16.209,5.964-21.867,23.946-36.04,32.565-13.025,7.951-24.844,14.392-29.4,29.508-9.621,31.929,28.431,57.382,56.853,49.3,8.977-2.556,16.563-7.932,26.137-7.951,19.421-.068,26.26,2.6,41.972-7.892C173.056,122.62,173.859,101.381,168.905,82.385Z" fill="#fff" opacity="0.8"/>
    </g>
    <g id="freepik--Machine--inject-2">
      <path id="Path_2651" data-name="Path 2651" d="M85.963,121.26l.509-.235-.107-.612-.565-.044a2.353,2.353,0,0,0-.282-.533l.29-.493-.441-.441-.493.294a2.517,2.517,0,0,0-.946-.4l-.143-.565h-.62l-.143.569a2.564,2.564,0,0,0-.561.179l-.445-.4-.513.358.211.549a2.894,2.894,0,0,0-.358.465l-.584-.06-.215.584.485.33a2.851,2.851,0,0,0-.032.4c0,.06,0,.119,0,.175l-.509.286.159.6h.58a2.211,2.211,0,0,0,.318.5l-.25.521.477.4.461-.33a2.541,2.541,0,0,0,.557.235l.1.561.62.052.187-.529a2.309,2.309,0,0,0,.6-.127l.4.4.541-.31-.147-.537a2.628,2.628,0,0,0,.4-.453l.549.1.262-.565-.429-.354A2.544,2.544,0,0,0,85.963,121.26Zm-.922,0a1.558,1.558,0,1,1-1.555-1.555A1.558,1.558,0,0,1,85.041,121.26Z" fill="#263238"/>
      <path id="Path_2652" data-name="Path 2652" d="M130.468,121.26l.513-.235-.107-.612-.565-.044a2.354,2.354,0,0,0-.282-.533l.29-.493-.441-.441-.493.294a2.516,2.516,0,0,0-.946-.4l-.143-.565h-.62l-.143.569a2.564,2.564,0,0,0-.561.179l-.445-.4-.513.358.211.549a2.894,2.894,0,0,0-.358.465l-.584-.06-.215.584.485.33a2.848,2.848,0,0,0-.032.4v.175l-.509.286.159.6h.58a2.21,2.21,0,0,0,.318.5l-.25.521.477.4.461-.33a2.541,2.541,0,0,0,.557.235l.1.561.62.052.187-.529a2.31,2.31,0,0,0,.6-.127l.4.4.541-.31-.147-.537a2.627,2.627,0,0,0,.4-.453l.549.1.262-.565-.429-.354A2.354,2.354,0,0,0,130.468,121.26Zm-.918,0a1.558,1.558,0,1,1-1.555-1.555,1.559,1.559,0,0,1,1.555,1.555Z" fill="#263238"/>
      <rect id="Rectangle_266" data-name="Rectangle 266" width="3.976" height="20.173" transform="translate(105.953 118.481)" fill="#263238"/>
      <path id="Path_2653" data-name="Path 2653" d="M109.929,138.853h-3.976a.2.2,0,0,1-.2-.2V118.477a.2.2,0,0,1,.2-.2h3.976a.2.2,0,0,1,.2.2V138.65a.2.2,0,0,1-.2.2Zm-3.777-.4h3.578V118.68h-3.578Z" fill="#263238"/>
      <rect id="Rectangle_267" data-name="Rectangle 267" width="9.534" height="27.894" transform="translate(103.174 125.359)" fill="#fff"/>
      <path id="Path_2654" data-name="Path 2654" d="M112.708,153.464h-9.542a.2.2,0,0,1-.2-.2V125.359a.2.2,0,0,1,.2-.2h9.542a.2.2,0,0,1,.2.2v27.894a.2.2,0,0,1-.2.211Zm-9.339-.4h9.144V125.558h-9.144Z" fill="#263238"/>
      <rect id="Rectangle_268" data-name="Rectangle 268" width="1.419" height="27.894" transform="translate(107.23 125.359)" fill="#fff"/>
      <path id="Path_2655" data-name="Path 2655" d="M108.653,153.464H107.23a.2.2,0,0,1-.2-.2V125.359a.2.2,0,0,1,.2-.2h1.423a.2.2,0,0,1,.2.2v27.894a.2.2,0,0,1-.2.211Zm-1.225-.4h1.026V125.558h-1.026Z" fill="#263238"/>
      <rect id="Rectangle_269" data-name="Rectangle 269" width="99.723" height="3.447" transform="translate(67.985 117.67)" fill="#cb955b"/>
      <path id="Path_2656" data-name="Path 2656" d="M167.709,121.316H67.985a.2.2,0,0,1-.2-.2v-3.435a.2.2,0,0,1,.2-.2h99.723a.2.2,0,0,1,.2.2v3.447a.2.2,0,0,1-.2.187Zm-99.525-.4H167.51v-3.049H68.184Z" fill="#263238"/>
      <path id="Path_2657" data-name="Path 2657" d="M80.358,121.3a.2.2,0,0,1-.2-.2v-3.228a.2.2,0,1,1,.4,0V121.1A.2.2,0,0,1,80.358,121.3Z" fill="#263238"/>
      <path id="Path_2658" data-name="Path 2658" d="M83.673,121.3a.2.2,0,0,1-.2-.2v-3.228a.2.2,0,0,1,.2-.2.2.2,0,0,1,.2.2V121.1A.2.2,0,0,1,83.673,121.3Z" fill="#263238"/>
      <path id="Path_2659" data-name="Path 2659" d="M86.993,121.3a.2.2,0,0,1-.2-.2v-3.228a.2.2,0,0,1,.2-.2.2.2,0,0,1,.2.2V121.1A.2.2,0,0,1,86.993,121.3Z" fill="#263238"/>
      <path id="Path_2660" data-name="Path 2660" d="M90.309,121.3a.2.2,0,0,1-.2-.2v-3.228a.2.2,0,0,1,.2-.2.2.2,0,0,1,.2.2V121.1A.2.2,0,0,1,90.309,121.3Z" fill="#263238"/>
      <path id="Path_2661" data-name="Path 2661" d="M93.625,121.3a.2.2,0,0,1-.2-.2v-3.228a.2.2,0,1,1,.4,0V121.1A.2.2,0,0,1,93.625,121.3Z" fill="#263238"/>
      <path id="Path_2662" data-name="Path 2662" d="M96.94,121.3a.2.2,0,0,1-.2-.2v-3.228a.2.2,0,1,1,.4,0V121.1A.2.2,0,0,1,96.94,121.3Z" fill="#263238"/>
      <path id="Path_2663" data-name="Path 2663" d="M100.256,121.3a.2.2,0,0,1-.2-.2v-3.228a.2.2,0,0,1,.2-.2.2.2,0,0,1,.2.2V121.1A.2.2,0,0,1,100.256,121.3Z" fill="#263238"/>
      <path id="Path_2664" data-name="Path 2664" d="M103.572,121.3a.2.2,0,0,1-.2-.2v-3.228a.2.2,0,0,1,.2-.2.2.2,0,0,1,.2.2V121.1A.2.2,0,0,1,103.572,121.3Z" fill="#263238"/>
      <path id="Path_2665" data-name="Path 2665" d="M106.892,121.3a.2.2,0,0,1-.2-.2v-3.228a.2.2,0,0,1,.2-.2.2.2,0,0,1,.2.2V121.1A.2.2,0,0,1,106.892,121.3Z" fill="#263238"/>
      <path id="Path_2666" data-name="Path 2666" d="M110.208,121.3a.2.2,0,0,1-.2-.2v-3.228a.2.2,0,1,1,.4,0V121.1A.2.2,0,0,1,110.208,121.3Z" fill="#263238"/>
      <path id="Path_2667" data-name="Path 2667" d="M113.523,121.3a.2.2,0,0,1-.2-.2v-3.228a.2.2,0,1,1,.4,0V121.1A.2.2,0,0,1,113.523,121.3Z" fill="#263238"/>
      <path id="Path_2668" data-name="Path 2668" d="M116.839,121.3a.2.2,0,0,1-.2-.2v-3.228a.2.2,0,0,1,.2-.2.2.2,0,0,1,.2.2V121.1A.2.2,0,0,1,116.839,121.3Z" fill="#263238"/>
      <path id="Path_2669" data-name="Path 2669" d="M120.155,121.3a.2.2,0,0,1-.2-.2v-3.228a.2.2,0,0,1,.2-.2.2.2,0,0,1,.2.2V121.1A.2.2,0,0,1,120.155,121.3Z" fill="#263238"/>
      <path id="Path_2670" data-name="Path 2670" d="M123.475,121.3a.2.2,0,0,1-.2-.2v-3.228a.2.2,0,0,1,.2-.2.2.2,0,0,1,.2.2V121.1A.2.2,0,0,1,123.475,121.3Z" fill="#263238"/>
      <path id="Path_2671" data-name="Path 2671" d="M126.79,121.3a.2.2,0,0,1-.2-.2v-3.228a.2.2,0,1,1,.4,0V121.1A.2.2,0,0,1,126.79,121.3Z" fill="#263238"/>
      <path id="Path_2672" data-name="Path 2672" d="M130.106,121.3a.2.2,0,0,1-.2-.2v-3.228a.2.2,0,1,1,.4,0V121.1A.2.2,0,0,1,130.106,121.3Z" fill="#263238"/>
      <path id="Path_2673" data-name="Path 2673" d="M133.422,121.3a.2.2,0,0,1-.2-.2v-3.228a.2.2,0,0,1,.2-.2.2.2,0,0,1,.2.2V121.1A.2.2,0,0,1,133.422,121.3Z" fill="#263238"/>
      <path id="Path_2674" data-name="Path 2674" d="M136.738,121.3a.2.2,0,0,1-.2-.2v-3.228a.2.2,0,0,1,.2-.2.2.2,0,0,1,.2.2V121.1A.2.2,0,0,1,136.738,121.3Z" fill="#263238"/>
      <path id="Path_2675" data-name="Path 2675" d="M140.057,121.3a.2.2,0,0,1-.2-.2v-3.228a.2.2,0,0,1,.2-.2.2.2,0,0,1,.2.2V121.1A.2.2,0,0,1,140.057,121.3Z" fill="#263238"/>
      <path id="Path_2676" data-name="Path 2676" d="M143.373,121.3a.2.2,0,0,1-.2-.2v-3.228a.2.2,0,1,1,.4,0V121.1A.2.2,0,0,1,143.373,121.3Z" fill="#263238"/>
      <path id="Path_2677" data-name="Path 2677" d="M74.47,91.8H40.763L25.385,111.762v41.491H74.47V91.8Z" fill="#fff"/>
      <path id="Path_2678" data-name="Path 2678" d="M74.47,153.464H25.385a.2.2,0,0,1-.2-.2v-41.5a.2.2,0,0,1,.04-.119L40.608,91.681a.187.187,0,0,1,.155-.08H74.47a.2.2,0,0,1,.2.2v61.453a.2.2,0,0,1-.2.211Zm-48.9-.4h48.7V92h-33.4L25.584,111.83Z" fill="#263238"/>
      <rect id="Rectangle_270" data-name="Rectangle 270" width="2.914" height="33.396" transform="translate(73.285 91.164)" fill="#263238"/>
      <path id="Path_2679" data-name="Path 2679" d="M76.2,124.759H73.285a.2.2,0,0,1-.2-.2v-33.4a.2.2,0,0,1,.2-.2H76.2a.2.2,0,0,1,.2.2v33.4A.2.2,0,0,1,76.2,124.759Zm-2.719-.4H76v-33H73.484Z" fill="#263238"/>
      <circle id="Ellipse_117" data-name="Ellipse 117" cx="1.69" cy="1.69" r="1.69" transform="translate(30.812 123.304)" fill="#263238"/>
      <path id="Path_2680" data-name="Path 2680" d="M32.5,126.882a1.888,1.888,0,1,1,1.888-1.888,1.888,1.888,0,0,1-1.888,1.888Zm0-3.379a1.491,1.491,0,1,0,1.491,1.491A1.491,1.491,0,0,0,32.5,123.5Z" fill="#263238"/>
      <circle id="Ellipse_118" data-name="Ellipse 118" cx="1.69" cy="1.69" r="1.69" transform="translate(30.812 131.851)" fill="#263238"/>
      <path id="Path_2681" data-name="Path 2681" d="M32.5,135.43a1.888,1.888,0,1,1,1.888-1.888A1.888,1.888,0,0,1,32.5,135.43Zm0-3.379a1.491,1.491,0,1,0,1.491,1.491A1.491,1.491,0,0,0,32.5,132.05Z" fill="#263238"/>
      <path id="Path_2682" data-name="Path 2682" d="M37.77,153.32a.2.2,0,0,1-.2-.2V117.936a.2.2,0,0,1,.2-.2H47.51V91.9a.2.2,0,1,1,.4,0v26.041a.2.2,0,0,1-.2.2H37.968v34.987A.2.2,0,0,1,37.77,153.32Z" fill="#263238"/>
      <path id="Path_2683" data-name="Path 2683" d="M37.65,147.158H25.421a.2.2,0,0,1,0-.4H37.65a.2.2,0,0,1,0,.4Z" fill="#263238"/>
      <rect id="Rectangle_271" data-name="Rectangle 271" width="1.988" height="1.988" transform="translate(39.491 135.43)" fill="#fff"/>
      <path id="Path_2684" data-name="Path 2684" d="M41.479,137.616H39.491a.2.2,0,0,1-.2-.2V135.43a.2.2,0,0,1,.2-.2h1.988a.2.2,0,0,1,.2.2v1.988A.2.2,0,0,1,41.479,137.616Zm-1.789-.4h1.59v-1.59H39.69Z" fill="#263238"/>
      <rect id="Rectangle_272" data-name="Rectangle 272" width="1.988" height="1.988" transform="translate(42.54 135.43)" fill="#fff"/>
      <path id="Path_2685" data-name="Path 2685" d="M44.528,137.616H42.54a.2.2,0,0,1-.2-.2V135.43a.2.2,0,0,1,.2-.2h1.988a.2.2,0,0,1,.2.2v1.988A.2.2,0,0,1,44.528,137.616Zm-1.789-.4h1.59v-1.59h-1.59Z" fill="#263238"/>
      <rect id="Rectangle_273" data-name="Rectangle 273" width="1.988" height="1.988" transform="translate(45.59 135.43)" fill="#fff"/>
      <path id="Path_2686" data-name="Path 2686" d="M47.578,137.616H45.59a.2.2,0,0,1-.2-.2V135.43a.2.2,0,0,1,.2-.2h1.988a.2.2,0,0,1,.2.2v1.988a.2.2,0,0,1-.2.2Zm-1.789-.4h1.59v-1.59h-1.59Z" fill="#263238"/>
      <rect id="Rectangle_274" data-name="Rectangle 274" width="1.988" height="1.988" transform="translate(39.491 139.139)" fill="#fff"/>
      <path id="Path_2687" data-name="Path 2687" d="M41.479,141.326H39.491a.2.2,0,0,1-.2-.2v-1.988a.2.2,0,0,1,.2-.2h1.988a.2.2,0,0,1,.2.2v1.988A.2.2,0,0,1,41.479,141.326Zm-1.789-.4h1.59v-1.59H39.69Z" fill="#263238"/>
      <rect id="Rectangle_275" data-name="Rectangle 275" width="1.988" height="1.988" transform="translate(42.54 139.139)" fill="#fff"/>
      <path id="Path_2688" data-name="Path 2688" d="M44.528,141.326H42.54a.2.2,0,0,1-.2-.2v-1.988a.2.2,0,0,1,.2-.2h1.988a.2.2,0,0,1,.2.2v1.988A.2.2,0,0,1,44.528,141.326Zm-1.789-.4h1.59v-1.59h-1.59Z" fill="#263238"/>
      <rect id="Rectangle_276" data-name="Rectangle 276" width="1.988" height="1.988" transform="translate(45.59 139.139)" fill="#fff"/>
      <path id="Path_2689" data-name="Path 2689" d="M47.578,141.326H45.59a.2.2,0,0,1-.2-.2v-1.988a.2.2,0,0,1,.2-.2h1.988a.2.2,0,0,1,.2.2v1.988A.2.2,0,0,1,47.578,141.326Zm-1.789-.4h1.59v-1.59h-1.59Z" fill="#263238"/>
      <rect id="Rectangle_277" data-name="Rectangle 277" width="1.988" height="1.988" transform="translate(39.491 142.848)" fill="#fff"/>
      <path id="Path_2690" data-name="Path 2690" d="M41.479,145.035H39.491a.2.2,0,0,1-.2-.2v-1.988a.2.2,0,0,1,.2-.2h1.988a.2.2,0,0,1,.2.2v1.988A.2.2,0,0,1,41.479,145.035Zm-1.789-.4h1.59v-1.59H39.69Z" fill="#263238"/>
      <rect id="Rectangle_278" data-name="Rectangle 278" width="1.988" height="1.988" transform="translate(42.54 142.848)" fill="#fff"/>
      <path id="Path_2691" data-name="Path 2691" d="M44.528,145.035H42.54a.2.2,0,0,1-.2-.2v-1.988a.2.2,0,0,1,.2-.2h1.988a.2.2,0,0,1,.2.2v1.988A.2.2,0,0,1,44.528,145.035Zm-1.789-.4h1.59v-1.59h-1.59Z" fill="#263238"/>
      <rect id="Rectangle_279" data-name="Rectangle 279" width="1.988" height="1.988" transform="translate(45.59 142.848)" fill="#fff"/>
      <path id="Path_2692" data-name="Path 2692" d="M47.578,145.035H45.59a.2.2,0,0,1-.2-.2v-1.988a.2.2,0,0,1,.2-.2h1.988a.2.2,0,0,1,.2.2v1.988A.2.2,0,0,1,47.578,145.035Zm-1.789-.4h1.59v-1.59h-1.59Z" fill="#263238"/>
    </g>
    <g id="freepik--Character--inject-2">
      <path id="Path_2693" data-name="Path 2693" d="M56.412,149.245a7.411,7.411,0,0,0,1.888,1.71c.99.541,2.7,1.169,2.7,1.618v.453H53.08l.091-3.976Z" fill="#fff"/>
      <path id="Path_2694" data-name="Path 2694" d="M61,153.225H53.08a.2.2,0,0,1-.2-.207l.091-3.976a.191.191,0,0,1,.064-.139.183.183,0,0,1,.147-.052l3.24.179a.215.215,0,0,1,.147.076,7.236,7.236,0,0,0,1.825,1.658c.278.151.624.314.958.473,1.145.541,1.845.895,1.845,1.32v.453a.2.2,0,0,1-.2.215Zm-7.717-.4H60.8v-.254c-.032-.211-1.065-.7-1.618-.962-.338-.159-.688-.326-.978-.481a7.323,7.323,0,0,1-1.892-1.69l-2.946-.167Z" fill="#263238"/>
      <path id="Path_2695" data-name="Path 2695" d="M53.08,153.026H61v-.453c0-.127-.143-.274-.37-.425H53.1Z" fill="#fff"/>
      <path id="Path_2696" data-name="Path 2696" d="M61,153.225H53.08a.2.2,0,0,1-.2-.207l.02-.879a.2.2,0,0,1,.2-.191h7.53a.215.215,0,0,1,.111.032c.215.147.457.346.457.592v.453A.2.2,0,0,1,61,153.225Zm-7.717-.4H60.8v-.254s0-.072-.235-.227H53.295Z" fill="#263238"/>
      <path id="Path_2697" data-name="Path 2697" d="M55.263,118.732s.266,10.2.266,11.394-1.193,3.578-1.459,5.964-.9,12.977-.9,12.977h3.181s2.222-10.854,3.415-15.76,1.988-16.829,1.988-16.829H55.66Z" fill="#263238"/>
      <path id="Path_2698" data-name="Path 2698" d="M56.352,149.265H53.172a.2.2,0,0,1-.2-.211c0-.107.636-10.623.9-12.985a19.4,19.4,0,0,1,.9-3.674,9.264,9.264,0,0,0,.557-2.27c0-1.193-.262-11.287-.266-11.39a.135.135,0,0,1,0-.04l.4-2.254a.2.2,0,0,1,.195-.163h6.095a.207.207,0,0,1,.147.064.2.2,0,0,1,.052.147c0,.119-.8,12-1.988,16.865s-3.391,15.641-3.415,15.752A.2.2,0,0,1,56.352,149.265Zm-2.97-.4h2.807c.282-1.364,2.286-11.08,3.387-15.609s1.853-14.961,1.988-16.583H55.827l-.366,2.067c0,.509.266,10.226.266,11.383a9.391,9.391,0,0,1-.576,2.385,18.933,18.933,0,0,0-.883,3.578C54.026,138.28,53.474,147.361,53.382,148.868Z" fill="#263238"/>
      <path id="Path_2699" data-name="Path 2699" d="M53.832,110.923s-.179,4.409.362,5.94,1.348,4.5,1.348,4.5.99,7.379.99,8.552-1.169,4.23-1.169,6.659.99,12.512.99,12.512l3.24.179s1.8-12.42,2.608-17.012a63.863,63.863,0,0,0,.632-13.681c-.27-2.151-.179-7.47-.179-7.47Z" fill="#263238"/>
      <path id="Path_2700" data-name="Path 2700" d="M59.592,149.444h0l-3.24-.183a.2.2,0,0,1-.187-.179c-.04-.4-.99-10.114-.99-12.528a19.127,19.127,0,0,1,.747-4.493,11.827,11.827,0,0,0,.421-2.167c0-1.145-.978-8.452-.986-8.524,0,0-.8-2.958-1.344-4.461s-.4-5.832-.37-6.015a.191.191,0,0,1,.2-.191l8.822.179a.207.207,0,0,1,.195.2c0,.052-.087,5.32.179,7.443a63.9,63.9,0,0,1-.632,13.74c-.8,4.536-2.592,16.881-2.612,17a.2.2,0,0,1-.207.171Zm-3.057-.569,2.886.159c.227-1.547,1.837-12.6,2.584-16.833a63.056,63.056,0,0,0,.628-13.625c-.243-1.936-.2-6.3-.183-7.3l-8.429-.171c-.024.867-.1,4.373.358,5.673.537,1.519,1.344,4.481,1.352,4.512.048.326,1,7.431,1,8.6a11.8,11.8,0,0,1-.433,2.262,19.859,19.859,0,0,0-.736,4.4c0,2.218.843,10.989.974,12.321Z" fill="#263238"/>
      <path id="Path_2701" data-name="Path 2701" d="M66.733,108.689l-2.195-2.8,6.584-5.121,3.411,2.5Z" fill="#263238"/>
      <path id="Path_2702" data-name="Path 2702" d="M66.733,108.888a.2.2,0,0,1-.159-.076l-2.191-2.8a.2.2,0,0,1-.044-.147.211.211,0,0,1,.076-.131L71,100.61a.2.2,0,0,1,.239,0l3.415,2.5a.2.2,0,0,1,0,.322l-7.8,5.423a.187.187,0,0,1-.115.032ZM64.8,105.922l1.988,2.5,7.419-5.168L71.146,101Z" fill="#263238"/>
      <path id="Path_2703" data-name="Path 2703" d="M67.071,108.061,65.143,105.6l5.785-4.5,3,2.2Z" fill="#fff"/>
      <path id="Path_2704" data-name="Path 2704" d="M67.071,108.16a.1.1,0,0,1-.076-.036l-1.928-2.465a.1.1,0,0,1,0-.072.1.1,0,0,1,.036-.068l5.785-4.5a.1.1,0,0,1,.119,0l3,2.195a.091.091,0,0,1,.04.083.1.1,0,0,1-.04.08l-6.854,4.771A.111.111,0,0,1,67.071,108.16Zm-1.785-2.544,1.809,2.31,6.659-4.632-2.823-2.067Z" fill="#263238"/>
      <path id="Path_2705" data-name="Path 2705" d="M65.2,103.389a9.58,9.58,0,0,1,1.952-.978,6.442,6.442,0,0,1,2.62.429c.119.246,0,.549-.243.549s-1.888-.366-1.888-.366l-1.1.914s2.254-.064,2.254.3-.608.425-.914.366a12.057,12.057,0,0,0-1.4-.06c-.183,0-1.034.608-1.706.608H63.743l-.246-.914Z" fill="#fff"/>
      <path id="Path_2706" data-name="Path 2706" d="M64.781,105.357H63.747a.2.2,0,0,1-.195-.147l-.243-.914a.2.2,0,0,1,.1-.231l1.7-.847a8.791,8.791,0,0,1,2.024-1c.33-.04,2.612.111,2.823.533a.636.636,0,0,1,0,.608.473.473,0,0,1-.4.227c-.231,0-1.423-.254-1.837-.346l-.592.493a3.692,3.692,0,0,1,1.8.29.3.3,0,0,1,.1.219.485.485,0,0,1-.187.4,1.312,1.312,0,0,1-.966.175,10.143,10.143,0,0,0-1.364-.056,2.418,2.418,0,0,0-.3.143,3.427,3.427,0,0,1-1.431.453Zm-.883-.4h.883a3.2,3.2,0,0,0,1.229-.421,1.221,1.221,0,0,1,.477-.187,11,11,0,0,1,1.443.064.934.934,0,0,0,.632-.091.088.088,0,0,0,.032-.036,7.332,7.332,0,0,0-2.04-.151.2.2,0,0,1-.191-.127.191.191,0,0,1,.06-.223l1.1-.914a.187.187,0,0,1,.171-.04c.8.175,1.7.358,1.845.358a.068.068,0,0,0,.064-.04.231.231,0,0,0,0-.219,8.274,8.274,0,0,0-2.421-.318,8.556,8.556,0,0,0-1.869.946h0l-1.562.8ZM65.2,103.369Z" fill="#263238"/>
      <path id="Path_2707" data-name="Path 2707" d="M63.747,105.154l-3.9,1.221.183-2.135H63.5Z" fill="#fff"/>
      <path id="Path_2708" data-name="Path 2708" d="M59.843,106.574a.2.2,0,0,1-.123-.044.2.2,0,0,1-.072-.175l.183-2.131a.2.2,0,0,1,.195-.183H63.5a.2.2,0,0,1,.195.147l.243.914a.2.2,0,0,1-.135.243l-3.9,1.2Zm.366-2.135-.139,1.658,3.435-1.073-.155-.584Z" fill="#263238"/>
      <path id="Path_2709" data-name="Path 2709" d="M60.853,94.972a22.04,22.04,0,0,1,1.8,6.21c.183,2.7.628,8.822.72,9.359s-.72,1.081-.99,1.173a70.536,70.536,0,0,1-7.741.179,2.925,2.925,0,0,1-1.8-2.071c0-.632,1.081-13.048,1.169-14.313s3.045-3.3,3.045-3.3Z" fill="#cb955b"/>
      <path id="Path_2710" data-name="Path 2710" d="M56.181,112.152a11.593,11.593,0,0,1-1.59-.064,3.1,3.1,0,0,1-1.956-2.266c0-.4.437-5.566.8-9.721.187-2.226.35-4.151.4-4.6.1-1.316,2.819-3.236,3.129-3.451a.2.2,0,0,1,.231,0l3.8,2.763a.167.167,0,0,1,.064.076,21.927,21.927,0,0,1,1.821,6.282c.187,2.835.628,8.818.716,9.339.119.716-.863,1.3-1.125,1.392S58.416,112.152,56.181,112.152Zm.871-19.7c-.867.616-2.783,2.159-2.843,3.069-.032.457-.195,2.385-.4,4.612-.334,3.92-.8,9.291-.8,9.685a2.737,2.737,0,0,0,1.646,1.877,72.03,72.03,0,0,0,7.641-.175c.239-.08.91-.565.847-.946-.091-.553-.533-6.576-.72-9.383A22.3,22.3,0,0,0,60.67,95.1Z" fill="#263238"/>
      <path id="Path_2711" data-name="Path 2711" d="M56.642,86.289l.99,3.125-.576,2.795,3.125,2.632,1.479-3.288-.083-6.087Z" fill="#fff"/>
      <path id="Path_2712" data-name="Path 2712" d="M60.181,95.04A.207.207,0,0,1,60.054,95l-3.129-2.632a.2.2,0,0,1-.064-.195l.565-2.743-.97-3.077a.183.183,0,0,1,.02-.163.2.2,0,0,1,.135-.1l4.934-.819a.195.195,0,0,1,.231.191l.083,6.087a.2.2,0,0,1,0,.083l-1.483,3.292a.191.191,0,0,1-.135.111Zm-2.906-2.906,2.831,2.385,1.356-3.01-.08-5.809-4.481.747.918,2.906a.171.171,0,0,1,0,.1Z" fill="#263238"/>
      <path id="Path_2713" data-name="Path 2713" d="M58.451,87.935l-1.892.9.413.986,1.809-.9Z" fill="#fff"/>
      <path id="Path_2714" data-name="Path 2714" d="M56.972,90.023a.187.187,0,0,1-.068,0,.2.2,0,0,1-.115-.107l-.4-.99a.2.2,0,0,1,.1-.254l1.892-.906a.211.211,0,0,1,.163,0,.215.215,0,0,1,.111.123l.33.986a.2.2,0,0,1-.1.239l-1.809.906a.167.167,0,0,1-.1,0Zm-.155-1.085.254.616,1.467-.736-.2-.608Z" fill="#263238"/>
      <path id="Path_2715" data-name="Path 2715" d="M64.459,85.713l.4,1.809s.906.66.656.986a5.8,5.8,0,0,1-.739.743s-.576,2.711-.986,2.783a5.276,5.276,0,0,1-2.783-.4,7.285,7.285,0,0,1-1.892-2.3l-.167-3.208Z" fill="#fff"/>
      <path id="Path_2716" data-name="Path 2716" d="M63.214,92.285a5.168,5.168,0,0,1-2.3-.477,7.61,7.61,0,0,1-1.988-2.385.155.155,0,0,1-.024-.083l-.163-3.208a.195.195,0,0,1,.183-.207l5.51-.4a.2.2,0,0,1,.207.155l.4,1.737c.191.147.66.541.716.9a.417.417,0,0,1-.08.322,5.741,5.741,0,0,1-.716.732c-.278,1.28-.692,2.783-1.129,2.882a3.464,3.464,0,0,1-.616.032Zm-3.9-3.01a6.868,6.868,0,0,0,1.793,2.187,5.232,5.232,0,0,0,2.66.4,9.415,9.415,0,0,0,.831-2.644.227.227,0,0,1,.068-.111,5.426,5.426,0,0,0,.712-.708c-.028-.2-.4-.537-.616-.7a.219.219,0,0,1-.08-.119l-.374-1.642-5.145.4Z" fill="#263238"/>
      <path id="Path_2717" data-name="Path 2717" d="M61.262,86.508l.254,1.376s2.759.306,3.578-.2.358-1.888,0-2.091S61.262,86.508,61.262,86.508Z" fill="#fff"/>
      <path id="Path_2718" data-name="Path 2718" d="M63.214,88.178a16.912,16.912,0,0,1-1.706-.1.2.2,0,0,1-.175-.163l-.254-1.376a.2.2,0,0,1,.135-.227c1.328-.429,3.61-1.117,3.976-.9a1.714,1.714,0,0,1,.557,1.3,1.244,1.244,0,0,1-.545,1.149A4.575,4.575,0,0,1,63.214,88.178ZM61.7,87.7a8,8,0,0,0,3.3-.187.879.879,0,0,0,.362-.8A1.4,1.4,0,0,0,65,85.757a18.523,18.523,0,0,0-3.5.883Z" fill="#263238"/>
      <path id="Path_2719" data-name="Path 2719" d="M56.4,86.7,67.254,85.63l-2.051-.9-1.236-3.371a1.427,1.427,0,0,0-.986-.33c-.656,0-3.371-.66-4.934.246S55.819,83.328,56.4,86.7Z" fill="#cb955b"/>
      <path id="Path_2720" data-name="Path 2720" d="M56.4,86.9a.2.2,0,0,1-.195-.163c-.6-3.538.147-4.711,1.741-5.634,1.28-.743,3.216-.493,4.373-.346a6.577,6.577,0,0,0,.66.072,1.65,1.65,0,0,1,1.129.4.167.167,0,0,1,.044.072l1.193,3.292,1.988.875a.2.2,0,0,1-.06.378L56.412,86.91Zm3.916-5.9a4.433,4.433,0,0,0-2.171.449c-1.447.839-2.091,1.857-1.59,5.041l9.915-.978-1.36-.6A.175.175,0,0,1,65,84.795l-1.217-3.324a1.308,1.308,0,0,0-.819-.246,6.9,6.9,0,0,1-.712-.072,14.71,14.71,0,0,0-1.94-.159Z" fill="#263238"/>
      <path id="Path_2721" data-name="Path 2721" d="M61.517,87.884l-4.338-.2-.2-.612,4.286-.561Z" fill="#263238"/>
      <path id="Path_2722" data-name="Path 2722" d="M61.517,88.083h0l-4.345-.219a.2.2,0,0,1-.179-.135l-.207-.612a.2.2,0,0,1,0-.171.207.207,0,0,1,.143-.091l4.3-.545a.2.2,0,0,1,.219.163l.258,1.376a.211.211,0,0,1-.048.167A.2.2,0,0,1,61.517,88.083Zm-4.19-.592,3.952.183-.175-.946-3.852.509Z" fill="#263238"/>
      <path id="Path_2723" data-name="Path 2723" d="M59.151,89.577h0a1.193,1.193,0,0,1-1.193-1.193v-.918a1.193,1.193,0,0,1,1.193-1.193h0a1.193,1.193,0,0,1,1.193,1.193v.9a1.193,1.193,0,0,1-1.193,1.209Z" fill="#fff"/>
      <path id="Path_2724" data-name="Path 2724" d="M59.151,89.776a1.392,1.392,0,0,1-1.392-1.392v-.918a1.392,1.392,0,0,1,2.783,0v.9a1.392,1.392,0,0,1-1.392,1.407Zm0-3.288a.994.994,0,0,0-.994.994v.9a.994.994,0,1,0,1.988,0v-.918a.994.994,0,0,0-.994-.978Z" fill="#263238"/>
      <path id="Path_2725" data-name="Path 2725" d="M56.463,91.048l4.9,3.165-.358,1.841-5-3.522Z" fill="#fff"/>
      <path id="Path_2726" data-name="Path 2726" d="M61.008,96.253a.183.183,0,0,1-.115-.04l-5-3.519a.2.2,0,0,1-.076-.223l.457-1.479a.223.223,0,0,1,.123-.131.207.207,0,0,1,.175.02l4.9,3.181a.207.207,0,0,1,.087.207L61.2,96.106a.2.2,0,0,1-.119.147.258.258,0,0,1-.076,0Zm-4.771-3.8,4.636,3.26.27-1.4-4.568-2.95Z" fill="#263238"/>
      <path id="Path_2727" data-name="Path 2727" d="M55.99,95.513s-.8-.179-1.26.99-.8,14.13-.628,14.849a2.036,2.036,0,0,0,1.71,1.352c.632,0,10.981-4.143,10.981-4.143l-.27-1.169-8.552.362.8-8.552" fill="#cb955b"/>
      <path id="Path_2728" data-name="Path 2728" d="M55.811,112.911a2.23,2.23,0,0,1-1.9-1.5c-.219-.867.187-13.8.636-14.969.4-1.054,1.149-1.193,1.487-1.113a.2.2,0,0,1,.151.239.2.2,0,0,1-.235.151c-.032,0-.656-.111-1.034.867-.4,1.069-.823,13.915-.624,14.71a1.841,1.841,0,0,0,1.519,1.193c.481-.02,6.632-2.417,10.735-4.063l-.195-.843-8.385.354a.2.2,0,0,1-.155-.064.187.187,0,0,1-.052-.155l.8-8.552a.2.2,0,0,1,.219-.179.2.2,0,0,1,.179.219l-.8,8.321,8.321-.35a.207.207,0,0,1,.2.155l.27,1.169a.207.207,0,0,1-.119.231C65.131,109.44,56.456,112.911,55.811,112.911Z" fill="#263238"/>
      <path id="Path_2729" data-name="Path 2729" d="M66.522,107.393a9.324,9.324,0,0,0,1.61-1.566c.183-.425,1.4-.612,1.59-.672s.425-.425.608-.243,0,.608-.183.668-1.157.612-1.157.612l2.254-.183a.4.4,0,0,1,.123.485c-.123.306-.672.549-.672.549s-.485.429-.974.8a12.539,12.539,0,0,1-2.926.724Z" fill="#fff"/>
      <path id="Path_2730" data-name="Path 2730" d="M66.792,108.76a.2.2,0,0,1-.195-.151l-.27-1.173a.2.2,0,0,1,.072-.2,8.284,8.284,0,0,0,1.551-1.491c.175-.4.883-.592,1.531-.739l.175-.04a.947.947,0,0,0,.139-.1c.139-.111.425-.346.676-.1a.541.541,0,0,1,.111.513.664.664,0,0,1-.374.489,1.534,1.534,0,0,0-.3.147l1.32-.107a.2.2,0,0,1,.135.04.608.608,0,0,1,.187.72,1.566,1.566,0,0,1-.743.644c-.1.087-.533.457-.966.8a11.369,11.369,0,0,1-3.018.763Zm-.048-1.292.2.871a10.628,10.628,0,0,0,2.656-.66c.477-.358.958-.8.962-.8a.139.139,0,0,1,.052-.032,1.252,1.252,0,0,0,.565-.441.211.211,0,0,0,0-.207l-2.163.175a.2.2,0,0,1-.115-.374c.167-.091,1-.561,1.193-.624a.37.37,0,0,0,.119-.227.163.163,0,0,0,0-.115,1.134,1.134,0,0,1-.143.123.99.99,0,0,1-.262.171l-.219.052c-.282.064-1.137.254-1.248.509A8.093,8.093,0,0,1,66.745,107.468Z" fill="#263238"/>
      <path id="Path_2731" data-name="Path 2731" d="M59.592,149.245a7.411,7.411,0,0,0,1.888,1.71c.99.541,2.7,1.169,2.7,1.618v.453h-7.92l.091-3.976Z" fill="#fff"/>
      <path id="Path_2732" data-name="Path 2732" d="M64.18,153.225h-7.92a.2.2,0,0,1-.2-.207l.091-3.976a.191.191,0,0,1,.064-.139.183.183,0,0,1,.147-.052l3.24.179a.215.215,0,0,1,.147.076,7.236,7.236,0,0,0,1.825,1.658c.278.151.624.314.958.473,1.145.541,1.845.895,1.845,1.32v.453a.2.2,0,0,1-.2.215Zm-7.717-.4h7.518v-.254c-.032-.211-1.065-.7-1.618-.962-.338-.159-.688-.326-.978-.481a7.324,7.324,0,0,1-1.892-1.69l-2.946-.167Z" fill="#263238"/>
      <path id="Path_2733" data-name="Path 2733" d="M56.261,153.026h7.92v-.453c0-.127-.143-.274-.37-.425h-7.53Z" fill="#fff"/>
      <path id="Path_2734" data-name="Path 2734" d="M64.18,153.225h-7.92a.2.2,0,0,1-.2-.207l.02-.879a.2.2,0,0,1,.2-.191h7.53a.215.215,0,0,1,.111.032c.215.147.457.346.457.592v.453A.2.2,0,0,1,64.18,153.225Zm-7.717-.4h7.518v-.254s0-.072-.235-.227H56.475Z" fill="#263238"/>
    </g>
    <g id="freepik--Box--inject-2">
      <rect id="Rectangle_280" data-name="Rectangle 280" width="12.015" height="10.09" transform="translate(115.992 107.591)" fill="#fff"/>
      <path id="Path_2735" data-name="Path 2735" d="M128.019,117.877H115.992a.2.2,0,0,1-.2-.2V107.591a.2.2,0,0,1,.2-.2h12.027a.2.2,0,0,1,.2.2v10.09A.2.2,0,0,1,128.019,117.877Zm-11.82-.4H127.82V107.79H116.191Z" fill="#263238"/>
      <rect id="Rectangle_281" data-name="Rectangle 281" width="8.782" height="10.09" transform="translate(121.077 107.591)" fill="#263238"/>
      <path id="Path_2736" data-name="Path 2736" d="M129.86,117.877h-8.782a.2.2,0,0,1-.2-.2V107.591a.2.2,0,0,1,.2-.2h8.782a.2.2,0,0,1,.2.2v10.09A.2.2,0,0,1,129.86,117.877Zm-8.584-.4h8.385V107.79h-8.4Z" fill="#263238"/>
    </g>
    <g id="freepik--robotic-arm-3--inject-2">
      <path id="Path_2737" data-name="Path 2737" d="M148.076,105.946H163.7a5.268,5.268,0,0,1,5.268,5.268V131.39H146.108V107.933a1.988,1.988,0,0,1,1.968-1.988Z" fill="#fff"/>
      <path id="Path_2738" data-name="Path 2738" d="M168.969,131.6H146.108a.2.2,0,0,1-.2-.2V107.914a2.171,2.171,0,0,1,2.167-2.167H163.7a5.475,5.475,0,0,1,5.467,5.467V131.39a.2.2,0,0,1-.2.207Zm-22.662-.4H168.77V111.213a5.073,5.073,0,0,0-5.069-5.061H148.076a1.773,1.773,0,0,0-1.769,1.769Z" fill="#263238"/>
      <path id="Path_2739" data-name="Path 2739" d="M144.419,126.031h26.24a2.684,2.684,0,0,1,2.684,2.684v4.87H141.735v-4.878A2.684,2.684,0,0,1,144.419,126.031Z" fill="#cb955b"/>
      <path id="Path_2740" data-name="Path 2740" d="M173.342,133.776H141.735a.2.2,0,0,1-.2-.2v-4.87a2.886,2.886,0,0,1,2.882-2.882h26.24a2.886,2.886,0,0,1,2.882,2.882v4.878A.2.2,0,0,1,173.342,133.776Zm-31.408-.4h31.21v-4.671a2.485,2.485,0,0,0-2.485-2.485h-26.24a2.485,2.485,0,0,0-2.485,2.485Z" fill="#263238"/>
      <path id="Path_2741" data-name="Path 2741" d="M138.256,132.981h38.565a1.69,1.69,0,0,1,1.69,1.69v18.583H136.567V134.67A1.69,1.69,0,0,1,138.256,132.981Z" fill="#263238"/>
      <path id="Path_2742" data-name="Path 2742" d="M178.511,153.464H136.567a.2.2,0,0,1-.2-.2V134.67a1.888,1.888,0,0,1,1.888-1.888h38.565a1.888,1.888,0,0,1,1.888,1.888v18.583a.2.2,0,0,1-.2.211Zm-41.745-.4h41.546v-18.4a1.491,1.491,0,0,0-1.491-1.491H138.256a1.491,1.491,0,0,0-1.491,1.491Z" fill="#263238"/>
      <path id="Path_2743" data-name="Path 2743" d="M155.1,126.055a.2.2,0,0,1-.2-.2V121.01a.2.2,0,0,1,.2-.2h8.747V105.946a.2.2,0,0,1,.4,0V121.01a.2.2,0,0,1-.2.2H155.3v4.648A.2.2,0,0,1,155.1,126.055Z" fill="#263238"/>
      <path id="Path_2744" data-name="Path 2744" d="M168.758,115.042h-4.7a.2.2,0,1,1,0-.4h4.7a.2.2,0,1,1,0,.4Z" fill="#263238"/>
      <rect id="Rectangle_282" data-name="Rectangle 282" width="18.022" height="3.447" transform="translate(140.678 88.973)" fill="#fff"/>
      <path id="Path_2745" data-name="Path 2745" d="M158.7,92.635H140.678a.2.2,0,0,1-.2-.2V88.993a.2.2,0,0,1,.2-.2H158.7a.2.2,0,0,1,.2.2v3.443A.2.2,0,0,1,158.7,92.635Zm-17.823-.4H158.5V89.192H140.876Z" fill="#263238"/>
      <path id="Path_2746" data-name="Path 2746" d="M146.427,92.527a.2.2,0,0,1-.2-.2v-3.4a.2.2,0,1,1,.4,0v3.4A.2.2,0,0,1,146.427,92.527Z" fill="#263238"/>
      <path id="Path_2747" data-name="Path 2747" d="M147.631,92.527a.2.2,0,0,1-.2-.2v-3.4a.2.2,0,0,1,.4,0v3.4A.2.2,0,0,1,147.631,92.527Z" fill="#263238"/>
      <path id="Path_2748" data-name="Path 2748" d="M148.836,92.527a.2.2,0,0,1-.2-.2v-3.4a.2.2,0,1,1,.4,0v3.4a.2.2,0,0,1-.2.2Z" fill="#263238"/>
      <path id="Path_2749" data-name="Path 2749" d="M150.036,92.527a.2.2,0,0,1-.2-.2v-3.4a.2.2,0,1,1,.4,0v3.4A.2.2,0,0,1,150.036,92.527Z" fill="#263238"/>
      <path id="Path_2750" data-name="Path 2750" d="M151.241,92.527a.2.2,0,0,1-.2-.2v-3.4a.2.2,0,1,1,.4,0v3.4A.2.2,0,0,1,151.241,92.527Z" fill="#263238"/>
      <path id="Path_2751" data-name="Path 2751" d="M152.446,92.527a.2.2,0,0,1-.2-.2v-3.4a.2.2,0,1,1,.4,0v3.4a.2.2,0,0,1-.2.2Z" fill="#263238"/>
      <path id="Path_2752" data-name="Path 2752" d="M153.646,92.527a.2.2,0,0,1-.2-.2v-3.4a.2.2,0,1,1,.4,0v3.4A.2.2,0,0,1,153.646,92.527Z" fill="#263238"/>
      <path id="Path_2753" data-name="Path 2753" d="M162.011,91.665l-5.367,19.39a3.638,3.638,0,0,1-4.632,2.254h0a3.642,3.642,0,0,1-2.258-4.632l5.367-19.394a3.646,3.646,0,0,1,4.632-2.258h0a3.646,3.646,0,0,1,2.258,4.64Z" fill="#cb955b"/>
      <path id="Path_2754" data-name="Path 2754" d="M153.2,113.706a3.912,3.912,0,0,1-1.248-.207,3.845,3.845,0,0,1-2.385-4.886l5.363-19.382a3.849,3.849,0,1,1,7.284,2.489l-5.363,19.39A3.86,3.86,0,0,1,153.2,113.706Zm5.367-26.681a3.455,3.455,0,0,0-3.256,2.326l-5.363,19.386a3.447,3.447,0,1,0,6.512,2.254l5.355-19.382a3.451,3.451,0,0,0-3.26-4.568Z" fill="#263238"/>
      <path id="Path_2755" data-name="Path 2755" d="M130.273,107.2l4.878-2.874-4.135-2.739Z" fill="#263238"/>
      <path id="Path_2756" data-name="Path 2756" d="M130.273,107.4a.211.211,0,0,1-.107-.032.2.2,0,0,1-.087-.191l.743-5.614a.2.2,0,0,1,.111-.155.2.2,0,0,1,.195,0l4.135,2.739a.187.187,0,0,1,.087.167.2.2,0,0,1-.1.167l-4.878,2.874a.191.191,0,0,1-.1.044Zm.9-5.471-.648,4.894,4.254-2.5Z" fill="#263238"/>
      <rect id="Rectangle_283" data-name="Rectangle 283" width="2.783" height="13.362" transform="translate(140.807 88.773) rotate(33.52)" fill="#fff"/>
      <path id="Path_2757" data-name="Path 2757" d="M135.752,101.648a.179.179,0,0,1-.107-.032l-2.322-1.535a.2.2,0,0,1-.083-.127.2.2,0,0,1,.028-.151l7.379-11.132a.195.195,0,0,1,.274-.06l2.322,1.539a.187.187,0,0,1,.084.127.191.191,0,0,1-.028.147l-7.379,11.132A.2.2,0,0,1,135.752,101.648Zm-2.044-1.789,1.988,1.316,7.156-10.806-1.988-1.32Z" fill="#263238"/>
      <path id="Path_2758" data-name="Path 2758" d="M132.837,93.784H138.8v9.422a.7.7,0,0,1-.7.7h-4.564a.7.7,0,0,1-.7-.7Z" transform="translate(77.173 -58.559) rotate(33.52)" fill="#cb955b"/>
      <path id="Path_2759" data-name="Path 2759" d="M135.294,104.638a.9.9,0,0,1-.493-.151l-3.793-2.509a.906.906,0,0,1-.254-1.248l5.216-7.856a.2.2,0,0,1,.278-.056l4.958,3.284a.2.2,0,0,1,.056.274l-5.2,7.856A.9.9,0,0,1,135.294,104.638Zm.887-11.379-5.093,7.689a.5.5,0,0,0-.076.4.5.5,0,0,0,.215.318l3.793,2.513h0a.5.5,0,0,0,.7-.143l5.093-7.689Z" fill="#263238"/>
      <circle id="Ellipse_119" data-name="Ellipse 119" cx="3.777" cy="3.777" r="3.777" transform="translate(137.696 86.52)" fill="#fff"/>
      <path id="Path_2760" data-name="Path 2760" d="M141.473,94.273a3.976,3.976,0,1,1,3.976-3.976A3.976,3.976,0,0,1,141.473,94.273Zm0-7.554a3.578,3.578,0,1,0,3.578,3.578A3.578,3.578,0,0,0,141.473,86.719Z" fill="#263238"/>
      <circle id="Ellipse_120" data-name="Ellipse 120" cx="1.789" cy="1.789" r="1.789" transform="translate(139.684 88.508)" fill="#263238"/>
      <path id="Path_2761" data-name="Path 2761" d="M141.473,92.285a1.988,1.988,0,1,1,1.988-1.988A1.988,1.988,0,0,1,141.473,92.285Zm0-3.578a1.59,1.59,0,1,0,1.59,1.59A1.59,1.59,0,0,0,141.473,88.707Z" fill="#263238"/>
      <circle id="Ellipse_121" data-name="Ellipse 121" cx="3.777" cy="3.777" r="3.777" transform="translate(154.923 86.52)" fill="#fff"/>
      <path id="Path_2762" data-name="Path 2762" d="M158.7,94.273a3.976,3.976,0,1,1,3.976-3.976,3.976,3.976,0,0,1-3.976,3.976Zm0-7.554a3.578,3.578,0,1,0,3.578,3.578A3.578,3.578,0,0,0,158.7,86.719Z" fill="#263238"/>
      <circle id="Ellipse_122" data-name="Ellipse 122" cx="1.789" cy="1.789" r="1.789" transform="translate(156.911 88.508)" fill="#263238"/>
      <path id="Path_2763" data-name="Path 2763" d="M158.7,92.285a1.988,1.988,0,1,1,1.988-1.988,1.988,1.988,0,0,1-1.988,1.988Zm0-3.578a1.59,1.59,0,1,0,1.59,1.59A1.59,1.59,0,0,0,158.7,88.707Z" fill="#263238"/>
      <circle id="Ellipse_123" data-name="Ellipse 123" cx="3.777" cy="3.777" r="3.777" transform="translate(149.452 106.089)" fill="#fff"/>
      <path id="Path_2764" data-name="Path 2764" d="M153.229,113.841a3.976,3.976,0,1,1,3.976-3.976A3.976,3.976,0,0,1,153.229,113.841Zm0-7.554a3.578,3.578,0,1,0,3.578,3.578A3.578,3.578,0,0,0,153.229,106.287Z" fill="#263238"/>
      <circle id="Ellipse_124" data-name="Ellipse 124" cx="1.789" cy="1.789" r="1.789" transform="translate(151.44 108.077)" fill="#263238"/>
      <path id="Path_2765" data-name="Path 2765" d="M153.229,111.853a1.988,1.988,0,1,1,1.988-1.988A1.988,1.988,0,0,1,153.229,111.853Zm0-3.578a1.59,1.59,0,1,0,1.59,1.59A1.59,1.59,0,0,0,153.229,108.275Z" fill="#263238"/>
      <path id="Path_2766" data-name="Path 2766" d="M129.542,105.882a.2.2,0,0,1-.191-.139l-.588-1.884a.195.195,0,0,1,.127-.25.2.2,0,0,1,.25.131l.588,1.885a.2.2,0,0,1-.131.25Z" fill="#263238"/>
      <path id="Path_2767" data-name="Path 2767" d="M128.48,106.59a.2.2,0,0,1-.115-.036l-1.654-1.193a.2.2,0,0,1,.235-.322l1.65,1.193a.2.2,0,0,1,.044.278.191.191,0,0,1-.159.08Z" fill="#263238"/>
      <path id="Path_2768" data-name="Path 2768" d="M133.9,107.886h0l-1.988-.119a.2.2,0,1,1,.024-.4l1.988.119a.2.2,0,0,1,.187.211.195.195,0,0,1-.211.187Z" fill="#263238"/>
      <path id="Path_2769" data-name="Path 2769" d="M132.014,110.951a.2.2,0,0,1-.179-.111l-1.193-2.358a.2.2,0,0,1,.087-.266.2.2,0,0,1,.266.091l1.193,2.354a.2.2,0,0,1-.091.27A.214.214,0,0,1,132.014,110.951Z" fill="#263238"/>
      <path id="Path_2770" data-name="Path 2770" d="M133.43,109.536a.215.215,0,0,1-.1-.024l-.823-.473a.195.195,0,0,1-.076-.27.2.2,0,0,1,.27-.076l.827.473a.2.2,0,0,1-.1.37Z" fill="#263238"/>
    </g>
    <g id="freepik--robotic-arm-2--inject-2">
      <path id="Path_2771" data-name="Path 2771" d="M118.636,62.3H116.8a.2.2,0,0,1-.2-.2V39.137a.2.2,0,0,1,.4,0V61.9h1.435V39.241a.2.2,0,0,1,.4,0V62.1A.2.2,0,0,1,118.636,62.3Z" fill="#263238"/>
      <path id="Path_2772" data-name="Path 2772" d="M110.029,98.4a.8.8,0,0,1-.8-.8V90.571a.8.8,0,1,1,1.59,0V97.6a.8.8,0,0,1-.8.8Z" fill="#263238"/>
      <path id="Path_2773" data-name="Path 2773" d="M110.227,91.188a.8.8,0,0,1-.425-1.471l7.482-4.7a.8.8,0,1,1,.847,1.348l-7.494,4.7A.8.8,0,0,1,110.227,91.188Z" fill="#263238"/>
      <path id="Path_2774" data-name="Path 2774" d="M111.535,90.571a1.507,1.507,0,1,0-1.507,1.507,1.507,1.507,0,0,0,1.507-1.507Z" fill="#fff"/>
      <path id="Path_2775" data-name="Path 2775" d="M110.029,92.277a1.706,1.706,0,1,1,1.706-1.706,1.706,1.706,0,0,1-1.706,1.706Zm0-3.014a1.308,1.308,0,1,0,1.308,1.308,1.308,1.308,0,0,0-1.308-1.308Z" fill="#263238"/>
      <path id="Path_2776" data-name="Path 2776" d="M110.74,90.571a.712.712,0,1,0-.207.506.716.716,0,0,0,.207-.506Z" fill="#fff"/>
      <path id="Path_2777" data-name="Path 2777" d="M110.029,91.486a.914.914,0,1,1,.91-.914.914.914,0,0,1-.91.914Zm0-1.427a.517.517,0,1,0,.513.513.517.517,0,0,0-.513-.513Z" fill="#263238"/>
      <path id="Path_2778" data-name="Path 2778" d="M125.359,98.4a.8.8,0,0,1-.8-.8V90.571a.8.8,0,0,1,1.59,0V97.6a.8.8,0,0,1-.8.8Z" fill="#263238"/>
      <path id="Path_2779" data-name="Path 2779" d="M125.16,91.188a.8.8,0,0,1-.421-.123l-7.49-4.7a.8.8,0,0,1,.843-1.348l7.494,4.7a.8.8,0,0,1-.425,1.471Z" fill="#263238"/>
      <path id="Path_2780" data-name="Path 2780" d="M123.852,90.571a1.507,1.507,0,1,1,1.507,1.507,1.507,1.507,0,0,1-1.507-1.507Z" fill="#fff"/>
      <path id="Path_2781" data-name="Path 2781" d="M125.359,92.277a1.706,1.706,0,1,1,1.706-1.706A1.706,1.706,0,0,1,125.359,92.277Zm0-3.014a1.308,1.308,0,1,0,1.308,1.308A1.308,1.308,0,0,0,125.359,89.263Z" fill="#263238"/>
      <path id="Path_2782" data-name="Path 2782" d="M124.647,90.571a.712.712,0,1,1,.207.506.716.716,0,0,1-.207-.506Z" fill="#fff"/>
      <path id="Path_2783" data-name="Path 2783" d="M125.359,91.486a.914.914,0,1,1,.914-.914A.914.914,0,0,1,125.359,91.486Zm0-1.427a.513.513,0,1,0,.365.149A.517.517,0,0,0,125.359,90.058Z" fill="#263238"/>
      <rect id="Rectangle_284" data-name="Rectangle 284" width="3.523" height="23.302" transform="translate(115.956 58.213)" fill="#263238"/>
      <path id="Path_2784" data-name="Path 2784" d="M119.479,81.717h-3.522a.2.2,0,0,1-.2-.2V58.213a.2.2,0,0,1,.2-.2h3.522a.2.2,0,0,1,.2.2V81.5a.2.2,0,0,1-.2.215Zm-3.324-.4h3.117V58.412h-3.125Z" fill="#263238"/>
      <path id="Path_2785" data-name="Path 2785" d="M117.718,89.721h0a4.023,4.023,0,0,1-4.012-4.027V69.814h8.051V85.693a4.023,4.023,0,0,1-4.039,4.027Z" fill="#cb955b"/>
      <path id="Path_2786" data-name="Path 2786" d="M117.718,89.919a4.23,4.23,0,0,1-4.222-4.226V69.814a.2.2,0,0,1,.2-.2h8.051a.2.2,0,0,1,.2.2V85.693a4.23,4.23,0,0,1-4.226,4.226Zm-3.825-19.907v15.68a3.829,3.829,0,1,0,7.653,0V70.013Z" fill="#263238"/>
      <rect id="Rectangle_285" data-name="Rectangle 285" width="9.82" height="2.461" transform="translate(112.808 69.162)" fill="#fff"/>
      <path id="Path_2787" data-name="Path 2787" d="M122.628,71.822h-9.82a.2.2,0,0,1-.2-.2V69.178a.2.2,0,0,1,.2-.2h9.82a.2.2,0,0,1,.2.2v2.461A.2.2,0,0,1,122.628,71.822Zm-9.621-.4h9.423V69.361h-9.423Z" fill="#263238"/>
      <circle id="Ellipse_125" data-name="Ellipse 125" cx="3.189" cy="3.189" r="3.189" transform="translate(114.529 82.505)" fill="#fff"/>
      <path id="Path_2788" data-name="Path 2788" d="M117.718,89.08a3.387,3.387,0,1,1,3.387-3.387A3.387,3.387,0,0,1,117.718,89.08Zm0-6.361a1.24,1.24,0,1,0,0-.024Z" fill="#263238"/>
      <circle id="Ellipse_126" data-name="Ellipse 126" cx="1.511" cy="1.511" r="1.511" transform="translate(116.207 84.182)" fill="#263238"/>
      <path id="Path_2789" data-name="Path 2789" d="M117.718,87.4a1.71,1.71,0,1,1,1.71-1.71,1.71,1.71,0,0,1-1.71,1.71Zm0-3.018a1.312,1.312,0,1,0,1.312,1.308,1.312,1.312,0,0,0-1.312-1.308Z" fill="#263238"/>
      <rect id="Rectangle_286" data-name="Rectangle 286" width="1.725" height="7.232" transform="translate(114.434 73.587)" fill="#263238"/>
      <path id="Path_2790" data-name="Path 2790" d="M116.163,81.014h-1.729a.2.2,0,0,1-.2-.2V73.587a.2.2,0,0,1,.2-.2h1.729a.2.2,0,0,1,.2.2v7.228a.2.2,0,0,1-.2.2Zm-1.531-.4h1.332v-6.83h-1.332Z" fill="#263238"/>
      <rect id="Rectangle_287" data-name="Rectangle 287" width="1.725" height="7.232" transform="translate(119.292 73.587)" fill="#263238"/>
      <path id="Path_2791" data-name="Path 2791" d="M121.018,81.014h-1.725a.2.2,0,0,1-.2-.2V73.587a.2.2,0,0,1,.2-.2h1.725a.2.2,0,0,1,.2.2v7.228a.2.2,0,0,1-.2.2Zm-1.527-.4h1.328v-6.83h-1.328Z" fill="#263238"/>
    </g>
    <g id="freepik--robotic-arm-1--inject-2">
      <rect id="Rectangle_288" data-name="Rectangle 288" width="12.015" height="10.09" transform="translate(82.636 96.459)" fill="#fff"/>
      <path id="Path_2792" data-name="Path 2792" d="M94.65,106.745H82.636a.2.2,0,0,1-.2-.2V96.459a.2.2,0,0,1,.2-.2H94.65a.2.2,0,0,1,.2.2v10.09A.2.2,0,0,1,94.65,106.745Zm-11.816-.4H94.452V96.658H82.835Z" fill="#263238"/>
      <rect id="Rectangle_289" data-name="Rectangle 289" width="8.782" height="10.09" transform="translate(87.721 96.459)" fill="#263238"/>
      <path id="Path_2793" data-name="Path 2793" d="M96.5,106.745H87.721a.2.2,0,0,1-.2-.2V96.459a.2.2,0,0,1,.2-.2H96.5a.2.2,0,0,1,.2.2v10.09A.2.2,0,0,1,96.5,106.745Zm-8.58-.4H96.3V96.658H87.92Z" fill="#263238"/>
      <path id="Path_2794" data-name="Path 2794" d="M90.5,62.3H88.659a.2.2,0,0,1-.2-.2V39.137a.2.2,0,0,1,.4,0V61.9h1.435V39.241a.2.2,0,0,1,.4,0V62.1A.2.2,0,0,1,90.5,62.3Z" fill="#263238"/>
      <path id="Path_2795" data-name="Path 2795" d="M81.9,98.4a.8.8,0,0,1-.8-.8V90.571a.8.8,0,1,1,1.59,0V97.6a.8.8,0,0,1-.8.8Z" fill="#263238"/>
      <path id="Path_2796" data-name="Path 2796" d="M82.1,91.188a.8.8,0,0,1-.421-1.471l7.494-4.7a.8.8,0,0,1,.843,1.348l-7.494,4.7a.8.8,0,0,1-.421.123Z" fill="#263238"/>
      <path id="Path_2797" data-name="Path 2797" d="M83.407,90.571A1.511,1.511,0,1,0,81.9,92.078,1.511,1.511,0,0,0,83.407,90.571Z" fill="#fff"/>
      <path id="Path_2798" data-name="Path 2798" d="M81.9,92.277a1.706,1.706,0,1,1,1.71-1.706,1.706,1.706,0,0,1-1.71,1.706Zm0-3.014a1.308,1.308,0,1,0,1.312,1.308A1.308,1.308,0,0,0,81.9,89.263Z" fill="#263238"/>
      <path id="Path_2799" data-name="Path 2799" d="M82.612,90.571a.712.712,0,1,0-.208.507.716.716,0,0,0,.208-.507Z" fill="#fff"/>
      <path id="Path_2800" data-name="Path 2800" d="M81.9,91.486a.914.914,0,1,1,.914-.914.914.914,0,0,1-.914.914Zm0-1.427a.513.513,0,1,0,.365.149A.517.517,0,0,0,81.9,90.058Z" fill="#263238"/>
      <path id="Path_2801" data-name="Path 2801" d="M97.231,98.4a.8.8,0,0,1-.8-.8V90.571a.8.8,0,0,1,1.59,0V97.6a.8.8,0,0,1-.8.8Z" fill="#263238"/>
      <path id="Path_2802" data-name="Path 2802" d="M97.032,91.188a.8.8,0,0,1-.421-.123l-7.494-4.7a.8.8,0,0,1,.847-1.348l7.49,4.7a.8.8,0,0,1-.421,1.471Z" fill="#263238"/>
      <path id="Path_2803" data-name="Path 2803" d="M95.724,90.571a1.507,1.507,0,1,1,1.507,1.507,1.507,1.507,0,0,1-1.507-1.507Z" fill="#fff"/>
      <path id="Path_2804" data-name="Path 2804" d="M97.231,92.277a1.706,1.706,0,1,1,1.706-1.706,1.706,1.706,0,0,1-1.706,1.706Zm0-3.014a1.308,1.308,0,1,0,1.308,1.308,1.308,1.308,0,0,0-1.308-1.308Z" fill="#263238"/>
      <path id="Path_2805" data-name="Path 2805" d="M96.515,90.571a.716.716,0,1,1,.716.716.716.716,0,0,1-.716-.716Z" fill="#fff"/>
      <path id="Path_2806" data-name="Path 2806" d="M97.231,91.486a.914.914,0,1,1,.91-.914.914.914,0,0,1-.91.914Zm0-1.427a.517.517,0,1,0,.513.513.517.517,0,0,0-.513-.513Z" fill="#263238"/>
      <rect id="Rectangle_290" data-name="Rectangle 290" width="3.523" height="23.302" transform="translate(87.828 58.213)" fill="#263238"/>
      <path id="Path_2807" data-name="Path 2807" d="M91.351,81.717H87.828a.2.2,0,0,1-.2-.2V58.213a.2.2,0,0,1,.2-.2h3.523a.2.2,0,0,1,.2.2V81.5a.2.2,0,0,1-.2.215Zm-3.324-.4h3.125V58.412H88.027Z" fill="#263238"/>
      <path id="Path_2808" data-name="Path 2808" d="M89.589,89.721h0a4.023,4.023,0,0,1-4.027-4.027V69.814h8.051V85.693a4.023,4.023,0,0,1-4.023,4.027Z" fill="#cb955b"/>
      <path id="Path_2809" data-name="Path 2809" d="M89.589,89.919a4.23,4.23,0,0,1-4.226-4.226V69.814a.2.2,0,0,1,.2-.2h8.051a.2.2,0,0,1,.2.2V85.693a4.23,4.23,0,0,1-4.222,4.226ZM85.761,70.013v15.68a3.829,3.829,0,1,0,7.653,0V70.013Z" fill="#263238"/>
      <rect id="Rectangle_291" data-name="Rectangle 291" width="9.82" height="2.461" transform="translate(84.679 69.162)" fill="#fff"/>
      <path id="Path_2810" data-name="Path 2810" d="M94.5,71.822H84.683a.2.2,0,0,1-.2-.2V69.178a.2.2,0,0,1,.2-.2H94.5a.2.2,0,0,1,.2.2v2.461A.2.2,0,0,1,94.5,71.822Zm-9.621-.4H94.3V69.361H84.878Z" fill="#263238"/>
      <circle id="Ellipse_127" data-name="Ellipse 127" cx="3.189" cy="3.189" r="3.189" transform="translate(86.401 82.505)" fill="#fff"/>
      <path id="Path_2811" data-name="Path 2811" d="M89.589,89.08a3.387,3.387,0,1,1,3.383-3.387,3.387,3.387,0,0,1-3.383,3.387Zm0-6.361a1.239,1.239,0,1,0,0-.024Z" fill="#263238"/>
      <circle id="Ellipse_128" data-name="Ellipse 128" cx="1.511" cy="1.511" r="1.511" transform="translate(88.079 84.182)" fill="#263238"/>
      <path id="Path_2812" data-name="Path 2812" d="M89.589,87.4a1.71,1.71,0,1,1,1.71-1.71,1.71,1.71,0,0,1-1.71,1.71Zm0-3.018A1.312,1.312,0,1,0,90.9,85.693a1.312,1.312,0,0,0-1.312-1.308Z" fill="#263238"/>
      <rect id="Rectangle_292" data-name="Rectangle 292" width="1.725" height="7.232" transform="translate(86.305 73.587)" fill="#263238"/>
      <path id="Path_2813" data-name="Path 2813" d="M88.031,81.014H86.305a.2.2,0,0,1-.2-.2V73.587a.2.2,0,0,1,.2-.2h1.725a.2.2,0,0,1,.2.2v7.228a.2.2,0,0,1-.2.2Zm-1.527-.4h1.328v-6.83H86.5Z" fill="#263238"/>
      <rect id="Rectangle_293" data-name="Rectangle 293" width="1.725" height="7.232" transform="translate(91.164 73.587)" fill="#263238"/>
      <path id="Path_2814" data-name="Path 2814" d="M92.889,81.014H91.16a.2.2,0,0,1-.2-.2V73.587a.2.2,0,0,1,.2-.2h1.729a.2.2,0,0,1,.2.2v7.228a.2.2,0,0,1-.2.2Zm-1.531-.4H92.69v-6.83H91.359Z" fill="#263238"/>
    </g>
    <g id="freepik--Floor--inject-2">
      <rect id="Rectangle_294" data-name="Rectangle 294" width="161.014" height="1.606" transform="translate(21.314 153.022)" fill="#263238"/>
      <path id="Path_2815" data-name="Path 2815" d="M182.327,154.827H21.31a.2.2,0,0,1-.2-.2v-1.59a.2.2,0,0,1,.2-.2H182.327a.2.2,0,0,1,.2.2v1.59A.2.2,0,0,1,182.327,154.827Zm-160.815-.4h160.62v-1.193H21.513Z" fill="#263238"/>
    </g>
  </g>
</svg>
