<svg xmlns="http://www.w3.org/2000/svg" width="134.511" height="94.79" viewBox="0 0 134.511 94.79">
  <g id="محلات_تجارية" transform="translate(-14.622 -34.886)">
    <g id="freepik--background-simple--inject-44">
      <path id="Path_2484" data-name="Path 2484" d="M142.536,129.677s9.9-23.265,5.444-52.967c-1.52-10.156-4.658-21.137-12.124-28.762-10.359-10.593-27.877-15.82-42.2-11.6C80.9,40.108,72.015,50.14,61.348,57.4c-11.633,7.92-22.771,1.982-36.385,13.614s-10.891,32.415-7.92,39.85,7.018,14.978,18.864,18.256Z" fill="#cb955b"/>
      <path id="Path_2485" data-name="Path 2485" d="M142.536,129.677s9.9-23.265,5.444-52.967c-1.52-10.156-4.658-21.137-12.124-28.762-10.359-10.593-27.877-15.82-42.2-11.6C80.9,40.108,72.015,50.14,61.348,57.4c-11.633,7.92-22.771,1.982-36.385,13.614s-10.891,32.415-7.92,39.85,7.018,14.978,18.864,18.256Z" fill="#fff" opacity="0.7"/>
    </g>
    <g id="freepik--Store--inject-44">
      <rect id="Rectangle_229" data-name="Rectangle 229" width="97.746" height="66.183" transform="translate(35.907 62.939)" fill="#fff" stroke="#263238" stroke-linecap="round" stroke-linejoin="round" stroke-width="0.334"/>
      <rect id="Rectangle_230" data-name="Rectangle 230" width="33.003" height="54.233" transform="translate(99.624 64.853)" fill="#fff" stroke="#263238" stroke-linecap="round" stroke-linejoin="round" stroke-width="0.334"/>
      <rect id="Rectangle_231" data-name="Rectangle 231" width="33.003" height="54.233" transform="translate(36.966 64.853)" fill="#fff" stroke="#263238" stroke-linecap="round" stroke-linejoin="round" stroke-width="0.334"/>
      <path id="Path_2486" data-name="Path 2486" d="M132.627,82.374l-33,11.529V64.85h33Z" fill="#263238" stroke="#263238" stroke-linecap="round" stroke-linejoin="round" stroke-width="0.334"/>
      <path id="Path_2487" data-name="Path 2487" d="M69.97,82.374l-33,13.7V64.85h33Z" fill="#263238" stroke="#263238" stroke-linecap="round" stroke-linejoin="round" stroke-width="0.334"/>
      <rect id="Rectangle_232" data-name="Rectangle 232" width="26.981" height="66.183" transform="translate(71.29 62.939)" fill="#cb955b" stroke="#263238" stroke-linecap="round" stroke-linejoin="round" stroke-width="0.334"/>
      <path id="Path_2488" data-name="Path 2488" d="M72.817,99.083H96.744v27.539H72.817Zm0-33.648V92.974H96.744V65.435Z" fill="#fff" stroke="#263238" stroke-linecap="round" stroke-linejoin="round" stroke-width="0.334"/>
      <path id="Path_2489" data-name="Path 2489" d="M96.744,123.481v-3.392l-16.809,6.533h8.592Z" fill="#263238"/>
      <path id="Path_2490" data-name="Path 2490" d="M72.817,84.974,96.744,74.531v-9.1H72.817Z" fill="#263238"/>
      <path id="Path_2491" data-name="Path 2491" d="M87.126,92.974,96.744,89.3V86.257L79.46,92.974Z" fill="#263238"/>
      <path id="Path_2492" data-name="Path 2492" d="M72.817,122.565l23.927-9.815V99.083H72.817Z" fill="#263238"/>
      <path id="Path_2493" data-name="Path 2493" d="M135.341,64.2H34.544L44.622,46.35h80.64Z" fill="#cb955b" stroke="#263238" stroke-linecap="round" stroke-linejoin="round" stroke-width="0.334"/>
      <path id="Path_2494" data-name="Path 2494" d="M34.544,64.245c0,.124-.02.247-.02.371a5.587,5.587,0,1,0,11.171,0,2.756,2.756,0,0,0-.017-.371Z" fill="#fff" stroke="#263238" stroke-linecap="round" stroke-linejoin="round" stroke-width="0.334"/>
      <path id="Path_2495" data-name="Path 2495" d="M45.739,64.245c0,.124-.02.247-.02.371a5.587,5.587,0,1,0,11.171,0,2.757,2.757,0,0,0-.017-.371Z" fill="#cb955b" stroke="#263238" stroke-linecap="round" stroke-linejoin="round" stroke-width="0.334"/>
      <path id="Path_2496" data-name="Path 2496" d="M56.933,64.245c0,.124-.02.247-.02.371a5.587,5.587,0,1,0,11.171,0,2.757,2.757,0,0,0-.017-.371Z" fill="#fff" stroke="#263238" stroke-linecap="round" stroke-linejoin="round" stroke-width="0.334"/>
      <path id="Path_2497" data-name="Path 2497" d="M68.128,64.245c0,.124-.02.247-.02.371a5.587,5.587,0,1,0,11.171,0,2.757,2.757,0,0,0-.017-.371Z" fill="#cb955b" stroke="#263238" stroke-linecap="round" stroke-linejoin="round" stroke-width="0.334"/>
      <path id="Path_2498" data-name="Path 2498" d="M79.323,64.245c0,.124-.02.247-.02.371a5.587,5.587,0,1,0,11.171,0,2.756,2.756,0,0,0-.017-.371Z" fill="#fff" stroke="#263238" stroke-linecap="round" stroke-linejoin="round" stroke-width="0.334"/>
      <path id="Path_2499" data-name="Path 2499" d="M90.518,64.245c0,.124-.02.247-.02.371a5.587,5.587,0,1,0,11.171,0,2.758,2.758,0,0,0-.017-.371Z" fill="#cb955b" stroke="#263238" stroke-linecap="round" stroke-linejoin="round" stroke-width="0.334"/>
      <path id="Path_2500" data-name="Path 2500" d="M101.713,64.245c0,.124-.02.247-.02.371a5.587,5.587,0,1,0,11.171,0,2.757,2.757,0,0,0-.017-.371Z" fill="#fff" stroke="#263238" stroke-linecap="round" stroke-linejoin="round" stroke-width="0.334"/>
      <path id="Path_2501" data-name="Path 2501" d="M112.908,64.245c0,.124-.02.247-.02.371a5.587,5.587,0,1,0,11.171,0,2.757,2.757,0,0,0-.017-.371Z" fill="#cb955b" stroke="#263238" stroke-linecap="round" stroke-linejoin="round" stroke-width="0.334"/>
      <path id="Path_2502" data-name="Path 2502" d="M124.1,64.245c0,.124-.02.247-.02.371a5.587,5.587,0,1,0,11.171,0,2.757,2.757,0,0,0-.017-.371Z" fill="#fff" stroke="#263238" stroke-linecap="round" stroke-linejoin="round" stroke-width="0.334"/>
      <path id="Path_2503" data-name="Path 2503" d="M76.737,77.789l8.07-4.344,8.017,4.344" fill="none" stroke="#fff" stroke-linecap="round" stroke-linejoin="round" stroke-width="0.334"/>
      <path id="Path_2504" data-name="Path 2504" d="M85.6,73.445a.789.789,0,1,0-.789.789.789.789,0,0,0,.789-.789Z" fill="#fff" stroke="#263238" stroke-linecap="round" stroke-linejoin="round" stroke-width="0.334"/>
      <rect id="Rectangle_233" data-name="Rectangle 233" width="16.087" height="7.96" transform="translate(76.737 77.789)" fill="#cb955b" stroke="#263238" stroke-linecap="round" stroke-linejoin="round" stroke-width="0.334"/>
      <text id="OPENED" transform="translate(77.565 82.909)" fill="#263238" font-size="3" font-family="Segoe UI"><tspan x="0" y="0">OPENED</tspan></text>
      <circle id="Ellipse_93" data-name="Ellipse 93" cx="1.637" cy="1.637" r="1.637" transform="translate(94.13 94.765)" fill="#fff" stroke="#263238" stroke-linecap="round" stroke-linejoin="round" stroke-width="0.334"/>
      <circle id="Ellipse_94" data-name="Ellipse 94" cx="0.418" cy="0.418" r="0.418" transform="translate(95.35 95.985)" fill="#fff" stroke="#263238" stroke-linecap="round" stroke-linejoin="round" stroke-width="0.334"/>
    </g>
  </g>
</svg>
