<svg xmlns="http://www.w3.org/2000/svg" width="105.544" height="96" viewBox="0 0 105.544 96">
  <g id="Smart_home-bro" data-name="Smart home-bro" transform="translate(-5.19 -8.667)">
    <g id="freepik--background-simple--inject-23">
      <path id="Path_2009" data-name="Path 2009" d="M74.284,14.3s-16.878-6-33.46,3.556S15.886,46.385,8.7,61.582,5.656,92.248,18.31,99.3s21.255-3.344,39-3.85,22.523,2.032,37.253-7.994,17.391-33.708,5.773-51.23S74.284,14.3,74.284,14.3Z" fill="#cb955b"/>
      <path id="Path_2010" data-name="Path 2010" d="M74.284,14.3s-16.878-6-33.46,3.556S15.886,46.385,8.7,61.582,5.656,92.248,18.31,99.3s21.255-3.344,39-3.85,22.523,2.032,37.253-7.994,17.391-33.708,5.773-51.23S74.284,14.3,74.284,14.3Z" fill="#fff" opacity="0.8"/>
      <path id="Path_2011" data-name="Path 2011" d="M29.813,57.885a2.766,2.766,0,0,0,2.052-.912l-.613-.685a1.863,1.863,0,0,1-2.965-.132l-.643.661a2.776,2.776,0,0,0,2.169,1.067Z" fill="#cb955b"/>
      <path id="Path_2012" data-name="Path 2012" d="M29.813,56.439a1.337,1.337,0,0,0,1.072-.541l-.657-.728a.42.42,0,0,1-.835-.066.5.5,0,0,1,0-.082l-.737.755a1.332,1.332,0,0,0,1.156.661Z" fill="#cb955b"/>
      <path id="Path_2013" data-name="Path 2013" d="M29.76,54.653l-.041.043a.354.354,0,0,1,.071,0Z" fill="#cb955b"/>
      <path id="Path_2014" data-name="Path 2014" d="M33.227,58.49a4.79,4.79,0,0,1-7.014-.2l-.641.657a5.713,5.713,0,0,0,8.268.228Z" fill="#cb955b"/>
      <path id="Path_2015" data-name="Path 2015" d="M29.813,59.434a4.315,4.315,0,0,0,3.09-1.3l-.613-.685a3.405,3.405,0,0,1-5.1-.164l-.636.652A4.313,4.313,0,0,0,29.813,59.434Z" fill="#cb955b"/>
    </g>
    <g id="freepik--Refrigerator--inject-23">
      <path id="Path_2016" data-name="Path 2016" d="M6.941,29.74h30.28a.251.251,0,0,1,.251.251v74.145a.417.417,0,0,1-.417.417H7.107a.417.417,0,0,1-.417-.417V29.991A.251.251,0,0,1,6.941,29.74Z" fill="none" stroke="#263238" stroke-linejoin="round" stroke-width="0.228"/>
      <line id="Line_78" data-name="Line 78" y2="37.029" transform="translate(22.081 67.446)" fill="none" stroke="#263238" stroke-linejoin="round" stroke-width="0.228"/>
      <line id="Line_79" data-name="Line 79" y2="36.464" transform="translate(22.081 29.662)" fill="none" stroke="#263238" stroke-linejoin="round" stroke-width="0.228"/>
      <path id="Path_2017" data-name="Path 2017" d="M8.729,67.424H36.037a.62.62,0,0,0,.62-.62h0a.62.62,0,0,0-.62-.62H8.729a.62.62,0,0,0-.62.62h0A.62.62,0,0,0,8.729,67.424Z" fill="none" stroke="#263238" stroke-linejoin="round" stroke-width="0.228"/>
      <rect id="Rectangle_99" data-name="Rectangle 99" width="8.77" height="17.02" transform="translate(25.477 36.931)" fill="none" stroke="#263238" stroke-linejoin="round" stroke-width="0.228"/>
      <rect id="Rectangle_100" data-name="Rectangle 100" width="7.394" height="9.301" transform="translate(26.166 38.265)" fill="none" stroke="#263238" stroke-linejoin="round" stroke-width="0.228"/>
      <rect id="Rectangle_101" data-name="Rectangle 101" width="1.051" height="1.086" transform="translate(26.223 48.595)" fill="none" stroke="#263238" stroke-linejoin="round" stroke-width="0.228"/>
      <rect id="Rectangle_102" data-name="Rectangle 102" width="1.051" height="1.086" transform="translate(27.803 48.595)" fill="none" stroke="#263238" stroke-linejoin="round" stroke-width="0.228"/>
      <rect id="Rectangle_103" data-name="Rectangle 103" width="1.051" height="1.086" transform="translate(29.382 48.595)" fill="none" stroke="#263238" stroke-linejoin="round" stroke-width="0.228"/>
      <rect id="Rectangle_104" data-name="Rectangle 104" width="1.051" height="1.086" transform="translate(30.96 48.595)" fill="none" stroke="#263238" stroke-linejoin="round" stroke-width="0.228"/>
      <rect id="Rectangle_105" data-name="Rectangle 105" width="1.051" height="1.086" transform="translate(32.538 48.595)" fill="none" stroke="#263238" stroke-linejoin="round" stroke-width="0.228"/>
      <rect id="Rectangle_106" data-name="Rectangle 106" width="1.051" height="1.086" transform="translate(26.223 50.34)" fill="none" stroke="#263238" stroke-linejoin="round" stroke-width="0.228"/>
      <rect id="Rectangle_107" data-name="Rectangle 107" width="1.051" height="1.086" transform="translate(27.803 50.34)" fill="none" stroke="#263238" stroke-linejoin="round" stroke-width="0.228"/>
      <rect id="Rectangle_108" data-name="Rectangle 108" width="1.051" height="1.086" transform="translate(29.382 50.34)" fill="none" stroke="#263238" stroke-linejoin="round" stroke-width="0.228"/>
      <rect id="Rectangle_109" data-name="Rectangle 109" width="1.051" height="1.086" transform="translate(30.96 50.34)" fill="none" stroke="#263238" stroke-linejoin="round" stroke-width="0.228"/>
      <rect id="Rectangle_110" data-name="Rectangle 110" width="1.051" height="1.086" transform="translate(32.538 50.34)" fill="none" stroke="#263238" stroke-linejoin="round" stroke-width="0.228"/>
      <rect id="Rectangle_111" data-name="Rectangle 111" width="7.821" height="11.267" transform="translate(10.015 49.724)" fill="none" stroke="#263238" stroke-linejoin="round" stroke-width="0.228"/>
      <rect id="Rectangle_112" data-name="Rectangle 112" width="4.984" height="11.267" transform="translate(11.434 49.724)" fill="none" stroke="#263238" stroke-linejoin="round" stroke-width="0.228"/>
      <rect id="Rectangle_113" data-name="Rectangle 113" width="4.984" height="3.487" transform="translate(11.434 49.724)" fill="none" stroke="#263238" stroke-linejoin="round" stroke-width="0.228"/>
    </g>
    <g id="freepik--air-conditioner--inject-23">
      <path id="Path_2018" data-name="Path 2018" d="M86.535,22.808H43.849a21.036,21.036,0,0,1-1.1-6.592l-.021-3.752A1.063,1.063,0,0,1,43.792,11.4h42.8a1.061,1.061,0,0,1,1.061,1.067l-.025,3.807a20.952,20.952,0,0,1-1.017,6.311Z" fill="none" stroke="#263238" stroke-linejoin="round" stroke-width="0.228"/>
      <rect id="Rectangle_114" data-name="Rectangle 114" width="37.171" height="1.743" transform="translate(46.606 21.075)" fill="none" stroke="#263238" stroke-linejoin="round" stroke-width="0.228"/>
      <path id="Path_2019" data-name="Path 2019" d="M76.1,26.478a2.76,2.76,0,0,0,2.053-.912l-.614-.684a1.863,1.863,0,0,1-2.965-.13l-.645.659A2.773,2.773,0,0,0,76.1,26.478Z" fill="#cb955b"/>
      <path id="Path_2020" data-name="Path 2020" d="M76.1,25.034a1.332,1.332,0,0,0,1.07-.543l-.657-.725a.42.42,0,0,1-.835-.066.342.342,0,0,1,0-.084l-.739.755A1.334,1.334,0,0,0,76.1,25.034Z" fill="#cb955b"/>
      <path id="Path_2021" data-name="Path 2021" d="M76.05,23.248l-.041.043a.381.381,0,0,1,.071-.011Z" fill="#cb955b"/>
      <path id="Path_2022" data-name="Path 2022" d="M79.519,27.083a4.79,4.79,0,0,1-7.016-.2l-.641.657a5.7,5.7,0,0,0,8.268.228Z" fill="#cb955b"/>
      <path id="Path_2023" data-name="Path 2023" d="M76.1,28.027a4.308,4.308,0,0,0,3.088-1.3l-.614-.684a3.405,3.405,0,0,1-5.1-.162l-.639.652a4.318,4.318,0,0,0,3.264,1.5Z" fill="#cb955b"/>
    </g>
    <g id="freepik--music-box--inject-23">
      <rect id="Rectangle_115" data-name="Rectangle 115" width="22.895" height="2.842" transform="translate(77.049 88.758)" fill="none" stroke="#263238" stroke-linejoin="round" stroke-width="0.228"/>
      <rect id="Rectangle_116" data-name="Rectangle 116" width="42.813" height="12.957" transform="translate(67.088 91.596)" fill="none" stroke="#263238" stroke-linejoin="round" stroke-width="0.228"/>
      <rect id="Rectangle_117" data-name="Rectangle 117" width="40.533" height="11.301" transform="translate(68.229 92.424)" fill="none" stroke="#263238" stroke-linejoin="round" stroke-width="0.228"/>
      <line id="Line_80" data-name="Line 80" y2="11.347" transform="translate(81.763 92.371)" fill="none" stroke="#263238" stroke-linejoin="round" stroke-width="0.228"/>
      <line id="Line_81" data-name="Line 81" y2="11.347" transform="translate(95.042 92.371)" fill="none" stroke="#263238" stroke-linejoin="round" stroke-width="0.228"/>
      <rect id="Rectangle_118" data-name="Rectangle 118" width="5.782" height="8.095" transform="translate(70.158 83.506)" fill="none" stroke="#263238" stroke-linejoin="round" stroke-width="0.228"/>
      <rect id="Rectangle_119" data-name="Rectangle 119" width="5.782" height="8.095" transform="translate(100.945 83.506)" fill="none" stroke="#263238" stroke-linejoin="round" stroke-width="0.228"/>
      <path id="Path_2024" data-name="Path 2024" d="M88.929,85.109a2.766,2.766,0,0,0-2.052.912l.613.685a1.861,1.861,0,0,1,2.965.132l.645-.661a2.776,2.776,0,0,0-2.171-1.067Z" fill="#cb955b"/>
      <path id="Path_2025" data-name="Path 2025" d="M88.929,86.555a1.337,1.337,0,0,0-1.072.541l.657.725a.42.42,0,0,1,.835.066.342.342,0,0,1,0,.084l.739-.755a1.334,1.334,0,0,0-1.159-.661Z" fill="#cb955b"/>
      <path id="Path_2026" data-name="Path 2026" d="M88.982,88.339l.041-.041a.354.354,0,0,1-.071,0Z" fill="#cb955b"/>
      <path id="Path_2027" data-name="Path 2027" d="M85.515,84.5a4.79,4.79,0,0,1,7.014.2l.641-.657a5.713,5.713,0,0,0-8.268-.228Z" fill="#cb955b"/>
      <path id="Path_2028" data-name="Path 2028" d="M88.929,83.56a4.315,4.315,0,0,0-3.09,1.3l.613.685a3.4,3.4,0,0,1,5.1.164l.639-.652a4.318,4.318,0,0,0-3.262-1.5Z" fill="#cb955b"/>
    </g>
    <g id="freepik--Lamps--inject-23">
      <path id="Path_2029" data-name="Path 2029" d="M108.668,16.4a1.323,1.323,0,1,1-1.323-1.323,1.323,1.323,0,0,1,1.323,1.323Z" fill="none" stroke="#263238" stroke-linejoin="round" stroke-width="0.228"/>
      <path id="Path_2030" data-name="Path 2030" d="M110.62,26.188h-6.569V21a3.284,3.284,0,0,1,3.284-3.284h0A3.284,3.284,0,0,1,110.62,21Z" fill="none" stroke="#263238" stroke-linejoin="round" stroke-width="0.228"/>
      <line id="Line_82" data-name="Line 82" y1="6.407" transform="translate(107.345 8.667)" fill="none" stroke="#263238" stroke-linejoin="round" stroke-width="0.456"/>
      <path id="Path_2031" data-name="Path 2031" d="M20.418,16.4A1.323,1.323,0,1,1,19.1,15.074,1.323,1.323,0,0,1,20.418,16.4Z" fill="none" stroke="#263238" stroke-linejoin="round" stroke-width="0.228"/>
      <path id="Path_2032" data-name="Path 2032" d="M22.379,26.188H15.811V21A3.284,3.284,0,0,1,19.1,17.72h0A3.284,3.284,0,0,1,22.379,21Z" fill="none" stroke="#263238" stroke-linejoin="round" stroke-width="0.228"/>
      <line id="Line_83" data-name="Line 83" y1="6.407" transform="translate(19.095 8.667)" fill="none" stroke="#263238" stroke-linejoin="round" stroke-width="0.456"/>
      <path id="Path_2033" data-name="Path 2033" d="M26.875,25.164a2.766,2.766,0,0,0-.912-2.052l-.685.613a1.861,1.861,0,0,1-.13,2.965l.659.643A2.771,2.771,0,0,0,26.875,25.164Z" fill="#cb955b"/>
      <path id="Path_2034" data-name="Path 2034" d="M25.429,25.164a1.337,1.337,0,0,0-.543-1.072l-.725.657a.422.422,0,0,1-.066.837.531.531,0,0,1-.084,0l.757.737A1.332,1.332,0,0,0,25.429,25.164Z" fill="#cb955b"/>
      <path id="Path_2035" data-name="Path 2035" d="M23.643,25.217l.043.041a.242.242,0,0,1,0-.071Z" fill="#cb955b"/>
      <path id="Path_2036" data-name="Path 2036" d="M27.479,21.75a4.79,4.79,0,0,1-.205,7.014l.657.643a5.716,5.716,0,0,0,.228-8.27Z" fill="#cb955b"/>
      <path id="Path_2037" data-name="Path 2037" d="M28.424,25.164a4.315,4.315,0,0,0-1.3-3.09l-.685.613a3.405,3.405,0,0,1-.164,5.1l.652.636a4.313,4.313,0,0,0,1.5-3.262Z" fill="#cb955b"/>
    </g>
    <g id="freepik--TV--inject-23">
      <rect id="Rectangle_120" data-name="Rectangle 120" width="38.145" height="25.577" transform="translate(70.046 38.9)" fill="none" stroke="#263238" stroke-linejoin="round" stroke-width="0.228"/>
      <rect id="Rectangle_121" data-name="Rectangle 121" width="36.074" height="23.417" transform="translate(71.082 39.978)" fill="none" stroke="#263238" stroke-linejoin="round" stroke-width="0.228"/>
      <path id="Path_2038" data-name="Path 2038" d="M88.929,35.387a2.766,2.766,0,0,0-2.052.912l.613.685a1.861,1.861,0,0,1,2.965.132l.645-.661a2.776,2.776,0,0,0-2.171-1.067Z" fill="#cb955b"/>
      <path id="Path_2039" data-name="Path 2039" d="M88.929,36.833a1.337,1.337,0,0,0-1.072.541l.657.725a.42.42,0,0,1,.835.066.342.342,0,0,1,0,.084l.739-.755A1.334,1.334,0,0,0,88.929,36.833Z" fill="#cb955b"/>
      <path id="Path_2040" data-name="Path 2040" d="M88.982,38.617l.041-.041h-.071Z" fill="#cb955b"/>
      <path id="Path_2041" data-name="Path 2041" d="M85.515,34.783a4.79,4.79,0,0,1,7.014.2l.641-.657A5.713,5.713,0,0,0,84.9,34.1Z" fill="#cb955b"/>
      <path id="Path_2042" data-name="Path 2042" d="M88.929,33.838a4.315,4.315,0,0,0-3.09,1.3l.613.685a3.4,3.4,0,0,1,5.1.164l.639-.652a4.318,4.318,0,0,0-3.262-1.5Z" fill="#cb955b"/>
    </g>
  </g>
</svg>
