<svg xmlns="http://www.w3.org/2000/svg" width="119.179" height="121.185" viewBox="0 0 119.179 121.185">
  <g id="Uploading-bro" transform="translate(-17.264 -12.346)">
    <g id="freepik--background-simple--inject-9" transform="translate(17.264 19.521)">
      <path id="Path_2069" data-name="Path 2069" d="M97.676,40.921s-19.651-6.975-38.94,4.139-29.025,33.208-37.383,50.9-3.549,35.687,11.178,43.88,24.74-3.89,45.4-4.478,26.213,2.363,43.367-9.307S141.523,86.834,128,66.441,97.676,40.921,97.676,40.921Z" transform="translate(-17.264 -38.761)" fill="#cb955b"/>
      <path id="Path_2070" data-name="Path 2070" d="M97.676,40.921s-19.651-6.975-38.94,4.139-29.025,33.208-37.383,50.9-3.549,35.687,11.178,43.88,24.74-3.89,45.4-4.478,26.213,2.363,43.367-9.307S141.523,86.834,128,66.441,97.676,40.921,97.676,40.921Z" transform="translate(-17.264 -38.761)" fill="#fff" opacity="0.8"/>
    </g>
    <g id="freepik--Clouds--inject-9" transform="translate(27.159 12.88)">
      <path id="Path_2078" data-name="Path 2078" d="M223.463,33.165a9.664,9.664,0,0,0-14.868-9.815A13.036,13.036,0,0,0,183.5,28.315v.477a8.486,8.486,0,0,0,1.157,16.569v.09H223.05a6.159,6.159,0,0,0,.413-12.286Z" transform="translate(-146.156 -14.658)" fill="none" stroke="#263238" stroke-linecap="round" stroke-linejoin="round" stroke-width="1"/>
      <path id="Path_2079" data-name="Path 2079" d="M74.737,113.08a4.011,4.011,0,0,0,.069-.729,3.967,3.967,0,0,0-6.159-3.3,5.348,5.348,0,0,0-10.29,2.035c0,.067,0,.131,0,.2a3.48,3.48,0,0,0,.475,6.8v.051H74.57a2.522,2.522,0,0,0,.172-5.037Z" transform="translate(-55.826 -81.917)" fill="none" stroke="#263238" stroke-linecap="round" stroke-linejoin="round" stroke-width="1"/>
      <path id="Path_2080" data-name="Path 2080" d="M372.162,17.758a2.547,2.547,0,0,0,.049-.485,2.641,2.641,0,0,0-4.106-2.194,3.557,3.557,0,0,0-6.844,1.355v.131a2.309,2.309,0,0,0,.316,4.519v.038h10.47a1.678,1.678,0,0,0,.113-3.351Z" transform="translate(-281.619 -12.88)" fill="none" stroke="#263238" stroke-linecap="round" stroke-linejoin="round" stroke-width="1"/>
    </g>
    <g id="freepik--Device--inject-9" transform="translate(63.688 53.586)">
      <path id="Path_2081" data-name="Path 2081" d="M239.335,178.419H225.968l-.557,1.026a3.469,3.469,0,0,1-6.066,0l-.557-1.026H205.411a2.548,2.548,0,0,0-2.581,2.515v68.859a2.548,2.548,0,0,0,2.581,2.517h33.924a2.548,2.548,0,0,0,2.581-2.517V180.934a2.548,2.548,0,0,0-2.581-2.515Z" transform="translate(-201.637 -176.646)" fill="#fff"/>
      <rect id="Rectangle_139" data-name="Rectangle 139" width="36.795" height="68.525" transform="translate(2.474 5.93)" fill="#cb955b"/>
      <path id="Path_2082" data-name="Path 2082" d="M263.056,307.235c0,.2.077.313.257.313s.257-.118.257-.313V305.59h.226v1.645c0,.326-.151.544-.485.544s-.48-.218-.48-.544V305.6h.239Z" transform="translate(-246.24 -271.184)" fill="#263238"/>
      <path id="Path_2083" data-name="Path 2083" d="M267.932,305.613c.339,0,.482.2.482.526v.257c0,.341-.159.513-.5.513H267.7v.854h-.241V305.61Zm-.018,1.088c.177,0,.257-.082.257-.287v-.287c0-.2-.072-.3-.257-.3h-.231v.87Z" transform="translate(-249.682 -271.199)" fill="#263238"/>
      <path id="Path_2084" data-name="Path 2084" d="M272,307.763V305.61h.241v1.935h.616v.218Z" transform="translate(-253.057 -271.199)" fill="#263238"/>
      <path id="Path_2085" data-name="Path 2085" d="M275.92,306.071c0-.328.164-.541.493-.541a.474.474,0,0,1,.5.541v1.119c0,.326-.162.541-.5.541s-.493-.216-.493-.541Zm.239,1.127c0,.2.082.313.257.313s.257-.115.257-.313v-1.137c0-.2-.08-.313-.257-.313s-.257.118-.257.313Z" transform="translate(-255.971 -271.139)" fill="#263238"/>
      <path id="Path_2086" data-name="Path 2086" d="M280.715,307.339l-.085.434h-.221l.413-2.153h.346l.418,2.15h-.257l-.082-.434Zm.031-.205h.48l-.244-1.245Z" transform="translate(-259.309 -271.206)" fill="#263238"/>
      <path id="Path_2087" data-name="Path 2087" d="M286.193,305.62c.336,0,.49.2.49.534v1.088c0,.328-.154.531-.49.531h-.513V305.62Zm0,1.935c.172,0,.257-.108.257-.305v-1.106c0-.2-.085-.305-.257-.305h-.257v1.717Z" transform="translate(-263.227 -271.206)" fill="#263238"/>
      <path id="Path_2088" data-name="Path 2088" d="M290.709,305.613v2.15h-.239V305.61Z" transform="translate(-266.788 -271.199)" fill="#263238"/>
      <path id="Path_2089" data-name="Path 2089" d="M292.566,307.763h-.216V305.61h.305l.5,1.558V305.61h.213v2.153h-.257l-.552-1.742Z" transform="translate(-268.185 -271.199)" fill="#263238"/>
      <path id="Path_2090" data-name="Path 2090" d="M298.19,306.079v.185h-.228v-.2c0-.2-.077-.313-.257-.313s-.257.118-.257.313V307.2c0,.2.08.313.257.313s.257-.118.257-.313v-.431h-.221v-.213h.449v.644c0,.326-.154.541-.488.541s-.482-.216-.482-.541v-1.116c0-.326.154-.541.482-.541S298.19,305.753,298.19,306.079Z" transform="translate(-271.805 -271.147)" fill="#263238"/>
      <rect id="Rectangle_140" data-name="Rectangle 140" width="10.993" height="1.848" transform="translate(11.845 37.491)" fill="#fff" stroke="#263238" stroke-linecap="round" stroke-linejoin="round" stroke-width="1"/>
      <rect id="Rectangle_141" data-name="Rectangle 141" width="18.999" height="1.848" transform="translate(11.845 37.491)" fill="none" stroke="#263238" stroke-width="1"/>
      <rect id="Rectangle_142" data-name="Rectangle 142" width="2.697" height="1.478" transform="translate(34.896 2.761)" fill="none" stroke="#263238" stroke-linecap="round" stroke-linejoin="round" stroke-width="0.821"/>
      <rect id="Rectangle_143" data-name="Rectangle 143" width="2.102" height="1.478" transform="translate(34.896 2.761)" fill="#263238" stroke="#263238" stroke-linecap="round" stroke-linejoin="round" stroke-width="0.725"/>
      <rect id="Rectangle_144" data-name="Rectangle 144" width="0.38" height="0.652" transform="translate(37.586 3.174)" fill="#263238" stroke="#263238" stroke-linecap="round" stroke-linejoin="round" stroke-width="0.725"/>
      <rect id="Rectangle_145" data-name="Rectangle 145" width="0.495" height="0.847" transform="translate(3.418 3.22)" fill="#263238" stroke="#263238" stroke-linecap="round" stroke-linejoin="round" stroke-width="0.883"/>
      <rect id="Rectangle_146" data-name="Rectangle 146" width="0.495" height="1.144" transform="translate(4.196 2.923)" fill="#263238" stroke="#263238" stroke-linecap="round" stroke-linejoin="round" stroke-width="0.883"/>
      <rect id="Rectangle_147" data-name="Rectangle 147" width="0.495" height="1.496" transform="translate(4.973 2.571)" fill="#263238" stroke="#263238" stroke-linecap="round" stroke-linejoin="round" stroke-width="0.883"/>
      <line id="Line_90" data-name="Line 90" x2="36.69" transform="translate(2.389 4.745)" fill="none" stroke="#263238" stroke-linecap="round" stroke-linejoin="round" stroke-width="1"/>
      <path id="Path_2091" data-name="Path 2091" d="M240.364,196.948a.275.275,0,0,0,.275-.272v-7.334a.275.275,0,0,0-.275-.272h-.711V175.036a3.526,3.526,0,0,0-3.526-3.526H201.706a3.526,3.526,0,0,0-3.526,3.526V247.4a3.526,3.526,0,0,0,3.526,3.528h34.422a3.526,3.526,0,0,0,3.526-3.526V203.265h.711a.275.275,0,0,0,.275-.275v-3.272a.272.272,0,0,0-.275-.272h-.711v-2.5Zm-1.9,47.709a2.548,2.548,0,0,1-2.581,2.517H201.955a2.548,2.548,0,0,1-2.581-2.517V175.8a2.548,2.548,0,0,1,2.581-2.515h13.372l.557,1.026a3.469,3.469,0,0,0,6.066,0l.557-1.026h13.372a2.548,2.548,0,0,1,2.581,2.515Z" transform="translate(-198.18 -171.51)" fill="#263238" stroke="#263238" stroke-linecap="round" stroke-linejoin="round" stroke-width="1"/>
    </g>
    <g id="freepik--Icons--inject-9" transform="translate(70.019 26.015)">
      <rect id="Rectangle_148" data-name="Rectangle 148" width="10.182" height="10.413" transform="translate(0 79.428) rotate(-8.31)" fill="#263238" stroke="#263238" stroke-linecap="round" stroke-linejoin="round" stroke-width="1"/>
      <path id="Path_2092" data-name="Path 2092" d="M234.408,381.916l-1.984,2.853-1.907-.257a.613.613,0,0,0-.513.177l-2.7,2.692.367,2.5,10.077-1.478-.77-5.3-1.665-1.327a.616.616,0,0,0-.9.131Z" transform="translate(-226.158 -300.151)" fill="#fff" stroke="#263238" stroke-linecap="round" stroke-linejoin="round" stroke-width="1"/>
      <path id="Path_2093" data-name="Path 2093" d="M235.47,379.746a1.314,1.314,0,1,0-1.46-1.114A1.3,1.3,0,0,0,235.47,379.746Z" transform="translate(-231.136 -296.793)" fill="#fff" stroke="#263238" stroke-linecap="round" stroke-linejoin="round" stroke-width="1"/>
      <rect id="Rectangle_149" data-name="Rectangle 149" width="10.182" height="10.413" transform="translate(15.547 1.472) rotate(-8.31)" fill="#263238" stroke="#263238" stroke-linecap="round" stroke-linejoin="round" stroke-width="1"/>
      <path id="Path_2094" data-name="Path 2094" d="M294.993,78.144l-1.984,2.848-1.907-.257a.611.611,0,0,0-.513.174l-2.7,2.689.362,2.525,10.074-1.473-.77-5.3-1.668-1.327a.613.613,0,0,0-.9.118Z" transform="translate(-271.2 -74.337)" fill="#fff" stroke="#263238" stroke-linecap="round" stroke-linejoin="round" stroke-width="1"/>
      <path id="Path_2095" data-name="Path 2095" d="M296.043,75.957a1.314,1.314,0,1,0-1.463-1.114,1.3,1.3,0,0,0,1.463,1.114Z" transform="translate(-276.163 -70.96)" fill="#fff" stroke="#263238" stroke-linecap="round" stroke-linejoin="round" stroke-width="1"/>
      <rect id="Rectangle_150" data-name="Rectangle 150" width="10.154" height="10.385" transform="translate(18.04 32.924) rotate(21.161)" fill="#263238" stroke="#263238" stroke-linecap="round" stroke-linejoin="round" stroke-width="0.997"/>
      <path id="Path_2096" data-name="Path 2096" d="M288.5,216.944l-3.133,1.506-1.54-1.162a.616.616,0,0,0-.536-.1l-3.664,1.008-.916,2.358,9.495,3.685,1.937-4.991-.793-1.976a.618.618,0,0,0-.849-.326Z" transform="translate(-264.376 -177.666)" fill="#fff" stroke="#263238" stroke-linecap="round" stroke-linejoin="round" stroke-width="1"/>
      <path id="Path_2097" data-name="Path 2097" d="M298.939,206.319a1.314,1.314,0,1,0-.721-1.688A1.3,1.3,0,0,0,298.939,206.319Z" transform="translate(-278.808 -167.937)" fill="#fff" stroke="#263238" stroke-linecap="round" stroke-linejoin="round" stroke-width="1"/>
    </g>
    <g id="freepik--Arrows--inject-9" transform="translate(51.872 39.555)">
      <g id="Group_137" data-name="Group 137" transform="translate(0 28.527)" opacity="0.2">
        <path id="Path_2101" data-name="Path 2101" d="M401.333,233.332,397.1,228l-4.237,5.332h1.658v8.027h5.158v-8.027Z" transform="translate(-331.086 -228)" fill="none" stroke="#000" stroke-linecap="round" stroke-linejoin="round" stroke-width="1"/>
        <path id="Path_2102" data-name="Path 2102" d="M279.5,335.8l-4.234-5.332L271.03,335.8h1.658v8.029h5.158V335.8Z" transform="translate(-240.519 -304.175)" fill="none" stroke="#000" stroke-linecap="round" stroke-linejoin="round" stroke-width="1"/>
        <path id="Path_2103" data-name="Path 2103" d="M325.7,266.262l-4.237-5.332-4.234,5.332h1.655v8.027h5.158v-8.027Z" transform="translate(-274.864 -252.48)" fill="none" stroke="#000" stroke-linecap="round" stroke-linejoin="round" stroke-width="1"/>
        <path id="Path_2104" data-name="Path 2104" d="M160.6,233.862l-4.237-5.332-4.234,5.332h1.658v8.027h5.158v-8.027Z" transform="translate(-152.13 -228.394)" fill="none" stroke="#000" stroke-linecap="round" stroke-linejoin="round" stroke-width="1"/>
      </g>
      <g id="Group_138" data-name="Group 138" transform="translate(0.277)" opacity="0.2">
        <path id="Path_2105" data-name="Path 2105" d="M161.683,122.162l-4.237-5.332-4.237,5.332h1.658v8.027h5.158v-8.027Z" transform="translate(-153.21 -116.83)" fill="none" stroke="#000" stroke-linecap="round" stroke-linejoin="round" stroke-width="1"/>
        <path id="Path_2106" data-name="Path 2106" d="M388.671,143.342l-4.237-5.332-4.234,5.332h1.655v8.027h5.16v-8.027Z" transform="translate(-321.952 -132.575)" fill="none" stroke="#000" stroke-linecap="round" stroke-linejoin="round" stroke-width="1"/>
        <path id="Path_2107" data-name="Path 2107" d="M235.681,198.212l-4.237-5.332-4.234,5.332h1.655v8.029h5.158v-8.029Z" transform="translate(-208.221 -173.365)" fill="none" stroke="#000" stroke-linecap="round" stroke-linejoin="round" stroke-width="1"/>
      </g>
    </g>
    <g id="freepik--Character--inject-9" transform="translate(25.775 67.364)">
      <path id="Path_2108" data-name="Path 2108" d="M52.224,444.58c-.139.046-1.391,4.539-1.714,5.132s.513,1.111.926,1.437a10.031,10.031,0,0,0,2.966,2.225c1.345.464,3.2.369,2.964-.046s-1.991-1.3-2.41-1.855a13.75,13.75,0,0,1-.973-2.871l1.668-3.244Z" transform="translate(-50.436 -388.285)" fill="#fff" stroke="#263238" stroke-linecap="round" stroke-linejoin="round" stroke-width="1"/>
      <path id="Path_2109" data-name="Path 2109" d="M59.78,445.361l-.1-.041-3.323-.77A5.156,5.156,0,0,0,56,445.556a13.117,13.117,0,0,0,2.969,1.391Z" transform="translate(-54.572 -388.263)" fill="#263238" stroke="#263238" stroke-linecap="round" stroke-linejoin="round" stroke-width="1"/>
      <path id="Path_2110" data-name="Path 2110" d="M54.954,462.656a10.689,10.689,0,0,1-.87-2.466,3.5,3.5,0,0,0-.752.475,2.823,2.823,0,0,0-.554.649l-1.812-1.7a11.392,11.392,0,0,1-.459,1.283c-.326.6.513,1.111.926,1.437a10.03,10.03,0,0,0,2.966,2.225c1.345.464,3.2.37,2.964-.046S55.372,463.213,54.954,462.656Z" transform="translate(-50.434 -399.458)" fill="#cb955b" stroke="#263238" stroke-linecap="round" stroke-linejoin="round" stroke-width="1"/>
      <path id="Path_2111" data-name="Path 2111" d="M127.82,445.37s2.5,7.185,2.689,7.6a1.07,1.07,0,0,0,1.2.416,19.472,19.472,0,0,1,3.569-1.157,3.145,3.145,0,0,0,2.456-1.714c.046-.37-3.29.277-4.265,0a3.349,3.349,0,0,1-1.9-1.483c-.1-.323-.416-5.132-.416-5.132Z" transform="translate(-107.962 -387.78)" fill="#fff" stroke="#263238" stroke-linecap="round" stroke-linejoin="round" stroke-width="1"/>
      <path id="Path_2112" data-name="Path 2112" d="M131.166,443.85l-3.336,1.483.311.885a10.375,10.375,0,0,0,3.126-.944C131.21,444.468,131.166,443.85,131.166,443.85Z" transform="translate(-107.969 -387.743)" fill="#263238" stroke="#263238" stroke-linecap="round" stroke-linejoin="round" stroke-width="1"/>
      <path id="Path_2113" data-name="Path 2113" d="M141.958,469.1a3.15,3.15,0,0,0,2.456-1.714c.046-.37-3.29.277-4.265,0a3.592,3.592,0,0,1-1.352-.79,2.217,2.217,0,0,0-.036.28,2.9,2.9,0,0,0,.046.926s-1.265.649-2.007.993c.2.565.344.957.385,1.047a1.069,1.069,0,0,0,1.2.416A19.47,19.47,0,0,1,141.958,469.1Z" transform="translate(-114.638 -404.655)" fill="#cb955b" stroke="#263238" stroke-linecap="round" stroke-linejoin="round" stroke-width="1"/>
      <path id="Path_2114" data-name="Path 2114" d="M110.917,278.833s1.073-.334,2.635,1.522,4.876,11.334,4.876,11.334a2.349,2.349,0,0,1-2.443,1.565c-1.76-.292-4.74-9.913-4.74-9.913S110.14,278.176,110.917,278.833Z" transform="translate(-95.191 -265.027)" fill="#fff" stroke="#263238" stroke-linecap="round" stroke-linejoin="round" stroke-width="1"/>
      <path id="Path_2115" data-name="Path 2115" d="M65.585,264.5s.749,2.12.4,3.079-2.692.529-3.849,1.943,1.455,11.427,1.455,11.427-2.735,5.294-3.31,8.738-.926,14.252-1.026,14.737-1.455,5.825-1.191,5.779,2.381,1.147,3.043,1.368.97.354.97.354a74.612,74.612,0,0,0,4.811-8.119,63.179,63.179,0,0,0,2.294-8.56L75.313,311.4l4.06-1.147-.706-14.3a39.618,39.618,0,0,0-1.809-9,38.52,38.52,0,0,0-3.4-6.574s1.191-4.326.837-6.356-2.515-5.822-2.515-5.822a3.153,3.153,0,0,1-1.54-.441,13.814,13.814,0,0,1-1.237-3.046Z" transform="translate(-56.078 -254.415)" fill="#263238" stroke="#263238" stroke-linecap="round" stroke-linejoin="round" stroke-width="1"/>
      <path id="Path_2116" data-name="Path 2116" d="M90.386,271.527l-1.255-3.061c-.1-.19-.167-.3-.167-.3a3.153,3.153,0,0,1-1.54-.441,13.814,13.814,0,0,1-1.237-3.046l-3.441-.221s.749,2.12.4,3.079c-.208.57-1.1.654-2.035.914a3.474,3.474,0,0,1,1.427,1.73,11.5,11.5,0,0,0,1.555,3.038Z" transform="translate(-73.238 -254.386)" fill="#fff" stroke="#263238" stroke-linecap="round" stroke-linejoin="round" stroke-width="1"/>
      <path id="Path_2117" data-name="Path 2117" d="M91.142,265.416c-.133-.4-.221-.7-.221-.7L87.48,264.5a7.95,7.95,0,0,1,.47,2.764A7.292,7.292,0,0,0,91.142,265.416Z" transform="translate(-77.974 -254.415)" fill="#263238" stroke="#263238" stroke-linecap="round" stroke-linejoin="round" stroke-width="1"/>
      <line id="Line_91" data-name="Line 91" y1="5.584" x2="1.268" transform="translate(13.125 35.255)" fill="none" stroke="#858585" stroke-linecap="round" stroke-linejoin="round" stroke-width="1"/>
      <path id="Path_2118" data-name="Path 2118" d="M56.6,439.318l-.139,1.026a6.706,6.706,0,0,0,2.191,1.429,18.411,18.411,0,0,0,2.053.7l1.026-1.345a18.881,18.881,0,0,1-2.8-1.1C57.166,439.192,56.7,439,56.7,439Z" transform="translate(-54.914 -384.137)" fill="#fff" stroke="#263238" stroke-linecap="round" stroke-linejoin="round" stroke-width="1"/>
      <path id="Path_2119" data-name="Path 2119" d="M122.59,440.473l.513,1.345a18.977,18.977,0,0,0,3.616-.834c.973-.462,1.54-.7,1.54-.7l-.185-1.668Z" transform="translate(-104.074 -383.855)" fill="#fff" stroke="#263238" stroke-linecap="round" stroke-linejoin="round" stroke-width="1"/>
      <path id="Path_2120" data-name="Path 2120" d="M85.4,284.282c-.352-2.03-2.515-5.823-2.515-5.823a4.586,4.586,0,0,1-1-.169c0,.028.023.051.033.08.221.531,1.06,2.869,1.06,2.869l-4.986.529a15.591,15.591,0,0,1-.8-1.676,3.739,3.739,0,0,0-1.36-1.54,4.485,4.485,0,0,0-2.61,1.234c-1.127,1.383,1.355,11.034,1.452,11.414,8.009.174,9.887-.559,9.887-.559S85.752,286.312,85.4,284.282Z" transform="translate(-67.157 -264.667)" fill="#cb955b" stroke="#263238" stroke-linecap="round" stroke-linejoin="round" stroke-width="1"/>
      <path id="Path_2122" data-name="Path 2122" d="M72.2,283.869s-.485-1.809-1.94-1.678-2.428,1.588-2.163,3.752,1.853,10.59,2.163,11.252,12.574,1.9,12.574,1.9a9.962,9.962,0,0,0,1.853.529,9.964,9.964,0,0,0,2.913-.352c.221-.264.485-.441.31-.575s-1.414.046-1.722-.087a10.687,10.687,0,0,1-1.147-.749,5.678,5.678,0,0,0,1.283-.221c.18-.131.749-.618.308-.618s-1.1.133-1.676.133a7.994,7.994,0,0,0-1.8.439,46.862,46.862,0,0,1-4.693-1.6c-1.853-.793-4.324-1.9-4.324-1.9Z" transform="translate(-63.53 -267.561)" fill="#fff" stroke="#263238" stroke-linecap="round" stroke-linejoin="round" stroke-width="1"/>
      <path id="Path_2123" data-name="Path 2123" d="M72.853,229.817s1.026-.488.708-2.692-4.5-2.3-6.89-1.368-4.28,1.9-3.849,4.675a5.108,5.108,0,0,0,2.972,3.8,1.305,1.305,0,0,1,.364,1.5c-.257.488-.618.4-.618.4s-.044.488,1.191.618a2.245,2.245,0,0,0,2.33-1.586c.174-.749-.31-1.94.4-2.913s1.5-1.986,1.458-2.646-.09-.929-.09-.929Z" transform="translate(-59.597 -225.2)" fill="#263238" stroke="#263238" stroke-linecap="round" stroke-linejoin="round" stroke-width="1"/>
      <path id="Path_2124" data-name="Path 2124" d="M81.856,236.73a6.069,6.069,0,0,1-1.283,3.7c-1.36,1.663-2.053,1.814-2.053,1.814s-.377,1.586,2.794,2.72,3.929-.831,4.08-2.268-.226-3.929-.906-4.683A7.181,7.181,0,0,0,81.856,236.73Z" transform="translate(-71.302 -233.771)" fill="#fff" stroke="#263238" stroke-linecap="round" stroke-linejoin="round" stroke-width="1"/>
      <path id="Path_2125" data-name="Path 2125" d="M75.731,256.094s-1.283-2.114-1.963-.831.151,2.117,1.057,2.117a3.927,3.927,0,0,0,1.434-.228" transform="translate(-67.595 -247.241)" fill="#fff" stroke="#263238" stroke-linecap="round" stroke-linejoin="round" stroke-width="1"/>
      <path id="Path_2126" data-name="Path 2126" d="M96.42,245.25s.354.793.839.793.97-.308.749.257a1.343,1.343,0,0,1-.485.706" transform="translate(-84.619 -240.105)" fill="none" stroke="#263238" stroke-linecap="round" stroke-linejoin="round" stroke-width="1"/>
      <path id="Path_2127" data-name="Path 2127" d="M91.78,255.188a2.448,2.448,0,0,0,2.25-.308" transform="translate(-81.17 -247.264)" fill="none" stroke="#263238" stroke-linecap="round" stroke-linejoin="round" stroke-width="1"/>
      <path id="Path_2128" data-name="Path 2128" d="M91.422,246.507c.118.293.1.577-.033.631s-.341-.141-.459-.436-.1-.575.033-.629S91.3,246.212,91.422,246.507Z" transform="translate(-80.479 -240.711)" fill="#263238"/>
      <path id="Path_2129" data-name="Path 2129" d="M98.35,243.967c.118.293.1.577-.033.631s-.341-.141-.457-.436-.105-.575.031-.629S98.239,243.672,98.35,243.967Z" transform="translate(-85.631 -238.823)" fill="#263238"/>
      <path id="Path_2130" data-name="Path 2130" d="M153.781,306.733a1.026,1.026,0,0,0-.711-.162c-.328.036-.77.121-.77.287,0,.257,1.219.531,1.591.257C154.065,306.992,153.947,306.846,153.781,306.733Z" transform="translate(-126.16 -285.683)" fill="#fff" stroke="#263238" stroke-linecap="round" stroke-linejoin="round" stroke-width="1"/>
      <path id="Path_2131" data-name="Path 2131" d="M154.481,309.369a1.049,1.049,0,0,0-.711-.164c-.328.038-.77.121-.77.29,0,.257,1.219.529,1.591.257C154.765,309.626,154.645,309.48,154.481,309.369Z" transform="translate(-126.68 -287.642)" fill="#fff" stroke="#263238" stroke-linecap="round" stroke-linejoin="round" stroke-width="1"/>
      <path id="Path_2132" data-name="Path 2132" d="M154.281,312.159a1.049,1.049,0,0,0-.711-.164c-.328.038-.77.121-.77.29,0,.257,1.219.531,1.591.257C154.565,312.419,154.447,312.272,154.281,312.159Z" transform="translate(-126.532 -289.716)" fill="#fff" stroke="#263238" stroke-linecap="round" stroke-linejoin="round" stroke-width="1"/>
      <path id="Path_2133" data-name="Path 2133" d="M153.569,314.755a.793.793,0,0,0-.534-.123c-.257.028-.585.092-.585.218,0,.2.916.4,1.193.2C153.784,314.95,153.695,314.84,153.569,314.755Z" transform="translate(-126.272 -291.678)" fill="#fff" stroke="#263238" stroke-linecap="round" stroke-linejoin="round" stroke-width="1"/>
    </g>
    <g id="freepik--Floor--inject-9" transform="translate(18.736 133.004)">
      <line id="Line_92" data-name="Line 92" x2="116.501" fill="none" stroke="#263238" stroke-linecap="round" stroke-linejoin="round" stroke-width="1"/>
    </g>
    <g id="Group_139" data-name="Group 139" transform="matrix(0.891, -0.454, 0.454, 0.891, 38.566, 88.876)">
      <rect id="Rectangle_155" data-name="Rectangle 155" width="10.154" height="10.385" transform="translate(3.749 0) rotate(21.161)" fill="#263238" stroke="#263238" stroke-linecap="round" stroke-linejoin="round" stroke-width="0.997"/>
      <path id="Path_2134" data-name="Path 2134" d="M9.79.064,6.656,1.571,5.117.408a.616.616,0,0,0-.536-.1L.916,1.314,0,3.672,9.495,7.357l1.937-4.991L10.639.39A.618.618,0,0,0,9.79.064Z" transform="translate(0.043 6.289)" fill="#fff" stroke="#263238" stroke-linecap="round" stroke-linejoin="round" stroke-width="1"/>
      <path id="Path_2135" data-name="Path 2135" d="M.815,2.527A1.314,1.314,0,1,0,.094.839,1.3,1.3,0,0,0,.815,2.527Z" transform="translate(5.025 2.931)" fill="#fff" stroke="#263238" stroke-linecap="round" stroke-linejoin="round" stroke-width="1"/>
    </g>
  </g>
</svg>
