<svg xmlns="http://www.w3.org/2000/svg" width="163.017" height="96" viewBox="0 0 163.017 96">
  <g id="World_Hepatitis_Day-bro" data-name="World Hepatitis Day-bro" transform="translate(-2.877 -5.396)">
    <g id="freepik--background-simple--inject-101">
      <path id="Path_1057" data-name="Path 1057" d="M163.535,64.715A60.4,60.4,0,0,0,146.264,38.34C135.028,28.318,114.47,11.877,95.534,6.91,67.677-.394,43.327,20.47,33.422,32.374S5.358,57.42,3.5,68.9s.2,27.967,9.079,32.142H152.288S172.679,92.936,163.535,64.715Z" fill="#cb955b"/>
      <path id="Path_1058" data-name="Path 1058" d="M163.535,64.715A60.4,60.4,0,0,0,146.264,38.34C135.028,28.318,114.47,11.877,95.534,6.91,67.677-.394,43.327,20.47,33.422,32.374S5.358,57.42,3.5,68.9s.2,27.967,9.079,32.142H152.288S172.679,92.936,163.535,64.715Z" fill="#fff" opacity="0.7"/>
    </g>
    <g id="freepik--Graphics--inject-101">
      <path id="Path_1059" data-name="Path 1059" d="M127.9,89.645H124.98v-2.92h-3.462v2.92H118.6v3.464h2.922v2.922h3.462V93.109H127.9Z" fill="none" stroke="#000" stroke-width="0.225" opacity="0.3"/>
      <path id="Path_1060" data-name="Path 1060" d="M53.809,18.808H48.174V13.173H41.5v5.635H35.859v6.679H41.5v5.635h6.679V25.486h5.635Z" fill="none" stroke="#000" stroke-width="0.225" opacity="0.3"/>
      <path id="Path_1061" data-name="Path 1061" d="M33.9,12.424H30.975V9.5H27.511v2.922H24.589v3.462h2.922v2.922h3.464V15.886H33.9Z" fill="none" stroke="#000" stroke-width="0.225" opacity="0.3"/>
      <path id="Path_1062" data-name="Path 1062" d="M107.641,25.437h-2.135V23.3h-2.533v2.135h-2.135v2.531h2.135V30.1h2.533V27.967h2.135Z" fill="none" stroke="#000" stroke-width="0.225" opacity="0.3"/>
      <path id="Path_1063" data-name="Path 1063" d="M161.922,55.458h-2v-2H157.54v2h-2v2.378h2v2h2.378v-2h2Z" fill="none" stroke="#000" stroke-width="0.225" opacity="0.3"/>
    </g>
    <g id="freepik--Desk--inject-101">
      <rect id="Rectangle_43" data-name="Rectangle 43" width="2.445" height="2.956" transform="translate(123.542 73.395)" fill="#263238" stroke="#263238" stroke-width="0.225"/>
      <rect id="Rectangle_44" data-name="Rectangle 44" width="10.395" height="7.745" transform="translate(119.466 65.774)" fill="#fff" stroke="#263238" stroke-width="0.225"/>
      <rect id="Rectangle_45" data-name="Rectangle 45" width="8.993" height="6.701" transform="translate(120.168 66.296)" fill="#263238" stroke="#263238" stroke-width="0.225"/>
      <rect id="Rectangle_46" data-name="Rectangle 46" width="0.886" height="24.371" transform="translate(114.268 76.913)" fill="#263238" stroke="#263238" stroke-width="0.225"/>
      <rect id="Rectangle_47" data-name="Rectangle 47" width="0.886" height="24.371" transform="translate(143.853 76.913)" fill="#263238" stroke="#263238" stroke-width="0.225"/>
      <path id="Path_1064" data-name="Path 1064" d="M132.691,76.913H114.27V81.8h18.421V95.541h12.048V76.913Z" fill="#fff" stroke="#263238" stroke-width="0.225"/>
      <rect id="Rectangle_48" data-name="Rectangle 48" width="32.316" height="0.682" transform="translate(113.26 76.382)" fill="#fff" stroke="#263238" stroke-width="0.225"/>
      <rect id="Rectangle_49" data-name="Rectangle 49" width="10.293" height="4.659" transform="translate(133.53 77.932)" fill="#fff" stroke="#263238" stroke-width="0.225"/>
      <rect id="Rectangle_50" data-name="Rectangle 50" width="10.293" height="2.821" transform="translate(118.141 77.932)" fill="#fff" stroke="#263238" stroke-width="0.225"/>
      <rect id="Rectangle_51" data-name="Rectangle 51" width="10.293" height="4.659" transform="translate(133.53 84.01)" fill="#fff" stroke="#263238" stroke-width="0.225"/>
      <rect id="Rectangle_52" data-name="Rectangle 52" width="10.293" height="4.659" transform="translate(133.53 90.086)" fill="#fff" stroke="#263238" stroke-width="0.225"/>
    </g>
    <g id="freepik--Calendar--inject-101">
      <rect id="Rectangle_53" data-name="Rectangle 53" width="46.408" height="39.395" transform="translate(113.816 9.643)" fill="#fff" stroke="#263238" stroke-width="0.225"/>
      <rect id="Rectangle_54" data-name="Rectangle 54" width="46.408" height="5.81" transform="translate(113.816 9.643)" fill="#cb955b" stroke="#263238" stroke-width="0.225"/>
      <rect id="Rectangle_55" data-name="Rectangle 55" width="4.317" height="4.317" transform="translate(116.065 18.277)" fill="#fff" stroke="#263238" stroke-width="0.225"/>
      <rect id="Rectangle_56" data-name="Rectangle 56" width="4.317" height="4.317" transform="translate(122.271 18.277)" fill="#fff" stroke="#263238" stroke-width="0.225"/>
      <rect id="Rectangle_57" data-name="Rectangle 57" width="4.317" height="4.317" transform="translate(128.475 18.277)" fill="#fff" stroke="#263238" stroke-width="0.225"/>
      <rect id="Rectangle_58" data-name="Rectangle 58" width="4.317" height="4.317" transform="translate(134.681 18.277)" fill="#fff" stroke="#263238" stroke-width="0.225"/>
      <rect id="Rectangle_59" data-name="Rectangle 59" width="4.317" height="4.317" transform="translate(140.888 18.277)" fill="#fff" stroke="#263238" stroke-width="0.225"/>
      <rect id="Rectangle_60" data-name="Rectangle 60" width="4.317" height="4.317" transform="translate(147.094 18.277)" fill="#fff" stroke="#263238" stroke-width="0.225"/>
      <rect id="Rectangle_61" data-name="Rectangle 61" width="4.317" height="4.317" transform="translate(153.3 18.277)" fill="#fff" stroke="#263238" stroke-width="0.225"/>
      <rect id="Rectangle_62" data-name="Rectangle 62" width="4.317" height="4.317" transform="translate(116.065 24.933)" fill="#fff" stroke="#263238" stroke-width="0.225"/>
      <rect id="Rectangle_63" data-name="Rectangle 63" width="4.317" height="4.317" transform="translate(122.271 24.933)" fill="#fff" stroke="#263238" stroke-width="0.225"/>
      <rect id="Rectangle_64" data-name="Rectangle 64" width="4.317" height="4.317" transform="translate(128.475 24.933)" fill="#fff" stroke="#263238" stroke-width="0.225"/>
      <rect id="Rectangle_65" data-name="Rectangle 65" width="4.317" height="4.317" transform="translate(134.681 24.933)" fill="#fff" stroke="#263238" stroke-width="0.225"/>
      <rect id="Rectangle_66" data-name="Rectangle 66" width="4.317" height="4.317" transform="translate(140.888 24.933)" fill="#fff" stroke="#263238" stroke-width="0.225"/>
      <rect id="Rectangle_67" data-name="Rectangle 67" width="4.317" height="4.317" transform="translate(147.094 24.933)" fill="#fff" stroke="#263238" stroke-width="0.225"/>
      <rect id="Rectangle_68" data-name="Rectangle 68" width="4.317" height="4.317" transform="translate(153.3 24.933)" fill="#fff" stroke="#263238" stroke-width="0.225"/>
      <rect id="Rectangle_69" data-name="Rectangle 69" width="4.317" height="4.317" transform="translate(116.065 31.589)" fill="#fff" stroke="#263238" stroke-width="0.225"/>
      <rect id="Rectangle_70" data-name="Rectangle 70" width="4.317" height="4.317" transform="translate(122.271 31.589)" fill="#fff" stroke="#263238" stroke-width="0.225"/>
      <rect id="Rectangle_71" data-name="Rectangle 71" width="4.317" height="4.317" transform="translate(128.475 31.589)" fill="#fff" stroke="#263238" stroke-width="0.225"/>
      <rect id="Rectangle_72" data-name="Rectangle 72" width="4.317" height="4.317" transform="translate(134.681 31.589)" fill="#fff" stroke="#263238" stroke-width="0.225"/>
      <rect id="Rectangle_73" data-name="Rectangle 73" width="4.317" height="4.317" transform="translate(140.888 31.589)" fill="#fff" stroke="#263238" stroke-width="0.225"/>
      <rect id="Rectangle_74" data-name="Rectangle 74" width="4.317" height="4.317" transform="translate(147.094 31.589)" fill="#fff" stroke="#263238" stroke-width="0.225"/>
      <rect id="Rectangle_75" data-name="Rectangle 75" width="4.317" height="4.317" transform="translate(153.3 31.589)" fill="#fff" stroke="#263238" stroke-width="0.225"/>
      <rect id="Rectangle_76" data-name="Rectangle 76" width="4.317" height="4.317" transform="translate(116.065 38.243)" fill="#fff" stroke="#263238" stroke-width="0.225"/>
      <rect id="Rectangle_77" data-name="Rectangle 77" width="4.317" height="4.317" transform="translate(122.271 38.243)" fill="#fff" stroke="#263238" stroke-width="0.225"/>
      <rect id="Rectangle_78" data-name="Rectangle 78" width="4.317" height="4.317" transform="translate(128.475 38.243)" fill="#fff" stroke="#263238" stroke-width="0.225"/>
      <rect id="Rectangle_79" data-name="Rectangle 79" width="4.317" height="4.317" transform="translate(134.681 38.243)" fill="#fff" stroke="#263238" stroke-width="0.225"/>
      <rect id="Rectangle_80" data-name="Rectangle 80" width="4.317" height="4.317" transform="translate(140.888 38.243)" fill="#fff" stroke="#263238" stroke-width="0.225"/>
      <rect id="Rectangle_81" data-name="Rectangle 81" width="4.317" height="4.317" transform="translate(147.094 38.243)" fill="#fff" stroke="#263238" stroke-width="0.225"/>
      <rect id="Rectangle_82" data-name="Rectangle 82" width="4.317" height="4.317" transform="translate(153.3 38.243)" fill="#fff" stroke="#263238" stroke-width="0.225"/>
      <path id="Path_1065" data-name="Path 1065" d="M119.932,11.8h0a.9.9,0,0,1-.9-.9V6.944a.9.9,0,0,1,.9-.9h0a.9.9,0,0,1,.9.9V10.9A.9.9,0,0,1,119.932,11.8Z" fill="#263238" stroke="#263238" stroke-width="0.225"/>
      <path id="Path_1066" data-name="Path 1066" d="M126.768,11.8h0a.9.9,0,0,1-.9-.9V6.944a.9.9,0,0,1,.9-.9h0a.9.9,0,0,1,.9.9V10.9A.9.9,0,0,1,126.768,11.8Z" fill="#263238" stroke="#263238" stroke-width="0.225"/>
      <path id="Path_1067" data-name="Path 1067" d="M133.6,11.8h0a.9.9,0,0,1-.9-.9V6.944a.9.9,0,0,1,.9-.9h0a.9.9,0,0,1,.9.9V10.9A.9.9,0,0,1,133.6,11.8Z" fill="#263238" stroke="#263238" stroke-width="0.225"/>
      <path id="Path_1068" data-name="Path 1068" d="M140.438,11.8h0a.9.9,0,0,1-.9-.9V6.944a.9.9,0,0,1,.9-.9h0a.9.9,0,0,1,.9.9V10.9A.9.9,0,0,1,140.438,11.8Z" fill="#263238" stroke="#263238" stroke-width="0.225"/>
      <path id="Path_1069" data-name="Path 1069" d="M147.274,11.8h0a.9.9,0,0,1-.9-.9V6.944a.9.9,0,0,1,.9-.9h0a.9.9,0,0,1,.9.9V10.9A.9.9,0,0,1,147.274,11.8Z" fill="#263238" stroke="#263238" stroke-width="0.225"/>
      <path id="Path_1070" data-name="Path 1070" d="M154.108,11.8h0a.9.9,0,0,1-.9-.9V6.944a.9.9,0,0,1,.9-.9h0a.9.9,0,0,1,.9.9V10.9A.9.9,0,0,1,154.108,11.8Z" fill="#263238" stroke="#263238" stroke-width="0.225"/>
    </g>
    <g id="freepik--Microscope--inject-101">
      <path id="Path_1071" data-name="Path 1071" d="M25.1,43.639s-1.165-1.035-2.8,6.987-.819,20.47,2.618,25.869,10.8,9.331,10.8,9.331l5.075-6.548s-9.97-3.289-12.444-12.948-.983-15.715.819-16.043S33.6,54.515,33.6,54.515L26.139,40.15Z" fill="#fff" stroke="#263238" stroke-width="0.225"/>
      <path id="Path_1072" data-name="Path 1072" d="M26.544,50.451a1.473,1.473,0,1,0-1.473,1.473,1.473,1.473,0,0,0,1.473-1.473Z" fill="#263238" stroke="#263238" stroke-width="0.225"/>
      <path id="Path_1073" data-name="Path 1073" d="M26,50.451a.927.927,0,1,0-.925.925A.927.927,0,0,0,26,50.451Z" fill="#fff" stroke="#263238" stroke-width="0.225"/>
      <path id="Path_1074" data-name="Path 1074" d="M29.976,31.355l-6.2,3.325.623,2.654,7.446-3.993Z" fill="#fff" stroke="#263238" stroke-width="0.225"/>
      <rect id="Rectangle_83" data-name="Rectangle 83" width="7.039" height="20.625" transform="matrix(0.881, -0.473, 0.473, 0.881, 14.026, 16.502)" fill="#263238" stroke="#263238" stroke-width="0.225"/>
      <rect id="Rectangle_84" data-name="Rectangle 84" width="7.039" height="1.3" transform="matrix(0.881, -0.473, 0.473, 0.881, 14.024, 16.5)" fill="#fff" stroke="#263238" stroke-width="0.225"/>
      <rect id="Rectangle_85" data-name="Rectangle 85" width="8.397" height="23.558" transform="matrix(0.881, -0.473, 0.473, 0.881, 24.396, 37.332)" fill="#fff" stroke="#263238" stroke-width="0.225"/>
      <rect id="Rectangle_86" data-name="Rectangle 86" width="8.397" height="4.065" transform="matrix(0.881, -0.473, 0.473, 0.881, 33.606, 54.511)" fill="#263238" stroke="#263238" stroke-width="0.225"/>
      <rect id="Rectangle_87" data-name="Rectangle 87" width="2.618" height="7.203" transform="matrix(0.881, -0.473, 0.473, 0.881, 43.701, 55.567)" fill="#fff" stroke="#263238" stroke-width="0.225"/>
      <rect id="Rectangle_88" data-name="Rectangle 88" width="2.618" height="7.203" transform="translate(40.124 56.462) rotate(-17.08)" fill="#fff" stroke="#263238" stroke-width="0.225"/>
      <rect id="Rectangle_89" data-name="Rectangle 89" width="2.618" height="7.203" transform="translate(53.83 57.136) rotate(140.68)" fill="#fff" stroke="#263238" stroke-width="0.225"/>
      <rect id="Rectangle_90" data-name="Rectangle 90" width="13.096" height="2.292" transform="matrix(0.881, -0.473, 0.473, 0.881, 38.457, 56.523)" fill="#fff" stroke="#263238" stroke-width="0.225"/>
      <rect id="Rectangle_91" data-name="Rectangle 91" width="20.87" height="1.649" transform="matrix(0.881, -0.473, 0.473, 0.881, 38.778, 73.875)" fill="#263238" stroke="#263238" stroke-width="0.225"/>
      <path id="Path_1075" data-name="Path 1075" d="M62.353,78.416,49.1,84.168,47.736,80.58l13.254-5.752Z" fill="#263238" stroke="#263238" stroke-width="0.225"/>
      <rect id="Rectangle_92" data-name="Rectangle 92" width="4.584" height="2.618" transform="matrix(0.881, -0.473, 0.473, 0.881, 40.595, 75.058)" fill="#fff" stroke="#263238" stroke-width="0.225"/>
      <circle id="Ellipse_41" data-name="Ellipse 41" cx="4.42" cy="4.42" r="4.42" transform="translate(21.138 41.83) rotate(-39.6)" fill="#263238" stroke="#263238" stroke-width="0.225"/>
      <circle id="Ellipse_42" data-name="Ellipse 42" cx="2.569" cy="2.569" r="2.569" transform="matrix(0.31, -0.951, 0.951, 0.31, 24.124, 44.063)" fill="#fff" stroke="#263238" stroke-width="0.225"/>
      <path id="Path_1076" data-name="Path 1076" d="M44.613,82.42l7.1-3.079a1.307,1.307,0,0,1,1.734.713h0a1.307,1.307,0,0,1-.621,1.651l-7.581,3.86Z" fill="#fff" stroke="#263238" stroke-width="0.225"/>
      <path id="Path_1077" data-name="Path 1077" d="M41.939,78.281h.351a3.053,3.053,0,0,1,2.771,1.77l2.474,5.32a1.3,1.3,0,0,1-1.314,1.838l-.832-.088Z" fill="#fff" stroke="#263238" stroke-width="0.225"/>
      <path id="Path_1078" data-name="Path 1078" d="M39.982,76.686,28.343,93.831H51.27l-5.891-6.712L41.795,76.931a1.024,1.024,0,0,0-1.813-.245Z" fill="#fff" stroke="#263238" stroke-width="0.225"/>
      <circle id="Ellipse_43" data-name="Ellipse 43" cx="1.473" cy="1.473" r="1.473" transform="translate(38.83 79.098)" fill="#fff" stroke="#263238" stroke-width="0.225"/>
      <path id="Path_1079" data-name="Path 1079" d="M26.073,93.267h45.1a.952.952,0,0,1,.952.952v7.066h-47V94.218a.952.952,0,0,1,.952-.952Z" fill="#fff" stroke="#263238" stroke-width="0.225"/>
    </g>
    <g id="freepik--Stairs--inject-101">
      <path id="Path_1080" data-name="Path 1080" d="M73.658,57.829v9.009h-9.5V78.247h-9.5V89.983h-9.5v11.3H95.647V57.829Z" fill="#fff" stroke="#263238" stroke-width="0.225"/>
      <rect id="Rectangle_93" data-name="Rectangle 93" width="8.267" height="43.455" transform="translate(87.378 57.829)" fill="#fff" stroke="#263238" stroke-width="0.225"/>
    </g>
    <g id="freepik--character-2--inject-101">
      <path id="Path_1081" data-name="Path 1081" d="M83.189,13.009s.277.277.675-.7a1.892,1.892,0,0,0-.736-2.2c-.459-.245-.124.274-1.379-.155s-1.869-.918-3.185-.274a4.13,4.13,0,0,0-2.144,3.246c-.245,1.377-.063,1.869-.828,1.838s-2.513.337-2.175,1.9,1.35,1.867.857,2.2-2.418.767-2.025,2.452.979,1.163,1.867,1.622.828,1.194,1.962,1.44,1.071.369,2.267-.335.949-3.34,1.224-4.35.889-1.125,1.1-2.389-.121-1.991.277-2.389a17.464,17.464,0,0,0,1.5-1.44A1.363,1.363,0,0,1,83.189,13.009Z" fill="#263238" stroke="#263238" stroke-width="0.225"/>
      <path id="Path_1082" data-name="Path 1082" d="M84.579,42.6s-.925,7.963-1.057,8.492-.43,1.95-.529,2.182.133.495.1.794-.164.859-.164.859-2.144.4-2.31.4-.461-.495-.562-.7a6.215,6.215,0,0,1-.3-1.552c.034-.225.794-10.543.794-10.543Z" fill="#fff" stroke="#263238" stroke-width="0.225"/>
      <path id="Path_1083" data-name="Path 1083" d="M82.8,54.7l.925,1.156a9.873,9.873,0,0,1,1.917,1.156,2.391,2.391,0,0,1-.065.463H79.952a3.2,3.2,0,0,1,0-1.289c.164-.43.364-1.057.364-1.057Z" fill="#fff" stroke="#263238" stroke-width="0.225"/>
      <path id="Path_1084" data-name="Path 1084" d="M81.907,42.515s-.331,4.526-.362,5.783-.562,5.187-.63,5.354.166.4.166.594-.1.826-.1.826-2.414.76-2.513.729a2.4,2.4,0,0,1-.4-1.091,5.109,5.109,0,0,1,0-1.057s-.4-6.28-.364-7.072-.2-4.3-.2-4.3Z" fill="#fff" stroke="#263238" stroke-width="0.225"/>
      <path id="Path_1085" data-name="Path 1085" d="M80.98,55.062l1.255,1.125s1.35.529,1.422.792a.871.871,0,0,1-.067.531h-5.25l.13-1.719Z" fill="#fff" stroke="#263238" stroke-width="0.225"/>
      <path id="Path_1086" data-name="Path 1086" d="M79.32,17.933s-1.107.254-1.991.569-1.833.7-1.9,1.075S76.506,28.9,76.506,28.9a21.325,21.325,0,0,0-.79,4.677c0,1.928,1.012,10.078,1.012,10.078h9a92.992,92.992,0,0,0,.189-10.392c-.315-3-.569-4.8-.569-4.8l-.063-4.521s2.339,3.289,2.5,3.352,4.141-3.374,4.141-3.374l-.286-.884-3.444.758s-2.909-4.9-3.066-5.216-3.921-.758-3.921-.758Z" fill="#fff" stroke="#263238" stroke-width="0.225"/>
      <path id="Path_1087" data-name="Path 1087" d="M82.665,24.9a69.1,69.1,0,0,1,.178,7.533c-.178,3.035-.25,11.2-.25,11.2" fill="#fff" stroke="#263238" stroke-width="0.225"/>
      <path id="Path_1088" data-name="Path 1088" d="M78.31,18.3l1.143,2.6s.569.036.675.036-.225.749-.225.749l2.6,2.893,1.251-3.856-.785-.394.675-.713-.929-1.642L81.2,17.807l-1.991.225Z" fill="#fff" stroke="#263238" stroke-width="0.225"/>
      <path id="Path_1089" data-name="Path 1089" d="M82.056,17.955s-.238,1.622-.27,1.748.286,2.567.286,2.567S80.2,19.451,79.856,18.85a3.012,3.012,0,0,0-.632-.821s-.157-1.8-.157-1.9a.747.747,0,0,1,.315-.472c.157-.063.506,0,1.012.315A11.743,11.743,0,0,1,82.056,17.955Z" fill="#fff" stroke="#263238" stroke-width="0.225"/>
      <path id="Path_1090" data-name="Path 1090" d="M82.2,11.855a5.536,5.536,0,0,1-.808,1.8,8.158,8.158,0,0,1-1.836,1.03s-.225.358-.358.4l-.985.313a.584.584,0,0,0,.178.853.732.732,0,0,0,.853.045,5.41,5.41,0,0,1,.675.805c.18.313,2.285,1.433,2.733,1.125a4.338,4.338,0,0,0,.94-2.2,18.089,18.089,0,0,0-.45-3.313A1.67,1.67,0,0,0,82.2,11.855Z" fill="#fff" stroke="#263238" stroke-width="0.225"/>
      <path id="Path_1091" data-name="Path 1091" d="M82.73,15.971a1.575,1.575,0,0,0,.583-.274c.121-.153-.553-.952-.553-1.226a.76.76,0,0,1,.155-.45s.182-.245.367-.153" fill="none" stroke="#263238" stroke-width="0.225"/>
      <path id="Path_1092" data-name="Path 1092" d="M83,16.646s-.367.182-.551.121" fill="none" stroke="#263238" stroke-width="0.225"/>
      <path id="Path_1093" data-name="Path 1093" d="M81.9,14.709c0,.2-.094.353-.225.353s-.214-.157-.214-.353.094-.353.214-.353S81.9,14.516,81.9,14.709Z" fill="#263238"/>
      <path id="Path_1094" data-name="Path 1094" d="M83.367,14.475c.027.18-.032.337-.133.353s-.2-.119-.225-.3.034-.34.133-.353S83.34,14.3,83.367,14.475Z" fill="#263238"/>
      <path id="Path_1095" data-name="Path 1095" d="M81.046,14.142a2.214,2.214,0,0,1,1.1-.274" fill="none" stroke="#263238" stroke-width="0.225"/>
      <path id="Path_1096" data-name="Path 1096" d="M78.088,20.209c0-.094,4.141,4.647,4.141,4.647l6.038-2.308.7,1.453s-7.745,4.2-8.251,4.117S76.16,23.5,76.16,23.5" fill="#fff" stroke="#263238" stroke-width="0.225"/>
      <path id="Path_1097" data-name="Path 1097" d="M92.5,35.073h0a2.994,2.994,0,0,1-2.994-2.994V11.247h5.986V32.079A2.992,2.992,0,0,1,92.5,35.073Z" fill="#fff" stroke="#263238" stroke-width="0.225"/>
      <path id="Path_1098" data-name="Path 1098" d="M90.111,15.649V31.515a2.391,2.391,0,0,0,4.782,0V15.649Z" fill="#cb955b" stroke="#263238" stroke-width="0.225"/>
      <path id="Path_1099" data-name="Path 1099" d="M95.964,11.657H89.04a.556.556,0,0,1-.558-.556h0a.558.558,0,0,1,.558-.558h6.924a.558.558,0,0,1,.558.558h0a.556.556,0,0,1-.558.556Z" fill="#fff" stroke="#263238" stroke-width="0.225"/>
      <path id="Path_1100" data-name="Path 1100" d="M88.266,22.549s.252-.7.283-.884a6.5,6.5,0,0,1,.981-1.107c.126-.126.315-.45.38-.317a5.4,5.4,0,0,1,.032.981l1.714-.3a.2.2,0,0,1,.236.178h0a.2.2,0,0,1-.146.225l-1.033.272.11.153,1.451-.171a.189.189,0,0,1,.211.173h0a.189.189,0,0,1-.153.2l-1.44.288v.139l1.156-.07a.2.2,0,0,1,.225.225h0a.2.2,0,0,1-.184.18l-1.255.112.013.193c.034.119.9.036,1.006.112h0s.184.265-.3.265l-2.153.29-.418.225Z" fill="#fff" stroke="#263238" stroke-width="0.225"/>
    </g>
    <g id="freepik--character-3--inject-101">
      <path id="Path_1101" data-name="Path 1101" d="M140.908,70.734s1.917,3.273,3.259,3.273.652-5.462.652-5.666-.488-4.686-.488-4.686l-1.059,6.155H141.52Z" fill="#fff" stroke="#263238" stroke-linecap="round" stroke-linejoin="round" stroke-width="0.225"/>
      <path id="Path_1102" data-name="Path 1102" d="M144.8,83.659s1.093,9.418,1.251,10.044.506,2.306.625,2.578-.157.587-.119.938.2,1.017.2,1.017,2.54.468,2.735.468.549-.585.675-.821a7.323,7.323,0,0,0,.351-1.836c-.038-.274-.938-12.466-.938-12.466Z" fill="#263238" stroke="#263238" stroke-width="0.225"/>
      <path id="Path_1103" data-name="Path 1103" d="M146.91,97.961l-1.1,1.368s-2.265,1.125-2.265,1.368a2.753,2.753,0,0,0,.079.547h6.636a3.744,3.744,0,0,0,0-1.523c-.2-.508-.43-1.251-.43-1.251Z" fill="#fff" stroke="#263238" stroke-width="0.225"/>
      <path id="Path_1104" data-name="Path 1104" d="M147.965,83.542s.391,5.354.43,6.838.664,6.134.742,6.33-.2.47-.2.7.117.976.117.976,2.852.9,2.969.859a2.85,2.85,0,0,0,.47-1.289,5.93,5.93,0,0,0,0-1.251s.468-7.423.43-8.361.225-5.082.225-5.082Z" fill="#263238" stroke="#263238" stroke-width="0.225"/>
      <path id="Path_1105" data-name="Path 1105" d="M149.058,98.391l-1.485,1.329s-1.6.625-1.68.938a1.014,1.014,0,0,0,.079.625h6.213l-.157-2.025Z" fill="#fff" stroke="#263238" stroke-width="0.225"/>
      <path id="Path_1106" data-name="Path 1106" d="M148.239,61.115s-3.824,2.121-3.912,2.528-.612,10.638-.612,10.638l-.65,9.945h11.983l-.286-10.395s.652-10.311.531-10.595a41.49,41.49,0,0,0-3.955-2.488Z" fill="#fff" stroke="#263238" stroke-linecap="round" stroke-linejoin="round" stroke-width="0.225"/>
      <path id="Path_1107" data-name="Path 1107" d="M147.114,61.808l-.367,1.059.367.164-.45.529s.569,3.374.569,3.507,3.507-3.709,3.507-3.709l-.2-.49.774-.407.571-1.467-.531-.245-3.111.367Z" fill="#fff" stroke="#263238" stroke-linecap="round" stroke-linejoin="round" stroke-width="0.225"/>
      <path id="Path_1108" data-name="Path 1108" d="M147.96,63.435s-.652,2.852-.736,3.628-.081,16.995-.081,16.995" fill="#fff" stroke="#263238" stroke-linecap="round" stroke-linejoin="round" stroke-width="0.225"/>
      <path id="Path_1109" data-name="Path 1109" d="M149.3,53.332s-2.119-.164-2.4.367a3.12,3.12,0,0,0-.121,1.548s-.245.49-.326.693a3.516,3.516,0,0,0,.04.979s-.652.733-.569.938a.956.956,0,0,0,.367.488c.121.04-.124,2.119.162,2.2a7.507,7.507,0,0,0,1.55-.124,17.786,17.786,0,0,0-.04,3.012c.171-.045,3.374-2.7,3.374-2.7l-.2-1.181s1.548-2.7,1.386-3.871A3.211,3.211,0,0,0,149.3,53.332Z" fill="#fff" stroke="#263238" stroke-linecap="round" stroke-linejoin="round" stroke-width="0.225"/>
      <path id="Path_1110" data-name="Path 1110" d="M149.3,53.332s-2.119-.164-2.4.367a3.12,3.12,0,0,0-.121,1.548,12.633,12.633,0,0,1,2.526.407c-.083.162-.855.571-.61.736a5.1,5.1,0,0,0,.61.326s-.425,1-.243,1.017c.367.043.774-1.017.936-1.059a.72.72,0,0,1,.693.817c-.124.571-1.181,1.14-1.181,1.14s.04.245.612.571a2.769,2.769,0,0,0,1.019.367s1.548-2.7,1.386-3.871A3.23,3.23,0,0,0,149.3,53.332Z" fill="#263238" stroke="#263238" stroke-linecap="round" stroke-linejoin="round" stroke-width="0.225"/>
      <path id="Path_1111" data-name="Path 1111" d="M147.114,57.123c0,.18-.063.326-.142.326s-.144-.146-.144-.326.065-.326.144-.326S147.114,56.943,147.114,57.123Z" fill="#263238"/>
      <path id="Path_1112" data-name="Path 1112" d="M146.736,56.43a.513.513,0,0,1,.693.162" fill="none" stroke="#263238" stroke-linecap="round" stroke-linejoin="round" stroke-width="0.225"/>
      <path id="Path_1113" data-name="Path 1113" d="M148,60.423l.9-.283-.979,1.467Z" fill="#263238" stroke="#263238" stroke-linecap="round" stroke-linejoin="round" stroke-width="0.225"/>
      <path id="Path_1114" data-name="Path 1114" d="M134.549,61.41l18.34,16.079a1.575,1.575,0,0,1,.151,2.229h0a1.575,1.575,0,0,1-2.326.067L133.573,62.227Z" fill="#263238" stroke="#263238" stroke-linecap="round" stroke-linejoin="round" stroke-width="0.225"/>
      <path id="Path_1115" data-name="Path 1115" d="M150.567,75.87l-1.428.938-.488,1.183s.121.407.367.367.45-.083.45-.083.488.45.733.45a1.773,1.773,0,0,0,.693-.286,12.14,12.14,0,0,0,.979-1.59Z" fill="#fff" stroke="#263238" stroke-linecap="round" stroke-linejoin="round" stroke-width="0.225"/>
      <path id="Path_1116" data-name="Path 1116" d="M151.953,65.4l1.631,5.912-3.017,4.564,1.3.979s4.645-5.055,4.809-5.3S155.3,63.23,155.3,63.23s-1.019-.938-1.8-.9" fill="#fff" stroke="#263238" stroke-linecap="round" stroke-linejoin="round" stroke-width="0.225"/>
      <path id="Path_1117" data-name="Path 1117" d="M140.42,68.608l-.571.9s1.181,1.548,1.59,1.467a1.54,1.54,0,0,0,.976-.979c0-.286-1.3-1.467-1.507-1.548S140.663,68.329,140.42,68.608Z" fill="#fff" stroke="#263238" stroke-linecap="round" stroke-linejoin="round" stroke-width="0.225"/>
      <path id="Path_1118" data-name="Path 1118" d="M128.151,44.976a9.7,9.7,0,1,0,9.7,9.7,9.7,9.7,0,0,0-9.7-9.7Zm0,18.5a8.8,8.8,0,1,1,8.8-8.8,8.8,8.8,0,0,1-8.8,8.8Z" fill="#263238" stroke="#263238" stroke-linecap="round" stroke-linejoin="round" stroke-width="0.225"/>
      <path id="Path_1119" data-name="Path 1119" d="M132.117,48.138a7.63,7.63,0,0,0-3.966-1.109h-.36l.994,2.519a7.617,7.617,0,0,1,3.388.839Z" fill="#fff"/>
      <path id="Path_1120" data-name="Path 1120" d="M127.647,49.63l-1-2.454A7.648,7.648,0,0,0,121.077,57.6c0-.133,0-.265,0-.4a7.648,7.648,0,0,1,6.571-7.574Z" fill="#fff"/>
    </g>
    <g id="freepik--character-1--inject-101">
      <path id="Path_1121" data-name="Path 1121" d="M18.74,51.643s.515,1.35.567,1.6.1.929.1.929a6.282,6.282,0,0,1,.675.826c.052.153-.515.823-.515.823a8.96,8.96,0,0,1-.256,2.218,4.1,4.1,0,0,1-1.35.052l-.31,1.35L14.3,58.457l.1-1.185s-.675-2.319-.722-2.474.052-.722,1.289-2.063S18.74,51.643,18.74,51.643Z" fill="#fff" stroke="#263238" stroke-width="0.225"/>
      <path id="Path_1122" data-name="Path 1122" d="M17.348,52.725s1.237-.256,1.392-1.082-.362-.826-1.5-.722-4.177,1.491-4.33,2.423,1.289,3.763,1.494,3.919,1.856.259,1.959,0-.774-1.289-.619-1.959.826-.722,1.032-.412.412.675.412.675.675-.259.567-.463a4.031,4.031,0,0,1-.463-.826c-.052-.256.412-.31.463-.774A.939.939,0,0,0,17.348,52.725Z" fill="#263238" stroke="#263238" stroke-width="0.225"/>
      <path id="Path_1123" data-name="Path 1123" d="M13.947,58.139l-.722,1.082s4.229.826,4.641,1.03,1.125.621,1.125.621l-1.35-1.444Z" fill="#fff" stroke="#263238" stroke-width="0.225"/>
      <path id="Path_1124" data-name="Path 1124" d="M25.419,68.728l1.887-6.193a.322.322,0,0,0-.272-.416l-2.965-.346a.328.328,0,0,0-.346.225L21.9,67.846a.324.324,0,0,0,.225.412l2.9.675a.326.326,0,0,0,.4-.2Z" fill="#263238" stroke="#263238" stroke-width="0.225"/>
      <path id="Path_1125" data-name="Path 1125" d="M20.652,66.062s.486-.623.6-.74,1.41-.738,1.525-.83.3.115.092.461a11.308,11.308,0,0,1-.785,1.109c-.092.092.97.047,1.2-.045s.184.115.045.3-.738.277-.922.3-.531.45-1.017.675-.578.254-.715.254a3.118,3.118,0,0,0-.657.247l-.416-.83Z" fill="#fff" stroke="#263238" stroke-width="0.225"/>
      <path id="Path_1126" data-name="Path 1126" d="M14.732,98.987a1.428,1.428,0,0,0,.675.706,8.389,8.389,0,0,1,2.207.972.868.868,0,0,1,.09.619H12.26a3.17,3.17,0,0,1,.263-2.387Z" fill="#fff" stroke="#263238" stroke-width="0.225"/>
      <path id="Path_1127" data-name="Path 1127" d="M13.452,81.585l.175,4.949s-.706,2.958-.794,3.754-.31,8.611-.31,8.611l2.209.09,1.149-6.051s1.28-5.4,1.368-6.582.225-4.814.225-4.814Z" fill="#cb955b" stroke="#263238" stroke-width="0.225"/>
      <path id="Path_1128" data-name="Path 1128" d="M14.246,80.967s.225,2.025.265,3.887-.353,5.475.175,7.684,1.1,5.3,1.1,5.565V98.9h2.783a2.025,2.025,0,0,0,.09-.882c-.045-.576-.133-1.415-.133-1.415s.139-7.817.308-8.872.31-6.4.31-6.4Z" fill="#cb955b" stroke="#263238" stroke-width="0.225"/>
      <path id="Path_1129" data-name="Path 1129" d="M18.574,98.9a5.774,5.774,0,0,0,1.149.8,8.439,8.439,0,0,1,2.209.972.875.875,0,0,1,.088.619h-6.5a3.178,3.178,0,0,1,.265-2.387Z" fill="#fff" stroke="#263238" stroke-width="0.225"/>
      <path id="Path_1130" data-name="Path 1130" d="M13.222,59.221s-1.03,2.785-1.289,3.352a3.455,3.455,0,0,0-.308,1.6c.052.31.567,8.352.567,8.352s-.675,7.941-.259,9.448H21.37l-1.125-11.4s-.675-7.165-.675-8.042A3.169,3.169,0,0,0,19,60.884l-1.125-.621Z" fill="#fff" stroke="#263238" stroke-width="0.225"/>
      <path id="Path_1131" data-name="Path 1131" d="M15.593,62.625s-.823,1.289-.567,2.011,3.559,7.63,3.869,7.682,5.918-3.4,5.918-3.4l-.308-1.237-3.856.675-2.272-6.719" fill="#fff" stroke="#263238" stroke-width="0.225"/>
      <path id="Path_1132" data-name="Path 1132" d="M24.5,67.679s.515-1.125.585-1.271.45-.184.6-.646.416-.578.484-.371-.45,1.109-.45,1.109l1.2-.508s.225.025.115.254a3.352,3.352,0,0,1-.369.531,2.932,2.932,0,0,1-.461,1.388,3.677,3.677,0,0,1-1.433.576Z" fill="#fff" stroke="#263238" stroke-width="0.225"/>
    </g>
    <g id="freepik--Floor--inject-101">
      <line id="Line_70" data-name="Line 70" x2="3.338" transform="translate(160.879 101.284)" fill="none" stroke="#263238" stroke-width="0.225"/>
      <line id="Line_71" data-name="Line 71" x2="153.613" transform="translate(4.344 101.284)" fill="none" stroke="#263238" stroke-width="0.225"/>
    </g>
  </g>
</svg>
