<svg xmlns="http://www.w3.org/2000/svg" width="21" height="21" viewBox="0 0 21 21">
  <g id="add_photo_alternate" transform="translate(-2 -1)">
    <path id="Path_2136" data-name="Path 2136" d="M10.21,16.83,8.25,14.47,5.5,18h11l-3.54-4.71Z" fill="#212121"/>
    <path id="Path_2137" data-name="Path 2137" d="M16.5,18H5.5l2.75-3.53,1.96,2.36,2.75-3.54ZM17,7H14V6H4V20H18V10H17Z" fill="#212121" opacity="0.3"/>
    <path id="Path_2138" data-name="Path 2138" d="M20,4V1H18V4H15V6h3V8.99h2V6h3V4ZM18,20H4V6H14V4H4A2.006,2.006,0,0,0,2,6V20a2.006,2.006,0,0,0,2,2H18a2.006,2.006,0,0,0,2-2V10H18Z" fill="#212121"/>
  </g>
</svg>
