<svg xmlns="http://www.w3.org/2000/svg" width="39.052" height="27.306" viewBox="0 0 39.052 27.306">
  <g id="Couple_bicycle-bro1" data-name="Couple bicycle-bro1" transform="translate(-231.426 -125.615)">
    <circle id="circle126" cx="6.937" cy="6.937" r="6.937" transform="translate(231.426 139.048)" fill="#263238"/>
    <circle id="circle128" cx="6.175" cy="6.175" r="6.175" transform="translate(232.187 139.809)" fill="#fff" stroke="#1e1e1e" stroke-linecap="round" stroke-linejoin="round" stroke-width="1"/>
    <circle id="circle130" cx="5.89" cy="5.89" r="5.89" transform="translate(232.472 140.095)" fill="#fff" stroke="#1e1e1e" stroke-linecap="round" stroke-linejoin="round" stroke-width="1"/>
    <circle id="circle132" cx="6.937" cy="6.937" r="6.937" transform="translate(256.605 139.048)" fill="#263238"/>
    <circle id="circle134" cx="6.175" cy="6.175" r="6.175" transform="translate(257.366 139.809)" fill="#fff" stroke="#1e1e1e" stroke-linecap="round" stroke-linejoin="round" stroke-width="1"/>
    <circle id="circle136" cx="5.89" cy="5.89" r="5.89" transform="translate(257.652 140.095)" fill="#fff" stroke="#1e1e1e" stroke-linecap="round" stroke-linejoin="round" stroke-width="1"/>
    <circle id="circle138" cx="0.855" cy="0.855" r="0.855" transform="translate(262.765 145.13)" fill="none" stroke="#cb955b" stroke-linecap="round" stroke-linejoin="round" stroke-width="1"/>
    <line id="line140" x2="4.765" y2="13.334" transform="translate(243.337 133.316)" fill="none" stroke="#cb955b" stroke-linecap="round" stroke-width="1"/>
    <path id="path142" d="M418.383,167.855c-1.663-1.754-5.9-13.3-6.619-15.281a.407.407,0,0,1,.142-.47l1.622-1.184" transform="translate(-154.615 -21.564)" fill="none" stroke="#cb955b" stroke-linecap="round" stroke-width="1"/>
    <path id="path144" d="M281.356,194.627s3.235-10.059,19.514-11.778" transform="translate(-42.814 -48.943)" fill="none" stroke="#cb955b" stroke-linecap="round" stroke-width="1"/>
    <path id="path146" d="M365.1,212.365a7.746,7.746,0,0,0,4.4-3.487c1.769-2.88,3.185-5.511,4.4-6.168" transform="translate(-114.619 -65.972)" fill="none" stroke="#cb955b" stroke-linecap="round" stroke-width="1"/>
    <path id="path148" d="M298.222,165.265s-.048,1.267.292,1.658,2.534.439,3.563.292,1.462-.536,1.364-.828a5.21,5.21,0,0,0-2.826-1.414C299.5,164.876,298.27,164.826,298.222,165.265Z" transform="translate(-57.274 -33.558)" fill="#fff" stroke="#cb955b" stroke-linecap="round" stroke-linejoin="round" stroke-width="1"/>
    <path id="path152" d="M416.5,139.614" transform="translate(-158.693 -6.365)" fill="none" stroke="#cb955b" stroke-linecap="round" stroke-linejoin="round" stroke-width="1"/>
    <path id="polygon170" d="M414.017,406.227l.285-3.9-11.829.381-.143,1.283Z" transform="translate(-164.633 -257.581)" fill="#fff" stroke="#cb955b" stroke-linecap="round" stroke-linejoin="round" stroke-width="1"/>
    <circle id="circle172" cx="1.948" cy="1.948" r="1.948" transform="translate(247.436 144.749)" fill="#fff" stroke="#cb955b" stroke-linecap="round" stroke-linejoin="round" stroke-width="1"/>
    <circle id="circle178" cx="1.236" cy="1.236" r="1.236" transform="translate(237.127 144.749)" fill="#fff" stroke="#cb955b" stroke-linecap="round" stroke-linejoin="round" stroke-width="1"/>
    <path id="path208" d="M404.436,128.881a1.467,1.467,0,0,1,1.012.3c.355.353.556,1.417,1.112,1.871s1.163.1,1.618-.506a3.678,3.678,0,0,0,.058-2.523c-.143-.3-2.731.2-2.731.2" transform="translate(-148.352 -1.852)" fill="none" stroke="#cb955b" stroke-linecap="round" stroke-width="1"/>
    <path id="line216" d="M0,1.269" transform="translate(259.028 125.485)" fill="none" stroke="#cb955b" stroke-linecap="round" stroke-width="1"/>
  </g>
</svg>
