<svg xmlns="http://www.w3.org/2000/svg" width="49.461" height="34.726" viewBox="0 0 49.461 34.726">
  <g id="Building-amico" transform="translate(-30.215 -85.42)">
    <g id="freepik--Shadow--inject-64" transform="translate(35.754 113.366)">
      <path id="Path_1418" data-name="Path 1418" d="M387.623,340.4a2.168,2.168,0,0,1-1.645,0c-.45-.217-.45-.563,0-.788a2.158,2.158,0,0,1,1.645,0C388.077,339.835,388.077,340.189,387.623,340.4Z" transform="translate(-351.186 -338.814)" fill="#e0e0e0"/>
      <path id="Path_1419" data-name="Path 1419" d="M79.784,334.741a2.2,2.2,0,0,0,1.674,0c.462-.225.462-.578,0-.8a2.212,2.212,0,0,0-1.674,0C79.322,334.163,79.322,334.521,79.784,334.741Z" transform="translate(-79.438 -333.778)" fill="#e0e0e0"/>
    </g>
    <g id="freepik--Plant--inject-64" transform="translate(64.312 109.006)">
      <path id="Path_1420" data-name="Path 1420" d="M333.414,297.841a.853.853,0,0,0,.747-.248c.165-.219.092-.563.172-.746s.338-.154.458-.309-.066-.527,0-.724a2.54,2.54,0,0,1,.344-.52c.087-.135,0-.338-.3-.235s-.45.457-.737.4a.417.417,0,0,0-.537.4.626.626,0,0,1-.063.323c-.054.088-.2.137-.263.273Z" transform="translate(-333.24 -295.032)" fill="#cb955b"/>
      <path id="Path_1421" data-name="Path 1421" d="M333.414,297.841a.853.853,0,0,0,.747-.248c.165-.219.092-.563.172-.746s.338-.154.458-.309-.066-.527,0-.724a2.54,2.54,0,0,1,.344-.52c.087-.135,0-.338-.3-.235s-.45.457-.737.4a.417.417,0,0,0-.537.4.626.626,0,0,1-.063.323c-.054.088-.2.137-.263.273Z" transform="translate(-333.24 -295.032)" opacity="0.2"/>
      <path id="Path_1422" data-name="Path 1422" d="M336.1,296a4.778,4.778,0,0,0-1.626,2.2" transform="translate(-334.332 -295.891)" fill="none" stroke="#fff" stroke-linecap="round" stroke-width="0.5"/>
    </g>
    <g id="freepik--Buildings--inject-64" transform="translate(33.463 85.42)">
      <path id="Path_1423" data-name="Path 1423" d="M107.83,168.736l5.027-2.9v-12.4l-5.027,2.9Z" transform="translate(-102.345 -145.777)" fill="#37474f"/>
      <path id="Path_1424" data-name="Path 1424" d="M64.565,154.256,59.08,151.09v12.4l5.485,3.167Z" transform="translate(-59.08 -143.701)" fill="#455a64"/>
      <path id="Path_1425" data-name="Path 1425" d="M69.593,128.456l-5.484-3.166-5.029,2.9,5.485,3.166Z" transform="translate(-59.08 -120.804)" fill="#37474f"/>
      <path id="Path_1426" data-name="Path 1426" d="M77.33,255.212V253.1l1.421.817v2.111Z" transform="translate(-75.276 -234.232)" fill="#e0e0e0"/>
      <path id="Path_1427" data-name="Path 1427" d="M82.84,256.27l.138.08v2.111l-.138-.08Z" transform="translate(-80.166 -237.046)" fill="#263238"/>
      <path id="Path_1428" data-name="Path 1428" d="M95.3,244.78V243.6l-.941-.543v1.177Z" transform="translate(-90.39 -225.322)" fill="#e0e0e0"/>
      <path id="Path_1429" data-name="Path 1429" d="M94.36,244.237l.235-.135V243.2l-.235-.136Z" transform="translate(-90.39 -225.322)" fill="#263238"/>
      <path id="Path_1430" data-name="Path 1430" d="M95.3,252.727l-.706-.407-.235.135L95.3,253Z" transform="translate(-90.39 -233.54)" fill="#37474f"/>
      <path id="Path_1431" data-name="Path 1431" d="M95.3,264.829v-1.177l-.941-.542v1.177Z" transform="translate(-90.39 -243.116)" fill="#e0e0e0"/>
      <path id="Path_1432" data-name="Path 1432" d="M94.36,264.287l.235-.136v-.906l-.235-.135Z" transform="translate(-90.39 -243.116)" fill="#263238"/>
      <path id="Path_1433" data-name="Path 1433" d="M95.3,272.767l-.706-.407-.235.136.941.542Z" transform="translate(-90.39 -251.325)" fill="#37474f"/>
      <path id="Path_1434" data-name="Path 1434" d="M95.3,225.169v-1.177l-.941-.542v1.177Z" transform="translate(-90.39 -207.919)" fill="#e0e0e0"/>
      <path id="Path_1435" data-name="Path 1435" d="M94.36,224.627l.235-.136v-.906l-.235-.135Z" transform="translate(-90.39 -207.919)" fill="#263238"/>
      <path id="Path_1436" data-name="Path 1436" d="M95.3,233.107,94.6,232.7l-.235.136.941.542Z" transform="translate(-90.39 -216.128)" fill="#37474f"/>
      <path id="Path_1437" data-name="Path 1437" d="M95.3,205.549v-1.177l-.941-.542v1.177Z" transform="translate(-90.39 -190.506)" fill="#e0e0e0"/>
      <path id="Path_1438" data-name="Path 1438" d="M94.36,205.007l.235-.136v-.906l-.235-.135Z" transform="translate(-90.39 -190.506)" fill="#263238"/>
      <path id="Path_1439" data-name="Path 1439" d="M95.3,213.487l-.706-.407-.235.136.941.542Z" transform="translate(-90.39 -198.716)" fill="#37474f"/>
      <path id="Path_1440" data-name="Path 1440" d="M95.3,185.93v-1.178l-.941-.542v1.177Z" transform="translate(-90.39 -173.094)" fill="#e0e0e0"/>
      <path id="Path_1441" data-name="Path 1441" d="M94.36,185.387l.235-.136v-.9l-.235-.136Z" transform="translate(-90.39 -173.094)" fill="#263238"/>
      <path id="Path_1442" data-name="Path 1442" d="M95.3,193.867l-.706-.407-.235.136.941.543Z" transform="translate(-90.39 -181.303)" fill="#37474f"/>
      <path id="Path_1443" data-name="Path 1443" d="M65.141,227.37v-1.177l-.941-.543v1.177Z" transform="translate(-63.624 -209.871)" fill="#e0e0e0"/>
      <path id="Path_1444" data-name="Path 1444" d="M64.2,226.827l.235-.135v-.906l-.235-.136Z" transform="translate(-63.624 -209.871)" fill="#263238"/>
      <path id="Path_1445" data-name="Path 1445" d="M65.141,235.317l-.706-.407-.235.135.941.543Z" transform="translate(-63.624 -218.089)" fill="#37474f"/>
      <path id="Path_1446" data-name="Path 1446" d="M65.141,247.419v-1.177L64.2,245.7v1.176Z" transform="translate(-63.624 -227.665)" fill="#e0e0e0"/>
      <path id="Path_1447" data-name="Path 1447" d="M64.2,246.876l.235-.135v-.906L64.2,245.7Z" transform="translate(-63.624 -227.665)" fill="#263238"/>
      <path id="Path_1448" data-name="Path 1448" d="M65.141,255.357l-.706-.407-.235.135.941.543Z" transform="translate(-63.624 -235.874)" fill="#37474f"/>
      <path id="Path_1449" data-name="Path 1449" d="M65.141,207.589v-1.177l-.941-.542v1.177Z" transform="translate(-63.624 -192.317)" fill="#e0e0e0"/>
      <path id="Path_1450" data-name="Path 1450" d="M64.2,207.047l.235-.136v-.906l-.235-.135Z" transform="translate(-63.624 -192.317)" fill="#263238"/>
      <path id="Path_1451" data-name="Path 1451" d="M65.141,215.527l-.706-.407-.235.136.941.542Z" transform="translate(-63.624 -200.526)" fill="#37474f"/>
      <path id="Path_1452" data-name="Path 1452" d="M65.141,187.8v-1.177l-.941-.543v1.177Z" transform="translate(-63.624 -174.754)" fill="#e0e0e0"/>
      <path id="Path_1453" data-name="Path 1453" d="M64.2,187.257l.235-.135v-.906l-.235-.136Z" transform="translate(-63.624 -174.754)" fill="#263238"/>
      <path id="Path_1454" data-name="Path 1454" d="M65.141,195.747l-.706-.407-.235.135.941.543Z" transform="translate(-63.624 -182.972)" fill="#37474f"/>
      <path id="Path_1455" data-name="Path 1455" d="M65.141,168.019v-1.177L64.2,166.3v1.177Z" transform="translate(-63.624 -157.199)" fill="#fafafa"/>
      <path id="Path_1456" data-name="Path 1456" d="M64.2,167.477l.235-.136v-.906L64.2,166.3Z" transform="translate(-63.624 -157.199)" fill="#263238"/>
      <path id="Path_1457" data-name="Path 1457" d="M65.141,175.957l-.706-.407-.235.136.941.542Z" transform="translate(-63.624 -165.408)" fill="#37474f"/>
      <path id="Path_1458" data-name="Path 1458" d="M77.33,173.35l.548.316v7.916l-.548-.315Z" transform="translate(-75.276 -163.456)" fill="#fafafa"/>
      <path id="Path_1459" data-name="Path 1459" d="M77.33,173.35l.232.134v7.653l-.232.131Z" transform="translate(-75.276 -163.456)" fill="#263238"/>
      <path id="Path_1460" data-name="Path 1460" d="M77.562,242.55l.316.176V243l-.548-.315Z" transform="translate(-75.276 -224.87)" fill="#37474f"/>
      <path id="Path_1461" data-name="Path 1461" d="M85.08,177.78l.549.315v7.917l-.549-.316Z" transform="translate(-82.154 -167.388)" fill="#fafafa"/>
      <path id="Path_1462" data-name="Path 1462" d="M85.08,177.78l.232.134v7.651l-.232.131Z" transform="translate(-82.154 -167.388)" fill="#263238"/>
      <path id="Path_1463" data-name="Path 1463" d="M85.312,246.97l.317.176v.271l-.549-.316Z" transform="translate(-82.154 -228.792)" fill="#37474f"/>
      <path id="Path_1464" data-name="Path 1464" d="M113,244.78V243.6l.94-.543v1.177Z" transform="translate(-106.933 -225.322)" fill="#e0e0e0"/>
      <path id="Path_1465" data-name="Path 1465" d="M119.5,244.237l-.235-.135V243.2l.234-.136Z" transform="translate(-112.488 -225.322)" fill="#455a64"/>
      <path id="Path_1466" data-name="Path 1466" d="M113,252.727l.7-.407.235.135L113,253Z" transform="translate(-106.933 -233.54)" fill="#263238"/>
      <path id="Path_1467" data-name="Path 1467" d="M125.99,237.319v-1.177l.941-.542v1.177Z" transform="translate(-118.461 -218.702)" fill="#e0e0e0"/>
      <path id="Path_1468" data-name="Path 1468" d="M132.5,236.777l-.235-.136v-.906l.235-.135Z" transform="translate(-124.026 -218.702)" fill="#455a64"/>
      <path id="Path_1469" data-name="Path 1469" d="M125.99,245.257l.706-.407.235.136-.941.542Z" transform="translate(-118.461 -226.911)" fill="#263238"/>
      <path id="Path_1470" data-name="Path 1470" d="M138.98,229.85v-1.177l.941-.543v1.177Z" transform="translate(-129.99 -212.072)" fill="#e0e0e0"/>
      <path id="Path_1471" data-name="Path 1471" d="M145.485,229.307l-.235-.135v-.906l.235-.136Z" transform="translate(-135.554 -212.072)" fill="#455a64"/>
      <path id="Path_1472" data-name="Path 1472" d="M138.98,237.8l.706-.406.235.135-.941.543Z" transform="translate(-129.99 -220.29)" fill="#263238"/>
      <path id="Path_1473" data-name="Path 1473" d="M113,264.829v-1.177l.94-.542v1.177Z" transform="translate(-106.933 -243.116)" fill="#e0e0e0"/>
      <path id="Path_1474" data-name="Path 1474" d="M119.5,264.287l-.235-.136v-.906l.234-.135Z" transform="translate(-112.488 -243.116)" fill="#455a64"/>
      <path id="Path_1475" data-name="Path 1475" d="M113,272.767l.7-.407.235.136-.94.542Z" transform="translate(-106.933 -251.325)" fill="#263238"/>
      <path id="Path_1476" data-name="Path 1476" d="M125.99,257.36v-1.178l.941-.542v1.177Z" transform="translate(-118.461 -236.487)" fill="#e0e0e0"/>
      <path id="Path_1477" data-name="Path 1477" d="M132.5,256.817l-.235-.136v-.9l.235-.136Z" transform="translate(-124.026 -236.487)" fill="#455a64"/>
      <path id="Path_1478" data-name="Path 1478" d="M125.99,265.3l.706-.407.235.136-.941.543Z" transform="translate(-118.461 -244.696)" fill="#263238"/>
      <path id="Path_1479" data-name="Path 1479" d="M138.98,249.89v-1.177l.941-.543v1.177Z" transform="translate(-129.99 -229.857)" fill="#e0e0e0"/>
      <path id="Path_1480" data-name="Path 1480" d="M145.485,249.347l-.235-.135v-.906l.235-.136Z" transform="translate(-135.554 -229.857)" fill="#455a64"/>
      <path id="Path_1481" data-name="Path 1481" d="M138.98,257.837l.706-.407.235.135-.941.543Z" transform="translate(-129.99 -238.075)" fill="#263238"/>
      <path id="Path_1482" data-name="Path 1482" d="M113,225.169v-1.177l.94-.542v1.177Z" transform="translate(-106.933 -207.919)" fill="#e0e0e0"/>
      <path id="Path_1483" data-name="Path 1483" d="M119.5,224.627l-.235-.136v-.906l.234-.135Z" transform="translate(-112.488 -207.919)" fill="#455a64"/>
      <path id="Path_1484" data-name="Path 1484" d="M113,233.107l.7-.407.235.136-.94.542Z" transform="translate(-106.933 -216.128)" fill="#263238"/>
      <path id="Path_1485" data-name="Path 1485" d="M125.99,217.619v-1.177l.941-.542v1.177Z" transform="translate(-118.461 -201.218)" fill="#e0e0e0"/>
      <path id="Path_1486" data-name="Path 1486" d="M132.5,217.077l-.235-.136v-.906l.235-.135Z" transform="translate(-124.026 -201.218)" fill="#455a64"/>
      <path id="Path_1487" data-name="Path 1487" d="M125.99,225.557l.706-.407.235.136-.941.542Z" transform="translate(-118.461 -209.427)" fill="#263238"/>
      <path id="Path_1488" data-name="Path 1488" d="M138.98,210.069v-1.177l.941-.542v1.177Z" transform="translate(-129.99 -194.518)" fill="#e0e0e0"/>
      <path id="Path_1489" data-name="Path 1489" d="M145.485,209.527l-.235-.136v-.906l.235-.135Z" transform="translate(-135.554 -194.518)" fill="#455a64"/>
      <path id="Path_1490" data-name="Path 1490" d="M138.98,218.007l.706-.407.235.136-.941.542Z" transform="translate(-129.99 -202.727)" fill="#263238"/>
      <path id="Path_1491" data-name="Path 1491" d="M113,205.549v-1.177l.94-.542v1.177Z" transform="translate(-106.933 -190.506)" fill="#e0e0e0"/>
      <path id="Path_1492" data-name="Path 1492" d="M119.5,205.007l-.235-.136v-.906l.234-.135Z" transform="translate(-112.488 -190.506)" fill="#455a64"/>
      <path id="Path_1493" data-name="Path 1493" d="M113,213.487l.7-.407.235.136-.94.542Z" transform="translate(-106.933 -198.716)" fill="#263238"/>
      <path id="Path_1494" data-name="Path 1494" d="M125.99,197.91v-1.177l.941-.543v1.178Z" transform="translate(-118.461 -183.726)" fill="#e0e0e0"/>
      <path id="Path_1495" data-name="Path 1495" d="M132.5,197.368l-.235-.136v-.906l.235-.136Z" transform="translate(-124.026 -183.726)" fill="#455a64"/>
      <path id="Path_1496" data-name="Path 1496" d="M125.99,205.857l.706-.407.235.136-.941.542Z" transform="translate(-118.461 -191.944)" fill="#263238"/>
      <path id="Path_1497" data-name="Path 1497" d="M138.98,190.28V189.1l.941-.543v1.177Z" transform="translate(-129.99 -176.955)" fill="#e0e0e0"/>
      <path id="Path_1498" data-name="Path 1498" d="M145.485,189.737l-.235-.135V188.7l.235-.136Z" transform="translate(-135.554 -176.955)" fill="#455a64"/>
      <path id="Path_1499" data-name="Path 1499" d="M138.98,198.227l.706-.407.235.135-.941.543Z" transform="translate(-129.99 -185.173)" fill="#263238"/>
      <path id="Path_1500" data-name="Path 1500" d="M113,185.93v-1.178l.94-.542v1.177Z" transform="translate(-106.933 -173.094)" fill="#e0e0e0"/>
      <path id="Path_1501" data-name="Path 1501" d="M119.5,185.387l-.235-.136v-.9l.234-.136Z" transform="translate(-112.488 -173.094)" fill="#455a64"/>
      <path id="Path_1502" data-name="Path 1502" d="M113,193.867l.7-.407.235.136-.94.543Z" transform="translate(-106.933 -181.303)" fill="#263238"/>
      <path id="Path_1503" data-name="Path 1503" d="M125.99,178.21v-1.177l.941-.543v1.177Z" transform="translate(-118.461 -166.243)" fill="#e0e0e0"/>
      <path id="Path_1504" data-name="Path 1504" d="M132.5,177.667l-.235-.135v-.906l.235-.136Z" transform="translate(-124.026 -166.243)" fill="#455a64"/>
      <path id="Path_1505" data-name="Path 1505" d="M125.99,186.157l.706-.407.235.135-.941.543Z" transform="translate(-118.461 -174.461)" fill="#263238"/>
      <path id="Path_1506" data-name="Path 1506" d="M138.98,170.5v-1.177l.941-.542v1.177Z" transform="translate(-129.99 -159.4)" fill="#e0e0e0"/>
      <path id="Path_1507" data-name="Path 1507" d="M145.485,169.957l-.235-.136v-.906l.235-.135Z" transform="translate(-135.554 -159.4)" fill="#455a64"/>
      <path id="Path_1508" data-name="Path 1508" d="M138.98,178.437l.706-.407.235.136-.941.542Z" transform="translate(-129.99 -167.609)" fill="#263238"/>
      <path id="Path_1509" data-name="Path 1509" d="M67.21,132.355l4.114-2.375,4.57,2.639-4.113,2.375Z" transform="translate(-66.295 -124.966)" fill="#f0f0f0"/>
      <path id="Path_1510" data-name="Path 1510" d="M103.77,129.98v.528l4.113,2.375.457-.264Z" transform="translate(-98.741 -124.966)" fill="#455a64"/>
      <path id="Path_1511" data-name="Path 1511" d="M71.324,129.98l-4.114,2.375.457.263,3.657-2.111Z" transform="translate(-66.295 -124.966)" fill="#263238"/>
      <path id="Path_1512" data-name="Path 1512" d="M350.107,168.736l-5.027-2.9v-12.4l5.029,2.9Z" transform="translate(-312.899 -145.777)" fill="#455a64"/>
      <path id="Path_1513" data-name="Path 1513" d="M389.761,154.256l5.484-3.166v12.4l-5.485,3.167Z" transform="translate(-352.551 -143.701)" fill="#37474f"/>
      <path id="Path_1514" data-name="Path 1514" d="M345.08,128.456l5.485-3.166,5.027,2.9-5.484,3.166Z" transform="translate(-312.899 -120.804)" fill="#37474f"/>
      <path id="Path_1515" data-name="Path 1515" d="M409.052,255.212V253.1l-1.422.817v2.111Z" transform="translate(-368.411 -234.232)" fill="#e0e0e0"/>
      <path id="Path_1516" data-name="Path 1516" d="M413.667,256.27l-.137.08v2.111l.137-.08Z" transform="translate(-373.647 -237.046)" fill="#263238"/>
      <path id="Path_1517" data-name="Path 1517" d="M394.87,244.78V243.6l.941-.543v1.177Z" transform="translate(-357.086 -225.322)" fill="#e0e0e0"/>
      <path id="Path_1518" data-name="Path 1518" d="M401.375,244.237l-.235-.135V243.2l.235-.136Z" transform="translate(-362.651 -225.322)" fill="#263238"/>
      <path id="Path_1519" data-name="Path 1519" d="M394.87,252.727l.706-.407.235.135-.941.543Z" transform="translate(-357.086 -233.54)" fill="#455a64"/>
      <path id="Path_1520" data-name="Path 1520" d="M394.87,264.829v-1.177l.941-.542v1.177Z" transform="translate(-357.086 -243.116)" fill="#e0e0e0"/>
      <path id="Path_1521" data-name="Path 1521" d="M401.375,264.287l-.235-.136v-.906l.235-.135Z" transform="translate(-362.651 -243.116)" fill="#263238"/>
      <path id="Path_1522" data-name="Path 1522" d="M394.87,272.767l.706-.407.235.136-.941.542Z" transform="translate(-357.086 -251.325)" fill="#455a64"/>
      <path id="Path_1523" data-name="Path 1523" d="M394.87,225.169v-1.177l.941-.542v1.177Z" transform="translate(-357.086 -207.919)" fill="#e0e0e0"/>
      <path id="Path_1524" data-name="Path 1524" d="M401.375,224.627l-.235-.136v-.906l.235-.135Z" transform="translate(-362.651 -207.919)" fill="#263238"/>
      <path id="Path_1525" data-name="Path 1525" d="M394.87,233.107l.706-.407.235.136-.941.542Z" transform="translate(-357.086 -216.128)" fill="#455a64"/>
      <path id="Path_1526" data-name="Path 1526" d="M394.87,205.549v-1.177l.941-.542v1.177Z" transform="translate(-357.086 -190.506)" fill="#e0e0e0"/>
      <path id="Path_1527" data-name="Path 1527" d="M401.375,205.007l-.235-.136v-.906l.235-.135Z" transform="translate(-362.651 -190.506)" fill="#263238"/>
      <path id="Path_1528" data-name="Path 1528" d="M394.87,213.487l.706-.407.235.136-.941.542Z" transform="translate(-357.086 -198.716)" fill="#455a64"/>
      <path id="Path_1529" data-name="Path 1529" d="M394.87,185.93v-1.178l.941-.542v1.177Z" transform="translate(-357.086 -173.094)" fill="#e0e0e0"/>
      <path id="Path_1530" data-name="Path 1530" d="M401.375,185.387l-.235-.136v-.9l.235-.136Z" transform="translate(-362.651 -173.094)" fill="#263238"/>
      <path id="Path_1531" data-name="Path 1531" d="M394.87,193.867l.706-.407.235.136-.941.543Z" transform="translate(-357.086 -181.303)" fill="#455a64"/>
      <path id="Path_1532" data-name="Path 1532" d="M425.04,227.37v-1.177l.94-.543v1.177Z" transform="translate(-383.862 -209.871)" fill="#e0e0e0"/>
      <path id="Path_1533" data-name="Path 1533" d="M431.544,226.827l-.234-.135v-.906l.234-.136Z" transform="translate(-389.426 -209.871)" fill="#263238"/>
      <path id="Path_1534" data-name="Path 1534" d="M425.04,235.317l.706-.407.234.135-.94.543Z" transform="translate(-383.862 -218.089)" fill="#455a64"/>
      <path id="Path_1535" data-name="Path 1535" d="M425.04,247.419v-1.177l.94-.542v1.176Z" transform="translate(-383.862 -227.665)" fill="#e0e0e0"/>
      <path id="Path_1536" data-name="Path 1536" d="M431.544,246.876l-.234-.135v-.906l.234-.135Z" transform="translate(-389.426 -227.665)" fill="#263238"/>
      <path id="Path_1537" data-name="Path 1537" d="M425.04,255.357l.706-.407.234.135-.94.543Z" transform="translate(-383.862 -235.874)" fill="#455a64"/>
      <path id="Path_1538" data-name="Path 1538" d="M425.04,207.589v-1.177l.94-.542v1.177Z" transform="translate(-383.862 -192.317)" fill="#e0e0e0"/>
      <path id="Path_1539" data-name="Path 1539" d="M431.544,207.047l-.234-.136v-.906l.234-.135Z" transform="translate(-389.426 -192.317)" fill="#263238"/>
      <path id="Path_1540" data-name="Path 1540" d="M425.04,215.527l.706-.407.234.136-.94.542Z" transform="translate(-383.862 -200.526)" fill="#455a64"/>
      <path id="Path_1541" data-name="Path 1541" d="M425.04,187.8v-1.177l.94-.543v1.177Z" transform="translate(-383.862 -174.754)" fill="#e0e0e0"/>
      <path id="Path_1542" data-name="Path 1542" d="M431.544,187.257l-.234-.135v-.906l.234-.136Z" transform="translate(-389.426 -174.754)" fill="#263238"/>
      <path id="Path_1543" data-name="Path 1543" d="M425.04,195.747l.706-.407.234.135-.94.543Z" transform="translate(-383.862 -182.972)" fill="#455a64"/>
      <path id="Path_1544" data-name="Path 1544" d="M425.04,168.019v-1.177l.94-.542v1.177Z" transform="translate(-383.862 -157.199)" fill="#fafafa"/>
      <path id="Path_1545" data-name="Path 1545" d="M431.544,167.477l-.234-.136v-.906l.234-.135Z" transform="translate(-389.426 -157.199)" fill="#263238"/>
      <path id="Path_1546" data-name="Path 1546" d="M425.04,175.957l.706-.407.234.136-.94.542Z" transform="translate(-383.862 -165.408)" fill="#455a64"/>
      <path id="Path_1547" data-name="Path 1547" d="M415.939,173.35l-.549.316v7.916l.549-.315Z" transform="translate(-375.298 -163.456)" fill="#fafafa"/>
      <path id="Path_1548" data-name="Path 1548" d="M418.433,173.35l-.233.134v7.653l.233.131Z" transform="translate(-377.791 -163.456)" fill="#263238"/>
      <path id="Path_1549" data-name="Path 1549" d="M415.706,242.55l-.316.176V243l.549-.315Z" transform="translate(-375.298 -224.87)" fill="#455a64"/>
      <path id="Path_1550" data-name="Path 1550" d="M408.188,177.78l-.548.315v7.917l.548-.316Z" transform="translate(-368.42 -167.388)" fill="#fafafa"/>
      <path id="Path_1551" data-name="Path 1551" d="M410.682,177.78l-.232.134v7.651l.232.131Z" transform="translate(-370.913 -167.388)" fill="#263238"/>
      <path id="Path_1552" data-name="Path 1552" d="M407.956,246.97l-.316.176v.271l.548-.316Z" transform="translate(-368.42 -228.792)" fill="#455a64"/>
      <path id="Path_1553" data-name="Path 1553" d="M377.181,244.78V243.6l-.941-.543v1.177Z" transform="translate(-340.553 -225.322)" fill="#e0e0e0"/>
      <path id="Path_1554" data-name="Path 1554" d="M376.24,244.237l.235-.135V243.2l-.235-.136Z" transform="translate(-340.553 -225.322)" fill="#37474f"/>
      <path id="Path_1555" data-name="Path 1555" d="M377.181,252.727l-.706-.407-.235.135.941.543Z" transform="translate(-340.553 -233.54)" fill="#263238"/>
      <path id="Path_1556" data-name="Path 1556" d="M364.19,237.319v-1.177l-.94-.542v1.177Z" transform="translate(-329.024 -218.702)" fill="#e0e0e0"/>
      <path id="Path_1557" data-name="Path 1557" d="M363.25,236.777l.234-.136v-.906l-.234-.135Z" transform="translate(-329.024 -218.702)" fill="#37474f"/>
      <path id="Path_1558" data-name="Path 1558" d="M364.19,245.257l-.706-.407-.234.136.94.542Z" transform="translate(-329.024 -226.911)" fill="#263238"/>
      <path id="Path_1559" data-name="Path 1559" d="M351.191,229.85v-1.177l-.941-.543v1.177Z" transform="translate(-317.487 -212.072)" fill="#e0e0e0"/>
      <path id="Path_1560" data-name="Path 1560" d="M350.25,229.307l.235-.135v-.906l-.235-.136Z" transform="translate(-317.487 -212.072)" fill="#37474f"/>
      <path id="Path_1561" data-name="Path 1561" d="M351.191,237.8l-.706-.406-.235.135.941.543Z" transform="translate(-317.487 -220.29)" fill="#263238"/>
      <path id="Path_1562" data-name="Path 1562" d="M377.181,264.829v-1.177l-.941-.542v1.177Z" transform="translate(-340.553 -243.116)" fill="#e0e0e0"/>
      <path id="Path_1563" data-name="Path 1563" d="M376.24,264.287l.235-.136v-.906l-.235-.135Z" transform="translate(-340.553 -243.116)" fill="#37474f"/>
      <path id="Path_1564" data-name="Path 1564" d="M377.181,272.767l-.706-.407-.235.136.941.542Z" transform="translate(-340.553 -251.325)" fill="#263238"/>
      <path id="Path_1565" data-name="Path 1565" d="M364.19,257.36v-1.178l-.94-.542v1.177Z" transform="translate(-329.024 -236.487)" fill="#e0e0e0"/>
      <path id="Path_1566" data-name="Path 1566" d="M363.25,256.817l.234-.136v-.9l-.234-.136Z" transform="translate(-329.024 -236.487)" fill="#37474f"/>
      <path id="Path_1567" data-name="Path 1567" d="M364.19,265.3l-.706-.407-.234.136.94.543Z" transform="translate(-329.024 -244.696)" fill="#263238"/>
      <path id="Path_1568" data-name="Path 1568" d="M351.191,249.89v-1.177l-.941-.543v1.177Z" transform="translate(-317.487 -229.857)" fill="#e0e0e0"/>
      <path id="Path_1569" data-name="Path 1569" d="M350.25,249.347l.235-.135v-.906l-.235-.136Z" transform="translate(-317.487 -229.857)" fill="#37474f"/>
      <path id="Path_1570" data-name="Path 1570" d="M351.191,257.837l-.706-.407-.235.135.941.543Z" transform="translate(-317.487 -238.075)" fill="#263238"/>
      <path id="Path_1571" data-name="Path 1571" d="M377.181,225.169v-1.177l-.941-.542v1.177Z" transform="translate(-340.553 -207.919)" fill="#e0e0e0"/>
      <path id="Path_1572" data-name="Path 1572" d="M376.24,224.627l.235-.136v-.906l-.235-.135Z" transform="translate(-340.553 -207.919)" fill="#37474f"/>
      <path id="Path_1573" data-name="Path 1573" d="M377.181,233.107l-.706-.407-.235.136.941.542Z" transform="translate(-340.553 -216.128)" fill="#263238"/>
      <path id="Path_1574" data-name="Path 1574" d="M364.19,217.619v-1.177l-.94-.542v1.177Z" transform="translate(-329.024 -201.218)" fill="#e0e0e0"/>
      <path id="Path_1575" data-name="Path 1575" d="M363.25,217.077l.234-.136v-.906l-.234-.135Z" transform="translate(-329.024 -201.218)" fill="#37474f"/>
      <path id="Path_1576" data-name="Path 1576" d="M364.19,225.557l-.706-.407-.234.136.94.542Z" transform="translate(-329.024 -209.427)" fill="#263238"/>
      <path id="Path_1577" data-name="Path 1577" d="M351.191,210.069v-1.177l-.941-.542v1.177Z" transform="translate(-317.487 -194.518)" fill="#e0e0e0"/>
      <path id="Path_1578" data-name="Path 1578" d="M350.25,209.527l.235-.136v-.906l-.235-.135Z" transform="translate(-317.487 -194.518)" fill="#37474f"/>
      <path id="Path_1579" data-name="Path 1579" d="M351.191,218.007l-.706-.407-.235.136.941.542Z" transform="translate(-317.487 -202.727)" fill="#263238"/>
      <path id="Path_1580" data-name="Path 1580" d="M377.181,205.549v-1.177l-.941-.542v1.177Z" transform="translate(-340.553 -190.506)" fill="#e0e0e0"/>
      <path id="Path_1581" data-name="Path 1581" d="M376.24,205.007l.235-.136v-.906l-.235-.135Z" transform="translate(-340.553 -190.506)" fill="#37474f"/>
      <path id="Path_1582" data-name="Path 1582" d="M377.181,213.487l-.706-.407-.235.136.941.542Z" transform="translate(-340.553 -198.716)" fill="#263238"/>
      <path id="Path_1583" data-name="Path 1583" d="M364.19,197.91v-1.177l-.94-.543v1.178Z" transform="translate(-329.024 -183.726)" fill="#e0e0e0"/>
      <path id="Path_1584" data-name="Path 1584" d="M363.25,197.368l.234-.136v-.906l-.234-.136Z" transform="translate(-329.024 -183.726)" fill="#37474f"/>
      <path id="Path_1585" data-name="Path 1585" d="M364.19,205.857l-.706-.407-.234.136.94.542Z" transform="translate(-329.024 -191.944)" fill="#263238"/>
      <path id="Path_1586" data-name="Path 1586" d="M351.191,190.28V189.1l-.941-.543v1.177Z" transform="translate(-317.487 -176.955)" fill="#e0e0e0"/>
      <path id="Path_1587" data-name="Path 1587" d="M350.25,189.737l.235-.135V188.7l-.235-.136Z" transform="translate(-317.487 -176.955)" fill="#37474f"/>
      <path id="Path_1588" data-name="Path 1588" d="M351.191,198.227l-.706-.407-.235.135.941.543Z" transform="translate(-317.487 -185.173)" fill="#263238"/>
      <path id="Path_1589" data-name="Path 1589" d="M377.181,185.93v-1.178l-.941-.542v1.177Z" transform="translate(-340.553 -173.094)" fill="#e0e0e0"/>
      <path id="Path_1590" data-name="Path 1590" d="M376.24,185.387l.235-.136v-.9l-.235-.136Z" transform="translate(-340.553 -173.094)" fill="#37474f"/>
      <path id="Path_1591" data-name="Path 1591" d="M377.181,193.867l-.706-.407-.235.136.941.543Z" transform="translate(-340.553 -181.303)" fill="#263238"/>
      <path id="Path_1592" data-name="Path 1592" d="M364.19,178.21v-1.177l-.94-.543v1.177Z" transform="translate(-329.024 -166.243)" fill="#e0e0e0"/>
      <path id="Path_1593" data-name="Path 1593" d="M363.25,177.667l.234-.135v-.906l-.234-.136Z" transform="translate(-329.024 -166.243)" fill="#37474f"/>
      <path id="Path_1594" data-name="Path 1594" d="M364.19,186.157l-.706-.407-.234.135.94.543Z" transform="translate(-329.024 -174.461)" fill="#263238"/>
      <path id="Path_1595" data-name="Path 1595" d="M351.191,170.5v-1.177l-.941-.542v1.177Z" transform="translate(-317.487 -159.4)" fill="#e0e0e0"/>
      <path id="Path_1596" data-name="Path 1596" d="M350.25,169.957l.235-.136v-.906l-.235-.135Z" transform="translate(-317.487 -159.4)" fill="#37474f"/>
      <path id="Path_1597" data-name="Path 1597" d="M351.191,178.437l-.706-.407-.235.136.941.542Z" transform="translate(-317.487 -167.609)" fill="#263238"/>
      <path id="Path_1598" data-name="Path 1598" d="M361.894,132.355l-4.114-2.375-4.571,2.639,4.114,2.375Z" transform="translate(-320.114 -124.966)" fill="#f0f0f0"/>
      <path id="Path_1599" data-name="Path 1599" d="M357.781,129.98v.528l-4.114,2.375-.457-.264Z" transform="translate(-320.114 -124.966)" fill="#263238"/>
      <path id="Path_1600" data-name="Path 1600" d="M393.83,129.98l4.114,2.375-.458.263-3.656-2.111Z" transform="translate(-356.163 -124.966)" fill="#455a64"/>
      <path id="Path_1601" data-name="Path 1601" d="M306.49,384.37a2.348,2.348,0,0,1-1.786,0c-.493-.235-.493-.615,0-.851a2.348,2.348,0,0,1,1.786,0C306.984,383.754,306.984,384.135,306.49,384.37Z" transform="translate(-276.739 -349.82)" fill="#e0e0e0"/>
      <path id="Path_1602" data-name="Path 1602" d="M156.458,377.479a2.351,2.351,0,0,0,1.787,0c.493-.235.493-.616,0-.851a2.351,2.351,0,0,0-1.787,0C155.967,376.864,155.967,377.244,156.458,377.479Z" transform="translate(-145.174 -343.705)" fill="#e0e0e0"/>
      <path id="Path_1603" data-name="Path 1603" d="M160.119,277.892l10.939-6.316a.458.458,0,0,0,0-.809l-10.94-6.316a.539.539,0,0,0-.487,0l-10.939,6.311a.458.458,0,0,0,0,.809l10.94,6.316A.539.539,0,0,0,160.119,277.892Z" transform="translate(-138.392 -244.255)" fill="#cb955b"/>
      <path id="Path_1604" data-name="Path 1604" d="M160.119,277.892l10.939-6.316a.458.458,0,0,0,0-.809l-10.94-6.316a.539.539,0,0,0-.487,0l-10.939,6.311a.458.458,0,0,0,0,.809l10.94,6.316A.539.539,0,0,0,160.119,277.892Z" transform="translate(-138.392 -244.255)" fill="#cb955b"/>
      <path id="Path_1605" data-name="Path 1605" d="M160.119,277.892l10.939-6.316a.458.458,0,0,0,0-.809l-10.94-6.316a.539.539,0,0,0-.487,0l-10.939,6.311a.458.458,0,0,0,0,.809l10.94,6.316A.539.539,0,0,0,160.119,277.892Z" transform="translate(-138.392 -244.255)" fill="#cb955b"/>
      <path id="Path_1606" data-name="Path 1606" d="M160.119,277.892l10.939-6.316a.458.458,0,0,0,0-.809l-10.94-6.316a.539.539,0,0,0-.487,0l-10.939,6.311a.458.458,0,0,0,0,.809l10.94,6.316A.539.539,0,0,0,160.119,277.892Z" transform="translate(-138.392 -244.255)" opacity="0.2"/>
      <path id="Path_1607" data-name="Path 1607" d="M149.758,271.048l10.94,6.316a.539.539,0,0,0,.487,0l10.939-6.316a.149.149,0,0,0,0-.281l-10.94-6.316a.539.539,0,0,0-.487,0l-10.939,6.311a.149.149,0,0,0,0,.286Z" transform="translate(-139.459 -244.255)" fill="#cb955b"/>
      <path id="Path_1608" data-name="Path 1608" d="M266.25,176.652l7.77-4.486V153.43l-7.77,4.486Z" transform="translate(-242.939 -145.777)" fill="#37474f"/>
      <path id="Path_1609" data-name="Path 1609" d="M174.3,177.972v-19l-9.6-5.542v19Z" transform="translate(-152.815 -145.777)" fill="#455a64"/>
      <path id="Path_1610" data-name="Path 1610" d="M167.083,253.309l-9.6-5.542v-.528l-.915.528,10.513,6.069Z" transform="translate(-145.6 -229.032)" fill="#cb955b"/>
      <path id="Path_1611" data-name="Path 1611" d="M167.083,253.309l-9.6-5.542v-.528l-.915.528,10.513,6.069Z" transform="translate(-145.6 -229.032)" fill="#fff" opacity="0.5"/>
      <path id="Path_1612" data-name="Path 1612" d="M156.57,251.93,167.083,258v.528l-10.513-6.069Z" transform="translate(-145.6 -233.194)" fill="#cb955b"/>
      <path id="Path_1613" data-name="Path 1613" d="M250,292.855l1.828-1.055.457.264L250,293.383Z" transform="translate(-228.517 -268.578)" fill="#cb955b"/>
      <path id="Path_1614" data-name="Path 1614" d="M250,292.855l1.828-1.055.457.264L250,293.383Z" transform="translate(-228.517 -268.578)" fill="#fff" opacity="0.5"/>
      <path id="Path_1615" data-name="Path 1615" d="M250,296l2.285-1.319v-.528L250,295.469Z" transform="translate(-228.517 -270.663)" fill="#cb955b"/>
      <path id="Path_1616" data-name="Path 1616" d="M250,296l2.285-1.319v-.528L250,295.469Z" transform="translate(-228.517 -270.663)" opacity="0.2"/>
      <path id="Path_1617" data-name="Path 1617" d="M250,194.355l1.828-1.055v11.083L250,205.439Z" transform="translate(-228.517 -181.161)" fill="#263238"/>
      <path id="Path_1618" data-name="Path 1618" d="M250,302.235l1.828-1.055v6.862L250,309.1Z" transform="translate(-228.517 -276.902)" fill="#263238"/>
      <path id="Path_1619" data-name="Path 1619" d="M227.458,257.974v-2.639l-1.828-1.055v2.639Z" transform="translate(-206.89 -235.28)" fill="#cb955b"/>
      <path id="Path_1620" data-name="Path 1620" d="M227.458,257.974v-2.639l-1.828-1.055v2.639Z" transform="translate(-206.89 -235.28)" fill="#fff" opacity="0.5"/>
      <path id="Path_1621" data-name="Path 1621" d="M225.63,256.919l.457-.263v-2.112l-.457-.263Z" transform="translate(-206.89 -235.28)" fill="#263238"/>
      <path id="Path_1622" data-name="Path 1622" d="M227.458,276.181l-1.372-.791-.457.263,1.828,1.055Z" transform="translate(-206.89 -254.014)" fill="#263238"/>
      <path id="Path_1623" data-name="Path 1623" d="M199.475,241.819V239.18l-2.285-1.32V240.5Z" transform="translate(-181.65 -220.707)" fill="#cb955b"/>
      <path id="Path_1624" data-name="Path 1624" d="M199.475,241.819V239.18l-2.285-1.32V240.5Z" transform="translate(-181.65 -220.707)" fill="#fff" opacity="0.5"/>
      <path id="Path_1625" data-name="Path 1625" d="M197.647,240.235v-2.111l-.458-.264V240.5Z" transform="translate(-181.65 -220.707)" fill="#263238"/>
      <path id="Path_1626" data-name="Path 1626" d="M199.475,260.025v.528l-2.285-1.32.457-.263Z" transform="translate(-181.65 -239.442)" fill="#263238"/>
      <path id="Path_1627" data-name="Path 1627" d="M276.4,306.317v-2.639l2.285-1.319V305Z" transform="translate(-251.947 -277.95)" fill="#cb955b"/>
      <path id="Path_1628" data-name="Path 1628" d="M292.65,304.734v-2.111l.457-.263V305Z" transform="translate(-266.368 -277.95)" fill="#263238"/>
      <path id="Path_1629" data-name="Path 1629" d="M276.4,324.515v.528l2.285-1.319-.457-.264Z" transform="translate(-251.947 -296.675)" fill="#263238"/>
      <path id="Path_1630" data-name="Path 1630" d="M276.4,267.228V264.59l2.285-1.32v2.639Z" transform="translate(-251.947 -243.258)" fill="#cb955b"/>
      <path id="Path_1631" data-name="Path 1631" d="M292.65,265.645v-2.112l.457-.263v2.639Z" transform="translate(-266.368 -243.258)" fill="#263238"/>
      <path id="Path_1632" data-name="Path 1632" d="M276.4,285.435v.528l2.285-1.32-.457-.263Z" transform="translate(-251.947 -261.993)" fill="#263238"/>
      <path id="Path_1633" data-name="Path 1633" d="M276.4,228.139V225.5l2.285-1.32v2.639Z" transform="translate(-251.947 -208.567)" fill="#cb955b"/>
      <path id="Path_1634" data-name="Path 1634" d="M292.65,226.555v-2.111l.457-.264v2.639Z" transform="translate(-266.368 -208.567)" fill="#263238"/>
      <path id="Path_1635" data-name="Path 1635" d="M276.4,246.345v.528l2.285-1.32-.457-.263Z" transform="translate(-251.947 -227.301)" fill="#263238"/>
      <path id="Path_1636" data-name="Path 1636" d="M276.4,189.048V186.41l2.285-1.32v2.64Z" transform="translate(-251.947 -173.875)" fill="#cb955b"/>
      <path id="Path_1637" data-name="Path 1637" d="M292.65,187.465v-2.111l.457-.264v2.64Z" transform="translate(-266.368 -173.875)" fill="#263238"/>
      <path id="Path_1638" data-name="Path 1638" d="M276.4,207.255v.528l2.285-1.319-.457-.264Z" transform="translate(-251.947 -192.61)" fill="#263238"/>
      <path id="Path_1639" data-name="Path 1639" d="M305.28,289.647v-2.639l2.286-1.319v2.639Z" transform="translate(-277.577 -263.155)" fill="#cb955b"/>
      <path id="Path_1640" data-name="Path 1640" d="M321.53,288.064v-2.111l.458-.263v2.639Z" transform="translate(-291.999 -263.155)" fill="#263238"/>
      <path id="Path_1641" data-name="Path 1641" d="M305.28,307.847v.527l2.285-1.319-.457-.264Z" transform="translate(-277.577 -281.881)" fill="#263238"/>
      <path id="Path_1642" data-name="Path 1642" d="M305.28,250.559v-2.64l2.286-1.319v2.639Z" transform="translate(-277.577 -228.464)" fill="#cb955b"/>
      <path id="Path_1643" data-name="Path 1643" d="M321.53,248.975v-2.112l.458-.263v2.639Z" transform="translate(-291.999 -228.464)" fill="#263238"/>
      <path id="Path_1644" data-name="Path 1644" d="M305.28,268.765v.528l2.285-1.32-.457-.263Z" transform="translate(-277.577 -247.198)" fill="#263238"/>
      <path id="Path_1645" data-name="Path 1645" d="M305.28,211.469V208.83l2.286-1.32v2.64Z" transform="translate(-277.577 -193.772)" fill="#cb955b"/>
      <path id="Path_1646" data-name="Path 1646" d="M321.53,209.885v-2.111l.458-.264v2.64Z" transform="translate(-291.999 -193.772)" fill="#263238"/>
      <path id="Path_1647" data-name="Path 1647" d="M305.28,229.675v.528l2.285-1.319-.457-.264Z" transform="translate(-277.577 -212.507)" fill="#263238"/>
      <path id="Path_1648" data-name="Path 1648" d="M305.28,172.387v-2.639l2.286-1.319v2.639Z" transform="translate(-277.577 -159.09)" fill="#cb955b"/>
      <path id="Path_1649" data-name="Path 1649" d="M321.53,170.8v-2.111l.458-.263v2.639Z" transform="translate(-291.999 -159.09)" fill="#263238"/>
      <path id="Path_1650" data-name="Path 1650" d="M305.28,190.585v.528l2.285-1.319-.457-.264Z" transform="translate(-277.577 -177.815)" fill="#263238"/>
      <path id="Path_1651" data-name="Path 1651" d="M174.648,227.484v-2.639l-1.828-1.055v2.639Z" transform="translate(-160.022 -208.22)" fill="#cb955b"/>
      <path id="Path_1652" data-name="Path 1652" d="M174.648,227.484v-2.639l-1.828-1.055v2.639Z" transform="translate(-160.022 -208.22)" fill="#fff" opacity="0.5"/>
      <path id="Path_1653" data-name="Path 1653" d="M173.277,226.165l-.457.263V223.79l.457.264Z" transform="translate(-160.022 -208.22)" fill="#263238"/>
      <path id="Path_1654" data-name="Path 1654" d="M174.648,245.691l-1.372-.791-.457.263,1.828,1.055Z" transform="translate(-160.022 -226.955)" fill="#263238"/>
      <path id="Path_1655" data-name="Path 1655" d="M197.19,294.763c0-.745.512-1.054,1.143-.69a2.554,2.554,0,0,1,1.142,2.01v4.46l-2.285-1.32Z" transform="translate(-181.65 -270.46)" fill="#263238"/>
      <path id="Path_1656" data-name="Path 1656" d="M203.081,296.091a2.552,2.552,0,0,0-1.142-2.01.979.979,0,0,0-.538-.152,1.043,1.043,0,0,0-.147.578v4.46l1.827,1.055Z" transform="translate(-185.255 -270.467)" fill="#455a64"/>
      <path id="Path_1657" data-name="Path 1657" d="M203.081,296.091a2.552,2.552,0,0,0-1.142-2.01.979.979,0,0,0-.538-.152,1.043,1.043,0,0,0-.147.578v4.46l1.827,1.055Z" transform="translate(-185.255 -270.467)" fill="#cb955b"/>
      <path id="Path_1658" data-name="Path 1658" d="M203.081,296.091a2.552,2.552,0,0,0-1.142-2.01.979.979,0,0,0-.538-.152,1.043,1.043,0,0,0-.147.578v4.46l1.827,1.055Z" transform="translate(-185.255 -270.467)" fill="#fff" opacity="0.5"/>
      <path id="Path_1659" data-name="Path 1659" d="M202.293,296.061a1.846,1.846,0,0,0-.225-.181v1.186l-.788-.457v.273l.788.458v3.419l.225.129v-3.421l.812.469v-.113a1.112,1.112,0,0,0-.008-.163l-.8-.464Z" transform="translate(-185.279 -272.199)" fill="#455a64"/>
      <path id="Path_1660" data-name="Path 1660" d="M170.686,144.408v-1.583l-10.056-5.8V138.6Z" transform="translate(-149.203 -131.214)" fill="#cb955b"/>
      <path id="Path_1661" data-name="Path 1661" d="M170.686,144.408v-1.583l-10.056-5.8V138.6Z" transform="translate(-149.203 -131.214)" fill="#fff" opacity="0.5"/>
      <path id="Path_1662" data-name="Path 1662" d="M250,144.408v-1.583l10.056-5.8V138.6Z" transform="translate(-228.517 -131.214)" fill="#cb955b"/>
      <path id="Path_1663" data-name="Path 1663" d="M250,144.408v-1.583l10.056-5.8V138.6Z" transform="translate(-228.517 -131.214)" opacity="0.2"/>
      <path id="Path_1664" data-name="Path 1664" d="M172.82,171.858c0-.621.41-.889.914-.6a2.093,2.093,0,0,1,.915,1.653v4.153l-1.828-1.055Z" transform="translate(-160.022 -161.497)" fill="#263238"/>
      <path id="Path_1665" data-name="Path 1665" d="M177.334,171.293a.8.8,0,0,0-.358-.113.946.946,0,0,0-.1.45v4.153l1.372.788v-3.625A2.09,2.09,0,0,0,177.334,171.293Z" transform="translate(-163.622 -161.53)" fill="#cb955b"/>
      <path id="Path_1666" data-name="Path 1666" d="M177.334,171.293a.8.8,0,0,0-.358-.113.946.946,0,0,0-.1.45v4.153l1.372.788v-3.625A2.09,2.09,0,0,0,177.334,171.293Z" transform="translate(-163.622 -161.53)" fill="#fff" opacity="0.5"/>
      <path id="Path_1667" data-name="Path 1667" d="M172.82,212.324l.457-.264,1.372.791v.529Z" transform="translate(-160.022 -197.81)" fill="#263238"/>
      <path id="Path_1668" data-name="Path 1668" d="M197.19,186.922c0-.746.512-1.054,1.143-.69a2.554,2.554,0,0,1,1.142,2.01v3.928l-2.285-1.32Z" transform="translate(-181.65 -174.752)" fill="#263238"/>
      <path id="Path_1669" data-name="Path 1669" d="M203.081,188.251a2.552,2.552,0,0,0-1.142-2.01.979.979,0,0,0-.538-.152,1.043,1.043,0,0,0-.147.578v3.927l1.827,1.057Z" transform="translate(-185.255 -174.762)" fill="#cb955b"/>
      <path id="Path_1670" data-name="Path 1670" d="M203.081,188.251a2.552,2.552,0,0,0-1.142-2.01.979.979,0,0,0-.538-.152,1.043,1.043,0,0,0-.147.578v3.927l1.827,1.057Z" transform="translate(-185.255 -174.762)" fill="#fff" opacity="0.5"/>
      <path id="Path_1671" data-name="Path 1671" d="M197.648,226.13l-.458.264,2.285,1.32v-.528Z" transform="translate(-181.65 -210.297)" fill="#263238"/>
      <path id="Path_1672" data-name="Path 1672" d="M225.63,202.358c0-.621.408-.889.914-.6a2.09,2.09,0,0,1,.915,1.653v4.153l-1.828-1.055Z" transform="translate(-206.89 -188.565)" fill="#263238"/>
      <path id="Path_1673" data-name="Path 1673" d="M230.143,201.793a.809.809,0,0,0-.358-.113.942.942,0,0,0-.1.45v4.153l1.372.788v-3.625A2.09,2.09,0,0,0,230.143,201.793Z" transform="translate(-210.489 -188.598)" fill="#cb955b"/>
      <path id="Path_1674" data-name="Path 1674" d="M230.143,201.793a.809.809,0,0,0-.358-.113.942.942,0,0,0-.1.45v4.153l1.372.788v-3.625A2.09,2.09,0,0,0,230.143,201.793Z" transform="translate(-210.489 -188.598)" fill="#fff" opacity="0.5"/>
      <path id="Path_1675" data-name="Path 1675" d="M226.087,242.55l-.457.264,1.828,1.055v-.528Z" transform="translate(-206.89 -224.87)" fill="#263238"/>
      <path id="Path_1676" data-name="Path 1676" d="M225.63,310.188c0-.621.408-.889.914-.6a2.09,2.09,0,0,1,.915,1.653v4.685l-1.828-1.055Z" transform="translate(-206.89 -284.262)" fill="#263238"/>
      <path id="Path_1677" data-name="Path 1677" d="M230.144,309.633a.809.809,0,0,0-.358-.113.946.946,0,0,0-.1.45v4.684l1.372.788v-4.163A2.087,2.087,0,0,0,230.144,309.633Z" transform="translate(-210.49 -284.304)" fill="#cb955b"/>
      <path id="Path_1678" data-name="Path 1678" d="M230.144,309.633a.809.809,0,0,0-.358-.113.946.946,0,0,0-.1.45v4.684l1.372.788v-4.163A2.087,2.087,0,0,0,230.144,309.633Z" transform="translate(-210.49 -284.304)" fill="#fff" opacity="0.5"/>
      <path id="Path_1679" data-name="Path 1679" d="M225.63,344.983V343.4l1.828,1.055v1.583Z" transform="translate(-206.89 -314.372)" fill="#37474f"/>
      <path id="Path_1680" data-name="Path 1680" d="M225.63,341.314l.457-.264,1.371.792v.528Z" transform="translate(-206.89 -312.286)" fill="#263238"/>
      <path id="Path_1681" data-name="Path 1681" d="M172.82,279.7c0-.621.41-.889.914-.6a2.093,2.093,0,0,1,.915,1.653v4.685l-1.828-1.053Z" transform="translate(-160.022 -257.203)" fill="#263238"/>
      <path id="Path_1682" data-name="Path 1682" d="M177.334,279.113a.819.819,0,0,0-.358-.113.946.946,0,0,0-.1.45v4.685l1.372.788V280.76A2.1,2.1,0,0,0,177.334,279.113Z" transform="translate(-163.622 -257.218)" fill="#cb955b"/>
      <path id="Path_1683" data-name="Path 1683" d="M177.334,279.113a.819.819,0,0,0-.358-.113.946.946,0,0,0-.1.45v4.685l1.372.788V280.76A2.1,2.1,0,0,0,177.334,279.113Z" transform="translate(-163.622 -257.218)" fill="#fff" opacity="0.5"/>
      <path id="Path_1684" data-name="Path 1684" d="M174.648,315.549v-1.583l-1.828-1.055v1.583Z" transform="translate(-160.022 -287.313)" fill="#37474f"/>
      <path id="Path_1685" data-name="Path 1685" d="M172.82,310.824l.457-.264,1.372.792v.528Z" transform="translate(-160.022 -285.227)" fill="#263238"/>
      <path id="Path_1686" data-name="Path 1686" d="M197.19,336.888v-.528l2.285,1.32v.528Z" transform="translate(-181.65 -308.124)" fill="#37474f"/>
      <path id="Path_1687" data-name="Path 1687" d="M197.19,334.283l.458-.263,1.827,1.055v.528Z" transform="translate(-181.65 -306.047)" fill="#263238"/>
      <path id="Path_1688" data-name="Path 1688" d="M170.686,97.031l10.056-5.8L170.686,85.42,160.63,91.226Z" transform="translate(-149.203 -85.42)" fill="#cb955b"/>
      <path id="Path_1689" data-name="Path 1689" d="M170.686,97.031l10.056-5.8L170.686,85.42,160.63,91.226Z" transform="translate(-149.203 -85.42)" fill="#fff" opacity="0.7"/>
      <path id="Path_1690" data-name="Path 1690" d="M185.108,104.3l8.228-4.75L185.108,94.8l-8.228,4.751Z" transform="translate(-163.625 -93.745)" fill="#cb955b"/>
      <path id="Path_1691" data-name="Path 1691" d="M185.108,94.8v1.584l-6.856,3.957-1.372-.791Z" transform="translate(-163.625 -93.745)" fill="#cb955b"/>
      <path id="Path_1692" data-name="Path 1692" d="M185.108,94.8v1.584l-6.856,3.957-1.372-.791Z" transform="translate(-163.625 -93.745)" opacity="0.2"/>
      <path id="Path_1693" data-name="Path 1693" d="M250,94.8l8.228,4.751-1.372.791L250,96.384Z" transform="translate(-228.517 -93.745)" fill="#cb955b"/>
      <path id="Path_1694" data-name="Path 1694" d="M250,94.8l8.228,4.751-1.372.791L250,96.384Z" transform="translate(-228.517 -93.745)" fill="#fff" opacity="0.5"/>
      <path id="Path_1695" data-name="Path 1695" d="M219.785,106.53l-2.285,1.32,3.2,1.846,2.285-1.319Z" transform="translate(-199.674 -104.155)" fill="#455a64"/>
      <path id="Path_1696" data-name="Path 1696" d="M217.5,118.26v1.583l3.2,1.846v-1.583Z" transform="translate(-199.674 -114.565)" fill="#37474f"/>
      <path id="Path_1697" data-name="Path 1697" d="M248.225,122.95v1.583l-2.285,1.319v-1.583Z" transform="translate(-224.914 -118.727)" fill="#263238"/>
      <path id="Path_1698" data-name="Path 1698" d="M228.684,112.982a.458.458,0,0,0,0,.868,1.659,1.659,0,0,0,1.5,0,.458.458,0,0,0,0-.868A1.659,1.659,0,0,0,228.684,112.982Z" transform="translate(-209.323 -109.721)" fill="#37474f"/>
      <path id="Path_1699" data-name="Path 1699" d="M233.539,115.987c-.195.1-.195.27,0,.372a.835.835,0,0,0,.7,0c.194-.1.194-.27,0-.372a.835.835,0,0,0-.7,0Z" transform="translate(-213.779 -112.479)" fill="#263238"/>
      <path id="Path_1700" data-name="Path 1700" d="M252.22,135.73l.457.263v1.057" transform="translate(-230.488 -130.069)" fill="none" stroke="#455a64" stroke-linecap="round" stroke-linejoin="round" stroke-width="2"/>
      <path id="Path_1701" data-name="Path 1701" d="M258.12,132.33l.457.263v1.055" transform="translate(-235.724 -127.052)" fill="none" stroke="#455a64" stroke-linecap="round" stroke-linejoin="round" stroke-width="2"/>
    </g>
    <g id="freepik--Trees--inject-64" transform="translate(30.215 98.249)">
      <path id="Path_1702" data-name="Path 1702" d="M132.52,273.68v3.637a.145.145,0,0,0,.086.12.465.465,0,0,0,.419,0,.145.145,0,0,0,.086-.12v-3.634Z" transform="translate(-121.008 -265.325)" fill="#37474f"/>
      <path id="Path_1703" data-name="Path 1703" d="M125.36,259.118a1.42,1.42,0,1,1-2.84,0c0-1.452.636-3.038,1.42-3.038S125.36,257.646,125.36,259.118Z" transform="translate(-112.134 -249.706)" fill="#cb955b"/>
      <path id="Path_1704" data-name="Path 1704" d="M125.378,267.824v-.15a.725.725,0,0,1-.172.42,1.308,1.308,0,0,1-1.474.45c-1.028-.431-1.057-1.647-.828-2.654a5.35,5.35,0,0,0-.363,1.935,1.42,1.42,0,1,0,2.84,0Z" transform="translate(-112.151 -258.412)" fill="#cb955b"/>
      <path id="Path_1705" data-name="Path 1705" d="M125.378,267.824v-.15a.725.725,0,0,1-.172.42,1.308,1.308,0,0,1-1.474.45c-1.028-.431-1.057-1.647-.828-2.654a5.35,5.35,0,0,0-.363,1.935,1.42,1.42,0,1,0,2.84,0Z" transform="translate(-112.151 -258.412)" opacity="0.1"/>
      <path id="Path_1706" data-name="Path 1706" d="M40.21,217v3.636a.147.147,0,0,0,.089.123.462.462,0,0,0,.417,0,.147.147,0,0,0,.087-.12V217Z" transform="translate(-39.085 -215.023)" fill="#37474f"/>
      <path id="Path_1707" data-name="Path 1707" d="M33.054,202.468a1.42,1.42,0,1,1-2.839,0c0-1.452.636-3.038,1.419-3.038S33.054,200.993,33.054,202.468Z" transform="translate(-30.215 -199.43)" fill="#cb955b"/>
      <path id="Path_1708" data-name="Path 1708" d="M455.131,217v3.636a.147.147,0,0,1-.087.12.463.463,0,0,1-.417,0,.147.147,0,0,1-.087-.12V217Z" transform="translate(-406.794 -215.023)" fill="#37474f"/>
      <path id="Path_1709" data-name="Path 1709" d="M444.546,202.468a1.42,1.42,0,1,0,2.839,0c0-1.452-.636-3.038-1.419-3.038S444.546,200.993,444.546,202.468Z" transform="translate(-397.924 -199.43)" fill="#cb955b"/>
    </g>
  </g>
</svg>
