<svg id="freepik--Characters--inject-2" xmlns="http://www.w3.org/2000/svg" width="35.978" height="27.893" viewBox="0 0 35.978 27.893">
  <rect id="rect329" width="3.983" height="1.603" rx="0.801" transform="translate(15.62 1.288)" fill="#263238"/>
  <path id="path331" d="M363.195,210.446h-3.164a.462.462,0,0,1-.461-.461V209.2a.462.462,0,0,1,.461-.462h3.164a.462.462,0,0,1,.461.462v.782A.461.461,0,0,1,363.195,210.446Zm-3.164-1.6a.359.359,0,0,0-.358.359v.782a.358.358,0,0,0,.358.358h3.164a.358.358,0,0,0,.358-.358V209.2a.359.359,0,0,0-.358-.359Z" transform="translate(-344.001 -207.503)" fill="#263238"/>
  <rect id="rect333" width="0.388" height="1.215" transform="translate(17.271 0.511)" fill="#263238"/>
  <path id="path335" d="M376.091,202.487H375.7a.051.051,0,0,1-.051-.051v-1.215a.052.052,0,0,1,.051-.051h.389a.052.052,0,0,1,.051.051v1.215A.051.051,0,0,1,376.091,202.487Zm-.338-.1h.286v-1.112h-.286Z" transform="translate(-358.43 -200.71)" fill="#263238"/>
  <path id="path337" d="M278.781,210.862l-1.392-1.075-1.942-7.174-3.23-.4,1.4,5.192H257.275l1.4-5.2-3.23.4-1.972,7.281-1.473.972Zm-6.161-8.254,2.434.177,1.552,6.386-2.286-1.773H274.2Zm-16.779.177,2.434-.177-1.7,5.165.057.02-2.395,1.59Z" transform="translate(-247.477 -201.644)" fill="#263238"/>
  <path id="path339" d="M278.337,210.467H251.557a.051.051,0,0,1-.029-.093l1.455-.965,1.962-7.259a.051.051,0,0,1,.043-.038l3.23-.4a.054.054,0,0,1,.045.017.049.049,0,0,1,.01.047L256.9,206.9H273.1l-1.38-5.127a.049.049,0,0,1,.01-.047.057.057,0,0,1,.045-.017l3.231.4a.053.053,0,0,1,.044.038l1.937,7.157,1.379,1.07a.05.05,0,0,1-.032.091Zm-26.609-.1h26.459l-1.274-.988a.045.045,0,0,1-.018-.028l-1.933-7.141-3.121-.384,1.381,5.115a.051.051,0,0,1-.008.044.053.053,0,0,1-.041.021H256.832a.053.053,0,0,1-.041-.021.051.051,0,0,1-.008-.044l1.378-5.118-3.122.384-1.96,7.246a.048.048,0,0,1-.022.03Zm2.062-1.377a.048.048,0,0,1-.03-.01.049.049,0,0,1-.021-.053l1.607-6.6a.051.051,0,0,1,.046-.039l2.435-.177a.051.051,0,0,1,.052.068l-1.688,5.117h.009a.052.052,0,0,1,.035.042.051.051,0,0,1-.023.049l-2.4,1.589a.047.047,0,0,1-.026.009Zm1.648-6.6-1.567,6.433,2.212-1.466a.048.048,0,0,1-.005-.043l1.68-5.092Zm20.723,6.393a.052.052,0,0,1-.032-.011l-2.272-1.762h-.1a.051.051,0,0,1-.049-.036l-1.581-4.792a.051.051,0,0,1,.052-.068l2.435.177a.051.051,0,0,1,.046.039l1.557,6.39a.052.052,0,0,1-.023.055.051.051,0,0,1-.03.005Zm-2.372-1.876h.086a.048.048,0,0,1,.031.01l2.171,1.683-1.514-6.21-2.32-.168Z" transform="translate(-247.034 -201.194)" fill="#263238"/>
  <path id="path341" d="M292.524,247.244l-.239-3.416a1.55,1.55,0,0,0-1.54-1.438H287.6a1.55,1.55,0,0,0-1.54,1.438l-.239,3.416Z" transform="translate(-277.824 -237.698)" fill="#787878"/>
  <path id="path343" d="M292.03,246.821h-6.71a.053.053,0,0,1-.038-.016.055.055,0,0,1-.013-.039l.239-3.417a1.606,1.606,0,0,1,1.6-1.488h3.14a1.606,1.606,0,0,1,1.6,1.488l.239,3.417a.054.054,0,0,1-.013.039A.052.052,0,0,1,292.03,246.821Zm-6.655-.1h6.6l-.236-3.363a1.5,1.5,0,0,0-1.494-1.392h-3.14a1.5,1.5,0,0,0-1.494,1.392Z" transform="translate(-277.33 -237.222)" fill="#263238"/>
  <path id="path345" d="M413.041,247.244l-.239-3.416a1.551,1.551,0,0,0-1.546-1.438h-3.139a1.549,1.549,0,0,0-1.545,1.438l-.24,3.416Z" transform="translate(-385.96 -237.698)" fill="#787878"/>
  <path id="path347" d="M412.618,246.812h-6.711a.049.049,0,0,1-.034-.017.051.051,0,0,1-.014-.039l.24-3.417a1.606,1.606,0,0,1,1.6-1.488h3.137a1.606,1.606,0,0,1,1.6,1.488l.24,3.417a.054.054,0,0,1-.013.039A.053.053,0,0,1,412.618,246.812Zm-6.655-.1h6.6l-.236-3.363a1.5,1.5,0,0,0-1.494-1.392h-3.14a1.5,1.5,0,0,0-1.494,1.392Z" transform="translate(-385.537 -237.213)" fill="#263238"/>
  <path id="path539" d="M244.331,362.56v6.486H218.976V362.56H214.21v9.479a1.335,1.335,0,0,0,1.335,1.335h2.1a1.335,1.335,0,0,0,1.335-1.335V371.6h2.309l1.081-.688h18.468l1.379.785h2.113v.34a1.335,1.335,0,0,0,1.335,1.335h2.1a1.335,1.335,0,0,0,1.335-1.335V362.56Z" transform="translate(-213.568 -345.528)" fill="#263238"/>
  <path id="path541" d="M247.318,372.973h-2.1a1.384,1.384,0,0,1-1.387-1.382V371.3h-2.054a.05.05,0,0,1-.025-.006l-1.365-.779H221.933l-1.069.677a.052.052,0,0,1-.028.008h-2.259v.386a1.384,1.384,0,0,1-1.382,1.382h-2.1a1.384,1.384,0,0,1-1.382-1.382v-9.476a.051.051,0,0,1,.051-.051h4.766a.051.051,0,0,1,.051.051v6.434h25.249v-6.434a.051.051,0,0,1,.051-.051h4.775a.051.051,0,0,1,.051.051v9.479A1.384,1.384,0,0,1,247.318,372.973Zm-5.535-1.773h2.1a.051.051,0,0,1,.051.051v.34a1.282,1.282,0,0,0,1.28,1.279h2.1a1.282,1.282,0,0,0,1.281-1.279v-9.428H243.93V368.6a.051.051,0,0,1-.051.051H218.527a.051.051,0,0,1-.051-.051v-6.434h-4.663v9.428a1.281,1.281,0,0,0,1.279,1.279h2.1a1.28,1.28,0,0,0,1.279-1.279v-.437a.051.051,0,0,1,.051-.051h2.3l1.068-.68a.046.046,0,0,1,.028-.008h18.473a.051.051,0,0,1,.025.006Z" transform="translate(-213.119 -345.079)" fill="#263238"/>
  <path id="path543" d="M246.392,209.5a19.479,19.479,0,0,0-1.724-1.967.505.505,0,0,1-.076-.1c-.315-.6-2.989-7.5-3.458-8.368-.859-1.6-1.551-1.363-2.47-1.48h-.081l-6.977-.352a34.219,34.219,0,0,0-3.449,0l-5.665.283c-1.576.08-3.095-.022-3.961,1.546-.481.869-3.143,7.763-3.458,8.367a.486.486,0,0,1-.076.1,19.325,19.325,0,0,0-1.724,1.967,13.8,13.8,0,0,0-.983,2.156,44.635,44.635,0,0,0,.991,7.753,2.811,2.811,0,0,0,1.957,2.053.687.687,0,0,0,.148.031h6.121a.463.463,0,0,0,.4-.231l1.448-2.5a.458.458,0,0,1,.111-.128,3.477,3.477,0,0,1,2.143-.726h8.452a3.484,3.484,0,0,1,2.138.726.47.47,0,0,1,.11.128l1.448,2.5a.463.463,0,0,0,.4.231h6.121a.688.688,0,0,0,.148-.031,2.812,2.812,0,0,0,1.957-2.044,44.612,44.612,0,0,0,.991-7.753A13.273,13.273,0,0,0,246.392,209.5Zm-30.025-3.145c1.232-2.407,3.538-7.835,3.538-7.835a98.56,98.56,0,0,1,19.9-.049l3.341,7.884C235.532,205.618,216.368,206.354,216.368,206.354Z" transform="translate(-211.845 -197.136)" fill="#cb955b"/>
  <path id="path545" d="M243.83,221.1h-6.121a.513.513,0,0,1-.445-.257l-1.448-2.5a.4.4,0,0,0-.1-.114,3.443,3.443,0,0,0-2.108-.719h-8.445a3.44,3.44,0,0,0-2.108.719.385.385,0,0,0-.1.114l-1.449,2.5a.513.513,0,0,1-.445.257h-6.124a.616.616,0,0,1-.162-.033,2.875,2.875,0,0,1-1.993-2.081,45.1,45.1,0,0,1-.992-7.765,9.4,9.4,0,0,1,.855-1.924l.134-.26a18.415,18.415,0,0,1,1.732-1.981.4.4,0,0,0,.067-.093c.134-.256.69-1.643,1.335-3.253.866-2.163,1.848-4.615,2.125-5.115.8-1.443,2.135-1.5,3.552-1.554.15-.006.3-.011.451-.02l3.889-.2,1.776-.088c1.146-.057,2.308-.056,3.454,0l6.978.352a.133.133,0,0,0,.029,0,.208.208,0,0,1,.056,0c.143.018.281.028.411.037.727.049,1.354.091,2.094,1.469.263.49,1.215,2.861,2.054,4.953.651,1.62,1.265,3.151,1.4,3.414a.378.378,0,0,0,.067.093,19.329,19.329,0,0,1,1.732,1.981h0l.133.26a9.587,9.587,0,0,1,.855,1.924,45.2,45.2,0,0,1-.992,7.765,2.868,2.868,0,0,1-1.988,2.076A.616.616,0,0,1,243.83,221.1Zm-18.669-3.69h8.452a3.55,3.55,0,0,1,2.173.737.514.514,0,0,1,.122.143l1.448,2.5a.411.411,0,0,0,.356.205h6.121a.626.626,0,0,0,.133-.029,2.766,2.766,0,0,0,1.922-2.008,44.984,44.984,0,0,0,.989-7.741,10.847,10.847,0,0,0-.844-1.877c-.055-.109-.1-.2-.133-.262h0a19.2,19.2,0,0,0-1.715-1.951.522.522,0,0,1-.084-.116c-.141-.268-.728-1.73-1.408-3.425-.839-2.089-1.79-4.457-2.054-4.942-.712-1.328-1.284-1.367-2.01-1.416-.134-.009-.275-.019-.421-.037h-.033a.209.209,0,0,1-.044,0l-6.978-.352a34.407,34.407,0,0,0-3.444,0l-1.776.088-3.889.2c-.151.008-.3.013-.452.02-1.387.055-2.7.108-3.467,1.5-.273.495-1.254,2.943-2.118,5.1-.646,1.611-1.2,3-1.335,3.262a.535.535,0,0,1-.084.118,20.007,20.007,0,0,0-1.715,1.951c-.031.063-.078.153-.134.262a10.884,10.884,0,0,0-.844,1.877,45,45,0,0,0,.989,7.741,2.765,2.765,0,0,0,1.921,2.008.64.64,0,0,0,.135.029h6.121a.411.411,0,0,0,.356-.205l1.444-2.5a.526.526,0,0,1,.122-.143A3.55,3.55,0,0,1,225.161,217.409ZM242.7,205.967h0c-7.527-.728-26.581-.007-26.773,0a.051.051,0,0,1-.045-.024.047.047,0,0,1,0-.05c1.207-2.382,3.507-7.782,3.529-7.833a.052.052,0,0,1,.042-.031,99.548,99.548,0,0,1,19.913-.049.052.052,0,0,1,.04.031l3.341,7.885a.051.051,0,0,1,0,.05A.053.053,0,0,1,242.7,205.967Zm-23.207-7.838c-.18.42-2.309,5.4-3.491,7.732,1.412-.052,19.289-.7,26.614,0l-3.3-7.779a98.818,98.818,0,0,0-19.826.043Z" transform="translate(-211.396 -196.694)" fill="#263238"/>
  <path id="path547" d="M301.644,402.329l-.344.786h16.707l-.245-.786-1.621-2.8a3.083,3.083,0,0,0-2.211-.786c-1.572-.048-8.452,0-8.452,0a3.271,3.271,0,0,0-2.211.786Z" transform="translate(-291.715 -377.976)" fill="#787878"/>
  <path id="path549" d="M317.576,402.713H300.869a.051.051,0,0,1-.043-.023.052.052,0,0,1,0-.049l.344-.786v-.005l1.619-2.8a.044.044,0,0,1,.01-.013,3.354,3.354,0,0,1,2.249-.8c.065,0,6.894-.049,8.449,0a3.112,3.112,0,0,1,2.249.8l1.625,2.808a.1.1,0,0,1,0,.01l.245.787a.05.05,0,0,1-.007.045A.052.052,0,0,1,317.576,402.713Zm-16.629-.1h16.559l-.224-.714-1.618-2.8h0a3.091,3.091,0,0,0-2.169-.76c-1.554-.049-8.38,0-8.449,0a3.25,3.25,0,0,0-2.172.768l-1.616,2.79Z" transform="translate(-291.284 -377.523)" fill="#263238"/>
  <path id="path551" d="M318.52,342.94a27.3,27.3,0,0,0,1.72,2.752,1.953,1.953,0,0,0,1.376.442c.54.049,7.96,0,7.96,0a1.489,1.489,0,0,0,.885-.54c.3-.437,1.277-2.653,1.277-2.653Z" transform="translate(-307.166 -327.922)" fill="#263238"/>
  <path id="path553" d="M323.475,345.759c-1.181,0-2.127-.006-2.309-.023l-.149-.012a1.779,1.779,0,0,1-1.259-.445,27.341,27.341,0,0,1-1.728-2.763.049.049,0,0,1,0-.05.051.051,0,0,1,.045-.026h13.218a.053.053,0,0,1,.043.024.05.05,0,0,1,0,.048c-.04.09-.988,2.22-1.281,2.662a1.539,1.539,0,0,1-.924.563C328.934,345.737,325.763,345.759,323.475,345.759Zm-5.313-3.216a25.292,25.292,0,0,0,1.669,2.664,1.653,1.653,0,0,0,1.194.411l.15.012c.532.048,7.881,0,7.955,0a1.438,1.438,0,0,0,.842-.513c.259-.388,1.069-2.189,1.241-2.573Z" transform="translate(-306.72 -327.474)" fill="#263238"/>
  <path id="path555" d="M331.34,346.06a22.151,22.151,0,0,0,1.378,2.2,1.553,1.553,0,0,0,1.1.354c.433.04,6.375,0,6.375,0a1.17,1.17,0,0,0,.708-.433c.236-.354,1.027-2.125,1.027-2.125Z" transform="translate(-318.67 -330.722)" fill="#787878"/>
  <path id="path557" d="M335.237,348.238c-.946,0-1.7-.005-1.848-.019l-.119-.009a1.431,1.431,0,0,1-1.015-.359,21.411,21.411,0,0,1-1.385-2.215.049.049,0,0,1,0-.05.051.051,0,0,1,.044-.026H341.5a.049.049,0,0,1,.043.024.05.05,0,0,1,0,.048c-.032.073-.791,1.779-1.027,2.133a1.252,1.252,0,0,1-.742.455C339.605,348.221,337.07,348.238,335.237,348.238ZM331,345.663a20.461,20.461,0,0,0,1.326,2.116,1.352,1.352,0,0,0,.951.329l.119.01c.425.039,6.31,0,6.367,0a1.119,1.119,0,0,0,.666-.411c.205-.308.836-1.709.987-2.044Z" transform="translate(-318.242 -330.273)" fill="#263238"/>
  <path id="path559" d="M341.611,411.28l-.295-.811a1.274,1.274,0,0,0-1.224-.841l-7.98.08a1.275,1.275,0,0,0-1.2.933l-.2.639Z" transform="translate(-318.105 -387.762)" fill="#263238"/>
  <path id="path561" d="M341.163,410.882h-10.9a.049.049,0,0,1-.041-.021.052.052,0,0,1-.008-.045l.2-.64a1.335,1.335,0,0,1,1.252-.969l7.981-.08a1.324,1.324,0,0,1,1.272.875l.295.811a.054.054,0,0,1-.006.047A.053.053,0,0,1,341.163,410.882Zm-10.831-.1H341.09l-.27-.741a1.218,1.218,0,0,0-1.175-.807l-7.981.08a1.232,1.232,0,0,0-1.154.9Z" transform="translate(-317.656 -387.313)" fill="#263238"/>
  <path id="polygon563" d="M327.384,429.55l-.244.786h11.695l-.285-.786Z" transform="translate(-314.901 -405.639)" fill="#263238"/>
  <path id="path565" d="M338.379,429.939H326.687a.05.05,0,0,1-.041-.022.047.047,0,0,1-.008-.045l.24-.787a.051.051,0,0,1,.049-.036H338.1a.051.051,0,0,1,.048.034l.285.783a.052.052,0,0,1-.007.047A.05.05,0,0,1,338.379,429.939Zm-11.625-.1h11.554l-.247-.684h-11.09Z" transform="translate(-314.449 -405.19)" fill="#263238"/>
  <path id="path567" d="M527.16,280.736s.245-1.916.688-1.916,2.408.54,2.456.933-.388.831-.786.933-1.232.2-1.232.2l-.2.736Z" transform="translate(-494.382 -270.387)" fill="#263238"/>
  <path id="path569" d="M527.641,281.223a.049.049,0,0,1-.035-.013l-.933-.885a.049.049,0,0,1-.016-.043c.026-.205.266-1.961.739-1.961.42,0,2.452.538,2.508.979.052.421-.411.885-.821.99-.351.087-1.036.174-1.2.193l-.188.7a.051.051,0,0,1-.035.037Zm-.879-.955.851.807.175-.653a.05.05,0,0,1,.044-.038c.008,0,.836-.1,1.222-.2s.793-.513.748-.878c-.042-.333-1.917-.888-2.406-.888C527.11,278.423,526.858,279.543,526.762,280.268Z" transform="translate(-493.93 -269.938)" fill="#263238"/>
  <path id="path571" d="M211.582,280.736s-.245-1.916-.688-1.916-2.408.54-2.456.933.392.835.786.933,1.232.2,1.232.2l.2.736Z" transform="translate(-208.385 -270.387)" fill="#263238"/>
  <path id="path573" d="M210.219,281.232H210.2a.051.051,0,0,1-.035-.037l-.188-.7a12.06,12.06,0,0,1-1.2-.193,1.079,1.079,0,0,1-.821-.99c.055-.441,2.088-.979,2.508-.979.473,0,.719,1.76.739,1.961a.049.049,0,0,1-.016.043l-.933.885A.049.049,0,0,1,210.219,281.232Zm.245-2.8c-.489,0-2.362.556-2.406.888-.045.36.374.785.748.878s1.214.194,1.222.2a.051.051,0,0,1,.044.038l.175.653.851-.807C211,279.552,210.75,278.432,210.465,278.432Z" transform="translate(-207.956 -269.947)" fill="#263238"/>
  <path id="path575" d="M237.842,322.019a5.418,5.418,0,0,1,1.179,2.653,27.274,27.274,0,0,1-5.8-.836c-1.621-.639-1.819-.688-1.868-.983s.1-2.408.737-2.752a1.731,1.731,0,0,1,1.965.246,10.825,10.825,0,0,0,1.868,1.376A16.232,16.232,0,0,0,237.842,322.019Z" transform="translate(-228.944 -307.247)" fill="#fff"/>
  <path id="path577" d="M238.623,324.295h0a27.358,27.358,0,0,1-5.814-.839l-.411-.162c-1.273-.5-1.438-.564-1.487-.86-.045-.273.091-2.443.764-2.805a1.792,1.792,0,0,1,2.021.251c.185.143.385.308.579.468a5.728,5.728,0,0,0,1.272.9,15.525,15.525,0,0,0,1.906.293.052.052,0,0,1,.032.015,5.53,5.53,0,0,1,1.193,2.68.056.056,0,0,1-.012.043A.051.051,0,0,1,238.623,324.295Zm-6.147-4.775a1.574,1.574,0,0,0-.757.2c-.6.321-.766,2.368-.711,2.7.04.239.2.3,1.422.781l.411.162a26.474,26.474,0,0,0,5.718.829,5.42,5.42,0,0,0-1.142-2.55,14.907,14.907,0,0,1-1.908-.3,5.605,5.605,0,0,1-1.306-.918c-.193-.159-.392-.324-.576-.466A1.875,1.875,0,0,0,232.476,319.52Z" transform="translate(-228.547 -306.818)" fill="#263238"/>
  <path id="path579" d="M246.594,331.872a1.151,1.151,0,1,1-.337-.815A1.152,1.152,0,0,1,246.594,331.872Z" transform="translate(-240.559 -316.957)" fill="#fff"/>
  <path id="path581" d="M244.993,332.617a1.2,1.2,0,1,1,1.2-1.2A1.2,1.2,0,0,1,244.993,332.617Zm0-2.3a1.1,1.1,0,1,0,1.1,1.1A1.1,1.1,0,0,0,244.993,330.314Z" transform="translate(-240.11 -316.5)" fill="#263238"/>
  <path id="path583" d="M277.4,351.325a.534.534,0,1,1-.156-.378A.535.535,0,0,1,277.4,351.325Z" transform="translate(-269.309 -334.966)" fill="#fff"/>
  <path id="path585" d="M276.417,351.413a.586.586,0,1,1,.585-.585A.586.586,0,0,1,276.417,351.413Zm0-1.069a.484.484,0,1,0,.483.484A.484.484,0,0,0,276.417,350.344Z" transform="translate(-268.86 -334.473)" fill="#263238"/>
  <path id="path587" d="M462.7,322.019a5.417,5.417,0,0,0-1.179,2.653,27.273,27.273,0,0,0,5.8-.836c1.621-.639,1.819-.688,1.868-.983s-.1-2.408-.737-2.752a1.731,1.731,0,0,0-1.965.246,10.823,10.823,0,0,1-1.868,1.376A16.232,16.232,0,0,1,462.7,322.019Z" transform="translate(-435.482 -307.247)" fill="#fff"/>
  <path id="path589" d="M461.067,324.295a.053.053,0,0,1-.039-.017.056.056,0,0,1-.012-.043,5.536,5.536,0,0,1,1.193-2.68.053.053,0,0,1,.032-.015,15.329,15.329,0,0,0,1.906-.293,5.7,5.7,0,0,0,1.272-.9c.194-.16.394-.326.579-.468a1.793,1.793,0,0,1,2.022-.251c.672.362.808,2.532.763,2.805-.049.3-.213.361-1.487.861l-.411.162a27.447,27.447,0,0,1-5.815.839Zm1.2-2.659a5.5,5.5,0,0,0-1.142,2.55,26.473,26.473,0,0,0,5.718-.829l.411-.162c1.225-.481,1.383-.542,1.422-.781.055-.33-.113-2.376-.711-2.7a1.673,1.673,0,0,0-1.91.24c-.184.142-.383.308-.576.466a5.725,5.725,0,0,1-1.306.918A13.918,13.918,0,0,1,462.27,321.636Z" transform="translate(-435.029 -306.818)" fill="#263238"/>
  <path id="path591" d="M503.45,331.872a1.151,1.151,0,1,0,.337-.815A1.152,1.152,0,0,0,503.45,331.872Z" transform="translate(-473.107 -316.957)" fill="#fff"/>
  <path id="path593" d="M504.144,332.617a1.2,1.2,0,1,1,1.2-1.2A1.2,1.2,0,0,1,504.144,332.617Zm0-2.3a1.1,1.1,0,1,0,1.1,1.1A1.1,1.1,0,0,0,504.144,330.314Z" transform="translate(-472.649 -316.5)" fill="#263238"/>
  <path id="path595" d="M483.42,351.325a.535.535,0,1,0,.535-.535A.535.535,0,0,0,483.42,351.325Z" transform="translate(-455.133 -334.966)" fill="#fff"/>
  <path id="path597" d="M483.506,351.413a.586.586,0,1,1,.586-.585A.586.586,0,0,1,483.506,351.413Zm0-1.069a.484.484,0,1,0,.484.484A.484.484,0,0,0,483.506,350.344Z" transform="translate(-454.685 -334.473)" fill="#263238"/>
  <path id="path599" d="M477.486,383.14s-4.57.884-4.767,1.027a4.5,4.5,0,0,0-.589.983l.933-.245a9.583,9.583,0,0,0,2.9-.245A5.3,5.3,0,0,0,477.486,383.14Z" transform="translate(-445.003 -363.994)" fill="#263238"/>
  <path id="path601" d="M471.679,384.75a.05.05,0,0,1-.046-.073,4.563,4.563,0,0,1,.6-1c.2-.154,4.319-.95,4.787-1.041a.052.052,0,0,1,.052.023.048.048,0,0,1,0,.057,5.183,5.183,0,0,1-1.54,1.54,9.329,9.329,0,0,1-2.915.252l-.924.243Zm5.237-1.991c-1.826.354-4.477.9-4.621,1a3.449,3.449,0,0,0-.526.865l.822-.218h.015a9.771,9.771,0,0,0,2.875-.24,4.759,4.759,0,0,0,1.439-1.4Z" transform="translate(-444.552 -363.539)" fill="#263238"/>
  <path id="path603" d="M245.31,383.14s4.57.884,4.767,1.027a4.5,4.5,0,0,1,.589.983l-.933-.245a9.583,9.583,0,0,1-2.9-.245A5.3,5.3,0,0,1,245.31,383.14Z" transform="translate(-241.474 -363.994)" fill="#263238"/>
  <path id="path605" d="M250.263,384.768h-.013l-.924-.243a9.493,9.493,0,0,1-2.915-.252,5.128,5.128,0,0,1-1.54-1.54.048.048,0,0,1,0-.057.052.052,0,0,1,.052-.023c.468.091,4.587.891,4.787,1.042a4.658,4.658,0,0,1,.6,1,.05.05,0,0,1-.046.073Zm-.933-.348h.013l.822.218a3.757,3.757,0,0,0-.526-.865c-.133-.1-2.8-.644-4.621-1a4.739,4.739,0,0,0,1.43,1.4,9.734,9.734,0,0,0,2.875.24Z" transform="translate(-241.071 -363.557)" fill="#263238"/>
  <path id="path607" d="M448.984,343.971h-.015l-1.213-.4H446.8a.051.051,0,0,1,0-.1h.98l1.22.411a.052.052,0,0,1-.016.1Z" transform="translate(-422.229 -328.392)" fill="#263238"/>
  <path id="path609" d="M299.427,342.887a.052.052,0,0,1-.044-.027.051.051,0,0,1,.02-.07l.813-.465a.047.047,0,0,1,.026-.006l1.1.012a.051.051,0,0,1,.051.052.056.056,0,0,1-.052.05l-1.087-.012-.8.458a.056.056,0,0,1-.026.007Z" transform="translate(-289.988 -327.366)" fill="#263238"/>
  <path id="path611" d="M501.773,292.266a.047.047,0,0,1-.021-.091c.126-.073.255-.141.38-.205a.051.051,0,0,1,.044.092c-.123.06-.248.126-.373.2A.058.058,0,0,1,501.773,292.266Z" transform="translate(-471.558 -282.182)" fill="#263238"/>
  <path id="path613" d="M449.072,303.329a.053.053,0,0,1-.021,0,.05.05,0,0,1-.025-.068c.821-1.808,2.567-5.086,5-6.731a.05.05,0,0,1,.071.013.051.051,0,0,1-.013.072c-2.415,1.627-4.147,4.884-4.963,6.684A.051.051,0,0,1,449.072,303.329Z" transform="translate(-424.267 -286.27)" fill="#263238"/>
  <path id="path615" d="M444.861,368.048a.034.034,0,0,1-.017,0,.051.051,0,0,1-.031-.066s.063-.165.179-.441a.051.051,0,1,1,.095.039c-.115.274-.176.436-.177.437A.053.053,0,0,1,444.861,368.048Z" transform="translate(-420.488 -349.969)" fill="#263238"/>
  <path id="path617" d="M262.1,293.512a.049.049,0,0,1-.027-.007c-.205-.124-.417-.24-.629-.346a.051.051,0,1,1,.045-.091,7.167,7.167,0,0,1,.638.35.051.051,0,0,1-.027.094Z" transform="translate(-255.918 -283.163)" fill="#263238"/>
  <path id="path619" d="M276.366,305.767a.051.051,0,0,1-.049-.035,12.905,12.905,0,0,0-4.469-6.441.051.051,0,1,1,.058-.084,13.014,13.014,0,0,1,4.508,6.493.051.051,0,0,1-.032.065Z" transform="translate(-265.265 -288.67)" fill="#263238"/>
  <path id="path621" d="M317.076,366.982a.05.05,0,0,1-.05-.039s-.037-.158-.116-.424a.051.051,0,0,1,.035-.065.052.052,0,0,1,.064.035c.08.269.117.429.118.43a.051.051,0,0,1-.039.062Z" transform="translate(-305.719 -349.02)" fill="#263238"/>
  <path id="path623" d="M243.8,302.413a7.314,7.314,0,0,1-.524-2.033" transform="translate(-239.653 -289.733)" fill="#fff"/>
  <path id="path625" d="M243.355,302.007a.051.051,0,0,1-.048-.032,7.24,7.24,0,0,1-.527-2.054.051.051,0,0,1,.1,0,7.264,7.264,0,0,0,.52,2.014.053.053,0,0,1-.028.068Z" transform="translate(-239.204 -289.275)" fill="#263238"/>
  <path id="path627" d="M520.58,305.4a10.271,10.271,0,0,0,.291-1.628" transform="translate(-488.478 -292.775)" fill="#fff"/>
  <path id="path629" d="M520.128,305.029h-.015a.051.051,0,0,1-.03-.025.05.05,0,0,1,0-.039,10.287,10.287,0,0,0,.289-1.617.052.052,0,1,1,.1.011,10.2,10.2,0,0,1-.293,1.636A.05.05,0,0,1,520.128,305.029Z" transform="translate(-488.026 -292.355)" fill="#263238"/>
  <path id="path631" d="M461.275,377.235a.054.054,0,0,1-.04-.018,6.424,6.424,0,0,1-1.174-1.945,2.136,2.136,0,0,1,1.027-1.566c.244-.061,4.136-.839,4.3-.873a.052.052,0,0,1,.061.041.05.05,0,0,1-.04.06c-.041.008-4.069.814-4.3.872a2.083,2.083,0,0,0-.949,1.456,6.245,6.245,0,0,0,1.135,1.87l6.379-.288.345-4.487a.052.052,0,0,1,.055-.047.051.051,0,0,1,.047.055l-.349,4.534a.051.051,0,0,1-.048.047l-6.451.291Z" transform="translate(-434.17 -354.276)" fill="#263238"/>
  <path id="path633" d="M237.166,377.234h0l-6.45-.291a.051.051,0,0,1-.049-.047l-.348-4.533a.051.051,0,0,1,.047-.055.05.05,0,0,1,.054.047l.345,4.487,6.38.288a6.163,6.163,0,0,0,1.13-1.87,2.084,2.084,0,0,0-.95-1.456c-.214-.053-4.257-.864-4.3-.872a.049.049,0,0,1-.04-.06.051.051,0,0,1,.06-.041c.166.034,4.073.815,4.3.873a2.17,2.17,0,0,1,1.027,1.566,6.424,6.424,0,0,1-1.174,1.945A.052.052,0,0,1,237.166,377.234Z" transform="translate(-228.022 -354.275)" fill="#263238"/>
  <path id="path635" d="M340.456,353.593q-.157,0-.308-.012l-4.742-.38a.052.052,0,1,1,.008-.1l4.734.38a3.848,3.848,0,0,0,.6,0l4.37-.34a.049.049,0,0,1,.055.047.051.051,0,0,1-.047.055l-4.37.339Q340.606,353.593,340.456,353.593Z" transform="translate(-322.276 -337.038)" fill="#263238"/>
  <path id="path637" d="M343.185,358.408q-.157,0-.308-.012l-4.43-.354a.053.053,0,0,1-.047-.055.051.051,0,0,1,.055-.047l4.422.354a4,4,0,0,0,.6,0l4.217-.328a.048.048,0,0,1,.055.047.051.051,0,0,1-.047.054l-4.217.328Q343.335,358.408,343.185,358.408Z" transform="translate(-325.005 -341.381)" fill="#263238"/>
  <path id="path639" d="M346,363.213q-.157,0-.308-.012l-4.107-.33a.051.051,0,1,1,.008-.1l4.1.332a3.863,3.863,0,0,0,.6,0l4-.308a.048.048,0,0,1,.055.047.052.052,0,0,1-.047.055l-4,.308Q346.151,363.213,346,363.213Z" transform="translate(-327.821 -345.715)" fill="#263238"/>
  <path id="path641" d="M278.385,213.159h0c-7.526-.728-26.581-.007-26.773,0a.051.051,0,0,1-.045-.024.047.047,0,0,1,0-.05c1.207-2.382,3.507-7.782,3.529-7.833a.052.052,0,0,1,.042-.031,99.553,99.553,0,0,1,19.913-.049.052.052,0,0,1,.04.031l3.341,7.885a.051.051,0,0,1,0,.05A.052.052,0,0,1,278.385,213.159Zm-23.207-7.838c-.18.42-2.309,5.4-3.491,7.732,1.412-.052,19.289-.7,26.614,0l-3.3-7.779a98.82,98.82,0,0,0-19.826.043Z" transform="translate(-247.082 -203.886)" fill="#263238"/>
</svg>
