<svg xmlns="http://www.w3.org/2000/svg" width="48" height="28.823" viewBox="0 0 48 28.823">
  <g id="Consulting-bro1" transform="translate(-96.73 -275.115)">
    <g id="freepik--Clock--inject-50" transform="translate(103.364 275.716)">
      <circle id="circle207" cx="6.077" cy="6.077" r="6.077" transform="translate(0 11.839) rotate(-76.92)" fill="#263238" stroke="#263238" stroke-width="1"/>
      <circle id="circle209" cx="5.162" cy="5.162" r="5.162" transform="translate(0.523 4.554) rotate(-22.95)" fill="#fff" stroke="#263238" stroke-width="1"/>
      <path id="polyline211" d="M437.375,135.26l-1.6,3.309h2.279" transform="translate(-428.49 -131.279)" fill="none" stroke="#cb955b" stroke-width="1"/>
      <path id="path213" d="M433.48,152.128a.578.578,0,1,1-.17-.409A.58.58,0,0,1,433.48,152.128Z" transform="translate(-425.61 -144.84)" fill="#cb955b" stroke="#cb955b" stroke-width="1"/>
    </g>
    <path id="polygon250" d="M98.815,405.09h34.84l10.575,3.99h-47Z" transform="translate(0 -107.697)" fill="#b5b5b5" stroke="#263238" stroke-linecap="round" stroke-linejoin="round" stroke-width="1"/>
    <rect id="rect252" width="45.834" height="1.258" transform="translate(97.751 302.18)" fill="#263238" stroke="#263238" stroke-linecap="round" stroke-linejoin="round" stroke-width="1"/>
    <rect id="rect254" width="47" height="1.481" transform="translate(97.23 301.383)" fill="#4c4c4c" stroke="#263238" stroke-linecap="round" stroke-linejoin="round" stroke-width="1"/>
    <path id="polygon256" d="M145.18,410.29l1.074-2.15h8.6l1.362,2.15Z" transform="translate(-39.916 -110.236)" fill="#fff"/>
    <path id="polygon258" d="M132.77,414.138l1.076-2.148h8.6l1.362,2.148Z" transform="translate(-29.585 -113.441)" fill="#fff"/>
    <g id="freepik--Device--inject-50" transform="translate(120.764 290.859)">
      <path id="polygon267" d="M254.833,410.09h8.907V409.8L250.48,407.82l.322.286Z" transform="translate(-248.335 -400.828)" fill="#fff" stroke="#263238" stroke-linecap="round" stroke-linejoin="round" stroke-width="1"/>
      <path id="polygon269" d="M256.431,409.8h8.907l-4.705-1.937-8.234-.047Z" transform="translate(-249.934 -400.828)" fill="#fff" stroke="#263238" stroke-linecap="round" stroke-linejoin="round" stroke-width="1"/>
      <path id="polygon271" d="M283.089,409.568h.834l-.426-.178-.818.007Z" transform="translate(-275.14 -402.135)" fill="#fff" stroke="#263238" stroke-linecap="round" stroke-linejoin="round" stroke-width="0.75"/>
      <path id="polygon273" d="M295.23,414.68l.427.179h.834l-.427-.179Z" transform="translate(-285.587 -406.538)" fill="#fff" stroke="#263238" stroke-linecap="round" stroke-linejoin="round" stroke-width="0.75"/>
      <path id="polygon275" d="M299.873,413.08h-.923l.245.1h.927Z" transform="translate(-288.684 -405.206)" fill="#fff" stroke="#263238" stroke-linecap="round" stroke-linejoin="round" stroke-width="0.75"/>
      <path id="polygon277" d="M291.643,413.182h.836l-.245-.1H291.4Z" transform="translate(-282.399 -405.206)" fill="#fff" stroke="#263238" stroke-linecap="round" stroke-linejoin="round" stroke-width="0.75"/>
      <path id="polygon279" d="M295.306,411.557h.917l-.261-.107h-.911Z" transform="translate(-285.437 -403.85)" fill="#fff" stroke="#263238" stroke-linecap="round" stroke-linejoin="round" stroke-width="0.75"/>
      <path id="polygon281" d="M275.654,409.618h.836l-.4-.168-.819.008Z" transform="translate(-268.971 -402.185)" fill="#fff" stroke="#263238" stroke-linecap="round" stroke-linejoin="round" stroke-width="0.75"/>
      <path id="polygon283" d="M287.49,411.45l.256.107h.836l-.256-.107Z" transform="translate(-279.144 -403.85)" fill="#fff" stroke="#263238" stroke-linecap="round" stroke-linejoin="round" stroke-width="0.75"/>
      <path id="polygon285" d="M308.415,417.045h.96l-.717-.295h-.948Z" transform="translate(-295.976 -408.262)" fill="#fff" stroke="#263238" stroke-linecap="round" stroke-linejoin="round" stroke-width="0.75"/>
      <path id="polygon287" d="M300.15,416.75l.705.295h.836l-.705-.295Z" transform="translate(-289.683 -408.262)" fill="#fff" stroke="#263238" stroke-linecap="round" stroke-linejoin="round" stroke-width="0.75"/>
      <path id="polygon289" d="M292.59,416.75l.705.295h.836l-.705-.295Z" transform="translate(-283.389 -408.262)" fill="#fff" stroke="#263238" stroke-linecap="round" stroke-linejoin="round" stroke-width="0.75"/>
      <path id="polygon291" d="M281.912,416.75H280.28l.583.295h1.754Z" transform="translate(-273.142 -408.262)" fill="#fff" stroke="#263238" stroke-linecap="round" stroke-linejoin="round" stroke-width="0.75"/>
      <path id="polygon293" d="M290.516,409.509h.9l-.461-.189-.878.008Z" transform="translate(-281.3 -402.076)" fill="#fff" stroke="#263238" stroke-linecap="round" stroke-linejoin="round" stroke-width="0.75"/>
      <path id="polygon295" d="M302.79,414.68l.427.179h.942l-.436-.179Z" transform="translate(-291.88 -406.538)" fill="#fff" stroke="#263238" stroke-linecap="round" stroke-linejoin="round" stroke-width="0.75"/>
      <path id="polygon297" d="M288.933,414.859l-.429-.179h-.834l.427.179Z" transform="translate(-279.294 -406.538)" fill="#fff" stroke="#263238" stroke-linecap="round" stroke-linejoin="round" stroke-width="0.75"/>
      <path id="polygon299" d="M267.606,409.676l-.375-.156-1.111.008.29.147Z" transform="translate(-261.355 -402.243)" fill="#fff" stroke="#263238" stroke-linecap="round" stroke-linejoin="round" stroke-width="0.75"/>
      <path id="polygon301" d="M284.674,413.08h-.834l.243.1h.836Z" transform="translate(-276.106 -405.206)" fill="#fff" stroke="#263238" stroke-linecap="round" stroke-linejoin="round" stroke-width="0.75"/>
      <path id="polygon303" d="M279.93,411.45l.256.107h.836l-.256-.107Z" transform="translate(-272.851 -403.85)" fill="#fff" stroke="#263238" stroke-linecap="round" stroke-linejoin="round" stroke-width="0.75"/>
      <path id="polygon305" d="M274.662,413.182l-.243-.1H273.04l.2.1Z" transform="translate(-267.115 -405.206)" fill="#fff" stroke="#263238" stroke-linecap="round" stroke-linejoin="round" stroke-width="0.75"/>
      <path id="polygon307" d="M270.031,411.557h1.309l-.256-.107H269.82Z" transform="translate(-264.435 -403.85)" fill="#fff" stroke="#263238" stroke-linecap="round" stroke-linejoin="round" stroke-width="0.75"/>
      <path id="polygon309" d="M277.7,414.68h-1.49l.354.179h1.563Z" transform="translate(-269.754 -406.538)" fill="#fff" stroke="#263238" stroke-linecap="round" stroke-linejoin="round" stroke-width="0.75"/>
      <path id="polygon311" d="M244.253,375.066h-.322l-6.161-8.884.3-.092h4.033Z" transform="translate(-237.755 -366.09)" fill="#fff" stroke="#263238" stroke-linecap="round" stroke-linejoin="round" stroke-width="1"/>
      <path id="polygon313" d="M243.856,375.066l-4.031-1.984-2.145-6.992h4.031Z" transform="translate(-237.68 -366.09)" fill="#fff" stroke="#263238" stroke-linecap="round" stroke-linejoin="round" stroke-width="1"/>
    </g>
  </g>
</svg>
