<svg xmlns="http://www.w3.org/2000/svg" width="14" height="20" viewBox="0 0 14 20">
  <g id="location_pin" transform="translate(-5 -2)">
    <path id="Path_2141" data-name="Path 2141" d="M12,2A7,7,0,0,0,5,9a9.1,9.1,0,0,0,1.41,4.84c.95,1.54,2.2,2.86,3.16,4.4a17.257,17.257,0,0,1,1.17,2.26c.26.55.47,1.5,1.26,1.5s1-.95,1.25-1.5a18.57,18.57,0,0,1,1.17-2.26c.96-1.53,2.21-2.85,3.16-4.4A9.025,9.025,0,0,0,19,9,7,7,0,0,0,12,2Zm0,9.75a2.5,2.5,0,1,1,2.5-2.5,2.5,2.5,0,0,1-2.5,2.5Z" fill="#cb955b"/>
  </g>
</svg>
