<svg xmlns="http://www.w3.org/2000/svg" width="24.338" height="36.729" viewBox="0 0 24.338 36.729">
  <g id="freepik--Microscope--inject-101" transform="translate(-62.143 -58.36)">
    <path id="path114" d="M97,179.93s-.481-.427-1.156,2.884-.338,8.451,1.081,10.68a13.844,13.844,0,0,0,4.458,3.852l2.1-2.7s-4.116-1.358-5.137-5.345-.406-6.488.338-6.623,1.831,1.746,1.831,1.746l-3.079-5.931Z" transform="translate(-30.085 -108.79)" fill="#fff" stroke="#cb955b" stroke-width="0.3"/>
    <path id="path116" d="M106.117,218.338a.608.608,0,1,0-.608.608A.608.608,0,0,0,106.117,218.338Z" transform="translate(-38.602 -144.386)" fill="#263238" stroke="#cb955b" stroke-width="0.3"/>
    <path id="path118" d="M108.125,220.533a.383.383,0,1,0-.382.382A.383.383,0,0,0,108.125,220.533Z" transform="translate(-40.834 -146.581)" fill="#fff" stroke="#cb955b" stroke-width="0.3"/>
    <path id="polygon120" d="M105.68,140.763l.257,1.1,3.074-1.648-.77-.82Z" transform="translate(-39.31 -73.321)" fill="#fff" stroke="#cb955b" stroke-width="0.3"/>
    <rect id="rect122" width="2.906" height="8.515" transform="translate(62.346 59.937) rotate(-28.2)" fill="#1e1e1e" stroke="#1e1e1e" stroke-width="0.3"/>
    <rect id="rect124" width="2.906" height="0.537" transform="translate(62.346 59.936) rotate(-28.2)" fill="#fff" stroke="#cb955b" stroke-width="0.3"/>
    <rect id="rect126" width="3.467" height="9.726" transform="translate(66.628 68.537) rotate(-28.2)" fill="#fff" stroke="#cb955b" stroke-width="0.3"/>
    <rect id="rect128" width="3.467" height="1.678" transform="translate(70.43 75.629) rotate(-28.2)" fill="#cb955b" stroke="#cb955b" stroke-width="0.3"/>
    <rect id="rect130" width="1.081" height="2.974" transform="translate(74.598 76.065) rotate(-28.2)" fill="#fff" stroke="#cb955b" stroke-width="0.3"/>
    <rect id="rect132" width="1.081" height="2.974" transform="translate(73.121 76.434) rotate(-17.08)" fill="#fff" stroke="#cb955b" stroke-width="0.3"/>
    <rect id="rect134" width="1.081" height="2.974" transform="translate(78.78 76.713) rotate(140.68)" fill="#fff" stroke="#cb955b" stroke-width="0.3"/>
    <rect id="rect136" width="5.407" height="0.946" transform="translate(72.433 76.46) rotate(-28.2)" fill="#fff" stroke="#cb955b" stroke-width="0.3"/>
    <path id="polygon140" d="M212.773,336.506l-.563-1.481,5.472-2.375.563,1.481Z" transform="translate(-135.946 -248.633)" fill="#cb955b" stroke="#cb955b" stroke-width="0.3"/>
    <rect id="rect142" width="1.893" height="1.081" transform="translate(73.316 84.112) rotate(-28.2)" fill="#fff" stroke="#cb955b" stroke-width="0.3"/>
    <rect id="rect138" width="8.616" height="0.681" transform="translate(72.565 83.623) rotate(-28.2)" fill="#1e1e1e" stroke="#1e1e1e" stroke-width="0.3"/>
    <circle id="circle144" cx="1.825" cy="1.825" r="1.825" transform="matrix(0.771, -0.637, 0.637, 0.771, 65.283, 70.394)" fill="#cb955b" stroke="#cb955b" stroke-width="0.3"/>
    <circle id="circle146" cx="1.061" cy="1.061" r="1.061" transform="translate(66.516 71.316) rotate(-71.96)" fill="#fff" stroke="#cb955b" stroke-width="0.3"/>
    <path id="path148" d="M198.33,353.545l2.93-1.271a.54.54,0,0,1,.716.294h0a.539.539,0,0,1-.256.682l-3.13,1.594Z" transform="translate(-123.355 -266.394)" fill="#fff" stroke="#cb955b" stroke-width="0.3"/>
    <path id="path150" d="M186.44,348h.145a1.26,1.26,0,0,1,1.144.731l1.022,2.2a.536.536,0,0,1-.542.759l-.344-.036Z" transform="translate(-112.57 -262.558)" fill="#fff" stroke="#cb955b" stroke-width="0.3"/>
    <path id="path152" d="M130.8,339.111,126,346.19h9.465l-2.432-2.771-1.479-4.206a.423.423,0,0,0-.749-.1Z" transform="translate(-57.743 -254.328)" fill="#fff" stroke="#cb955b" stroke-width="0.3"/>
    <circle id="circle154" cx="0.608" cy="0.608" r="0.608" transform="translate(72.587 85.779)" fill="#fff" stroke="#cb955b" stroke-width="0.3"/>
    <path id="path156" d="M112.073,414.62h18.618a.393.393,0,0,1,.393.393v2.917h-19.4v-2.917a.393.393,0,0,1,.393-.393Z" transform="translate(-44.752 -322.991)" fill="#fff" stroke="#cb955b" stroke-width="0.3"/>
  </g>
</svg>
