<svg xmlns="http://www.w3.org/2000/svg" width="38.521" height="33.989" viewBox="0 0 38.521 33.989">
  <g id="Smart_home-bro1" data-name="Smart home-bro1" transform="translate(-9.43 -38)">
    <g id="freepik--background-simple--inject-23" transform="translate(10.491 39.316)">
      <path id="path2" d="M46.887,55.172A15.1,15.1,0,0,0,35.2,56.414c-5.791,3.339-8.71,9.965-11.219,15.273S22.918,82.4,27.337,84.859s7.424-1.168,13.622-1.345,7.866.71,13.011-2.792S60.044,68.95,55.986,62.83,46.887,55.172,46.887,55.172Z" transform="translate(-22.755 -54.522)" fill="#cb955b"/>
      <path id="path4" d="M46.887,55.172A15.1,15.1,0,0,0,35.2,56.414c-5.791,3.339-8.71,9.965-11.219,15.273S22.918,82.4,27.337,84.859s7.424-1.168,13.622-1.345,7.866.71,13.011-2.792S60.044,68.95,55.986,62.83,46.887,55.172,46.887,55.172Z" transform="translate(-22.755 -54.522)" fill="#fff" opacity="0.8"/>
      <path id="path10" d="M130.314,239.62l-.014.015h.025Z" transform="translate(-121.733 -224.875)" fill="#cb955b"/>
    </g>
    <g id="freepik--Refrigerator--inject-23" transform="translate(11.015 45.333)">
      <path id="path20" d="M29.418,130.39H39.993a.088.088,0,0,1,.088.088v25.9a.146.146,0,0,1-.146.146H29.476a.146.146,0,0,1-.146-.146v-25.9A.088.088,0,0,1,29.418,130.39Z" transform="translate(-29.33 -130.363)" fill="none" stroke="#263238" stroke-linejoin="round" stroke-width="0.3"/>
      <line id="line22" y2="12.933" transform="translate(5.375 13.197)" fill="none" stroke="#263238" stroke-linejoin="round" stroke-width="0.3"/>
      <line id="line24" y2="12.735" transform="translate(5.375)" fill="none" stroke="#263238" stroke-linejoin="round" stroke-width="0.3"/>
      <path id="path26" d="M35.767,290.6H45.3a.217.217,0,0,0,.217-.217h0a.217.217,0,0,0-.217-.217H35.767a.217.217,0,0,0-.217.217h0A.217.217,0,0,0,35.767,290.6Z" transform="translate(-35.055 -277.415)" fill="none" stroke="#263238" stroke-linejoin="round" stroke-width="0.3"/>
      <rect id="rect28" width="3.063" height="5.944" transform="translate(6.562 2.539)" fill="none" stroke="#263238" stroke-linejoin="round" stroke-width="0.3"/>
      <rect id="rect30" width="2.583" height="3.249" transform="translate(6.802 3.005)" fill="none" stroke="#263238" stroke-linejoin="round" stroke-width="0.3"/>
      <rect id="rect32" width="0.367" height="0.379" transform="translate(6.822 6.613)" fill="none" stroke="#263238" stroke-linejoin="round" stroke-width="0.3"/>
      <rect id="rect34" width="0.367" height="0.379" transform="translate(7.374 6.613)" fill="none" stroke="#263238" stroke-linejoin="round" stroke-width="0.3"/>
      <rect id="rect36" width="0.367" height="0.379" transform="translate(7.925 6.613)" fill="none" stroke="#263238" stroke-linejoin="round" stroke-width="0.3"/>
      <rect id="rect38" width="0.367" height="0.379" transform="translate(8.477 6.613)" fill="none" stroke="#263238" stroke-linejoin="round" stroke-width="0.3"/>
      <rect id="rect40" width="0.367" height="0.379" transform="translate(9.028 6.613)" fill="none" stroke="#263238" stroke-linejoin="round" stroke-width="0.3"/>
      <rect id="rect42" width="0.367" height="0.379" transform="translate(6.822 7.222)" fill="none" stroke="#263238" stroke-linejoin="round" stroke-width="0.3"/>
      <rect id="rect44" width="0.367" height="0.379" transform="translate(7.374 7.222)" fill="none" stroke="#263238" stroke-linejoin="round" stroke-width="0.3"/>
      <rect id="rect46" width="0.367" height="0.379" transform="translate(7.925 7.222)" fill="none" stroke="#263238" stroke-linejoin="round" stroke-width="0.3"/>
      <rect id="rect48" width="0.367" height="0.379" transform="translate(8.477 7.222)" fill="none" stroke="#263238" stroke-linejoin="round" stroke-width="0.3"/>
      <rect id="rect50" width="0.367" height="0.379" transform="translate(9.028 7.222)" fill="none" stroke="#263238" stroke-linejoin="round" stroke-width="0.3"/>
      <rect id="rect52" width="2.732" height="3.935" transform="translate(1.161 7.007)" fill="none" stroke="#263238" stroke-linejoin="round" stroke-width="0.3"/>
      <rect id="rect54" width="1.741" height="3.935" transform="translate(1.657 7.007)" fill="none" stroke="#263238" stroke-linejoin="round" stroke-width="0.3"/>
      <rect id="rect56" width="1.741" height="1.218" transform="translate(1.657 7.007)" fill="none" stroke="#263238" stroke-linejoin="round" stroke-width="0.3"/>
    </g>
    <g id="freepik--air-conditioner--inject-23" transform="translate(23.603 38.956)">
      <path id="path59" d="M202.649,53.983H187.74a7.347,7.347,0,0,1-.383-2.3l-.007-1.31a.371.371,0,0,1,.37-.37h14.947a.37.37,0,0,1,.37.373l-.009,1.33a7.318,7.318,0,0,1-.355,2.2Z" transform="translate(-187.35 -50)" fill="none" stroke="#263238" stroke-linejoin="round" stroke-width="0.3"/>
      <rect id="rect61" width="12.982" height="0.609" transform="translate(1.353 3.378)" fill="none" stroke="#263238" stroke-linejoin="round" stroke-width="0.3"/>
      <path id="path67" d="M333.264,101.93l-.014.015.025,0Z" transform="translate(-321.628 -97.793)" fill="#cb955b"/>
    </g>
    <g id="freepik--music-box--inject-23" transform="translate(32.11 63.67)">
      <rect id="rect74" width="7.996" height="0.993" transform="translate(3.479 2.303)" fill="none" stroke="#263238" stroke-linejoin="round" stroke-width="0.3"/>
      <rect id="rect76" width="14.953" height="4.525" transform="translate(0 3.294)" fill="none" stroke="#263238" stroke-linejoin="round" stroke-width="0.3"/>
      <rect id="rect78" width="14.156" height="3.947" transform="translate(0.398 3.583)" fill="none" stroke="#263238" stroke-linejoin="round" stroke-width="0.3"/>
      <line id="line80" y2="3.963" transform="translate(5.125 3.565)" fill="none" stroke="#263238" stroke-linejoin="round" stroke-width="0.3"/>
      <line id="line82" y2="3.963" transform="translate(9.763 3.565)" fill="none" stroke="#263238" stroke-linejoin="round" stroke-width="0.3"/>
      <rect id="rect84" width="2.019" height="2.827" transform="translate(1.072 0.469)" fill="none" stroke="#263238" stroke-linejoin="round" stroke-width="0.3"/>
      <rect id="rect86" width="2.019" height="2.827" transform="translate(11.825 0.469)" fill="none" stroke="#263238" stroke-linejoin="round" stroke-width="0.3"/>
      <path id="path92" d="M390.01,387.144l.014-.014H390Z" transform="translate(-382.364 -384.988)" fill="#cb955b"/>
    </g>
    <g id="freepik--Lamps--inject-23" transform="translate(14.201 38)">
      <path id="path99" d="M465.764,66.552a.462.462,0,1,1-.462-.462A.462.462,0,0,1,465.764,66.552Z" transform="translate(-433.333 -63.852)" fill="none" stroke="#263238" stroke-linejoin="round" stroke-width="0.3"/>
      <path id="path101" d="M458.494,80.648H456.2V78.837a1.147,1.147,0,0,1,1.147-1.147h0a1.147,1.147,0,0,1,1.147,1.147Z" transform="translate(-425.381 -74.528)" fill="none" stroke="#263238" stroke-linejoin="round" stroke-width="0.3"/>
      <line id="line103" y1="2.238" transform="translate(31.969)" fill="none" stroke="#263238" stroke-linejoin="round" stroke-width="0.3"/>
      <path id="path105" d="M78.844,66.552a.462.462,0,1,1-.462-.462A.462.462,0,0,1,78.844,66.552Z" transform="translate(-77.235 -63.852)" fill="none" stroke="#263238" stroke-linejoin="round" stroke-width="0.3"/>
      <path id="path107" d="M71.614,80.648H69.32V78.837a1.147,1.147,0,0,1,1.147-1.147h0a1.147,1.147,0,0,1,1.147,1.147Z" transform="translate(-69.32 -74.528)" fill="none" stroke="#263238" stroke-linejoin="round" stroke-width="0.3"/>
      <line id="line109" y1="2.238" transform="translate(1.147)" fill="none" stroke="#263238" stroke-linejoin="round" stroke-width="0.3"/>
      <path id="path115" d="M103.66,110.44l.015.014a.084.084,0,0,1,0-.025Z" transform="translate(-100.924 -104.66)" fill="#cb955b"/>
    </g>
    <g id="freepik--TV--inject-23" transform="translate(33.143 46.304)">
      <rect id="rect122" width="13.322" height="8.933" transform="translate(0 2.255)" fill="none" stroke="#263238" stroke-linejoin="round" stroke-width="0.3"/>
      <rect id="rect124" width="12.599" height="8.179" transform="translate(0.362 2.632)" fill="none" stroke="#263238" stroke-linejoin="round" stroke-width="0.3"/>
      <path id="path126" d="M381.618,155.15a.966.966,0,0,0-.717.319l.214.239a.65.65,0,0,1,1.036.046l.225-.231A.97.97,0,0,0,381.618,155.15Z" transform="translate(-375.023 -154.121)" fill="#cb955b"/>
      <path id="path128" d="M385.574,161.49a.467.467,0,0,0-.374.189l.229.253a.147.147,0,0,1,.292.023.119.119,0,0,1,0,.029l.258-.264A.466.466,0,0,0,385.574,161.49Z" transform="translate(-378.979 -159.956)" fill="#cb955b"/>
      <path id="path130" d="M390.01,169.144l.014-.014H390Z" transform="translate(-383.397 -166.988)" fill="#cb955b"/>
      <path id="path132" d="M372.454,143.055a1.673,1.673,0,0,1,2.45.071l.224-.229a2,2,0,0,0-2.888-.08Z" transform="translate(-367.052 -142.237)" fill="#cb955b"/>
      <path id="path134" d="M377.432,148.36a1.507,1.507,0,0,0-1.079.455l.214.239a1.188,1.188,0,0,1,1.781.057l.223-.228A1.508,1.508,0,0,0,377.432,148.36Z" transform="translate(-370.837 -147.872)" fill="#cb955b"/>
    </g>
    <g id="freepik--Floor--inject-23" transform="translate(9.43 71.489)">
      <line id="line17" x2="38.521" transform="translate(0)" fill="none" stroke="#cb955b" stroke-linejoin="round" stroke-width="1"/>
    </g>
  </g>
</svg>
